<svg width="90" height="34" viewBox="0 0 90 34" fill="none" xmlns="http://www.w3.org/2000/svg">
<g clip-path="url(#clip0_4263_8240)">
<path fill-rule="evenodd" clip-rule="evenodd" d="M86.637 0L85.1445 7.79033L87.861 11.1671L90 0H86.637ZM72.5099 0L69.1465 17.561H72.5111L74.8163 5.52224L84.5333 17.561H86.637L87.0518 15.4112L74.6131 0H72.5099Z" fill="#F3652B"/>
<path fill-rule="evenodd" clip-rule="evenodd" d="M51.6563 0L48.293 17.561H65.7833L69.1466 0H51.6563ZM54.3884 3.31794H65.1392L63.0467 14.243H52.296L54.3884 3.31794Z" fill="#F3652B"/>
<path fill-rule="evenodd" clip-rule="evenodd" d="M45.0001 0L41.707 17.561H44.9994L48.2924 0H45.0001Z" fill="#F3652B"/>
<path fill-rule="evenodd" clip-rule="evenodd" d="M24.217 0L23.5814 3.31801H35.1962L21.3511 14.9756L20.8535 17.561H38.3437L38.9793 14.243H27.3646L41.2126 2.58289L41.7072 0H24.217Z" fill="#F3652B"/>
<path fill-rule="evenodd" clip-rule="evenodd" d="M18.2868 0L0.490892 14.9821L0 17.561H2.5639L16.349 5.96141L14.1271 17.561H17.4898L20.8537 0H18.2868Z" fill="#F3652B"/>
</g>
<path d="M42.6208 26.7337L42.5382 27.1927H40.4682L40.5554 26.7337H42.6208ZM41.5101 25.4624H42.0195L41.1704 30.4974C41.1612 30.5953 41.1566 30.7055 41.1566 30.8279C41.1566 30.9472 41.1811 31.0528 41.2301 31.1446C41.279 31.2333 41.3708 31.2792 41.5055 31.2823C41.5667 31.2853 41.6263 31.2838 41.6845 31.2777C41.7426 31.2685 41.8023 31.2593 41.8635 31.2501L41.8359 31.7183C41.7564 31.7397 41.6768 31.7566 41.5973 31.7688C41.5208 31.781 41.4458 31.7856 41.3724 31.7826C41.1368 31.7795 40.9654 31.7091 40.8583 31.5714C40.7543 31.4337 40.6915 31.2654 40.6701 31.0666C40.6487 30.8646 40.6487 30.6718 40.6701 30.4882L41.5101 25.4624ZM44.4705 31.7963C44.1523 31.7902 43.8891 31.7214 43.6811 31.5898C43.476 31.4582 43.3169 31.2853 43.2037 31.0711C43.0936 30.8539 43.0216 30.6137 42.988 30.3505C42.9574 30.0843 42.9574 29.8151 42.988 29.5427L43.0568 28.9736C43.0936 28.689 43.1624 28.4075 43.2634 28.1291C43.3674 27.8475 43.5021 27.5936 43.6673 27.3671C43.8356 27.1407 44.0437 26.9602 44.2915 26.8255C44.5394 26.6909 44.827 26.6297 45.1544 26.6419C45.4573 26.6511 45.7021 26.7215 45.8888 26.8531C46.0754 26.9847 46.2131 27.156 46.3019 27.3671C46.3937 27.5783 46.4472 27.8124 46.4625 28.0694C46.4809 28.3234 46.4732 28.5773 46.4396 28.8313L46.3845 29.2582H43.3185L43.4011 28.7808H45.9438L45.9668 28.6523C45.9943 28.4259 45.9928 28.1964 45.9622 27.9638C45.9347 27.7313 45.8551 27.5354 45.7235 27.3763C45.595 27.2141 45.3931 27.1269 45.1177 27.1147C44.8576 27.1055 44.6342 27.1545 44.4476 27.2616C44.264 27.3687 44.1125 27.5155 43.9932 27.7022C43.8738 27.8858 43.779 28.0893 43.7086 28.3126C43.6413 28.536 43.5938 28.7563 43.5663 28.9736L43.4929 29.5473C43.4715 29.7431 43.4669 29.9436 43.4791 30.1486C43.4944 30.3536 43.5372 30.5433 43.6076 30.7177C43.678 30.8921 43.7851 31.0344 43.9289 31.1446C44.0758 31.2517 44.2701 31.3083 44.5118 31.3144C44.7535 31.3236 44.9754 31.2807 45.1773 31.1859C45.3793 31.088 45.5675 30.9564 45.7419 30.7912L45.976 31.1354C45.8505 31.2853 45.7082 31.4108 45.5491 31.5118C45.39 31.6097 45.2187 31.6816 45.0351 31.7275C44.8545 31.7764 44.6663 31.7994 44.4705 31.7963ZM48.6151 31.3236C48.8599 31.3328 49.068 31.2869 49.2394 31.1859C49.4138 31.0849 49.5545 30.9457 49.6616 30.7682C49.7687 30.5907 49.8467 30.3903 49.8957 30.1669H50.3639C50.3149 30.4729 50.2124 30.7514 50.0563 31.0023C49.9003 31.2532 49.6983 31.4521 49.4505 31.599C49.2026 31.7428 48.9135 31.8101 48.583 31.8009C48.2587 31.7917 47.997 31.7198 47.7981 31.5852C47.5993 31.4475 47.4493 31.267 47.3483 31.0436C47.2504 30.8202 47.1908 30.5754 47.1693 30.3092C47.1479 30.04 47.1525 29.7692 47.1831 29.4968L47.2611 28.9415C47.2979 28.6446 47.3636 28.357 47.4585 28.0786C47.5564 27.8001 47.688 27.5507 47.8532 27.3304C48.0185 27.1101 48.2219 26.9372 48.4637 26.8118C48.7085 26.6863 49.0007 26.6297 49.3403 26.6419C49.68 26.6511 49.9493 26.7383 50.1481 26.9036C50.347 27.0688 50.4878 27.2861 50.5704 27.5553C50.653 27.8215 50.6852 28.1061 50.6668 28.409H50.1803C50.1956 28.1979 50.1803 27.9959 50.1344 27.8032C50.0885 27.6073 49.9997 27.4467 49.8682 27.3212C49.7396 27.1958 49.553 27.1285 49.3082 27.1193C49.0451 27.107 48.8217 27.1529 48.6381 27.257C48.4545 27.358 48.303 27.4987 48.1837 27.6792C48.0674 27.8567 47.9756 28.0556 47.9083 28.2759C47.841 28.4932 47.7936 28.715 47.766 28.9415L47.6926 29.5014C47.6681 29.6972 47.6559 29.9007 47.6559 30.1119C47.6589 30.3199 47.688 30.5142 47.7431 30.6948C47.7981 30.8753 47.8945 31.0237 48.0322 31.14C48.1699 31.2532 48.3642 31.3144 48.6151 31.3236ZM52.8791 24.65L51.6582 31.7H51.1487L52.3742 24.65H52.8791ZM52.03 28.9093L51.851 28.7946C51.8938 28.5559 51.9627 28.3096 52.0575 28.0556C52.1524 27.7986 52.2748 27.5614 52.4247 27.3442C52.5777 27.1269 52.7628 26.9541 52.9801 26.8255C53.1973 26.694 53.4498 26.6312 53.7374 26.6374C53.9914 26.6435 54.1933 26.7031 54.3433 26.8164C54.4932 26.9296 54.6018 27.0764 54.6691 27.257C54.7395 27.4345 54.7793 27.6288 54.7885 27.8399C54.8007 28.051 54.7977 28.2591 54.7793 28.4641L54.2331 31.7H53.7328L54.2698 28.4549C54.2912 28.2622 54.2943 28.0648 54.279 27.8628C54.2668 27.6578 54.2086 27.4849 54.1046 27.3442C54.0006 27.2004 53.8261 27.1254 53.5813 27.1193C53.3549 27.1132 53.153 27.1667 52.9755 27.2799C52.8011 27.3931 52.6496 27.5416 52.5211 27.7251C52.3956 27.9087 52.2916 28.1061 52.209 28.3172C52.1294 28.5253 52.0698 28.7227 52.03 28.9093ZM56.7208 27.794L56.0461 31.7H55.5366L56.3995 26.7337H56.8814L56.7208 27.794ZM56.4179 28.9093L56.2389 28.7946C56.2817 28.5559 56.3506 28.3096 56.4454 28.0556C56.5403 27.7986 56.6627 27.5614 56.8126 27.3442C56.9656 27.1269 57.1507 26.9541 57.368 26.8255C57.5852 26.694 57.8377 26.6312 58.1253 26.6374C58.3793 26.6435 58.5812 26.7031 58.7312 26.8164C58.8811 26.9296 58.9897 27.0764 59.057 27.257C59.1274 27.4345 59.1672 27.6288 59.1764 27.8399C59.1886 28.051 59.1855 28.2591 59.1672 28.4641L58.621 31.7H58.1207L58.6577 28.4549C58.6791 28.2622 58.6822 28.0648 58.6669 27.8628C58.6547 27.6578 58.5965 27.4849 58.4925 27.3442C58.3884 27.2004 58.214 27.1254 57.9692 27.1193C57.7428 27.1132 57.5409 27.1667 57.3634 27.2799C57.189 27.3931 57.0375 27.5416 56.909 27.7251C56.7835 27.9087 56.6795 28.1061 56.5969 28.3172C56.5173 28.5253 56.4576 28.7227 56.4179 28.9093ZM60.1494 29.4739L60.2137 28.9644C60.2534 28.6768 60.3238 28.3953 60.4248 28.1199C60.5258 27.8414 60.6619 27.589 60.8333 27.3625C61.0047 27.1331 61.2127 26.9525 61.4575 26.8209C61.7054 26.6894 61.9945 26.6282 62.325 26.6374C62.6402 26.6465 62.8972 26.723 63.0961 26.8668C63.295 27.0076 63.4449 27.1927 63.5459 27.4222C63.6499 27.6486 63.7157 27.8965 63.7433 28.1658C63.7739 28.432 63.7739 28.6967 63.7433 28.9598L63.679 29.4739C63.6392 29.7554 63.5688 30.0369 63.4679 30.3184C63.3669 30.5969 63.2292 30.8493 63.0548 31.0757C62.8834 31.3022 62.6738 31.4827 62.426 31.6173C62.1812 31.7489 61.8951 31.8101 61.5677 31.8009C61.2525 31.7917 60.9955 31.7153 60.7966 31.5714C60.5977 31.4246 60.4462 31.2379 60.3422 31.0115C60.2381 30.782 60.1724 30.5341 60.1448 30.2679C60.1173 30.0017 60.1188 29.737 60.1494 29.4739ZM60.7231 28.9598L60.6543 29.4831C60.6359 29.6667 60.6298 29.864 60.6359 30.0751C60.6451 30.2832 60.6803 30.4806 60.7415 30.6672C60.8027 30.8539 60.9021 31.0084 61.0398 31.1308C61.1775 31.2501 61.3657 31.3144 61.6044 31.3236C61.8614 31.3328 62.0833 31.2838 62.2699 31.1767C62.4566 31.0666 62.6111 30.9197 62.7335 30.7361C62.8559 30.5525 62.9523 30.3505 63.0227 30.1302C63.0961 29.9099 63.1451 29.6911 63.1695 29.4739L63.243 28.9552C63.2644 28.7716 63.269 28.5758 63.2567 28.3677C63.2476 28.1597 63.2124 27.9623 63.1512 27.7756C63.09 27.589 62.9905 27.4345 62.8528 27.3121C62.7151 27.1897 62.527 27.1239 62.2883 27.1147C62.0374 27.1055 61.8201 27.156 61.6365 27.2662C61.4529 27.3763 61.2984 27.5247 61.1729 27.7114C61.0475 27.895 60.948 28.0969 60.8746 28.3172C60.8012 28.5345 60.7507 28.7487 60.7231 28.9598ZM66.1896 24.65L64.9596 31.7H64.4639L65.6894 24.65H66.1896ZM66.5477 29.4739L66.6119 28.9644C66.6517 28.6768 66.7221 28.3953 66.823 28.1199C66.924 27.8414 67.0602 27.589 67.2315 27.3625C67.4029 27.1331 67.611 26.9525 67.8558 26.8209C68.1036 26.6894 68.3928 26.6282 68.7232 26.6374C69.0384 26.6465 69.2954 26.723 69.4943 26.8668C69.6932 27.0076 69.8432 27.1927 69.9441 27.4222C70.0482 27.6486 70.114 27.8965 70.1415 28.1658C70.1721 28.432 70.1721 28.6967 70.1415 28.9598L70.0772 29.4739C70.0375 29.7554 69.9671 30.0369 69.8661 30.3184C69.7651 30.5969 69.6274 30.8493 69.453 31.0757C69.2817 31.3022 69.0721 31.4827 68.8242 31.6173C68.5794 31.7489 68.2933 31.8101 67.9659 31.8009C67.6507 31.7917 67.3937 31.7153 67.1948 31.5714C66.9959 31.4246 66.8445 31.2379 66.7404 31.0115C66.6364 30.782 66.5706 30.5341 66.5431 30.2679C66.5155 30.0017 66.5171 29.737 66.5477 29.4739ZM67.1214 28.9598L67.0525 29.4831C67.0342 29.6667 67.0281 29.864 67.0342 30.0751C67.0434 30.2832 67.0785 30.4806 67.1397 30.6672C67.2009 30.8539 67.3004 31.0084 67.4381 31.1308C67.5758 31.2501 67.764 31.3144 68.0026 31.3236C68.2597 31.3328 68.4815 31.2838 68.6682 31.1767C68.8548 31.0666 69.0093 30.9197 69.1317 30.7361C69.2541 30.5525 69.3505 30.3505 69.4209 30.1302C69.4943 29.9099 69.5433 29.6911 69.5678 29.4739L69.6412 28.9552C69.6626 28.7716 69.6672 28.5758 69.655 28.3677C69.6458 28.1597 69.6106 27.9623 69.5494 27.7756C69.4882 27.589 69.3888 27.4345 69.2511 27.3121C69.1134 27.1897 68.9252 27.1239 68.6865 27.1147C68.4356 27.1055 68.2184 27.156 68.0348 27.2662C67.8512 27.3763 67.6966 27.5247 67.5712 27.7114C67.4457 27.895 67.3463 28.0969 67.2729 28.3172C67.1994 28.5345 67.1489 28.7487 67.1214 28.9598ZM71.2522 28.3815L71.2568 28.2805C71.2874 27.9745 71.3808 27.6976 71.5368 27.4498C71.6959 27.1988 71.8994 27 72.1473 26.8531C72.3982 26.7031 72.6827 26.6328 73.001 26.6419C73.3008 26.6481 73.5533 26.7246 73.7583 26.8714C73.9633 27.0183 74.1148 27.2096 74.2127 27.4452C74.3106 27.6808 74.3504 27.9424 74.332 28.23L74.3228 28.3356C74.3014 28.559 74.2418 28.767 74.1438 28.9598C74.0459 29.1526 73.9189 29.3224 73.7629 29.4693C73.6068 29.6131 73.4278 29.7248 73.2259 29.8043C73.027 29.8808 72.8143 29.9176 72.5879 29.9145C72.3064 29.9053 72.0616 29.8319 71.8535 29.6942C71.6454 29.5534 71.4879 29.3683 71.3808 29.1388C71.2767 28.9093 71.2339 28.6569 71.2522 28.3815ZM71.7709 28.2805L71.7617 28.3815C71.7495 28.562 71.7755 28.7319 71.8397 28.891C71.904 29.047 72.0019 29.1755 72.1335 29.2765C72.2681 29.3775 72.4303 29.4295 72.62 29.4326C72.8281 29.4387 73.0178 29.3913 73.1892 29.2903C73.3605 29.1862 73.5013 29.0501 73.6114 28.8818C73.7246 28.7135 73.795 28.5299 73.8226 28.331L73.8317 28.2346C73.844 28.048 73.8195 27.8705 73.7583 27.7022C73.7002 27.5339 73.6053 27.3962 73.4737 27.2891C73.3422 27.179 73.1739 27.1223 72.9688 27.1193C72.7516 27.1132 72.5573 27.1652 72.3859 27.2753C72.2146 27.3824 72.0754 27.5263 71.9683 27.7068C71.8612 27.8843 71.7954 28.0755 71.7709 28.2805ZM71.8581 29.4922L72.1105 29.7493C71.9943 29.8288 71.8902 29.9267 71.7984 30.043C71.7097 30.1593 71.6592 30.2909 71.647 30.4377C71.6347 30.5265 71.6409 30.5999 71.6653 30.6581C71.6898 30.7131 71.7296 30.756 71.7847 30.7866C71.8397 30.8172 71.9086 30.834 71.9912 30.8371L72.6613 30.8462C72.9275 30.8554 73.1601 30.909 73.359 31.0069C73.5609 31.1017 73.7139 31.244 73.818 31.4337C73.922 31.6204 73.9664 31.8529 73.9511 32.1314C73.9297 32.3915 73.8501 32.6194 73.7124 32.8153C73.5747 33.0111 73.3988 33.1764 73.1846 33.311C72.9734 33.4487 72.747 33.5497 72.5053 33.6139C72.2635 33.6812 72.0279 33.7134 71.7984 33.7103C71.6118 33.7072 71.4267 33.6797 71.2431 33.6277C71.0625 33.5787 70.9004 33.5038 70.7565 33.4028C70.6127 33.3018 70.501 33.1733 70.4215 33.0172C70.3419 32.8612 70.3098 32.6761 70.3251 32.4619C70.3373 32.2018 70.4047 31.9708 70.527 31.7688C70.6494 31.5668 70.8101 31.397 71.009 31.2593C71.2079 31.1216 71.4267 31.0191 71.6653 30.9518L71.7801 31.2777C71.6118 31.3144 71.4603 31.3878 71.3257 31.498C71.191 31.6082 71.0824 31.7397 70.9998 31.8927C70.9172 32.0457 70.8682 32.2064 70.8529 32.3747C70.8376 32.5277 70.8545 32.6577 70.9034 32.7648C70.9524 32.875 71.0243 32.9637 71.1191 33.031C71.214 33.1014 71.3226 33.1534 71.445 33.1871C71.5674 33.2238 71.6959 33.2421 71.8306 33.2421C71.9958 33.2452 72.1672 33.2238 72.3446 33.1779C72.5252 33.132 72.695 33.0616 72.8541 32.9667C73.0132 32.875 73.1463 32.7587 73.2534 32.6179C73.3605 32.4802 73.4263 32.3181 73.4508 32.1314C73.4691 31.9478 73.4477 31.7979 73.3865 31.6816C73.3253 31.5623 73.2305 31.4735 73.102 31.4154C72.9734 31.3572 72.8235 31.3251 72.6521 31.319L71.904 31.3098C71.7571 31.3068 71.6271 31.2762 71.5139 31.218C71.4006 31.1599 71.3119 31.0773 71.2477 30.9702C71.1865 30.8631 71.1589 30.73 71.165 30.5708C71.1712 30.4117 71.2048 30.2679 71.266 30.1394C71.3303 30.0078 71.4129 29.8885 71.5139 29.7814C71.6179 29.6743 71.7326 29.5779 71.8581 29.4922ZM74.892 26.7337L74.8231 27.1973H73.4783L73.5059 26.7337H74.892ZM76.4479 26.7337L75.5805 31.7H75.0848L75.9477 26.7337H76.4479ZM76.1129 25.3017C76.1221 25.1916 76.1573 25.1074 76.2185 25.0493C76.2827 24.9881 76.3653 24.9452 76.4663 24.9208C76.5673 24.9391 76.6453 24.9789 76.7004 25.0401C76.7585 25.0982 76.7845 25.1854 76.7784 25.3017C76.7662 25.4119 76.7295 25.496 76.6683 25.5542C76.6071 25.6123 76.526 25.6521 76.425 25.6735C76.324 25.6551 76.2445 25.6169 76.1863 25.5587C76.1312 25.5006 76.1068 25.4149 76.1129 25.3017ZM78.5914 31.7963C78.2732 31.7902 78.01 31.7214 77.802 31.5898C77.5969 31.4582 77.4378 31.2853 77.3246 31.0711C77.2145 30.8539 77.1425 30.6137 77.1089 30.3505C77.0783 30.0843 77.0783 29.8151 77.1089 29.5427L77.1777 28.9736C77.2145 28.689 77.2833 28.4075 77.3843 28.1291C77.4883 27.8475 77.6229 27.5936 77.7882 27.3671C77.9565 27.1407 78.1645 26.9602 78.4124 26.8255C78.6603 26.6909 78.9479 26.6297 79.2753 26.6419C79.5782 26.6511 79.823 26.7215 80.0097 26.8531C80.1963 26.9847 80.334 27.156 80.4228 27.3671C80.5145 27.5783 80.5681 27.8124 80.5834 28.0694C80.6018 28.3234 80.5941 28.5773 80.5604 28.8313L80.5054 29.2582H77.4394L77.522 28.7808H80.0647L80.0877 28.6523C80.1152 28.4259 80.1137 28.1964 80.0831 27.9638C80.0556 27.7313 79.976 27.5354 79.8444 27.3763C79.7159 27.2141 79.514 27.1269 79.2386 27.1147C78.9785 27.1055 78.7551 27.1545 78.5685 27.2616C78.3849 27.3687 78.2334 27.5155 78.1141 27.7022C77.9947 27.8858 77.8999 28.0893 77.8295 28.3126C77.7622 28.536 77.7147 28.7563 77.6872 28.9736L77.6138 29.5473C77.5923 29.7431 77.5878 29.9436 77.6 30.1486C77.6153 30.3536 77.6581 30.5433 77.7285 30.7177C77.7989 30.8921 77.906 31.0344 78.0498 31.1446C78.1967 31.2517 78.391 31.3083 78.6327 31.3144C78.8744 31.3236 79.0963 31.2807 79.2982 31.1859C79.5002 31.088 79.6884 30.9564 79.8628 30.7912L80.0969 31.1354C79.9714 31.2853 79.8291 31.4108 79.67 31.5118C79.5109 31.6097 79.3395 31.6816 79.156 31.7275C78.9754 31.7764 78.7872 31.7994 78.5914 31.7963ZM83.755 30.4423C83.7795 30.2618 83.7458 30.1088 83.654 29.9833C83.5622 29.8548 83.4444 29.7447 83.3006 29.6529C83.1568 29.5611 83.0175 29.48 82.8829 29.4096C82.733 29.3301 82.5861 29.2474 82.4423 29.1618C82.3015 29.0761 82.1745 28.9797 82.0613 28.8726C81.9481 28.7655 81.8594 28.6416 81.7951 28.5008C81.7309 28.3601 81.7048 28.1933 81.7171 28.0005C81.7324 27.7925 81.7844 27.6043 81.8731 27.436C81.9649 27.2646 82.0843 27.1193 82.2312 27C82.378 26.8806 82.5433 26.7903 82.7269 26.7292C82.9135 26.668 83.1093 26.6389 83.3144 26.6419C83.602 26.6481 83.8483 26.7123 84.0533 26.8347C84.2583 26.9571 84.4113 27.1269 84.5123 27.3442C84.6133 27.5614 84.6531 27.8108 84.6316 28.0923H84.1405C84.1497 27.9087 84.1222 27.745 84.0579 27.6012C83.9967 27.4543 83.9003 27.3396 83.7687 27.257C83.6372 27.1713 83.4765 27.1269 83.2868 27.1239C83.1093 27.1208 82.9426 27.1529 82.7865 27.2203C82.6335 27.2876 82.505 27.3855 82.401 27.514C82.3 27.6425 82.2388 27.7986 82.2174 27.9822C82.2021 28.1107 82.2174 28.2239 82.2633 28.3218C82.3122 28.4197 82.3796 28.5054 82.4652 28.5789C82.554 28.6523 82.6504 28.7196 82.7544 28.7808C82.8584 28.8389 82.9594 28.8925 83.0573 28.9415C83.2593 29.0516 83.4551 29.1694 83.6448 29.2949C83.8376 29.4173 83.9921 29.5672 84.1084 29.7447C84.2247 29.9191 84.2752 30.1409 84.2599 30.4102C84.2446 30.6336 84.1895 30.8325 84.0946 31.0069C83.9998 31.1782 83.8758 31.3236 83.7228 31.4429C83.5699 31.5623 83.3954 31.651 83.1996 31.7091C83.0068 31.7673 82.8034 31.7948 82.5892 31.7917C82.3046 31.7856 82.0506 31.7229 81.8272 31.6036C81.6069 31.4842 81.4371 31.3175 81.3178 31.1033C81.2015 30.8891 81.1541 30.6351 81.1755 30.3414L81.6804 30.3459C81.6742 30.5479 81.7048 30.7208 81.7722 30.8646C81.8425 31.0084 81.9496 31.1186 82.0935 31.1951C82.2373 31.2716 82.4117 31.3113 82.6167 31.3144C82.7972 31.3144 82.9701 31.2823 83.1353 31.218C83.3036 31.1538 83.4429 31.0574 83.553 30.9289C83.6662 30.7973 83.7336 30.6351 83.755 30.4423Z" fill="#EDEDED"/>
<defs>
<clipPath id="clip0_4263_8240">
<rect width="90" height="18" fill="white"/>
</clipPath>
</defs>
</svg>
