<svg width="14" height="14" fill="currentColor">
  <path d="M11.086 1.611c.547 0 1.082.115 1.457.522.364.395.458.94.458 1.494v6.745c0 .555-.094 1.1-.458 1.494-.375.408-.91.522-1.457.522H2.914c-.548 0-1.083-.114-1.458-.522-.363-.395-.458-.94-.458-1.494V3.627c0-.555.094-1.1.458-1.494.375-.407.91-.522 1.458-.522h8.172Zm-8.918 8.761c0 .465.088.637.148.702.05.053.181.144.598.144h8.172c.416 0 .548-.09.597-.144.06-.065.148-.237.148-.702V5.368H2.168v5.004Zm1.099-4.047a.586.586 0 0 1 .825.06l1.336 1.55a.585.585 0 0 1 0 .763l-1.336 1.55a.586.586 0 0 1-.886-.766l1.005-1.166L3.206 7.15a.586.586 0 0 1 .06-.825Zm5.403 2.8a.585.585 0 0 1 0 1.17H6.775a.585.585 0 0 1 0-1.17H8.67ZM2.914 2.781c-.417 0-.549.092-.598.145-.06.065-.148.237-.148.7v.571h9.663v-.57c0-.465-.088-.636-.148-.701-.05-.053-.181-.145-.597-.145H2.914Z"/>
</svg>
