<svg width="14" height="14" fill="currentColor">
  <path d="M8.764 1.112c.553 0 1.002.45 1.002 1.002v1.287h2.554c.553 0 1.002.45 1.002 1.002v7.484a1 1 0 0 1-1.002 1H1.68a1.002 1.002 0 0 1-1.001-1V4.403c0-.553.448-1.002 1.002-1.002h2.79V2.114c0-.553.45-1.002 1.003-1.002h3.29ZM1.849 11.718h10.303V8.115H10.6v1.082c0 .553-.45 1.002-1.002 1.002h-5a1.002 1.002 0 0 1-1.001-1.002V8.115H1.849v3.603Zm2.917-2.689h4.663v-.914H4.766v.914ZM1.849 6.945h10.303V4.571H1.85v2.374Zm3.793-3.544h2.954V2.282H5.642v1.12Z"/>
</svg>
