<svg width="14" height="14" fill="currentColor">
  <path d="M8.284 2.419a.585.585 0 0 1 0 1.17H2.286v.813h4.465a.585.585 0 0 1 0 1.17H2.286v4.962h9.291V7.512h1.17v3.066c0 .621-.505 1.127-1.126 1.127H2.242a1.127 1.127 0 0 1-1.126-1.127V3.545c0-.622.504-1.126 1.126-1.126h6.042Zm2.29.42a1.384 1.384 0 1 1 2.188 1.693l-2.728 3.487a.768.768 0 0 1-.277.22l-1.494.704a.585.585 0 0 1-.827-.627l.269-1.58.021-.09a.767.767 0 0 1 .125-.246l2.723-3.56Zm1.23.673a.213.213 0 0 0-.3.038L8.84 7.032l-.064.375.395-.186 2.669-3.41a.213.213 0 0 0-.036-.299Z"/>
</svg>
