<svg width="15" height="14" fill="currentColor">
  <path d="M10.36 5.955a7.15 7.15 0 0 1 2.382.429 7.179 7.179 0 0 1 .906.395l.055.032.016.008.006.003.002.002-.294.5.295-.5a.581.581 0 0 1 .285.5v5.127a.58.58 0 0 1-.285.5l-.295-.5.294.5h-.001l-.001.001-.006.003-.016.01-.055.03a7.134 7.134 0 0 1-.905.396 7.152 7.152 0 0 1-2.383.428 7.16 7.16 0 0 1-2.382-.427 7.141 7.141 0 0 1-.96-.427L7 12.955a.126.126 0 0 1-.005-.003h-.002v-.002h-.002a.581.581 0 0 1-.285-.499V7.324c0-.205.109-.396.285-.5l.295.5-.294-.5.003-.002c.002 0 .003-.002.005-.003l.017-.008c.013-.008.031-.02.054-.032a7.183 7.183 0 0 1 .905-.396 7.157 7.157 0 0 1 2.383-.428Zm2.382 5.268a7.158 7.158 0 0 1-2.382.427 7.16 7.16 0 0 1-2.382-.427c-.038-.014-.075-.03-.11-.044v.914a6 6 0 0 0 2.493.566 5.993 5.993 0 0 0 2.492-.566v-.914c-.036.013-.073.03-.11.044ZM6.381 0c2.042 0 3.86.96 5.027 2.451a.58.58 0 1 1-.913.715 5.223 5.223 0 0 0-2.886-1.86c.457.67.837 1.3 1.14 1.902a1.1 1.1 0 1 1-1.14 1.645H5.14a1.099 1.099 0 0 1-.7.508 4.559 4.559 0 0 0-.003 2.01 1.1 1.1 0 1 1-1.144 1.701H1.905A5.243 5.243 0 0 0 4.361 11.2a.58.58 0 0 1-.448 1.07 6.403 6.403 0 0 1-3.48-3.566 6.426 6.426 0 0 1 0-4.641A6.385 6.385 0 0 1 6.382 0Zm6.361 9.053a7.151 7.151 0 0 1-2.382.428 7.157 7.157 0 0 1-2.382-.428l-.11-.043v.914a5.997 5.997 0 0 0 2.493.566 5.994 5.994 0 0 0 2.492-.566V9.01c-.036.013-.073.03-.11.043ZM10.36 7.115a6 6 0 0 0-1.992.36 6.103 6.103 0 0 0-.5.206v.074a6 6 0 0 0 2.493.566 5.995 5.995 0 0 0 2.492-.566V7.68c-.13-.06-.3-.133-.501-.205a5.996 5.996 0 0 0-1.992-.36ZM1.389 4.853a5.281 5.281 0 0 0 0 3.06H3.23a.976.976 0 0 1 .104-.155 5.737 5.737 0 0 1 .005-2.776 1.1 1.1 0 0 1-.09-.13H1.387Zm3.765-3.548a5.23 5.23 0 0 0-3.247 2.387h1.367a1.1 1.1 0 0 1 .739-.486c.303-.604.686-1.232 1.141-1.901Zm1.227.265c-.542.768-.97 1.452-1.292 2.081.01.014.02.027.028.041h2.517c.011-.017.022-.035.034-.051-.322-.628-.749-1.308-1.287-2.07Z"/>
</svg>
