<svg width="14" height="14" fill="currentColor">
  <path d="M5.025 2.139a.456.456 0 0 0-.911 0v.76h-.152c-.587 0-1.064.476-1.064 1.063v.152h-.76a.456.456 0 0 0 0 .911h.76v1.52h-.76a.456.456 0 0 0 0 .91h.76v1.52h-.76a.456.456 0 0 0 0 .911h.76v.152c0 .588.477 1.064 1.064 1.064h.152v.76a.456.456 0 1 0 .911 0v-.76h1.52v.76a.456.456 0 0 0 .91 0v-.76h1.52v.76a.456.456 0 0 0 .911 0v-.76h.152c.588 0 1.064-.476 1.064-1.064v-.152h.76a.456.456 0 0 0 0-.911h-.76v-1.52h.76a.456.456 0 0 0 0-.91h-.76v-1.52h.76a.456.456 0 0 0 0-.911h-.76v-.152c0-.587-.476-1.064-1.064-1.064h-.152v-.76a.456.456 0 0 0-.911 0v.76h-1.52v-.76a.456.456 0 0 0-.91 0v.76h-1.52v-.76ZM3.81 3.962c0-.084.068-.152.152-.152h6.076c.084 0 .152.068.152.152v6.076a.152.152 0 0 1-.152.152H3.962a.152.152 0 0 1-.152-.152V3.962Zm3.068 4.71-.168-.468H5.48l-.167.469a.456.456 0 1 1-.859-.306l1.033-2.899.002-.005.002-.006a.652.652 0 0 1 .605-.433c.29 0 .512.194.604.433l.002.006.002.005 1.033 2.899a.456.456 0 0 1-.858.306Zm-.783-2.196.29.816h-.581l.29-.816Zm2.272-.996a.456.456 0 0 1 .912 0v3.04a.456.456 0 1 1-.912 0V5.48Z"/>
</svg>
