<svg width="14" height="14" fill="currentColor">
  <path d="M3.282.014a.567.567 0 0 1 .246 1.107 1.608 1.608 0 0 0-1.257 1.57v1.813c0 .713-.27 1.4-.753 1.925l-.213.23.397.53c.368.491.568 1.089.569 1.703v1.66c0 .754.522 1.405 1.257 1.569a.568.568 0 0 1-.246 1.108 2.743 2.743 0 0 1-2.147-2.676V8.892c0-.369-.12-.727-.341-1.022l-.68-.908a.568.568 0 0 1 .036-.726l.534-.577c.29-.314.45-.727.45-1.155V2.69A2.745 2.745 0 0 1 3.283.014Zm7.436 0a2.743 2.743 0 0 1 2.147 2.676v1.661c0 .369.12.727.341 1.022l.68.908a.568.568 0 0 1-.036.726l-.534.577c-.29.314-.45.727-.45 1.155v1.814a2.742 2.742 0 0 1-2.148 2.676.567.567 0 1 1-.246-1.107 1.607 1.607 0 0 0 1.258-1.57V8.74c0-.713.269-1.4.752-1.925l.213-.23-.397-.53a2.837 2.837 0 0 1-.569-1.703v-1.66c0-.754-.522-1.406-1.257-1.569a.568.568 0 0 1 .246-1.108Zm-4.475 4.63a1.688 1.688 0 0 1 2.28-1.58.567.567 0 0 1-.398 1.062.553.553 0 0 0-.747.517v.844h.758a.568.568 0 0 1 0 1.135h-.758v3.595a.568.568 0 0 1-1.135 0V6.622h-.378a.568.568 0 0 1 0-1.135h.378v-.844Z"/>
</svg>
