<svg width="14" height="14" fill="currentColor">
  <path d="M5.394 8.187c.323 0 .585.262.585.585v4.371a.585.585 0 0 1-1.17 0v-2.96l-3.373 3.373a.585.585 0 0 1-.827-.827l3.372-3.372H1.023a.585.585 0 0 1 0-1.17h4.371Zm5.382-.55a1.57 1.57 0 0 1 .23 3.125c1.303.04 2.071.407 2.483.936.212.273.299.552.33.766a1.499 1.499 0 0 1 .005.386l-.002.012-.001.005v.003l-.577-.098.576.1a.585.585 0 0 1-1.152-.199l-.001.001v.002l-.001.004v.005l-.001.007v-.003c0-.01 0-.03-.004-.057a.453.453 0 0 0-.095-.214c-.12-.155-.523-.49-1.794-.49-1.272 0-1.674.335-1.795.49a.454.454 0 0 0-.098.271v-.004l-.001-.005-.001-.004v-.003h-.001a.584.584 0 0 1-1.153.199l.576-.1-.576.098v-.003l-.002-.005-.002-.012a.984.984 0 0 1-.01-.118 1.624 1.624 0 0 1 .345-1.034c.413-.53 1.184-.898 2.492-.936a1.571 1.571 0 0 1 .23-3.125Zm0 1.17a.403.403 0 1 0 .001.806.403.403 0 0 0-.001-.806ZM5.121.272c.323 0 .585.262.585.585v4.371a.585.585 0 0 1-.585.585H.75a.585.585 0 0 1 0-1.17h2.959L.336 1.271a.586.586 0 0 1 .828-.828l3.372 3.372V.857c0-.323.262-.585.585-.585Zm7.512.17a.586.586 0 0 1 .828.829l-3.373 3.372h2.959a.585.585 0 0 1 0 1.17H8.675a.586.586 0 0 1-.585-.585V.857a.586.586 0 0 1 1.17 0v2.959L12.633.443Z"/>
</svg>
