<svg width="14" height="14" fill="currentColor">
  <path d="M2.349 2.428a.394.394 0 0 1 .409.154c.045.064.07.139.072.216a.398.398 0 0 1-.104.267 5.672 5.672 0 0 0 0 7.827.393.393 0 0 1 .011.589.395.395 0 0 1-.465.046.394.394 0 0 1-.12-.114 6.45 6.45 0 0 1 0-8.87.393.393 0 0 1 .197-.115Zm9.074.015a.394.394 0 0 1 .426.1 6.449 6.449 0 0 1 0 8.87.394.394 0 0 1-.586.068.393.393 0 0 1 .011-.59 5.673 5.673 0 0 0 0-7.826.398.398 0 0 1-.104-.267.391.391 0 0 1 .253-.355ZM3.87 3.789a.397.397 0 0 1 .284.095.413.413 0 0 1 .13.297.376.376 0 0 1-.098.256 3.779 3.779 0 0 0 0 5.04.391.391 0 0 1-.032.554.398.398 0 0 1-.553-.037 4.54 4.54 0 0 1 0-6.074.398.398 0 0 1 .27-.13Zm6.258 0c.103.007.2.054.27.131a4.54 4.54 0 0 1 0 6.074.397.397 0 0 1-.554.037.393.393 0 0 1-.032-.553 3.778 3.778 0 0 0 0-5.041.376.376 0 0 1-.098-.256.414.414 0 0 1 .13-.297.397.397 0 0 1 .284-.095Zm-4.65 1.433c.05.013.096.035.137.065a.398.398 0 0 1 .08.548 1.875 1.875 0 0 0 0 2.27.392.392 0 0 1-.08.548.386.386 0 0 1-.548-.079 2.641 2.641 0 0 1 0-3.208.393.393 0 0 1 .41-.144Zm3.195-.009a.391.391 0 0 1 .258.153 2.641 2.641 0 0 1 0 3.209.389.389 0 0 1-.663-.06.392.392 0 0 1-.042-.175.407.407 0 0 1 .079-.234 1.875 1.875 0 0 0 0-2.27.398.398 0 0 1-.074-.29.398.398 0 0 1 .152-.259.392.392 0 0 1 .29-.074Zm-1.67 1.368a.392.392 0 0 1 0 .784L7 7.364h-.005a.392.392 0 0 1 0-.783h.01Z"/>
</svg>
