<svg width="14" height="14" fill="currentColor">
  <path d="M12 6.4a.6.6 0 0 1 .6.6v2.4a2.2 2.2 0 0 1-2.2 2.2H2.22l1.57 1.345a.6.6 0 0 1-.781.91l-2.8-2.4-.03-.028-.006-.006a.603.603 0 0 1-.111-.16l-.012-.022a.595.595 0 0 1-.049-.23L0 10.998l.001-.003L0 10.98a.603.603 0 0 1 .012-.09l.004-.02c.004-.018.01-.034.015-.051a.585.585 0 0 1 .097-.185c.012-.016.024-.032.038-.047l.017-.016c.018-.018.036-.036.056-.05l2.8-2.102a.601.601 0 0 1 .72.961L2.4 10.4h8a1 1 0 0 0 1-1V7a.6.6 0 0 1 .6-.6ZM10.146.21a.6.6 0 0 1 .845-.065l2.8 2.4.03.028.006.007a.6.6 0 0 1 .111.16l.012.021a.599.599 0 0 1 .049.23l.001.01-.001.003.001.016a.598.598 0 0 1-.016.11c-.004.018-.01.034-.015.051a.598.598 0 0 1-.097.185c-.012.016-.024.032-.038.047a.619.619 0 0 1-.017.016.537.537 0 0 1-.056.051l-2.8 2.1a.601.601 0 0 1-.72-.96L11.6 3.6h-8a1 1 0 0 0-1 1V7a.6.6 0 0 1-1.2 0V4.6a2.2 2.2 0 0 1 2.2-2.2h8.18l-1.57-1.345a.6.6 0 0 1-.065-.845Z"/>
</svg>
