<svg width="14" height="14" fill="currentColor">
  <path d="M11.957 1s1.715 1.447 2.042 3.402H14l-2.25.779c-.073 1.36-.685 5.032-.86 5.365-.187.355-1.175 1.369-1.949 1.759a4.87 4.87 0 0 1-.45-.557c-.217.256-1.338 1.151-1.491 1.151-.153 0-1.274-.895-1.491-1.151a4.87 4.87 0 0 1-.45.557c-.774-.39-1.762-1.404-1.949-1.76-.175-.332-.786-4.004-.86-5.364L0 4.402C.326 2.456 2.025 1.013 2.041 1v2.154l1.018.263.637-.768.337.663C4.728 3.123 5.683 3 7 3c1.315 0 2.271.122 2.966.31l.337-.662.638.768 1.017-.263V1ZM8.503 6.306l.196 2.617c-.469.119-.962.237-1.699.237-.737 0-1.23-.118-1.7-.237l.196-2.617-2.523-.874.26 2.102 1.523.136-.134 1.867s.926.767 2.377.767c1.451 0 2.378-.767 2.378-.767L9.243 7.67l1.523-.136.26-2.102-2.523.874Z"/>
</svg>
