<svg width="15" height="14" fill="currentColor">
  <path d="M3.649 4.908a.58.58 0 0 1 0 1.16H2.236L1.7 8.88h2.746c.159 0 .314.036.456.103l.138.077.276.17a4.314 4.314 0 0 0 4.51-.17c.174-.116.379-.18.591-.18h2.747l-.536-2.812h-1.98a.58.58 0 0 1 0-1.16h2.46l.102.008a.58.58 0 0 1 .468.463l.757 3.973c.006.036.01.072.01.108v3.217c0 .32-.26.58-.58.58H1a.58.58 0 0 1-.58-.58V9.46c0-.036.004-.072.01-.108l.757-3.973a.58.58 0 0 1 .57-.471h1.892Zm-2.069 7.19h11.705V10.04h-2.839a5.474 5.474 0 0 1-6.027 0H1.58v2.057ZM6.462.767a2.354 2.354 0 0 1 2.201 2.495 2.368 2.368 0 0 1-.392 1.171l.819.934.65.739.52.593a.58.58 0 0 1-.87.765l-.133-.152-.337.304a.58.58 0 0 1-.775-.865l.345-.31-.271-.308-.808-.92a2.318 2.318 0 0 1-1.226.27 2.355 2.355 0 0 1-2.202-2.496A2.355 2.355 0 0 1 6.462.768Zm-.067 1.157A1.195 1.195 0 0 0 5.14 3.056a1.195 1.195 0 0 0 1.112 1.27c.328.02.634-.1.862-.309.223-.204.37-.492.39-.821a1.194 1.194 0 0 0-1.11-1.27Z"/>
</svg>
