<svg width="14" height="14" fill="currentColor">
  <path d="M3.872 8.877c.5.598 1.191.789 1.908.895 1.107.166 2.194.104 3.222-.395.118-.057.226-.134.354-.21.097.276.122.554.088.838-.081.691-.43 1.225-.984 1.63-.222.161-.456.307-.686.46-.702.469-.893 1.019-.628 1.82L7.17 14a1.843 1.843 0 0 1-.82-.693 1.925 1.925 0 0 1-.318-1.059c-.002-.186-.002-.374-.028-.558-.062-.449-.275-.65-.677-.662a.792.792 0 0 0-.826.636l-.025.096c-.691-.625-.893-1.934-.605-2.883ZM8.528 0c.21 0 .366.166.458.424l3.217 8.744c-.028-.017-1.561-.919-3.786-.919L6.988 3.837c-.053-.214-.21-.358-.386-.358-.177 0-.333.144-.386.358l-1.43 4.412c-1.887 0-3.77.91-3.786.919L4.218.424C4.316.166 4.465 0 4.675 0h3.853Z"/>
</svg>
