<svg width="14" height="14" fill="currentColor">
  <path d="M11.147 9.785a1.225 1.225 0 0 1 0 2.45h-.324v.952a.443.443 0 0 1-.884 0v-1.295a.418.418 0 0 1-.008-.074v-1.616c0-.23.187-.417.417-.417h.8Zm2.26.012c.244 0 .442.199.442.443v2.947a.443.443 0 0 1-.884 0V10.24c0-.244.198-.443.442-.443Zm-5.672 0c.282 0 .496.189.586.42l.002.006.002.005 1.002 2.81a.442.442 0 0 1-.833.297l-.161-.455H7.138l-.162.455a.443.443 0 0 1-.833-.296l1.002-2.811.002-.005.002-.006a.633.633 0 0 1 .586-.42ZM5.692 1.045a1.627 1.627 0 0 1 2.577 0l.66.857c.1.128.26.195.42.174l1.072-.139a1.627 1.627 0 0 1 1.823 1.822l-.139 1.073c-.02.16.045.32.174.42l.856.66a1.627 1.627 0 0 1 0 2.577l-.13.1a.585.585 0 1 1-.713-.927l.13-.1a.457.457 0 0 0 0-.724l-.857-.66a1.627 1.627 0 0 1-.62-1.497l.139-1.072a.457.457 0 0 0-.512-.512L9.5 3.236a1.626 1.626 0 0 1-1.497-.62l-.66-.857a.457.457 0 0 0-.724 0l-.66.857a1.626 1.626 0 0 1-1.497.62l-1.073-.139a.457.457 0 0 0-.511.512l.138 1.072a1.626 1.626 0 0 1-.62 1.497l-.856.66a.457.457 0 0 0 0 .724l.856.66c.458.353.695.923.62 1.497l-.138 1.072a.457.457 0 0 0 .511.512l.162-.021.752-.097a.585.585 0 1 1 .15 1.16l-.751.097-.162.021a1.627 1.627 0 0 1-1.823-1.822l.14-1.072a.457.457 0 0 0-.175-.42l-.856-.66a1.627 1.627 0 0 1 0-2.577l.856-.66a.457.457 0 0 0 .174-.42l-.139-1.073A1.627 1.627 0 0 1 3.54 1.937l1.072.139c.16.02.32-.046.42-.174l.66-.857Zm1.76 10.952h.565l-.282-.791-.282.79Zm3.37-.596h.325a.392.392 0 0 0 0-.782h-.324v.782ZM6.98 5.189a1.976 1.976 0 1 1 0 3.953 1.976 1.976 0 0 1 0-3.953Zm0 1.17a.806.806 0 1 0 0 1.612.806.806 0 0 0 0-1.612Z"/>
</svg>
