<svg width="14" height="14" fill="currentColor">
  <path d="M5.83 1.034a.583.583 0 0 1 0 1.166H1.36a.194.194 0 0 0-.194.194v7.771c0 .108.087.195.194.195h10.881a.195.195 0 0 0 .194-.194V7.833a.583.583 0 0 1 1.167 0v2.332c0 .75-.61 1.36-1.36 1.36H7.383v.972H9.52a.583.583 0 0 1 0 1.166H4.08a.584.584 0 0 1 0-1.166h2.137v-.972H1.36A1.36 1.36 0 0 1 0 10.166V2.393c0-.751.61-1.36 1.36-1.36h4.47Zm5.288-.99a1.361 1.361 0 0 1 1.559.713l.21.428c.016.03.038.055.066.074l.451.307a1.36 1.36 0 0 1 .492 1.648l-.196.47a.197.197 0 0 0-.013.098l.065.54a1.36 1.36 0 0 1-1.01 1.482l-.538.138a.196.196 0 0 0-.082.044l-.72.647a1.36 1.36 0 0 1-1.819 0l-.72-.647a.195.195 0 0 0-.082-.044l-.454-.117a1.36 1.36 0 0 1-.983-1.638l.093-.38a.196.196 0 0 0-.019-.141l-.176-.315a1.36 1.36 0 0 1 .5-1.833l.284-.167a.195.195 0 0 0 .09-.115l.062-.227A1.36 1.36 0 0 1 9.792.047l.646.149a.19.19 0 0 0 .092-.001l.588-.152Zm.291 1.128-.589.152c-.21.054-.43.057-.641.009l-.647-.149a.196.196 0 0 0-.231.138l-.063.225a1.36 1.36 0 0 1-.62.809l-.285.167a.194.194 0 0 0-.071.262l.175.314c.165.299.213.65.132.983l-.092.38a.194.194 0 0 0 .14.234l.454.117c.212.055.409.16.572.306l.72.648a.196.196 0 0 0 .26 0l.72-.648a1.36 1.36 0 0 1 .571-.306l.536-.139a.194.194 0 0 0 .145-.21l-.066-.542c-.028-.233.005-.47.095-.687l.195-.469a.194.194 0 0 0-.07-.235l-.451-.307a1.362 1.362 0 0 1-.455-.522l-.211-.428a.195.195 0 0 0-.223-.102Zm-.357 1.198a.583.583 0 0 1 .824.824L10.71 4.36a.583.583 0 0 1-.735.072l-.583-.388a.584.584 0 0 1 .646-.97l.186.123.828-.827Z"/>
</svg>
