<svg width="14" height="14" fill="currentColor">
  <path d="M6.858.093c.417-.006.827.102 1.188.311L12.13 2.78a2.055 2.055 0 0 1 1.02 1.775v4.872a2.2 2.2 0 0 1-1.118 1.912L7.98 13.62a2.235 2.235 0 0 1-2.208-.01l-3.733-2.15a2.377 2.377 0 0 1-1.19-2.057V4.782a2.446 2.446 0 0 1 1.16-2.081L5.679.435a2.303 2.303 0 0 1 1.18-.342Zm.013.963c-.242.003-.48.072-.685.2L2.516 3.52a1.48 1.48 0 0 0-.704 1.261v4.622a1.412 1.412 0 0 0 .708 1.222l3.732 2.15a1.268 1.268 0 0 0 1.255.005l4.053-2.283c.389-.219.627-.627.627-1.072V4.554a1.082 1.082 0 0 0-.541-.94L7.562 1.236a1.341 1.341 0 0 0-.69-.18ZM5.714 3.268v2.696H8.28V3.268h1.552v7.399H8.281V7.43H5.714v3.236H4.166V3.268h1.548Z"/>
</svg>
