<svg width="14" height="14" fill="currentColor">
  <path d="M4.025 1.42a.58.58 0 0 1 0 1.16h-.108l-.32.012c-.266.02-.384.063-.44.103-.018.014-.12.082-.12.52v2.356c0 .537-.283.927-.605 1.186.323.255.605.643.605 1.182v2.525c0 .443.102.51.12.522.073.054.259.11.76.114h.108a.58.58 0 0 1 0 1.16H3.91c-.482-.003-1.025-.038-1.433-.333-.466-.337-.6-.877-.6-1.463V7.939c0-.097-.047-.206-.24-.327a1.675 1.675 0 0 0-.69-.221.58.58 0 0 1-.527-.578v-.1c0-.3.23-.55.528-.577.215-.02.486-.1.685-.229.196-.127.244-.241.244-.336V3.216c0-.585.134-1.123.599-1.46.408-.296.95-.333 1.434-.336h.115Zm6.165 0c.484.003 1.026.04 1.434.336.464.337.6.875.6 1.46V5.57c0 .095.047.21.243.336.2.13.47.21.685.229a.58.58 0 0 1 .528.577v.1c0 .3-.228.55-.527.578-.22.02-.492.097-.69.221-.192.12-.24.23-.24.327v2.525c0 .586-.134 1.126-.6 1.463-.408.295-.951.33-1.433.333h-.115a.58.58 0 0 1 0-1.16h.109c.5-.003.685-.06.76-.114.016-.012.12-.078.12-.522V7.939c0-.539.28-.927.604-1.182-.322-.259-.604-.649-.604-1.186V3.216c0-.436-.101-.507-.12-.52-.056-.041-.176-.084-.442-.104l-.318-.012h-.109a.58.58 0 0 1 0-1.16h.115ZM5.235 8.075c.32 0 .58.26.58.58V9a.58.58 0 0 1-1.16 0v-.345c0-.32.26-.58.58-.58Zm1.815 0c.32 0 .58.26.58.58V9a.58.58 0 0 1-1.16 0v-.345c0-.32.26-.58.58-.58Zm1.815 0c.32 0 .58.26.58.58V9a.58.58 0 0 1-1.16 0v-.345c0-.32.26-.58.58-.58Z"/>
</svg>
