<svg width="14" height="14" fill="currentColor">
  <path d="M6.804.573a.587.587 0 0 1 .454.026c1.404.69 2.348 1.055 3.162 1.278.814.222 1.518.307 2.475.42a.586.586 0 0 1 .517.6c-.093 2.799-.464 4.85-1.427 6.501-.97 1.661-2.493 2.84-4.715 3.996a.585.585 0 0 1-.54 0c-2.222-1.156-3.745-2.335-4.715-3.996C1.052 7.748.681 5.696.59 2.898a.586.586 0 0 1 .516-.602c.957-.112 1.661-.197 2.476-.42.814-.222 1.758-.588 3.162-1.277l.061-.026ZM7 1.774c-1.306.63-2.255.998-3.11 1.231-.734.2-1.388.299-2.111.388.119 2.445.487 4.112 1.247 5.415C3.8 10.134 5.023 11.152 7 12.211c1.976-1.06 3.2-2.077 3.974-3.403.76-1.303 1.127-2.97 1.246-5.415-.722-.09-1.376-.187-2.109-.388C9.255 2.772 8.306 2.404 7 1.774Zm0 1.555c.722 0 1.428.211 1.96.696.54.493.84 1.21.84 2.092 0 .5-.182 1.023-.404 1.486a9.634 9.634 0 0 1-.81 1.352 15.887 15.887 0 0 1-1.052 1.329l-.075.084-.02.022-.007.007-.002.002a.586.586 0 0 1-.768.08l-.092-.08v-.001h-.002l-.006-.008-.02-.022-.076-.084a15.886 15.886 0 0 1-1.052-1.33 9.634 9.634 0 0 1-.81-1.35c-.221-.464-.403-.986-.403-1.487 0-.881.299-1.6.84-2.092.532-.485 1.238-.696 1.96-.696Zm0 1.17c-.5 0-.902.146-1.171.391-.26.237-.458.62-.458 1.227 0 .242.095.578.289.982.188.394.446.803.712 1.18.22.314.444.598.628.822.184-.225.408-.507.63-.821a8.49 8.49 0 0 0 .71-1.18c.194-.405.29-.74.29-.983 0-.606-.198-.99-.457-1.227-.27-.245-.671-.39-1.173-.39Z"/>
</svg>
