<svg width="14" height="14" fill="currentColor">
  <path d="M7 3.117a3.406 3.406 0 0 1 2.782 5.368l2.904 2.732a.568.568 0 0 1-.778.827L8.982 9.29A3.406 3.406 0 1 1 7 3.117Zm0-1.891c2.342 0 4.091 1.338 5.222 2.6a11.754 11.754 0 0 1 1.696 2.489l.021.047.007.012.002.005v.002a.568.568 0 0 1 .039.358l-.04.117v.002l-.001.004-.007.012a10.529 10.529 0 0 1-.396.74c-.245.418-.605.963-1.034 1.391a.567.567 0 1 1-.801-.803c.328-.328.63-.777.857-1.163.095-.161.173-.307.231-.42a10.613 10.613 0 0 0-1.42-2.034C10.347 3.434 8.88 2.36 7.002 2.36c-1.88 0-3.347 1.073-4.377 2.223A10.606 10.606 0 0 0 1.2 6.622a10.132 10.132 0 0 0 1.388 2.031C3.601 9.799 5.068 10.875 7 10.875c.517 0 1-.077 1.446-.21a.568.568 0 0 1 .324 1.088A6.176 6.176 0 0 1 7 12.01c-2.39 0-4.14-1.336-5.262-2.603A11.265 11.265 0 0 1 .158 7.08a6.744 6.744 0 0 1-.08-.167l-.022-.047-.006-.013-.003-.006v-.001a.567.567 0 0 1 .004-.464l.001-.002.002-.005.006-.012a4.075 4.075 0 0 1 .107-.214 11.752 11.752 0 0 1 1.611-2.321C2.909 2.563 4.659 1.225 7 1.225Zm0 3.026a2.271 2.271 0 1 0 .002 4.543A2.271 2.271 0 0 0 7 4.252Zm0 .758c.314 0 .568.254.568.567v.378h.378a.568.568 0 0 1 0 1.136h-.378v.378a.568.568 0 0 1-1.136 0v-.378h-.378a.568.568 0 0 1 0-1.136h.378v-.378c0-.313.255-.567.569-.567Z"/>
</svg>
