<svg width="14" height="14" fill="currentColor">
  <g clip-path="url(#a)">
    <path d="M11.937 10.017a.235.235 0 0 1 .445 0l.327.98c.023.07.079.126.149.15l.981.326a.235.235 0 0 1 0 .447l-.981.327a.235.235 0 0 0-.149.148l-.327.982a.235.235 0 0 1-.445 0l-.327-.982a.235.235 0 0 0-.149-.148l-.981-.327a.235.235 0 0 1 0-.447l.981-.327a.234.234 0 0 0 .149-.148l.327-.981Zm-6.671-8.46c.202-.606 1.06-.606 1.262 0l1.204 3.609 3.608 1.203c.606.202.606 1.06 0 1.262L7.732 8.834l-1.204 3.608c-.202.607-1.06.607-1.262 0L4.064 8.834.455 7.63c-.606-.202-.606-1.06 0-1.262l3.609-1.203 1.202-3.609Zm-.17 4.221a.666.666 0 0 1-.42.421L2.275 7l2.4.802a.666.666 0 0 1 .422.42l.8 2.402.8-2.401a.666.666 0 0 1 .421-.421L9.521 7l-2.403-.8a.666.666 0 0 1-.42-.422l-.8-2.401-.801 2.401Zm6.84-5.155a.235.235 0 0 1 .446 0l.327.981c.023.07.079.126.149.15l.981.327a.235.235 0 0 1 0 .445l-.981.327a.235.235 0 0 0-.149.149l-.327.981a.235.235 0 0 1-.445 0l-.327-.981a.235.235 0 0 0-.149-.149l-.981-.327a.235.235 0 0 1 0-.445l.981-.327a.236.236 0 0 0 .149-.15l.327-.981Z"/>
  </g>
  <defs>
    <clipPath id="a">
      <path d="M0 0h14v14H0z"/>
    </clipPath>
  </defs>
</svg>
