<svg width="14" height="14" fill="currentColor">
  <path d="M7 .813c3.987 0 6.186 2.2 6.186 6.187v.976a2.086 2.086 0 0 1-3.895 1.039 3.041 3.041 0 0 1-4.46.155A3.07 3.07 0 0 1 7 3.932a3.05 3.05 0 0 1 2.008.749v-.24a.53.53 0 0 1 1.06 0v3.535a1.035 1.035 0 0 0 .614 1.03 1.034 1.034 0 0 0 1.444-1.03V7c0-3.4-1.726-5.126-5.126-5.126A5.134 5.134 0 0 0 1.875 7 5.07 5.07 0 0 0 7 12.126a.53.53 0 0 1 0 1.06A6.117 6.117 0 0 1 .814 7 6.186 6.186 0 0 1 7 .813Zm.768 4.332A2.01 2.01 0 0 0 5.884 8.67a2.008 2.008 0 1 0 1.884-3.525Z"/>
</svg>
