<svg width="14" height="14" fill="currentColor">
  <path d="M2.063 10.746c-.157-.172.023-.253.127-.186 1.69.993 4.327 2.63 8.583.677.172-.083.306.044.126.268C10.72 11.729 9.285 13 6.879 13c-2.408 0-4.252-1.596-4.816-2.254Zm8.843-.282c.362-.04.944-.018 1.06.128.085.114 0 .605-.15.962-.15.352-.368.597-.488.691-.127.1-.22.06-.15-.085.069-.145.444-1.038.292-1.227-.15-.185-.853-.097-1.106-.072-.249.023-.3.045-.323-.007-.052-.127.5-.346.865-.39ZM7.108 3C9.13 3 9.696 4.272 9.696 4.837V8.12c0 .614.744 1.179.744 1.179l-1.309 1.25c-.228-.208-.894-.818-1.044-1.045-1.041 1.58-4.227 1.48-4.227-.964 0-2.276 2.783-2.582 3.905-2.622 0-.877.12-1.544-.82-1.543-.015 0-.875.01-1.247 1.104l-1.695-.15C4.003 4.227 5.08 3 7.108 3Zm.657 3.95c-.777.024-1.94.235-1.94 1.288 0 1.134 1.94 1.402 1.94-.383V6.95Z"/>
</svg>
