<svg width="14" height="14" fill="currentColor">
  <path d="M10.139 9.64a.757.757 0 0 1-.756.758h-.48v1.604a.665.665 0 0 1-1.33 0v-1.604H6.427v1.604a.665.665 0 0 1-1.33 0v-1.604h-.48a.757.757 0 0 1-.757-.757V5.116h6.278v4.525ZM2.716 5.117a.665.665 0 0 1 .664.665v3.011a.666.666 0 0 1-1.135.471.666.666 0 0 1-.194-.47V5.78a.665.665 0 0 1 .665-.665Zm8.568 0a.665.665 0 0 1 .665.665v3.011a.667.667 0 0 1-.665.665.665.665 0 0 1-.664-.665V5.781a.664.664 0 0 1 .664-.665ZM5.072 1.3a.103.103 0 0 1 .062.048l.382.707.12.219.12-.05.113-.042a3.45 3.45 0 0 1 2.262 0l.12.043.113.049.12-.219.382-.657a.122.122 0 0 1 .041-.035.12.12 0 0 1 .051-.015h.05a.1.1 0 0 1 .035.113l-.374.707-.128.219.113.057.107.063a2.92 2.92 0 0 1 1.294 1.67c.05.184.077.373.084.564H3.86c.006-.191.037-.381.092-.565.2-.704.66-1.306 1.286-1.683l.107-.063.113-.057-.128-.22-.374-.706a.101.101 0 0 1-.013-.038.102.102 0 0 1 .022-.075.104.104 0 0 1 .067-.037.101.101 0 0 1 .04.003Zm.52 1.938a.282.282 0 0 1-.013.562l.007.001a.284.284 0 0 0 .108-.544.281.281 0 0 0-.101-.02Zm2.822.563h.007a.281.281 0 0 1-.043-.006c.012.002.024.006.036.006Zm-.056-.56a.283.283 0 0 0-.206.385.284.284 0 0 0 .105.127.28.28 0 0 0 .112.041.282.282 0 0 1 .019-.554l-.03.001Z"/>
</svg>
