<svg width="14" height="14" fill="currentColor">
  <path d="M3.443 7.692a.534.534 0 0 1 .75 0 .533.533 0 0 1 0 .749l-.862.863h8.618c.289 0 .527.238.53.527a.533.533 0 0 1-.53.526H3.331l.862.863a.533.533 0 0 1 0 .75.525.525 0 0 1-.375.154.525.525 0 0 1-.375-.155l-1.766-1.767a.55.55 0 0 1-.114-.17.499.499 0 0 1 0-.403.55.55 0 0 1 .114-.17l1.766-1.767Zm9.037 2.143-.002-.004.002-.004v.008Zm-2.673-7.8a.534.534 0 0 1 .75 0l1.766 1.768a.57.57 0 0 1 .114.17.5.5 0 0 1 0 .404.547.547 0 0 1-.114.168l-1.766 1.768a.526.526 0 0 1-.75 0 .533.533 0 0 1 0-.749l.862-.862H2.05v.007a.534.534 0 0 1-.53-.53c0-.29.24-.53.53-.531h8.618l-.862-.862a.534.534 0 0 1 0-.75Z"/>
</svg>
