<svg width="14" height="14" fill="currentColor">
  <path d="M9.332 4.073a2.723 2.723 0 0 1 2.121 1.131 2.342 2.342 0 0 0-1.259 2.121 2.504 2.504 0 0 0 1.556 2.32c-.304.926-1.365 3.011-2.588 3.011-.714 0-1.103-.453-1.93-.453s-1.28.453-1.916.453c-1.216.036-2.383-2.234-2.694-3.14a6.363 6.363 0 0 1-.36-2.05c0-2.24 1.492-3.364 2.906-3.364.679 0 1.57.495 1.93.495.36 0 1.336-.594 2.234-.524Zm.035-2.73a2.384 2.384 0 0 1-.587 1.832h-.013a2.123 2.123 0 0 1-1.768.863 2.413 2.413 0 0 1 .657-1.81 2.68 2.68 0 0 1 1.711-.884Z"/>
</svg>
