<svg width="14" height="14" fill="currentColor">
  <path d="M2.991 5.056a.53.53 0 0 1 .53.53c0 1.05-.087 1.898-.231 2.584-.17.812-.423 1.405-.708 1.835h5.125a.53.53 0 0 1 0 1.06H5.499c.218.62.806 1.061 1.501 1.061.573 0 1.073-.3 1.354-.753a.53.53 0 1 1 .9.559A2.647 2.647 0 0 1 7 13.187a2.65 2.65 0 0 1-2.599-2.122H.991a.53.53 0 0 1-.02-1.06h.003a.454.454 0 0 0 .066-.016.934.934 0 0 0 .31-.175c.262-.212.66-.71.902-1.863.126-.6.209-1.373.209-2.365a.53.53 0 0 1 .53-.53ZM7 .813c1.46 0 2.616.488 3.402 1.372.778.874 1.137 2.073 1.137 3.4 0 2.418.49 3.514.882 3.998.193.239.371.34.478.385a.565.565 0 0 0 .117.035l.01.002h.002a.53.53 0 0 1-.018 1.06h-1.195l.51.51a.53.53 0 0 1-.75.75l-9.9-9.9a.53.53 0 0 1 .75-.75l.92.92c.201-.308.5-.703.879-.975C4.959 1.092 5.894.813 7 .813Zm0 1.061c-.925 0-1.634.231-2.158.607-.232.167-.454.451-.631.73a4.85 4.85 0 0 0-.095.155l6.639 6.639h.663c-.526-.795-.94-2.14-.94-4.42 0-1.146-.31-2.067-.868-2.695C9.06 2.27 8.213 1.874 7 1.874Z"/>
</svg>
