<svg width="14" height="14" fill="currentColor">
  <path d="M1.508 5.635a5.662 5.662 0 0 1 6.857-4.122c3.026.757 4.879 3.826 4.122 6.852a5.667 5.667 0 0 1-6.858 4.121C2.603 11.73.75 8.661 1.508 5.636Zm4.998-1.322c-.135-.028-.269-.063-.396-.092l-.855-.218-.163.664s.44.103.452.113c.247.064.29.226.29.36l-.7 2.793.007.015c-.028.078-.106.19-.283.148-.029 0-.44-.11-.452-.113l-.311.707.806.197c.156.043.297.078.446.12l-.255 1.026.615.156.255-1.018c.17.049.332.084.494.127l-.254 1.011.622.156.254-1.026c1.06.198 1.86.12 2.192-.84.269-.771-.014-1.217-.573-1.506.403-.092.707-.361.792-.913.113-.749-.46-1.16-1.244-1.421L8.5 3.734l-.623-.156-.247.99c-.163-.042-.333-.078-.502-.12l.247-.997-.614-.155-.255 1.017Zm0 2.751c.424.106 1.766.31 1.569 1.116-.19.771-1.485.354-1.91.248l.34-1.364Zm.466-1.867c.354.085 1.478.255 1.301.983-.177.7-1.259.34-1.612.254l.311-1.237Z"/>
</svg>
