<svg width="14" height="14" fill="currentColor">
  <path d="M6.999.813c2.828 0 4.54 1.83 4.54 4.772 0 4.164 1.428 4.419 1.491 4.419h-.014a.53.53 0 1 1 0 1.06H9.594a2.644 2.644 0 0 1-5.19 0H.99a.532.532 0 0 1-.375-.905.53.53 0 0 1 .375-.155C1.016 10 2.46 9.78 2.46 5.585 2.46 2.644 4.171.813 6.999.813ZM5.508 11.065a1.585 1.585 0 0 0 1.491 1.06 1.585 1.585 0 0 0 1.492-1.06H5.508Zm1.491-9.192c-2.206 0-3.478 1.414-3.478 3.712s-.424 3.648-.933 4.419h8.823c-.509-.77-.933-2.058-.934-4.419 0-2.361-1.272-3.712-3.478-3.712Z"/>
</svg>
