<svg width="14" height="14" fill="currentColor">
  <path d="M7.43.346a.587.587 0 0 1 .786.563v.078l-.636 4.49h3.076a.566.566 0 0 1 .502.304.601.601 0 0 1 0 .607L9.744 8.856l-2.9 4.61a.558.558 0 0 1-.487.247.476.476 0 0 1-.17 0 .587.587 0 0 1-.416-.573v-.078l.635-4.489H3.338a.566.566 0 0 1-.502-.304.601.601 0 0 1 0-.608L4.25 5.194l2.9-4.61a.559.559 0 0 1 .28-.238ZM5.143 5.731l-1.02 1.753h2.828a.594.594 0 0 1 .587.602v.077l-.417 2.928L8.89 8.262 9.906 6.51H7.078a.594.594 0 0 1-.587-.601V5.83l.417-2.927-1.766 2.828Z"/>
</svg>
