<svg width="14" height="14" fill="currentColor">
  <path d="M1.344 1.344c.39 0 .707.316.707.707v9.898a.707.707 0 0 1-1.414 0V2.051c0-.39.316-.707.707-.707Zm2.12 0c.196 0 .354.158.354.353v10.606a.354.354 0 0 1-.707 0V1.697c0-.195.159-.353.354-.353Zm1.768 0c.196 0 .354.158.354.353v10.606a.354.354 0 0 1-.707 0V1.697c0-.195.158-.353.353-.353Zm2.829 0c.39 0 .706.316.707.707v9.898a.707.707 0 0 1-1.414 0V2.051c0-.39.316-.707.707-.707Zm2.474 0c.39 0 .707.316.707.707v9.898a.707.707 0 0 1-1.414 0V2.051c0-.39.317-.707.707-.707Zm2.298 0a.53.53 0 0 1 .53.53v10.252a.53.53 0 0 1-1.06 0V1.874a.53.53 0 0 1 .53-.53Z"/>
</svg>
