<svg width="14" height="14" fill="currentColor">
  <path d="M1.697 1.167a.531.531 0 0 1 .53.53v10.076h10.076a.53.53 0 0 1 0 1.06H1.697l-.103-.01a.53.53 0 0 1-.416-.417l-.011-.103V1.697a.531.531 0 0 1 .53-.53ZM4.172 6.47a.53.53 0 0 1 .53.53v2.828a.538.538 0 0 1-.53.53.538.538 0 0 1-.53-.53V7a.53.53 0 0 1 .53-.53Zm2.474-2.828a.53.53 0 0 1 .53.53v5.656a.538.538 0 0 1-.53.53.538.538 0 0 1-.53-.53V4.172a.53.53 0 0 1 .53-.53ZM9.121 6.47a.53.53 0 0 1 .53.53v2.828a.538.538 0 0 1-.53.53.538.538 0 0 1-.53-.53V7a.53.53 0 0 1 .53-.53Zm2.475-2.828a.531.531 0 0 1 .53.53v5.656a.539.539 0 0 1-.53.53.538.538 0 0 1-.53-.53V4.172a.531.531 0 0 1 .53-.53Z"/>
</svg>
