<svg width="14" height="14" fill="currentColor">
  <path d="M6.339.672a6.265 6.265 0 0 1 2.51.24.53.53 0 1 1-.304 1.012 5.39 5.39 0 0 0-2.121-.198 5.305 5.305 0 0 0-3.563 1.93A5.248 5.248 0 0 0 1.7 7.551a5.301 5.301 0 0 0 1.93 3.562 5.247 5.247 0 0 0 3.895 1.16 5.301 5.301 0 0 0 3.563-1.93 5.247 5.247 0 0 0 1.16-3.896.557.557 0 0 1 1.11-.105 6.364 6.364 0 0 1-3.26 6.229 6.133 6.133 0 0 1-2.446.792h-.657a6.364 6.364 0 0 1-5.563-3.296 6.13 6.13 0 0 1-.757-2.41 6.363 6.363 0 0 1 3.252-6.23 6.132 6.132 0 0 1 2.41-.756Zm5.925 1.335a.53.53 0 0 1 .388.751L6.29 9.121a.524.524 0 0 1-.353.177.524.524 0 0 1-.354-.177l-2.121-2.12a.53.53 0 0 1 .707-.708L5.915 8.04l6.03-5.988a.531.531 0 0 1 .319-.044Z"/>
</svg>
