<svg width="14" height="14" fill="currentColor">
  <path d="M5.41 10.42a1.06 1.06 0 1 1 0 2.121 1.06 1.06 0 1 1 0-2.121Zm4.595 0a1.06 1.06 0 1 1 0 2.121 1.06 1.06 0 1 1 0-2.121ZM2.758.876a.53.53 0 0 1 .521.436l1.335 7.34h6.214l1.314-5.254a.53.53 0 0 1 1.028.257l-1.414 5.657a.53.53 0 0 1-.514.4h-7.07a.53.53 0 0 1-.522-.434L2.315 1.937h-.971a.53.53 0 0 1 0-1.061h1.414Zm4.949.707a.53.53 0 0 1 .53.53v2.255l.51-.509a.53.53 0 0 1 .75.75L8.081 6.022a.53.53 0 0 1-.75 0L5.918 4.61a.53.53 0 0 1 .75-.75l.509.51V2.112a.53.53 0 0 1 .53-.53Z"/>
</svg>
