<svg width="14" height="14" fill="currentColor">
  <path d="M9.121.168a.53.53 0 0 1 .53.53v.884h.884c1.074 0 1.944.87 1.944 1.944v7.778c0 1.073-.87 1.944-1.944 1.944h-7.07a1.944 1.944 0 0 1-1.944-1.944V3.526c0-1.073.87-1.944 1.944-1.944h.884V.698a.53.53 0 0 1 1.06 0v.884h3.182V.698a.53.53 0 0 1 .53-.53Zm-6.54 11.136c0 .488.396.883.884.883h7.07a.884.884 0 0 0 .884-.883V6.53H2.58v4.773Zm.884-8.661a.884.884 0 0 0-.884.883v1.945h8.838V3.526a.884.884 0 0 0-.884-.883h-.884v.883a.53.53 0 0 1-1.06 0v-.883H5.409v.883a.53.53 0 0 1-1.06 0v-.883h-.884Z"/>
</svg>
