<svg width="14" height="14" fill="currentColor">
  <path d="M7.539.825c.752 0 1.496.152 2.188.446a5.656 5.656 0 0 1 3.429 5.175 5.657 5.657 0 0 1-1.648 3.974 5.74 5.74 0 0 1-1.78 1.201 5.657 5.657 0 0 1-4.193.071l-3.712 1.131a.585.585 0 0 1-.155.042.531.531 0 0 1-.51-.707l1.132-3.71a5.489 5.489 0 0 1-.368-2.002 5.657 5.657 0 0 1 .438-2.191 5.744 5.744 0 0 1 1.202-1.782 5.539 5.539 0 0 1 1.79-1.202A5.6 5.6 0 0 1 7.538.825Zm-.003 1.082a4.59 4.59 0 0 0-4.2 2.785 4.632 4.632 0 0 0 0 3.536.53.53 0 0 1 0 .36l-.87 2.948 2.934-.89a.53.53 0 0 1 .36 0 4.61 4.61 0 0 0 3.536 0 4.553 4.553 0 0 0 2.425-5.974 4.563 4.563 0 0 0-4.185-2.765Z"/>
</svg>
