<svg width="14" height="14" fill="currentColor">
  <path d="M1.697 1.167a.531.531 0 0 1 .53.53v10.076h10.076a.53.53 0 0 1 0 1.06H1.697l-.103-.01a.53.53 0 0 1-.416-.417l-.011-.103V1.697a.53.53 0 0 1 .53-.53Zm9.899 3.535a.538.538 0 0 1 .53.53v2.539a.539.539 0 0 1-.53.53.538.538 0 0 1-.53-.53V6.513L8.788 8.789a.524.524 0 0 1-.578.115.524.524 0 0 1-.172-.115L6.293 7.042 4.547 8.789a.53.53 0 0 1-.75-.75l2.121-2.121a.53.53 0 0 1 .75 0l1.746 1.747 1.901-1.902H9.121a.53.53 0 0 1 0-1.06h2.475Z"/>
</svg>
