<svg width="14" height="14" fill="currentColor">
  <path d="M8.04.106c.14 0 .275.057.374.157l3.91 3.909c.094.094.15.22.155.353v4.596a1.945 1.945 0 0 1-1.944 1.944h-.177v.884a1.945 1.945 0 0 1-1.944 1.945h-4.95a1.945 1.945 0 0 1-1.943-1.945V4.88a1.945 1.945 0 0 1 1.944-1.944h.884V2.05A1.944 1.944 0 0 1 6.293.106h1.746Zm-4.575 3.89a.884.884 0 0 0-.884.883v7.07a.884.884 0 0 0 .884.884h4.95a.884.884 0 0 0 .883-.884v-.884H6.293a1.945 1.945 0 0 1-1.944-1.944V3.995h-.884Zm2.828-2.829a.885.885 0 0 0-.884.884v7.07a.884.884 0 0 0 .884.884h4.242a.885.885 0 0 0 .884-.884V5.056H8.06a.538.538 0 0 1-.53-.53v-3.36H6.292Zm2.298 2.828h2.078L8.59 1.917v2.078Z"/>
</svg>
