<svg width="14" height="14" fill="currentColor">
  <path d="M9.121.46a.53.53 0 0 1 .53.53v.884h.884a1.945 1.945 0 0 1 1.944 1.944v7.778a1.946 1.946 0 0 1-1.944 1.944h-7.07a1.945 1.945 0 0 1-1.944-1.944V3.818a1.945 1.945 0 0 1 1.944-1.944h.884V.99a.531.531 0 0 1 1.06 0v.884h3.182V.99a.531.531 0 0 1 .53-.53Zm-6.54 6.363v4.773a.884.884 0 0 0 .884.883h7.07a.884.884 0 0 0 .884-.883V6.823H2.58Zm5.416 1.475a.524.524 0 0 1 .374.158.526.526 0 0 1 0 .75l-.622.622.622.622a.523.523 0 0 1 0 .75.503.503 0 0 1-.374.155.524.524 0 0 1-.375-.156L7 10.577l-.622.622a.525.525 0 0 1-.75 0 .523.523 0 0 1 0-.749l.623-.622-.623-.622a.53.53 0 0 1 .75-.75L7 9.078l.622-.622a.524.524 0 0 1 .375-.158ZM3.465 2.935a.884.884 0 0 0-.884.883v1.945h8.838V3.818a.884.884 0 0 0-.884-.883h-.884v.883a.53.53 0 0 1-1.06 0v-.883H5.409v.883a.53.53 0 1 1-1.06 0v-.883h-.884Z"/>
</svg>
