<svg width="14" height="14" fill="currentColor">
  <path d="M8.414.813a1.946 1.946 0 0 1 1.944 1.945v.884h.884a1.945 1.945 0 0 1 1.944 1.944v5.656a1.945 1.945 0 0 1-1.944 1.944H5.586a1.945 1.945 0 0 1-1.944-1.944v-.884h-.884A1.945 1.945 0 0 1 .813 8.414V2.758A1.944 1.944 0 0 1 2.758.813h5.656Zm1.944 7.601a1.945 1.945 0 0 1-1.944 1.944H4.702v.884a.884.884 0 0 0 .884.884h5.656a.885.885 0 0 0 .884-.884V5.586a.885.885 0 0 0-.884-.884h-.884v3.712Zm-7.6-6.54a.885.885 0 0 0-.884.884v5.656a.884.884 0 0 0 .884.884h5.656a.884.884 0 0 0 .884-.884V2.758a.885.885 0 0 0-.884-.884H2.758Z"/>
</svg>
