<svg width="14" height="14" fill="currentColor">
  <path d="M6.997 6.525a.524.524 0 0 1 .375.158l2 2a.531.531 0 0 1 0 .75.559.559 0 0 1-.374.156.546.546 0 0 1-.375-.156L7.527 8.337v3.217a.531.531 0 0 1-1.06 0V8.337L5.37 9.433a.531.531 0 0 1-.75-.75l2.001-2a.526.526 0 0 1 .375-.158Zm-2.732-4.59A4.773 4.773 0 0 1 9.648 4.81a3.07 3.07 0 0 1 .566-.049 3.585 3.585 0 0 1 3.358 3.359c-.035.905-.036 3.308-2.686 3.308a.531.531 0 0 1 0-1.06c1.173 0 1.59-.587 1.59-2.248a2.526 2.526 0 0 0-2.296-2.3c-.241.006-.48.048-.707.127a.525.525 0 0 1-.707-.347 3.712 3.712 0 0 0-7.247 1.103c0 2.432.537 3.663 1.59 3.663a.53.53 0 1 1 0 1.06c-1.767 0-2.65-1.59-2.651-4.723a4.773 4.773 0 0 1 3.808-4.768Z"/>
</svg>
