<svg width="14" height="14" fill="currentColor">
  <path d="M8.887 1.81c.976.17 1.902.468 2.771.87h.014c1.52 2.263 2.27 4.815 1.994 7.763a11.02 11.02 0 0 1-3.4 1.74 8.558 8.558 0 0 1-.729-1.195c.396-.155.785-.34 1.146-.558a4.335 4.335 0 0 1-.283-.22c-2.185 1.032-4.581 1.032-6.794 0-.092.07-.184.149-.283.22.36.219.742.41 1.145.558-.212.417-.453.82-.728 1.195a11.1 11.1 0 0 1-3.4-1.74C.105 7.905.58 5.325 2.332 2.681c.87-.403 1.796-.7 2.772-.87.12.212.261.502.36.735a10.147 10.147 0 0 1 3.069 0c.091-.233.233-.523.353-.735ZM4.765 6.146c-.679 0-1.209.615-1.209 1.372 0 .756.544 1.37 1.209 1.37.679 0 1.209-.621 1.209-1.37.007-.757-.53-1.372-1.21-1.372Zm4.46 0c-.678 0-1.208.615-1.208 1.372 0 .756.545 1.37 1.209 1.37.679 0 1.209-.621 1.209-1.37.007-.757-.53-1.372-1.21-1.372Z"/>
</svg>
