<svg width="14" height="14" fill="currentColor">
  <path d="M7 .473c.337 0 .661.13.905.361l5.26 5.26a1.28 1.28 0 0 1 0 1.81l-5.26 5.26a1.281 1.281 0 0 1-1.81 0l-5.26-5.26a1.28 1.28 0 0 1 0-1.81l5.26-5.26C6.339.602 6.663.473 7 .473ZM7 1.52a.19.19 0 0 0-.148.063L1.584 6.851a.205.205 0 0 0 0 .296l5.268 5.267a.178.178 0 0 0 .148.081.178.178 0 0 0 .148-.08l5.268-5.268a.207.207 0 0 0 0-.296L7.148 1.583A.191.191 0 0 0 7 1.52Zm.894 2.99a.533.533 0 0 1 .378.17l1.482 1.488a.53.53 0 0 1 .015.89L8.272 8.556a.525.525 0 0 1-.578.115.532.532 0 0 1-.17-.865l.664-.658H5.056v1.415a.537.537 0 0 1-.53.558.538.538 0 0 1-.53-.53V6.617a.538.538 0 0 1 .53-.53h3.662l-.665-.657a.534.534 0 0 1-.013-.764.53.53 0 0 1 .384-.155Z"/>
</svg>
