<svg width="14" height="14" fill="currentColor">
  <path d="M12.359 2.228c.678 0 1.236.558 1.236 1.237h-.007v7.07c0 .679-.551 1.238-1.237 1.238H3.916c-.43 0-.82-.22-1.046-.58L.544 7.466a.9.9 0 0 1 0-.94l2.326-3.72c.227-.36.622-.58 1.046-.58h8.443Zm-8.443 1.06a.16.16 0 0 0-.148.085L1.498 7l2.27 3.627a.19.19 0 0 0 .148.085h8.443a.176.176 0 0 0 .177-.177v-7.07h-.008a.175.175 0 0 0-.177-.177H3.916Zm6.032 1.393a.534.534 0 0 1 .749 0 .534.534 0 0 1 0 .75L9.127 7l1.57 1.57a.534.534 0 0 1 0 .75.526.526 0 0 1-.749 0l-1.57-1.571-1.57 1.57a.525.525 0 0 1-.749 0 .534.534 0 0 1 0-.75L7.629 7l-1.57-1.57a.534.534 0 0 1 0-.75.534.534 0 0 1 .749 0l1.57 1.571 1.57-1.57Z"/>
</svg>
