<svg width="14" height="14" fill="currentColor">
  <path d="M11.242 8.59a1.244 1.244 0 0 1 1.237 1.238v1.414a1.245 1.245 0 0 1-1.237 1.236H2.758a1.245 1.245 0 0 1-1.237-1.236V9.828a1.245 1.245 0 0 1 1.237-1.237h8.484ZM2.758 9.652a.177.177 0 0 0-.177.177v1.414a.178.178 0 0 0 .177.177h8.484a.178.178 0 0 0 .177-.177V9.828a.178.178 0 0 0-.177-.177H2.758ZM7 1.521c.14 0 .276.056.375.155l4.948 4.949a.532.532 0 0 1-.08.815.53.53 0 0 1-.294.09H2.051a.53.53 0 0 1-.375-.905l4.949-4.95A.537.537 0 0 1 7 1.521ZM3.331 6.47h7.338L7 2.8 3.331 6.47Z"/>
</svg>
