<svg width="14" height="14" fill="currentColor">
  <path d="M7.955.84a6.188 6.188 0 0 1 4.242 1.767.531.531 0 0 1-.749.75 5.134 5.134 0 0 0-7.835.758 5.13 5.13 0 0 0-.637 1.292h7.702a.531.531 0 0 1 0 1.06h-7.93a4.615 4.615 0 0 0-.004 1.061h6.873a.531.531 0 0 1 0 1.06H2.966c.132.41.313.806.546 1.174a5.132 5.132 0 0 0 7.801 1.04l.157-.149a.558.558 0 0 1 .77 0 .496.496 0 0 1 .035.707l-.035.035-.205.199a6.166 6.166 0 0 1-4.185 1.59h-.107A6.186 6.186 0 0 1 1.9 8.59H.78a.53.53 0 0 1 0-1.06h.935a6.186 6.186 0 0 1 .002-1.061H.779a.53.53 0 0 1 0-1.061h1.123A6.186 6.186 0 0 1 3.551 2.58 6.038 6.038 0 0 1 7.955.839Z"/>
</svg>
