<svg width="14" height="14" fill="currentColor">
  <path d="M7 2.228c4.121 0 6.058 4.375 6.144 4.56a.553.553 0 0 1 0 .424c-.085.184-2.022 4.56-6.144 4.56S.941 7.397.856 7.213a.552.552 0 0 1 0-.424C.942 6.603 2.88 2.228 7 2.228Zm0 1.06C4.052 3.288 2.348 6.187 1.93 7c.418.813 2.122 3.712 5.07 3.712 2.948 0 4.652-2.899 5.07-3.712-.418-.813-2.122-3.712-5.07-3.712Zm-.448 1.46a2.297 2.297 0 1 1 .896 4.505 2.297 2.297 0 0 1-.896-4.506ZM7 5.762A1.238 1.238 0 1 0 8.237 7 1.244 1.244 0 0 0 7 5.763Z"/>
</svg>
