<svg width="14" height="14" fill="currentColor">
  <path d="M1.344 8.59a.53.53 0 0 1 .53.531v2.121c0 .488.396.884.884.884h2.12a.53.53 0 1 1 0 1.06h-2.12a1.945 1.945 0 0 1-1.945-1.944v-2.12a.53.53 0 0 1 .53-.531Zm11.312 0a.53.53 0 0 1 .53.531v2.121c0 1.074-.87 1.944-1.944 1.944h-2.12a.53.53 0 0 1 0-1.06h2.12a.884.884 0 0 0 .884-.884v-2.12a.53.53 0 0 1 .53-.531ZM4.88.814a.53.53 0 0 1 0 1.061H2.758a.884.884 0 0 0-.884.884v2.12a.53.53 0 0 1-1.06 0v-2.12c0-1.074.87-1.944 1.944-1.945h2.12Zm6.363 0c1.074 0 1.944.871 1.944 1.945v2.12a.53.53 0 0 1-1.06 0v-2.12a.884.884 0 0 0-.884-.884h-2.12a.53.53 0 0 1 0-1.06h2.12Z"/>
</svg>
