<svg width="14" height="14" fill="currentColor">
  <path d="M4.06 1.875a.539.539 0 0 1 .41.177l1.887 2.283H9.83a1.916 1.916 0 0 1 1.923 1.958v.177h1.259a.537.537 0 0 1 .452.254.531.531 0 0 1 0 .524l-2.39 4.595a.546.546 0 0 1-.452.283H.99a.538.538 0 0 1-.452-.255.53.53 0 0 1-.07-.26l.002-.015H.46V3.819a1.918 1.918 0 0 1 1.895-1.944H4.06Zm-2.199 9.19h8.442L12.14 7.53H3.7l-1.838 3.535Zm.495-8.13a.863.863 0 0 0-.835.884v5.64L2.93 6.753a.545.545 0 0 1 .473-.283h7.29v-.177a.863.863 0 0 0-.863-.883H6.103a.527.527 0 0 1-.403-.191L3.812 2.935H2.356Z"/>
</svg>
