<svg width="14" height="14" fill="currentColor">
  <path d="M7.354.813a.53.53 0 0 1 .375.156l3.888 3.888c.1.1.155.235.155.375v6.01c0 1.07-.873 1.944-1.944 1.944H4.172a1.949 1.949 0 0 1-1.944-1.944V2.758A1.95 1.95 0 0 1 4.172.813h3.182ZM4.172 1.874c-.485 0-.884.4-.884.884v8.484c0 .485.4.884.884.884h5.656c.485 0 .884-.4.884-.884v-5.48H7.354a.53.53 0 0 1-.53-.53V1.874H4.171ZM7 6.824a.53.53 0 0 1 .53.53V8.59h1.238a.53.53 0 0 1 0 1.06H7.53v1.238a.53.53 0 0 1-1.06 0V9.65H5.232a.53.53 0 0 1 0-1.06H6.47V7.354a.53.53 0 0 1 .53-.53Zm.884-2.122h2.078L7.884 2.624v2.078Z"/>
</svg>
