<svg width="14" height="14" fill="currentColor">
  <path d="M7.354.813a.53.53 0 0 1 .375.156l3.888 3.888c.1.1.155.235.155.375v6.01c0 1.07-.873 1.944-1.944 1.944H4.172a1.949 1.949 0 0 1-1.944-1.944V2.758A1.95 1.95 0 0 1 4.172.813h3.182ZM4.172 1.874a.888.888 0 0 0-.884.884v8.484c0 .485.4.884.884.884h5.656c.485 0 .884-.4.884-.884v-5.48H7.354a.53.53 0 0 1-.53-.53V1.874H4.171Zm2.453 5.105a.53.53 0 0 1 .75 0l1.414 1.414a.53.53 0 0 1-.75.75l-.509-.51v2.256a.53.53 0 0 1-1.06 0V8.634l-.51.509a.53.53 0 0 1-.75-.75l1.415-1.414Zm1.259-2.277h2.078L7.884 2.624v2.078Z"/>
</svg>
