<svg width="14" height="14" fill="currentColor">
  <path d="M5.41.813c.14 0 .275.058.374.157l3.889 3.888a.53.53 0 0 1 .155.374v1.414c0 .29-.24.53-.53.53-.29 0-.53-.24-.53-.53v-.883H5.409c-.29 0-.53-.24-.53-.53v-3.36H2.58a.885.885 0 0 0-.884.884v8.484c0 .488.396.884.884.884h5.303a.884.884 0 0 0 .884-.884v-1.06c0-.29.24-.53.53-.53.29 0 .53.24.53.53v1.06c0 1.075-.87 1.944-1.944 1.944H2.58a1.943 1.943 0 0 1-1.944-1.944V2.758c0-1.075.87-1.944 1.944-1.945h2.828Zm4.927 5.106a.533.533 0 0 1 .749 0l2.121 2.12a.55.55 0 0 1 .113.17.5.5 0 0 1 0 .403v.007a.55.55 0 0 1-.113.17l-2.121 2.121a.525.525 0 0 1-.749 0 .534.534 0 0 1 0-.75l1.216-1.216H5.409c-.29 0-.53-.24-.53-.53 0-.29.24-.53.53-.53h6.144l-1.216-1.216a.533.533 0 0 1 0-.75ZM5.939 4.702h2.079L5.939 2.624v2.078Z"/>
</svg>
