<svg width="14" height="14" fill="currentColor">
  <path d="M11.306 6.116c.41.007.805.17 1.074.439.587.586.608 1.597.043 2.156l-4.518 4.524a.525.525 0 0 1-.325.157l-1.59.148h-.05a.53.53 0 0 1-.376-.156.51.51 0 0 1-.155-.417l.127-1.576a.542.542 0 0 1 .156-.332l4.518-4.526a1.439 1.439 0 0 1 1.096-.417ZM6.293.46a.551.551 0 0 1 .375.156l3.888 3.888a.55.55 0 0 1 .156.375v.353c0 .29-.24.53-.53.53a.52.52 0 0 1-.495-.353H6.293c-.29 0-.53-.24-.53-.53V1.52H3.11a.884.884 0 0 0-.883.883v8.485c0 .487.396.883.883.884h1.06c.29 0 .531.24.531.53 0 .29-.24.53-.53.53h-1.06a1.943 1.943 0 0 1-1.945-1.944V2.404C1.166 1.33 2.036.46 3.11.46h3.182Zm4.991 6.717c-.127.007-.254.036-.325.106l-4.384 4.39-.055.75.77-.071 4.383-4.39c.148-.149.127-.496-.042-.658a.495.495 0 0 0-.347-.127Zm-4.46-2.828H8.9L6.823 2.27v2.078Z"/>
</svg>
