<svg width="14" height="14" fill="currentColor">
  <path d="M5.38.787c.752.141 1.471.42 2.122.82a5.983 5.983 0 0 0 1.626.707 9.774 9.774 0 0 0 2.638-.707.525.525 0 0 1 .487.057.524.524 0 0 1 .191.439v6.016a.53.53 0 0 1-.34.495c-.95.401-1.952.67-2.976.8h-.162a6.443 6.443 0 0 1-1.994-.8 6.037 6.037 0 0 0-1.697-.707c-.931.09-1.849.297-2.73.615v4.136a.53.53 0 0 1-1.06 0V2.068a.532.532 0 0 1 .36-.503c1.14-.41 2.33-.671 3.536-.778Zm-.084 1.047c-.932.09-1.848.297-2.729.615V7.4a11.536 11.536 0 0 1 2.673-.567h.14c.752.141 1.471.42 2.122.82a5.983 5.983 0 0 0 1.626.707c.79-.09 1.563-.29 2.298-.593l-.02-4.943a7.264 7.264 0 0 1-2.419.517 6.443 6.443 0 0 1-1.994-.799 6.04 6.04 0 0 0-1.697-.707Z"/>
</svg>
