<svg width="14" height="14" fill="currentColor">
  <path d="M7.332.813a.53.53 0 0 1 .375.157l3.91 3.909c.094.094.15.22.155.353v6.01a1.945 1.945 0 0 1-1.944 1.944H4.172a1.945 1.945 0 0 1-1.944-1.944V2.758A1.944 1.944 0 0 1 4.172.813h3.16Zm-3.16 1.061a.885.885 0 0 0-.884.884v8.484a.884.884 0 0 0 .884.884h5.656a.884.884 0 0 0 .884-.884v-5.48H7.354a.538.538 0 0 1-.53-.53V1.874H4.171Zm2.602 4.087a.566.566 0 0 1 .488.467c.064.475.017.959-.135 1.414.164.486.492.9.927 1.174.438-.057 1.322-.142 1.619.162a.58.58 0 0 1-.439.975 3.338 3.338 0 0 1-1.414-.43c-.586.13-1.163.3-1.725.508-1.265 2.205-2.007 1.189-1.923.792.106-.487.792-.912 1.294-1.195.33-.597.629-1.21.897-1.838a3.537 3.537 0 0 1-.176-1.697.566.566 0 0 1 .587-.332Zm-1.33 4.299c-.31.24-.572.537-.77.876v.008c.003.012.292-.125.77-.884Zm1.301-1.846c-.175.467-.382.92-.622 1.357v.007a8.732 8.732 0 0 1 1.386-.473 2.745 2.745 0 0 1-.764-.89Zm1.76 1.032c.812.353.94.2.941.199v.006c.092-.056-.057-.261-.94-.205ZM6.739 6.33a2.17 2.17 0 0 0 .043 1.025c.127-.22.141-1.033-.043-1.033v.008Zm1.146-1.627h2.078L7.884 2.624v2.078Z"/>
</svg>
