<svg width="14" height="14" fill="currentColor">
  <path d="M6.929 1.343a5.659 5.659 0 0 1 5.727 5.706 5.812 5.812 0 0 1-3.846 5.592.298.298 0 0 1-.272-.038.298.298 0 0 1-.124-.244V10.4a1.415 1.415 0 0 0-.353-1.06c1.272-.149 2.615-.326 2.615-2.587a1.847 1.847 0 0 0-.587-1.38 2.221 2.221 0 0 0-.056-1.583c-.48-.156-1.577.63-1.577.63a5.274 5.274 0 0 0-2.863 0s-1.095-.785-1.576-.63a2.27 2.27 0 0 0-.057 1.584 1.797 1.797 0 0 0-.538 1.379c0 2.254 1.287 2.438 2.56 2.586-.207.213-.334.49-.36.786a1.196 1.196 0 0 1-1.67-.489 1.18 1.18 0 0 0-.876-.6c-.549-.007-.053.348-.036.36.372.147.626.843.63.855.336 1.051 1.908.714 1.937.708v1.414c0 .148-.106.332-.396.283a5.862 5.862 0 0 1-3.867-5.607A5.538 5.538 0 0 1 6.93 1.343Zm-1.93 9.022c.064 0 .127.035.127.085s-.05.085-.12.085c-.07 0-.127 0-.127-.085s.057-.085.12-.085Zm.424-.057c.07-.007.128.014.135.064.007.05-.029.099-.1.113-.07.014-.126-.007-.133-.064a.1.1 0 0 1 .098-.113Zm-.862-.014c.099.022.098.071.098.12a.105.105 0 0 1-.14.049c-.1-.014-.1-.07-.1-.12.014-.049.043-.07.142-.049Zm-.509-.24c.028-.035.12-.05.12 0s.028.092 0 .149c-.028.056-.148.049-.148 0v-.149h.028Zm-.29-.346c.042-.029.098-.007.134.05a.11.11 0 0 1 .028.074c0 .027-.01.053-.028.074-.036.02-.134 0-.134-.057v-.141Zm-.198-.297c.028-.029.12-.057.12-.007v.127a.086.086 0 0 1-.027.018.085.085 0 0 1-.033.006.088.088 0 0 1-.033-.006.086.086 0 0 1-.027-.018v-.12Zm-.149-.192c.048.02.05.086.05.092a.066.066 0 0 1-.022.018.064.064 0 0 1-.028.007.065.065 0 0 1-.048-.025c-.05-.021-.05-.092-.05-.092.014-.02.05-.02.098 0Z"/>
</svg>
