<svg width="14" height="14" fill="currentColor">
  <path d="M6.628.93a.884.884 0 0 1 .745 0l5.478 2.547a.883.883 0 0 1-.039 1.62l-.333.135V7.93c0 .335-.137.681-.43.914a8.287 8.287 0 0 1-1.524.95v2.86a.53.53 0 0 1-1.06 0v-2.43A7.914 7.914 0 0 1 7 10.62c-2.613 0-4.478-1.43-5.092-1.97a1.162 1.162 0 0 1-.387-.878v-2.54l-.334-.136a.883.883 0 0 1-.038-1.619L6.628.93ZM2.582 7.771c0 .048.017.072.027.081.54.475 2.16 1.706 4.39 1.706.943 0 1.776-.198 2.465-.46V6.696l-2.088.972a.884.884 0 0 1-.756-.006L2.582 5.719v2.053Zm7.943-1.58v2.403a6.9 6.9 0 0 0 .863-.58c.01-.009.03-.033.03-.086V5.74l-.893.453ZM1.963 4.267l.303.124 4.738 2.28 1.793-.833-2.042-1.069a.53.53 0 1 1 .49-.94L10 5.27l1.73-.876.308-.126L7 1.925 1.963 4.267Z"/>
</svg>
