<svg width="14" height="14" fill="currentColor">
  <path d="M7 2.228c1.683 0 2.981.422 3.973 1.083.988.658 1.64 1.533 2.069 2.391.428.856.64 1.707.745 2.338a8.31 8.31 0 0 1 .105.992v.062l.002.018v1.423a1.24 1.24 0 0 1-1.238 1.238H1.344a1.238 1.238 0 0 1-1.238-1.238V9.106l.001-.032.004-.114a8.863 8.863 0 0 1 .28-1.747c.283-1.06.857-2.408 2.033-3.44C3.466 2.86 4.943 2.228 7 2.228Zm.53 2.297a.53.53 0 0 1-1.06 0v-1.22c-1.251.078-2.19.434-2.9.919l.979.989a.53.53 0 0 1-.754.746l-1.028-1.04c-.73.79-1.131 1.747-1.35 2.567a7.73 7.73 0 0 0-.21 1.105h1.197a.53.53 0 0 1 0 1.06H1.167v.884c0 .098.08.177.177.177h2.608l3.734-3.733a.53.53 0 0 1 .75.75l-2.984 2.983h7.204c.098 0 .177-.08.177-.177v-.884h-1.237a.53.53 0 0 1 0-1.06h1.198a7.662 7.662 0 0 0-.054-.377 7.289 7.289 0 0 0-.646-2.037 5.41 5.41 0 0 0-.855-1.252L10.203 5.96a.53.53 0 0 1-.75-.75l.982-.982-.05-.036c-.701-.467-1.626-.811-2.855-.888v1.22Z"/>
</svg>
