<svg width="14" height="14" fill="currentColor">
  <path d="M5.683.78a1.238 1.238 0 0 1 1.75 0l5.787 5.787a1.237 1.237 0 0 1 0 1.75l-1.545 1.545a1.238 1.238 0 0 1-1.75 0l-1.67-1.67-4.716 4.715a1.73 1.73 0 0 1-2.446-2.446l4.715-4.716-1.67-1.67a1.238 1.238 0 0 1 0-1.75L5.683.78Zm-3.84 10.43a.669.669 0 1 0 .946.946l4.716-4.715-.947-.947-4.715 4.716Zm4.84-9.682a.177.177 0 0 0-.25 0L4.888 3.075a.177.177 0 0 0 0 .25l5.787 5.787c.069.07.18.07.25 0l1.545-1.546a.176.176 0 0 0 0-.249L6.683 1.53Z"/>
</svg>
