<svg width="14" height="14" fill="currentColor">
  <path d="M1.52 1.082a.531.531 0 0 1 .53.53V3.67l.856-.856a5.932 5.932 0 0 1 8.371 0 5.919 5.919 0 0 1-8.37 8.372.526.526 0 0 1 .374-.905.53.53 0 0 1 .374.154c4.751 4.377 11.249-2.142 6.872-6.872a4.864 4.864 0 0 0-6.872 0l-.897.877h2.12a.53.53 0 0 1 0 1.061H1.522a.537.537 0 0 1-.53-.537V1.612a.531.531 0 0 1 .53-.53ZM7 3.995a.538.538 0 0 1 .509.53v2.277L9.12 8.414a.53.53 0 0 1-.333.862.526.526 0 0 1-.374-.155L6.625 7.375A.53.53 0 0 1 6.47 7V4.525a.538.538 0 0 1 .53-.53Z"/>
</svg>
