<svg width="14" height="14" fill="currentColor">
  <path d="M11.95 2.228a1.246 1.246 0 0 1 1.237 1.237v7.07a1.245 1.245 0 0 1-1.238 1.238H2.051a1.245 1.245 0 0 1-1.238-1.238v-7.07a1.245 1.245 0 0 1 1.238-1.237h9.898Zm-9.9 1.06a.177.177 0 0 0-.176.177v7.07a.177.177 0 0 0 .177.177h9.898a.178.178 0 0 0 .177-.177v-7.07a.178.178 0 0 0-.177-.177H2.051Zm2.83 3.889c.657 0 2.651 0 2.651 1.944a.538.538 0 0 1-.53.53.538.538 0 0 1-.53-.53c0-.48-.12-.884-1.591-.884-1.47 0-1.59.403-1.59.884a.53.53 0 1 1-1.061 0c0-1.944 1.993-1.944 2.65-1.944Zm4.95 0a.53.53 0 0 1 0 1.06H8.413a.53.53 0 1 1 0-1.06h1.414ZM4.603 4.022a1.414 1.414 0 1 1 .549 2.774 1.414 1.414 0 0 1-.55-2.774Zm5.931 1.034a.531.531 0 0 1 0 1.06h-2.12a.53.53 0 1 1 0-1.06h2.12Zm-5.656 0a.354.354 0 0 0-.25.603.355.355 0 0 0 .544-.053.356.356 0 0 0-.044-.447.355.355 0 0 0-.25-.103Z"/>
</svg>
