<svg width="14" height="14" fill="currentColor">
  <path d="M11.596 1.167a1.945 1.945 0 0 1 1.944 1.944v5.657a1.945 1.945 0 0 1-1.944 1.944h-.177v.177a1.944 1.944 0 0 1-1.944 1.944h-7.07A1.946 1.946 0 0 1 .46 10.889V5.232a1.945 1.945 0 0 1 1.944-1.944h.177v-.177a1.945 1.945 0 0 1 1.944-1.944h7.07ZM2.404 4.349a.884.884 0 0 0-.883.883v5.657a.885.885 0 0 0 .883.884h7.07a.885.885 0 0 0 .884-.884v-.177H4.525a1.945 1.945 0 0 1-1.944-1.944v-4.42h-.177Zm1.238 4.207v.212a.884.884 0 0 0 .883.883h2.673l1.485-1.754-2.447-2.396-2.594 3.055ZM8.59 9.65h3.005a.87.87 0 0 0 .862-.785l-1.86-1.576L8.59 9.65ZM4.525 2.228a.884.884 0 0 0-.883.883v3.81l2.156-2.566a.531.531 0 0 1 .382-.183.496.496 0 0 1 .368.177l2.827 2.743.757-.89a.526.526 0 0 1 .563-.159.523.523 0 0 1 .179.102l1.605 1.35V3.111a.884.884 0 0 0-.883-.883h-7.07Z"/>
</svg>
