<svg width="14" height="14" fill="currentColor">
  <path d="M9.39 1.344a1.232 1.232 0 0 1 1.11.707l2.52 4.056.011.01c.1.099.155.234.155.374v4.243a1.944 1.944 0 0 1-1.944 1.922H2.759a1.945 1.945 0 0 1-1.945-1.944v-4.18a.53.53 0 0 1 .077-.344L3.53 1.946a1.195 1.195 0 0 1 1.082-.602h4.78Zm-7.515 9.368a.884.884 0 0 0 .884.904h8.483a.884.884 0 0 0 .884-.882V7H9.623a2.644 2.644 0 0 1-5.245 0H1.875v3.712ZM4.61 2.384a.192.192 0 0 0-.163.099L2.298 5.96H4.88a.531.531 0 0 1 .53.53v.156a1.591 1.591 0 1 0 3.18 0V6.49a.531.531 0 0 1 .53-.53h2.582L9.581 2.525c-.057-.099-.113-.141-.184-.141H4.611Z"/>
</svg>
