<svg width="14" height="14" fill="currentColor">
  <path d="M11.242 1.52a1.945 1.945 0 0 1 1.944 1.945v7.07a1.945 1.945 0 0 1-1.944 1.944H2.758a1.945 1.945 0 0 1-1.945-1.944v-7.07A1.945 1.945 0 0 1 2.758 1.52h8.484Zm-3.818 9.9h3.818a.87.87 0 0 0 .849-.7L9.863 8.492l-2.44 2.927Zm-5.55-1.4v.516a.884.884 0 0 0 .884.87h3.288l1.781-2.122-2.913-2.912-3.04 3.648Zm.884-7.438a.884.884 0 0 0-.884.884v4.9l2.616-3.12a.56.56 0 0 1 .389-.191.496.496 0 0 1 .375.155l3.252 3.253.912-1.097a.558.558 0 0 1 .605-.157c.068.027.13.068.18.122l1.923 1.923v-5.79a.885.885 0 0 0-.884-.884H2.758Z"/>
</svg>
