<svg width="14" height="14" fill="currentColor">
  <path d="M7.895.965a4.08 4.08 0 0 1 5.192 4.695A4.08 4.08 0 0 1 6.63 8.125l-.006.008L4.89 9.834l1.035 1.035a.531.531 0 0 1-.75.75l-1.042-1.043-.67.66 1.048 1.047a.531.531 0 0 1-.578.866.523.523 0 0 1-.171-.117l-1.055-1.054-.692.68a.524.524 0 0 1-.354.177.532.532 0 0 1-.353-.884l.986-.988a.531.531 0 0 1 .146-.146l1.19-1.193.003-.006a.531.531 0 0 1 .293-.293c.002 0 .004 0 .006-.002l1.94-1.943A4.078 4.078 0 0 1 7.895.965Zm1.19.911a3.005 3.005 0 1 0 .016 6.01 3.005 3.005 0 0 0-.016-6.01Z"/>
</svg>
