<svg width="14" height="14" fill="currentColor">
  <path d="M10.09 5.67c.383 0 .715.241.863.63l2.114 5.91-.007.007a.53.53 0 0 1-.318.678.53.53 0 0 1-.679-.325l-.438-1.222H8.549L8.11 12.57a.53.53 0 0 1-.997-.36L9.22 6.313c.162-.402.488-.643.87-.643Zm-1.152 4.61h2.319l-1.16-3.245-1.159 3.245ZM4.611 1.082c.29 0 .53.24.53.53v1.4h2.652c.29 0 .53.24.53.53 0 .29-.24.53-.53.53h-.662c-1.596 2.52-3.037 4.046-4.79 5.063a.527.527 0 0 1-.72-.191.521.521 0 0 1 .19-.721c1.485-.863 2.701-2.1 4.066-4.15H1.43a.534.534 0 0 1-.53-.531c0-.29.24-.53.53-.53h2.65v-1.4c0-.29.24-.53.53-.53Zm.856 6.434a.53.53 0 0 1 .742-.107c.382.29.8.56 1.224.807a.531.531 0 1 1-.538.919c-.46-.269-.905-.566-1.322-.877a.53.53 0 0 1-.106-.742Z"/>
</svg>
