<svg width="14" height="14" fill="currentColor">
  <path d="M7 .813a3.36 3.36 0 0 1 3.358 3.359v1.59h.177a1.945 1.945 0 0 1 1.944 1.945v3.535a1.946 1.946 0 0 1-1.944 1.944h-7.07a1.945 1.945 0 0 1-1.944-1.944V7.707a1.945 1.945 0 0 1 1.944-1.944h.177V4.172A3.36 3.36 0 0 1 7 .813Zm-3.535 6.01a.884.884 0 0 0-.884.884v3.535a.884.884 0 0 0 .884.884h7.07a.885.885 0 0 0 .884-.884V7.707a.884.884 0 0 0-.884-.884h-7.07ZM7 1.874a2.298 2.298 0 0 0-2.298 2.298v1.59h4.596v-1.59A2.298 2.298 0 0 0 7 1.874Z"/>
</svg>
