<svg width="14" height="14" fill="currentColor">
  <path d="M1.928 9.488a.707.707 0 0 1 .407.043.707.707 0 0 1 .233.148.814.814 0 0 1 .149.234.665.665 0 0 1 0 .537.815.815 0 0 1-.149.233.707.707 0 0 1-.502.205.71.71 0 0 1-.268-.05 1.033 1.033 0 0 1-.234-.155.815.815 0 0 1-.148-.233.665.665 0 0 1 0-.537.815.815 0 0 1 .148-.234.709.709 0 0 1 .364-.191Zm10.037.163a.531.531 0 0 1 0 1.06H4.188a.531.531 0 0 1 0-1.06h7.777ZM2.208 6.293l.127.042.128.063c.037.026.072.055.105.085A.744.744 0 0 1 2.773 7a.708.708 0 0 1-.707.707.708.708 0 0 1-.268-.057.814.814 0 0 1-.234-.148A.707.707 0 0 1 1.36 7a.743.743 0 0 1 .205-.502.815.815 0 0 1 .234-.149.704.704 0 0 1 .41-.056Zm9.757.176a.531.531 0 0 1 0 1.061H4.188a.53.53 0 0 1 0-1.06h7.777ZM1.798 3.168a.707.707 0 0 1 .537 0 .707.707 0 0 1 .233.148c.13.136.203.315.205.502a.708.708 0 0 1-.205.502c-.07.062-.149.114-.233.155a.708.708 0 0 1-.269.05.707.707 0 0 1-.268-.05 1.033 1.033 0 0 1-.234-.155.707.707 0 0 1-.205-.502.743.743 0 0 1 .205-.502.658.658 0 0 1 .234-.148Zm10.167.12a.531.531 0 0 1 0 1.06H4.188a.53.53 0 0 1 0-1.06h7.777Z"/>
</svg>
