<svg width="14" height="14" fill="currentColor">
  <path d="M11.84 1.345a.87.87 0 0 1 .816.883v9.46a.948.948 0 0 1-.905.968H2.313a.997.997 0 0 1-.97-.969v-9.46a.926.926 0 0 1 .879-.882h9.618Zm-8.61 4.39v5.04h1.65v-5.04H3.23Zm5.67-.15a1.64 1.64 0 0 0-1.484.856v-.707H5.791v5.041h1.626v-2.87a.99.99 0 0 1 .057-.403.884.884 0 0 1 .827-.594c.587 0 .82.453.82 1.11v2.757h1.654V7.8c0-1.506-.806-2.213-1.874-2.213ZM4.108 3.233a.834.834 0 0 0-.877.87.835.835 0 0 0 .863.869.836.836 0 0 0 .877-.87.835.835 0 0 0-.863-.869Z"/>
</svg>
