<svg width="14" height="14" fill="currentColor">
  <path d="M5.112.885c.143 0 .285.029.417.085l3.359 1.414 2.524-1.082a1.237 1.237 0 0 1 1.173.106 1.35 1.35 0 0 1 .601 1.131v7.933a1.33 1.33 0 0 1-.798 1.237l-3.083 1.322a1.075 1.075 0 0 1-.834 0l-3.359-1.414-2.523 1.081a1.239 1.239 0 0 1-1.174-.105 1.352 1.352 0 0 1-.602-1.132V3.508a1.33 1.33 0 0 1 .8-1.237L4.694.97c.132-.056.274-.085.417-.085Zm.53 9.805 2.715 1.16V3.275l-2.715-1.16v8.575Zm6.275-8.436a.176.176 0 0 0-.088.023L9.418 3.31v8.54l2.553-1.096a.277.277 0 0 0 .117-.106c.027-.047.04-.1.038-.155V2.525a.285.285 0 0 0-.12-.248.178.178 0 0 0-.09-.023Zm-9.866.992a.276.276 0 0 0-.177.262v7.968a.284.284 0 0 0 .12.247.18.18 0 0 0 .089.024c.03 0 .061-.009.088-.024l2.41-1.033V2.15l-2.53 1.096Z"/>
</svg>
