<svg width="14" height="14" fill="currentColor">
  <path d="M10.542 4.578c.29 0 .53.24.53.53h-.007v2.99c0 1.987-1.57 3.6-3.536 3.699v1.343c0 .29-.24.53-.53.53-.29 0-.53-.24-.53-.53v-1.343c-1.966-.1-3.534-1.712-3.534-3.698v-2.99c0-.29.24-.53.53-.53.29 0 .53.24.53.53v2.99a2.665 2.665 0 0 0 2.665 2.658h.686a2.666 2.666 0 0 0 2.666-2.658v-2.99c0-.29.24-.53.53-.53ZM7.219.768c1.039 0 1.887.87 1.887 1.944v5.231c0 1.075-.841 1.945-1.887 1.945H6.78V9.88c-1.039 0-1.887-.87-1.887-1.944V2.712c0-1.075.84-1.944 1.887-1.944h.439Zm-.439 1.06c-.452 0-.827.396-.827.884v5.225c0 .487.368.883.827.883h.439c.452 0 .827-.396.827-.883V2.712c0-.488-.368-.884-.827-.884H6.78Z"/>
</svg>
