<svg width="14" height="14" fill="currentColor">
  <path d="M11.95 2.228a1.245 1.245 0 0 1 1.237 1.237v7.07a1.246 1.246 0 0 1-1.238 1.238H2.051a1.245 1.245 0 0 1-1.238-1.238v-7.07a1.245 1.245 0 0 1 1.238-1.237h9.898Zm-7.601 1.06c.007.097.007.194 0 .29a2.122 2.122 0 0 1-.644 1.541c-.112.11-.235.21-.367.297l-.113.063a1.758 1.758 0 0 1-.312.142l-.155.05a1.97 1.97 0 0 1-.282.07h-.602V8.28h.354c.072-.007.146-.007.22 0 .126.016.25.042.373.078l.142.057c.087.033.172.07.255.113l.12.077c.126.078.242.171.347.277a2.121 2.121 0 0 1 .642 1.54c.007.097.007.194 0 .29l5.366-.014a1.93 1.93 0 0 1 0-.289 2.123 2.123 0 0 1 .644-1.542 1.85 1.85 0 0 1 .347-.275l.12-.078c.089-.048.18-.09.275-.127l.142-.057c.122-.036.248-.062.375-.078.072-.007.146-.007.219 0h.353V5.734h-.594a1.918 1.918 0 0 1-.29-.063l-.155-.05a1.758 1.758 0 0 1-.312-.142l-.112-.063a2.053 2.053 0 0 1-.368-.297 2.12 2.12 0 0 1-.644-1.54 1.931 1.931 0 0 1 0-.29H4.35Zm7.374 6.073h-.092c-.08.017-.158.04-.233.07h-.085a.915.915 0 0 0-.27.199 1.121 1.121 0 0 0-.331.792c0 .098.014.196.042.29h1.195a.178.178 0 0 0 .177-.177V9.361h-.149c-.084-.01-.17-.01-.254 0Zm-9.7-.007h-.149v1.181a.177.177 0 0 0 .177.17h1.195c.028-.094.042-.192.042-.29a1.12 1.12 0 0 0-.6-.99h-.085a.891.891 0 0 0-.234-.07h-.092a.99.99 0 0 0-.255 0ZM7 4.525a2.475 2.475 0 1 1 0 4.95 2.475 2.475 0 0 1 0-4.95Zm.541 1.168a1.414 1.414 0 1 0-1.08 2.614 1.414 1.414 0 0 0 1.08-2.614Zm3.213-2.398a1.028 1.028 0 0 0-.042.29 1.12 1.12 0 0 0 .332.792c.076.082.168.15.268.198h.086c.075.031.153.054.233.07h.092c.084.011.17.011.254 0h.149v-1.18a.177.177 0 0 0-.177-.17h-1.195ZM2.05 3.288a.177.177 0 0 0-.177.177v1.174h.148c.085.01.17.01.255 0h.099a.795.795 0 0 0 .22-.07h.091a1.119 1.119 0 0 0 .6-.99c0-.099-.013-.197-.04-.29H2.05Z"/>
</svg>
