<svg width="14" height="14" fill="currentColor">
  <path d="M4.879 9.298c.683 0 1.237.554 1.237 1.237v1.414c0 .684-.554 1.238-1.237 1.238H2.05a1.238 1.238 0 0 1-1.238-1.238v-1.414c0-.683.555-1.237 1.238-1.237h2.828Zm7.07-2.828c.683 0 1.238.554 1.238 1.237v4.242a1.24 1.24 0 0 1-1.238 1.238H9.121a1.237 1.237 0 0 1-1.237-1.238V7.707c0-.683.554-1.237 1.237-1.237h2.828Zm-9.898 3.888a.177.177 0 0 0-.177.177v1.414c0 .098.08.177.177.177h2.828c.098 0 .177-.08.177-.177v-1.414a.177.177 0 0 0-.177-.177H2.05ZM9.12 7.53a.177.177 0 0 0-.177.177v4.242c0 .098.08.177.177.177h2.828c.098 0 .177-.08.177-.177V7.707a.177.177 0 0 0-.177-.177H9.121ZM4.88.813c.683 0 1.237.555 1.237 1.238v4.242c0 .683-.554 1.237-1.237 1.237H2.05A1.237 1.237 0 0 1 .813 6.293V2.051A1.24 1.24 0 0 1 2.051.813h2.828ZM2.05 1.874a.177.177 0 0 0-.177.177v4.242c0 .098.08.177.177.177h2.828c.098 0 .177-.08.177-.177V2.051a.177.177 0 0 0-.177-.177H2.05Zm9.898-1.06c.683 0 1.237.554 1.238 1.237v1.414c0 .683-.555 1.237-1.238 1.237H9.121a1.237 1.237 0 0 1-1.237-1.237V2.05c0-.683.554-1.238 1.237-1.238h2.828ZM9.12 1.874a.177.177 0 0 0-.177.177v1.414c0 .097.08.177.177.177h2.828c.098 0 .177-.08.177-.177V2.05a.177.177 0 0 0-.177-.177H9.121Z"/>
</svg>
