<svg width="14" height="14" fill="currentColor">
  <path d="M9.475.813a.885.885 0 0 1 .883.884v1.945h.884a1.945 1.945 0 0 1 1.944 1.944v2.828a1.945 1.945 0 0 1-1.944 1.944h-.884v1.945a.884.884 0 0 1-.883.883h-4.95a.884.884 0 0 1-.883-.883v-1.945h-.884A1.945 1.945 0 0 1 .813 8.414V5.586a1.945 1.945 0 0 1 1.945-1.944h.884V1.697a.884.884 0 0 1 .883-.884h4.95ZM4.702 12.126h4.596V7.53H4.702v4.596ZM2.758 4.702a.884.884 0 0 0-.884.884v2.828a.884.884 0 0 0 .884.884h.884V7.354a.884.884 0 0 1 .883-.884h4.95a.884.884 0 0 1 .883.884v1.944h.884a.884.884 0 0 0 .884-.884V5.586a.885.885 0 0 0-.884-.884H2.758Zm1.944-1.06h4.596V1.874H4.702v1.768Z"/>
</svg>
