<svg width="14" height="14" fill="currentColor">
  <path d="M8.946 7.389v3.888l-.516.77-.608.61H6.097l-.609-.61-.515-.77V7.39l.692-1.04.432.262h1.725l.43-.261.694 1.039Zm-4.235 2.85v1.293l-1.124-1.124V9.291l1.124.947Zm5.613.17-1.116 1.123v-1.294l1.116-.947v1.117ZM3.587 5.571l.954.954.778-.176-.608.862v2.68L2.64 8.167V5.232l.947.34Zm7.692 2.595L9.208 9.892v-2.68L8.6 6.35l.777.176.947-.954.955-.34v2.935Zm-2.51-5.19 3.182-.22-.53 2.122-3.712 1.414h-.58v-4.95h.954l.687 1.635ZM6.79 6.266h-.523l-3.712-1.38-.524-2.162 3.118.254.686-1.633h.955v4.92ZM5.573 1.344l-.6 1.379-1.817-.17 1.208-1.21h1.21Zm5.19 1.209-1.817.17-.608-1.38h1.209l1.216 1.21Z"/>
</svg>
