<svg width="14" height="14" fill="currentColor">
  <path d="M6.47 1.875a.53.53 0 0 1 0 1.06H2.625c-.412 0-.75.34-.751.751v7.689c0 .412.34.75.751.75h7.688a.755.755 0 0 0 .752-.75V7.53a.53.53 0 0 1 1.06 0v3.844c0 .997-.814 1.811-1.812 1.811H2.625a1.815 1.815 0 0 1-1.812-1.811V3.686c0-.998.814-1.811 1.812-1.811H6.47ZM11.58.814c.398.009.823.154 1.132.464.303.303.456.717.472 1.113.015.397-.106.834-.427 1.156L7.326 8.986A.53.53 0 0 1 7 9.139l-1.719.156a.53.53 0 0 1-.576-.57l.137-1.702a.53.53 0 0 1 .153-.332l5.432-5.439c.32-.32.757-.447 1.155-.438Zm-.023 1.06a.525.525 0 0 0-.382.128l-5.293 5.3-.071.88.9-.082 5.295-5.302a.486.486 0 0 0 .118-.364.621.621 0 0 0-.163-.407.6.6 0 0 0-.404-.152Z"/>
</svg>
