<svg width="14" height="14" fill="currentColor">
  <path d="M7 1.344A5.655 5.655 0 0 1 12.656 7a5.655 5.655 0 0 1-7.33 5.402c.23-.376.575-.992.702-1.482l.352-1.345c.185.351.723.65 1.295.65 1.706 0 2.935-1.57 2.935-3.519 0-1.868-1.526-3.267-3.487-3.267-2.44 0-3.738 1.639-3.738 3.424 0 .83.443 1.863 1.147 2.192.107.05.165.027.19-.076l.157-.64a.17.17 0 0 0-.04-.162c-.23-.285-.416-.806-.416-1.291 0-1.248.944-2.454 2.555-2.454 1.388 0 2.362.947 2.362 2.301 0 1.53-.774 2.591-1.78 2.591-.553 0-.97-.46-.836-1.022.16-.673.467-1.398.467-1.884 0-.433-.232-.796-.715-.796-.568 0-1.025.586-1.025 1.373 0 .502.17.84.17.84-.009.033-.56 2.37-.662 2.81-.114.488-.068 1.177-.02 1.624A5.66 5.66 0 0 1 1.343 7 5.655 5.655 0 0 1 7 1.344Z"/>
</svg>
