<svg width="14" height="14" fill="currentColor">
  <path d="M4.177.82a1.668 1.668 0 0 1 1.648 1.414c.067.506.192 1.002.374 1.478a1.676 1.676 0 0 1-.382 1.76l-.431.431a8.484 8.484 0 0 0 2.665 2.652l.432-.424a1.676 1.676 0 0 1 1.76-.382c.477.18.973.305 1.478.374a1.662 1.662 0 0 1 1.414 1.684v1.696a1.67 1.67 0 0 1-1.662 1.669l.057.013h-.162a11.831 11.831 0 0 1-5.141-1.824 11.723 11.723 0 0 1-3.577-3.57A11.823 11.823 0 0 1 .825 2.637a1.627 1.627 0 0 1 .382-1.223A1.64 1.64 0 0 1 2.34.82h1.838Zm-1.69 1.054a.616.616 0 0 0-.573.657c.172 1.666.732 3.27 1.634 4.68a10.607 10.607 0 0 0 3.245 3.246 10.844 10.844 0 0 0 4.687 1.668.63.63 0 0 0 .474-.177.623.623 0 0 0 .177-.43v-1.69a.608.608 0 0 0-.523-.616 8.076 8.076 0 0 1-1.711-.424.617.617 0 0 0-.644.135l-.707.707a.538.538 0 0 1-.637.084 9.566 9.566 0 0 1-3.612-3.606.524.524 0 0 1 .085-.635l.707-.707a.601.601 0 0 0 .134-.637 7.976 7.976 0 0 1-.424-1.711.616.616 0 0 0-.622-.544h-1.69Z"/>
</svg>
