<svg width="14" height="14" fill="currentColor">
  <path d="M7.043 1.52c2.955.043 5.387 2.482 5.43 5.43.035 2.715-1.952 5.084-4.631 5.515a.868.868 0 0 1-.19.014 1.183 1.183 0 0 1-.807-.296 1.217 1.217 0 0 1-.424-.92c.007-1.251-.29-2.191-.89-2.792-.594-.594-1.52-.899-2.75-.899h-.044c-.353 0-.685-.155-.919-.43a1.225 1.225 0 0 1-.283-.997C1.96 3.493 4.293 1.52 6.973 1.52h.07Zm-.07 1.061a4.475 4.475 0 0 0-4.39 3.733c-.015.07.027.12.041.141.021.021.057.057.113.057h.043c1.52 0 2.7.41 3.5 1.209.805.806 1.209 2.001 1.202 3.55 0 .049.035.084.056.105.043.035.1.043.142.043h.007c2.156-.347 3.761-2.263 3.733-4.454-.035-2.347-2.044-4.349-4.384-4.384h-.063ZM9.1 8.45c.395 0 .713.318.714.714a.716.716 0 0 1-.714.714.712.712 0 0 1-.714-.714c0-.396.318-.714.714-.714Zm.89-2.135c.396 0 .714.318.714.714a.716.716 0 0 1-.714.714.712.712 0 0 1-.714-.714c0-.396.318-.713.714-.714ZM4.831 4.18c.395 0 .713.319.713.715a.717.717 0 0 1-.714.713.712.712 0 0 1-.714-.713c0-.396.318-.715.714-.715Zm4.276 0c.396 0 .714.319.714.715a.712.712 0 0 1-.714.713.712.712 0 0 1-.713-.713c0-.39.318-.715.713-.715Zm-2.141-.89c.395 0 .714.317.714.713a.713.713 0 1 1-.714-.714Z"/>
</svg>
