<svg width="14" height="14" fill="currentColor">
  <path d="M9.363.818c.744 0 1.461.279 2.011.78a2.899 2.899 0 0 1 .927 2.079 2.45 2.45 0 0 1-.778 1.802L6.17 10.535a1.747 1.747 0 0 1-2.376 0 1.579 1.579 0 0 1 0-2.32l4.95-4.658a.531.531 0 0 1 .75.749l-4.95 4.659a.52.52 0 0 0-.13.602c.03.067.074.128.13.176a.707.707 0 0 0 .919 0l5.351-5.04a1.417 1.417 0 0 0 .425-1.026 1.816 1.816 0 0 0-.594-1.301 1.888 1.888 0 0 0-2.566 0L2.756 7.417a2.637 2.637 0 0 0 0 3.889 3.11 3.11 0 0 0 4.242 0l5.296-5.013a.524.524 0 0 1 .749 0 .532.532 0 0 1 0 .749l-5.338 5.034a4.129 4.129 0 0 1-2.87 1.103 4.137 4.137 0 0 1-2.828-1.103 3.7 3.7 0 0 1 0-5.43L7.352 1.6A2.985 2.985 0 0 1 9.363.82Z"/>
</svg>
