<svg width="14" height="14" fill="currentColor">
  <path d="M6.254 12.264h-4.95v-4.95h4.95v4.95Zm3.535 0H8.552v-1.238h1.237v1.238Zm2.475-1.238v1.238h-1.238v-1.238h1.238Zm-9.899.177h2.828V8.375H2.365v2.828Zm6.187-.177H7.314V9.79h1.238v1.237Zm2.474 0H9.79V9.79h1.237v1.237ZM9.79 9.79H8.552V8.552h1.237v1.237Zm2.475 0h-1.238V8.552h1.238v1.237ZM8.552 8.552H7.314V7.314h1.238v1.238Zm2.474 0H9.79V7.314h1.237v1.238ZM6.254 6.254h-4.95v-4.95h4.95v4.95Zm6.01 0h-4.95v-4.95h4.95v4.95Zm-9.899-1.06h2.828v-2.83H2.365v2.828Zm6.01 0h2.828v-2.83H8.375v2.828Z"/>
</svg>
