<svg width="14" height="14" fill="currentColor">
  <path d="M7.99 1.02a.6.6 0 0 1 .849 0l.99.989.917-.92a.601.601 0 0 1 1.027.425v10.971a.601.601 0 0 1-1.027.425l-.918-.918-.99.99a.601.601 0 0 1-.849 0L7 11.991l-.99.99a.601.601 0 0 1-.849 0l-.99-.99-.917.918a.601.601 0 0 1-1.026-.425V1.515a.601.601 0 0 1 1.026-.425l.918.919.99-.99a.6.6 0 0 1 .849 0L7 2.01l.99-.99Zm-.565 2.063a.6.6 0 0 1-.85 0l-.99-.99-.988.99a.6.6 0 0 1-.85 0l-.459-.46v8.753l.46-.46a.601.601 0 0 1 .849 0l.989.99.99-.99a.601.601 0 0 1 .849 0l.99.99.988-.99a.601.601 0 0 1 .85 0l.459.46V2.624l-.46.459a.6.6 0 0 1-.849 0l-.989-.99-.99.99Zm.99 5.508a.53.53 0 0 1 0 1.06h-2.83a.53.53 0 0 1 0-1.06h2.83Zm0-2.122a.53.53 0 0 1 0 1.061h-2.83a.53.53 0 0 1 0-1.06h2.83Zm0-2.12a.53.53 0 0 1 0 1.06h-2.83a.53.53 0 0 1 0-1.06h2.83Z"/>
</svg>
