<svg width="14" height="14" fill="currentColor">
  <path d="M7 1.345a5.657 5.657 0 0 1 4.703 8.798A5.656 5.656 0 1 1 7 1.345Zm2.516 2.272a.558.558 0 0 0-.636.315l-1.414-.31a.134.134 0 0 0-.155.099L6.873 5.69a3.662 3.662 0 0 0-1.958.601.758.758 0 0 0-1.137.996.757.757 0 0 0 .253.206 1.93 1.93 0 0 0 0 .354c0 1.194 1.35 2.17 3.012 2.17 1.66 0 3.011-.976 3.011-2.17 0-.122-.013-.243-.042-.36a.757.757 0 0 0-.34-1.415l-.035-.014a.793.793 0 0 0-.516.233 3.627 3.627 0 0 0-1.958-.6l.395-1.79 1.266.284a.56.56 0 0 0 .959.395.573.573 0 0 0 .165-.402.559.559 0 0 0-.432-.563ZM8.226 8.68a.142.142 0 0 1 .047.032.138.138 0 0 1 .043.1.135.135 0 0 1-.012.053.134.134 0 0 1-.031.045 2.243 2.243 0 0 1-2.518 0 .134.134 0 0 1-.043-.099.135.135 0 0 1 .043-.1.142.142 0 0 1 .192 0 1.994 1.994 0 0 0 2.12 0 .142.142 0 0 1 .16-.031Zm-2.58-1.67a.567.567 0 1 1 .22 1.112.567.567 0 0 1-.22-1.112ZM8.244 7a.566.566 0 1 1-.002 1.131A.566.566 0 0 1 8.245 7Z"/>
</svg>
