<svg width="14" height="14" fill="currentColor">
  <path d="M11.51 8.15a.538.538 0 0 1 .214.037.528.528 0 0 1 .312.264.525.525 0 0 1 .027.408 5.12 5.12 0 0 1-8.484 1.965l-.594-.594v1.72a.53.53 0 0 1-1.06 0v-3a.524.524 0 0 1 .53-.53h2.998a.531.531 0 0 1 0 1.06H3.706l.595.594a4.073 4.073 0 0 0 5.747 0c.44-.436.771-.969.969-1.555a.541.541 0 0 1 .493-.37Zm.037-6.63a.532.532 0 0 1 .53.53v3.006a.524.524 0 0 1-.53.53H8.55a.53.53 0 1 1 0-1.06h1.704l-.595-.594a4.073 4.073 0 0 0-5.747 0c-.44.436-.771.969-.969 1.555a.538.538 0 0 1-.502.36.518.518 0 0 1-.176 0 .525.525 0 0 1-.326-.706 5.119 5.119 0 0 1 8.484-1.965l.594.594V2.05a.538.538 0 0 1 .53-.53Z"/>
</svg>
