<svg width="14" height="14" fill="currentColor">
  <path d="M3.11 1.52a.53.53 0 0 1 .259.07c.041.024.082.05.117.086l1.767 1.767a.534.534 0 0 1 0 .75.525.525 0 0 1-.375.156.524.524 0 0 1-.374-.156l-.863-.863v8.62c0 .289-.24.53-.53.53a.534.534 0 0 1-.53-.53V3.33l-.863.862a.533.533 0 0 1-.749 0 .534.534 0 0 1 0-.75l1.768-1.767a.518.518 0 0 1 .128-.092.521.521 0 0 1 .246-.063Zm9.546 8.131c.29 0 .53.24.53.53 0 .29-.24.53-.53.53H7c-.29 0-.53-.24-.53-.53 0-.29.24-.53.53-.53h5.656Zm-1.414-2.12c.29 0 .53.24.53.53 0 .29-.24.53-.53.53H7c-.29 0-.53-.24-.53-.53 0-.29.24-.53.53-.53h4.242ZM9.828 5.408c.29 0 .53.24.53.53 0 .29-.24.53-.53.53H7c-.29 0-.53-.24-.53-.53 0-.29.24-.53.53-.53h2.828ZM8.414 3.29c.29 0 .53.24.53.53 0 .29-.24.53-.53.53H7c-.29 0-.53-.24-.53-.53 0-.29.24-.53.53-.53h1.414Z"/>
</svg>
