<svg width="14" height="14" fill="currentColor">
  <path d="M10.196 1.521c.375 0 .73.171.965.464l1.697 2.121c.648.81.071 2.01-.966 2.01h-.12v5.833a.53.53 0 0 1-1.06 0V6.116h-1.06v4.42a1.946 1.946 0 0 1-1.945 1.944H4.172a1.944 1.944 0 0 1-1.944-1.945V6.116h-.12c-1.038 0-1.614-1.2-.966-2.01l1.697-2.12c.235-.294.59-.465.966-.465h6.39Zm-6.908 9.014c0 .488.396.884.884.884h3.535a.884.884 0 0 0 .884-.884V6.116h-.884v3.182c0 .683-.554 1.237-1.237 1.237H5.41a1.237 1.237 0 0 1-1.238-1.237V6.116h-.884v4.42Zm1.945-1.237c0 .097.079.177.176.177H6.47c.097 0 .177-.08.177-.177V6.116H5.233v3.182ZM3.805 2.582a.176.176 0 0 0-.138.065L1.97 4.77a.177.177 0 0 0 .138.287h9.784a.177.177 0 0 0 .139-.287l-1.698-2.122a.177.177 0 0 0-.137-.065H3.805Z"/>
</svg>
