<svg width="14" height="14" fill="currentColor">
  <path d="M9.828 1.52c.29 0 .53.241.53.53v.843l.862-.863a.534.534 0 0 1 .75 0 .533.533 0 0 1 0 .75l-7.268 7.267v1.902c0 .29-.24.53-.53.53-.29 0-.53-.24-.53-.53v-.842l-.863.864a.526.526 0 0 1-.75 0 .534.534 0 0 1 0-.75l7.268-7.268V2.051c0-.29.241-.53.53-.53Zm0 4.596c.29 0 .53.24.53.53v4.024l.862-.863a.534.534 0 0 1 .75 0 .534.534 0 0 1 0 .75l-1.767 1.767a.554.554 0 0 1-.375.155.549.549 0 0 1-.374-.155l-1.768-1.767a.534.534 0 0 1 0-.75.534.534 0 0 1 .75 0l.861.863V6.646c0-.29.241-.53.53-.53ZM3.974 1.563a.5.5 0 0 1 .403 0 .55.55 0 0 1 .17.114l1.767 1.767a.533.533 0 0 1 0 .75.525.525 0 0 1-.375.155.524.524 0 0 1-.374-.156l-.862-.862v4.023c0 .29-.24.53-.53.53-.29 0-.53-.24-.53-.53V3.33l-.864.862h.008a.534.534 0 0 1-.75 0 .533.533 0 0 1 0-.749l1.767-1.767a.55.55 0 0 1 .17-.114Z"/>
</svg>
