<svg width="14" height="14" fill="currentColor">
  <path d="M4.15 1.563a.5.5 0 0 1 .402 0c.064.028.12.064.17.113h.007l1.768 1.768a.533.533 0 0 1-.374.905.526.526 0 0 1-.375-.156l-.863-.862v8.618c0 .29-.24.53-.53.53-.29 0-.53-.24-.53-.53V3.33l-.863.862a.534.534 0 0 1-.75 0 .533.533 0 0 1 0-.75L3.98 1.677a.55.55 0 0 1 .17-.113Zm5.854 5.968c.31 0 .586.198.707.502l1.208 3.386v.007a.53.53 0 0 1-.317.679.532.532 0 0 1-.68-.325l-.197-.552H9.29l-.199.552a.53.53 0 0 1-.996-.361l1.201-3.373c.12-.318.397-.515.708-.515Zm-.34 2.637h.68l-.34-.948-.34.947ZM10.98 1.88c.325 0 .608.191.742.502a.88.88 0 0 1-.169.954L9.558 5.41h1.69c.29 0 .53.24.53.53 0 .29-.24.53-.53.53H9.035a.803.803 0 0 1-.742-.503l.006.008a.882.882 0 0 1 .17-.947l2.001-2.086H8.78a.534.534 0 0 1-.53-.53c0-.29.24-.53.53-.53h2.2Z"/>
</svg>
