<svg width="14" height="14" fill="currentColor">
  <path d="M7 .839a.553.553 0 0 1 .473.27l1.72 3.47 3.831.559a.524.524 0 0 1 .424.361.53.53 0 0 1-.127.544l-2.786 2.701.657 3.818a.538.538 0 0 1-.212.523.515.515 0 0 1-.55.035L7 11.317 3.57 13.12a.53.53 0 0 1-.559-.035.538.538 0 0 1-.212-.524l.665-3.817L.679 6.043a.53.53 0 0 1-.127-.544.526.526 0 0 1 .424-.361l3.832-.559 1.718-3.47A.553.553 0 0 1 7 .838ZM5.635 5.3a.537.537 0 0 1-.395.29l-3.048.445 2.206 2.121a.551.551 0 0 1 .149.474l-.516 3.054 2.722-1.415A.6.6 0 0 1 7 10.194c.085.001.17.02.248.057l2.721 1.414-.516-3.033a.553.553 0 0 1 .15-.474l2.204-2.12-3.047-.453a.54.54 0 0 1-.395-.29L7 2.536 5.635 5.301Z"/>
</svg>
