<svg width="14" height="14" fill="currentColor">
  <path d="M6.823 2.758a4.954 4.954 0 0 1 4.948 4.949 4.954 4.954 0 0 1-4.948 4.95 4.955 4.955 0 0 1-4.949-4.95c0-2.729 2.22-4.95 4.95-4.95Zm0 1.06a3.896 3.896 0 0 0-3.888 3.889 3.896 3.896 0 0 0 3.888 3.889 3.895 3.895 0 0 0 3.888-3.889 3.895 3.895 0 0 0-3.888-3.889Zm0 1.238c.29 0 .53.24.53.53v2.121c0 .29-.24.53-.53.53-.29 0-.53-.24-.53-.53V5.586c0-.29.24-.53.53-.53Zm3.344-2.503a.533.533 0 0 1 .749 0l1.06 1.06a.534.534 0 0 1 0 .75.526.526 0 0 1-.75 0l-1.059-1.06a.534.534 0 0 1 0-.75ZM8.59 1.343c.29 0 .53.241.53.531 0 .29-.24.53-.53.53H5.056c-.29 0-.53-.24-.53-.53 0-.29.24-.53.53-.53H8.59Z"/>
</svg>
