<svg width="14" height="14" fill="currentColor">
  <path d="M3.818 6.47a.53.53 0 0 1 .53.53v4.95a.538.538 0 0 1-.53.53.538.538 0 0 1-.53-.53V7a.53.53 0 0 1 .53-.53ZM7 9.298a.53.53 0 0 1 .53.53v2.121a.538.538 0 0 1-.53.53.538.538 0 0 1-.53-.53V9.83A.53.53 0 0 1 7 9.297Zm3.182-2.828a.53.53 0 0 1 .53.53v4.95a.538.538 0 0 1-.53.53.538.538 0 0 1-.53-.53V7a.53.53 0 0 1 .53-.53ZM7 1.52a.531.531 0 0 1 .53.53v5.834h.53a.53.53 0 0 1 0 1.06H5.94a.53.53 0 0 1 0-1.06h.53V2.05A.53.53 0 0 1 7 1.52Zm-3.182 0a.531.531 0 0 1 .53.53v3.006h.53a.531.531 0 0 1 0 1.06h-2.12a.53.53 0 0 1 0-1.06h.53V2.05a.53.53 0 0 1 .53-.53Zm6.364 0a.532.532 0 0 1 .53.53v3.006h.53a.531.531 0 0 1 0 1.06h-2.12a.53.53 0 1 1 0-1.06h.53V2.05a.53.53 0 0 1 .53-.53Z"/>
</svg>
