<svg width="14" height="14" fill="currentColor">
  <path d="M3.11 1.521c.29 0 .531.24.531.53v8.618l.862-.862a.534.534 0 0 1 .75 0 .534.534 0 0 1 0 .75l-1.767 1.767a.52.52 0 0 1-.242.136l-.03.009a.545.545 0 0 1-.206 0l-.034-.01a.521.521 0 0 1-.237-.135L.969 10.557a.534.534 0 0 1 0-.75.534.534 0 0 1 .75 0l.862.862V2.052c0-.29.24-.53.53-.53Zm9.546 8.13c.29 0 .53.24.53.53 0 .29-.24.53-.53.53H7c-.29 0-.53-.24-.53-.53 0-.29.24-.53.53-.53h5.656Zm-1.414-2.12c.29 0 .53.24.53.53 0 .29-.24.53-.53.53H7c-.29 0-.53-.24-.53-.53 0-.29.24-.53.53-.53h4.242ZM9.828 5.408c.29 0 .53.24.53.53 0 .29-.24.53-.53.53H7c-.29 0-.53-.24-.53-.53 0-.29.24-.53.53-.53h2.828ZM8.414 3.29c.29 0 .53.24.53.53 0 .29-.24.53-.53.53H7c-.29 0-.53-.24-.53-.53 0-.29.24-.53.53-.53h1.414Z"/>
</svg>
