<svg width="14" height="14" fill="currentColor">
  <path d="M4.172 1.52a.52.52 0 0 1 .257.07c.042.024.082.05.117.086l1.768 1.767a.534.534 0 0 1 0 .75.525.525 0 0 1-.749 0l-.862-.862v8.618c0 .29-.241.53-.53.53-.29 0-.53-.24-.53-.53V3.33l-.864.863a.533.533 0 0 1-.75 0 .534.534 0 0 1 0-.75l1.768-1.767a.519.519 0 0 1 .128-.092.523.523 0 0 1 .247-.063Zm5.656 0c.29 0 .53.241.53.53v8.619l.862-.862a.534.534 0 0 1 .75 0 .533.533 0 0 1 0 .749l-1.767 1.767a.523.523 0 0 1-.242.137l-.03.009a.545.545 0 0 1-.206 0l-.034-.01a.521.521 0 0 1-.237-.136l-1.768-1.767a.533.533 0 0 1 0-.75.533.533 0 0 1 .75 0l.861.863V2.05c0-.29.241-.53.53-.53Z"/>
</svg>
