<svg width="14" height="14" fill="currentColor">
  <path d="M12.303 1.698a.708.708 0 0 1 .707.707v2.12a.708.708 0 0 1-.707.707.708.708 0 0 1 .707.707v2.122a.708.708 0 0 1-.707.707.708.708 0 0 1 .707.707v2.12a.708.708 0 0 1-.707.708H1.697a.707.707 0 0 1-.707-.707V9.475a.708.708 0 0 1 .707-.707.708.708 0 0 1-.707-.707V5.939a.708.708 0 0 1 .707-.707.708.708 0 0 1-.707-.707v-2.12a.708.708 0 0 1 .707-.707h10.606ZM1.697 11.596h10.606V9.475H1.697v2.12Zm1.238-1.591a.53.53 0 1 1 0 1.06.53.53 0 0 1 0-1.06Zm1.767 0a.53.53 0 1 1 0 1.06.53.53 0 0 1 0-1.06ZM1.697 8.06h10.606V5.939H1.697v2.122Zm1.238-1.59a.53.53 0 1 1 0 1.06.53.53 0 0 1 0-1.06Zm1.767 0a.53.53 0 1 1 0 1.06.53.53 0 0 1 0-1.06ZM1.697 4.525h10.606v-2.12H1.697v2.12Zm1.238-1.59a.53.53 0 1 1 0 1.06.53.53 0 0 1 0-1.06Zm1.767 0a.53.53 0 1 1 0 1.06.53.53 0 0 1 0-1.06Z"/>
</svg>
