<svg width="14" height="14" fill="currentColor">
  <path d="M3.111 1.521c.063 0 .123.013.18.034l.022.008.03.014a.52.52 0 0 1 .143.1l1.768 1.767a.534.534 0 0 1 0 .75.525.525 0 0 1-.375.155.525.525 0 0 1-.375-.156l-.863-.862v8.618c0 .29-.24.53-.53.53-.29 0-.53-.24-.53-.53V3.331l-.862.862a.534.534 0 0 1-.75 0 .534.534 0 0 1 0-.749l1.767-1.767a.522.522 0 0 1 .2-.123.518.518 0 0 1 .175-.033Zm5.303 8.13c.29 0 .53.24.53.53 0 .29-.24.53-.53.53H7c-.29 0-.53-.24-.53-.53 0-.29.24-.53.53-.53h1.414Zm1.414-2.12c.29 0 .53.24.53.53 0 .29-.24.53-.53.53H7c-.29 0-.53-.24-.53-.53 0-.29.24-.53.53-.53h2.828Zm1.414-2.122c.29 0 .53.24.53.53 0 .29-.24.53-.53.53H7c-.29 0-.53-.24-.53-.53 0-.29.24-.53.53-.53h4.242Zm1.414-2.12c.29 0 .53.24.53.53 0 .29-.24.53-.53.53H7c-.29 0-.53-.24-.53-.53 0-.29.24-.53.53-.53h5.656Z"/>
</svg>
