<svg width="14" height="14" fill="currentColor">
  <path d="M4.15 1.563a.501.501 0 0 1 .403 0 .55.55 0 0 1 .17.113h.007l1.767 1.768a.534.534 0 0 1 0 .75.525.525 0 0 1-.749 0l-.863-.863v8.619c0 .29-.24.529-.53.53-.29 0-.53-.24-.53-.53V3.33l-.863.864a.534.534 0 0 1-.75 0 .534.534 0 0 1 0-.75L3.98 1.676a.55.55 0 0 1 .17-.113Zm6.822 5.968a.8.8 0 0 1 .742.502l.007.007a.88.88 0 0 1-.169.954l-1.994 2.072h1.69c.29 0 .53.24.53.53 0 .29-.24.53-.53.53H9.035a.803.803 0 0 1-.742-.501.883.883 0 0 1 .17-.949l2-2.085H8.774c-.29 0-.53-.24-.53-.53 0-.29.24-.53.53-.53h2.198Zm-.968-5.65a.77.77 0 0 1 .707.502l1.208 3.387a.53.53 0 0 1-.317.679.531.531 0 0 1-.679-.325l-.198-.552H9.29l-.199.552a.53.53 0 0 1-.678.318v.007a.53.53 0 0 1-.318-.679l1.201-3.372c.12-.318.397-.516.708-.517Zm-.34 2.63h.68l-.34-.947-.34.947Z"/>
</svg>
