<svg width="14" height="14" fill="currentColor">
  <path d="M11.114 9.724a.212.212 0 0 1 .402 0l.296.887a.21.21 0 0 0 .134.134l.886.296a.212.212 0 0 1 0 .402l-.886.296a.211.211 0 0 0-.134.134l-.296.887a.212.212 0 0 1-.402 0l-.296-.887a.211.211 0 0 0-.134-.134l-.887-.296a.212.212 0 0 1 0-.402l.887-.296a.211.211 0 0 0 .134-.134l.296-.887Zm-6.025-7.64c.183-.547.957-.547 1.14 0l1.087 3.26 3.259 1.086c.547.182.547.957 0 1.14l-3.26 1.086-1.086 3.26c-.183.547-.957.547-1.14 0l-1.087-3.26L.744 7.57c-.548-.182-.548-.958 0-1.14l3.258-1.086 1.087-3.26Zm-.153 3.813a.6.6 0 0 1-.38.38L2.387 7l2.17.724a.6.6 0 0 1 .379.38l.723 2.168.723-2.169a.6.6 0 0 1 .38-.38L8.932 7l-2.17-.723a.601.601 0 0 1-.38-.38l-.723-2.17-.723 2.17Zm6.178-4.656a.212.212 0 0 1 .402 0l.296.886c.021.063.07.113.134.135l.886.295a.212.212 0 0 1 0 .402l-.886.296a.212.212 0 0 0-.134.134l-.296.886a.212.212 0 0 1-.402 0l-.296-.886a.212.212 0 0 0-.134-.134l-.887-.296a.212.212 0 0 1 0-.402l.887-.295a.213.213 0 0 0 .134-.135l.296-.886Z"/>
</svg>
