<svg width="14" height="14" fill="currentColor">
  <path d="M5.508 7.304a1.189 1.189 0 0 1 1.188 1.188v2.976a1.189 1.189 0 0 1-2.376 0V8.492a1.188 1.188 0 0 1 1.188-1.188Zm2.984 2.977a1.188 1.188 0 1 1-1.188 1.187v-1.187h1.188Zm2.976-2.977a1.19 1.19 0 0 1 1.188 1.188 1.189 1.189 0 0 1-1.188 1.188H8.492a1.189 1.189 0 0 1 0-2.376h2.976ZM3.72 8.492a1.19 1.19 0 0 1-2.029.84 1.188 1.188 0 0 1 .841-2.028H3.72v1.188ZM5.508 4.32a1.188 1.188 0 0 1 0 2.375H2.532a1.19 1.19 0 0 1-1.188-1.188A1.188 1.188 0 0 1 2.532 4.32h2.976Zm2.984-2.977A1.188 1.188 0 0 1 9.68 2.532v2.976a1.188 1.188 0 0 1-2.376 0V2.532a1.189 1.189 0 0 1 1.188-1.188Zm3.208 3a1.19 1.19 0 0 1 .865 1.62 1.187 1.187 0 0 1-1.097.732H10.28V5.508a1.189 1.189 0 0 1 1.42-1.165ZM5.276 1.366a1.189 1.189 0 0 1 1.42 1.165V3.72H5.508a1.189 1.189 0 0 1-.232-2.353Z"/>
</svg>
