<svg width="14" height="14" fill="currentColor">
  <path d="M8.06.875a1.246 1.246 0 0 1 1.238 1.237v2.121A1.245 1.245 0 0 1 8.06 5.471h-.53v1.06h3.711A1.244 1.244 0 0 1 12.48 7.77v.883h.177a1.245 1.245 0 0 1 1.238 1.238v1.414a1.245 1.245 0 0 1-1.238 1.237h-1.414a1.245 1.245 0 0 1-1.237-1.237V9.89a1.245 1.245 0 0 1 1.237-1.238h.177V7.77a.177.177 0 0 0-.177-.177H7.53v1.06h.177A1.245 1.245 0 0 1 8.944 9.89v1.414a1.245 1.245 0 0 1-1.237 1.237H6.293a1.245 1.245 0 0 1-1.237-1.237V9.89a1.245 1.245 0 0 1 1.237-1.238h.177v-1.06H2.758a.177.177 0 0 0-.177.177v.883h.177A1.245 1.245 0 0 1 3.995 9.89v1.414a1.245 1.245 0 0 1-1.237 1.237H1.344a1.244 1.244 0 0 1-1.238-1.237V9.89a1.246 1.246 0 0 1 1.238-1.238h.177V7.77a1.245 1.245 0 0 1 1.237-1.24H6.47V5.47h-.53a1.245 1.245 0 0 1-1.238-1.238v-2.12A1.244 1.244 0 0 1 5.94.874h2.122ZM1.345 9.713a.177.177 0 0 0-.177.177v1.414a.177.177 0 0 0 .177.176h1.414a.178.178 0 0 0 .177-.176V9.89a.177.177 0 0 0-.177-.177H1.344Zm4.949 0a.177.177 0 0 0-.177.177v1.414a.177.177 0 0 0 .177.176h1.414a.177.177 0 0 0 .177-.176V9.89a.177.177 0 0 0-.177-.177H6.293Zm4.95 0a.177.177 0 0 0-.178.177v1.414a.177.177 0 0 0 .177.176h1.414a.177.177 0 0 0 .177-.176V9.89a.177.177 0 0 0-.177-.177h-1.414ZM5.938 1.936a.177.177 0 0 0-.176.176v2.121a.177.177 0 0 0 .176.177H8.06a.177.177 0 0 0 .176-.177v-2.12a.178.178 0 0 0-.176-.177H5.939Z"/>
</svg>
