<svg width="14" height="14" fill="currentColor">
  <path d="M4.348 1.521c.29 0 .53.24.53.53v8.619l.863-.863a.534.534 0 0 1 .75 0 .534.534 0 0 1 0 .75l-1.768 1.767a.55.55 0 0 1-.375.155.55.55 0 0 1-.375-.155l-1.766-1.767a.534.534 0 0 1 0-.75.534.534 0 0 1 .749 0l.862.863V2.052c0-.29.24-.53.53-.53Zm5.656 6.01c.311 0 .587.197.707.501l1.21 3.387v.007a.53.53 0 0 1-.319.678.53.53 0 0 1-.679-.325l-.198-.55H9.291l-.199.55a.53.53 0 1 1-.997-.36l1.202-3.372c.12-.318.396-.517.707-.517Zm-.34 2.637h.68l-.34-.947-.34.947Zm1.316-8.286a.8.8 0 0 1 .742.502.88.88 0 0 1-.17.954L9.56 5.409h1.69c.29 0 .53.24.53.53 0 .29-.24.53-.53.53H9.035a.802.802 0 0 1-.743-.501l.007.007a.882.882 0 0 1 .17-.948l2.001-2.085H8.78a.534.534 0 0 1-.53-.53c0-.29.24-.53.53-.53h2.199Z"/>
</svg>
