<svg width="14" height="14" fill="currentColor">
  <path d="M6.746.813c1.131 0 2.001.87 2.001 1.945v1.944h2.849c.473 0 .912.205 1.216.566h-.007c.304.36.43.834.353 1.3l-.932 5.303a1.586 1.586 0 0 1-1.563 1.316H2.49c-.919 0-1.676-.75-1.676-1.67V7.439c0-.926.75-1.675 1.676-1.675h1.322L5.607 1.57c.198-.46.644-.757 1.14-.757ZM2.49 6.823a.616.616 0 0 0-.615.615v4.08c0 .332.276.608.615.608h1.138V6.823H2.49Zm4.32-4.956c-.135 0-.199.05-.227.113L4.695 6.4v5.726h5.968c.261 0 .48-.184.522-.438l-.006-.007.933-5.303A.536.536 0 0 0 12 5.939a.508.508 0 0 0-.403-.183h-3.91V2.75a.878.878 0 0 0-.876-.884Z"/>
</svg>
