<svg width="14" height="14" fill="currentColor">
  <path d="M4.879 7.53a1.592 1.592 0 0 1 1.59 1.591v2.121a1.591 1.591 0 0 1-1.59 1.591H2.758a1.591 1.591 0 0 1-1.591-1.59V9.12a1.592 1.592 0 0 1 1.59-1.59H4.88Zm6.363 0a1.592 1.592 0 0 1 1.591 1.591v2.121a1.592 1.592 0 0 1-1.59 1.591H9.12a1.591 1.591 0 0 1-1.59-1.59V9.12a1.592 1.592 0 0 1 1.59-1.59h2.121ZM2.758 8.59a.538.538 0 0 0-.53.531v2.121a.538.538 0 0 0 .53.53h2.12a.538.538 0 0 0 .531-.53v-2.12a.538.538 0 0 0-.53-.531H2.758Zm6.363 0a.538.538 0 0 0-.53.531v2.121a.538.538 0 0 0 .53.53h2.121a.538.538 0 0 0 .53-.53v-2.12a.538.538 0 0 0-.53-.531h-2.12ZM4.88 1.168a1.592 1.592 0 0 1 1.59 1.59V4.88a1.591 1.591 0 0 1-1.59 1.59H2.758a1.591 1.591 0 0 1-1.591-1.59V2.758a1.59 1.59 0 0 1 1.59-1.591H4.88Zm6.363.001a1.591 1.591 0 0 1 1.591 1.59V4.88a1.59 1.59 0 0 1-1.59 1.59H9.12a1.591 1.591 0 0 1-1.59-1.59V2.759a1.592 1.592 0 0 1 1.59-1.591h2.121Zm-8.484 1.06a.538.538 0 0 0-.53.53v2.12a.538.538 0 0 0 .53.531h2.12a.537.537 0 0 0 .531-.53V2.758a.538.538 0 0 0-.53-.53H2.758Zm6.363 0a.538.538 0 0 0-.53.53V4.88a.537.537 0 0 0 .53.53h2.121a.538.538 0 0 0 .53-.53V2.759a.539.539 0 0 0-.53-.53h-2.12Z"/>
</svg>
