<svg width="14" height="14" fill="currentColor">
  <path d="M8.966.814a1.703 1.703 0 0 1 1.788 1.598v1.053a.526.526 0 0 1-.02.141h.57c.024-.003.048-.007.072-.007.024 0 .048.004.071.007h1.21a.53.53 0 0 1 0 1.06h-.708v6.922a1.695 1.695 0 0 1-1.81 1.598H3.86a1.699 1.699 0 0 1-1.81-1.598V4.667h-.707a.532.532 0 0 1-.53-.53.53.53 0 0 1 .327-.49.533.533 0 0 1 .203-.04h1.945a.527.527 0 0 1-.022-.142V2.412A1.705 1.705 0 0 1 5.034.814h3.932ZM3.11 11.588c0 .29.333.538.707.538h6.279c.396 0 .707-.248.707-.537V4.667H3.11v6.921Zm2.63-5.316a.531.531 0 0 1 .53.53v3.196a.532.532 0 0 1-.53.538.54.54 0 0 1-.53-.53V6.801a.53.53 0 0 1 .53-.53Zm2.518 0a.531.531 0 0 1 .53.53v3.196a.539.539 0 0 1-.53.538.532.532 0 0 1-.53-.53V6.801a.53.53 0 0 1 .53-.53ZM5.034 1.875c-.388 0-.707.247-.707.537v1.053a.527.527 0 0 1-.021.141h5.408a.52.52 0 0 1-.02-.14V2.411c0-.29-.34-.537-.708-.537H5.034Z"/>
</svg>
