<svg width="14" height="14" fill="currentColor">
  <path d="M11.517.814c.926 0 1.675.75 1.676 1.668v4.08c0 .926-.75 1.675-1.676 1.675h-1.33L8.393 12.43c-.198.46-.644.757-1.139.757-1.131 0-2-.87-2-1.945V9.298h-2.85c-.473 0-.911-.205-1.215-.566a1.624 1.624 0 0 1-.347-1.3l.926-5.303A1.585 1.585 0 0 1 3.329.814h8.188Zm-8.18 1.068a.526.526 0 0 0-.523.438l-.927 5.302A.513.513 0 0 0 2 8.061c.1.12.24.184.403.184h3.91v3.004c0 .488.389.884.877.884.134 0 .198-.049.226-.112L9.304 7.6V1.88H3.337Zm7.034-.007v5.302h1.139c.34 0 .614-.276.614-.615v-4.08a.613.613 0 0 0-.614-.607h-1.14Z"/>
</svg>
