<svg width="14" height="14" fill="currentColor">
  <path d="M10.535.814a.53.53 0 0 1 0 1.061h-.177v3.71c0 .038.014.088.072.152a.73.73 0 0 0 .278.179c.95.357 1.377 1.239 1.571 1.903a5.16 5.16 0 0 1 .2 1.266v.035l-.53.001h.53a.53.53 0 0 1-.53.53H7.53v3.005a.53.53 0 1 1-1.06 0V9.651H2.05a.53.53 0 0 1-.53-.53V9.11l.001-.024.003-.082A5.174 5.174 0 0 1 1.72 7.82c.195-.664.622-1.546 1.572-1.903a.731.731 0 0 0 .278-.179c.058-.064.072-.114.072-.151V1.875h-.177a.53.53 0 0 1 0-1.06h7.07ZM4.702 5.586c0 .714-.58 1.15-1.037 1.322-.477.18-.764.653-.927 1.21a3.928 3.928 0 0 0-.105.473h8.734a3.93 3.93 0 0 0-.105-.474c-.163-.556-.45-1.03-.927-1.209-.456-.171-1.037-.608-1.037-1.322V1.875H4.702v3.71Z"/>
</svg>
