<svg width="14" height="14" fill="currentColor">
  <path d="M11.95 2.228a1.246 1.246 0 0 1 1.237 1.237v1.767a.538.538 0 0 1-.53.53 1.239 1.239 0 0 0 0 2.475.538.538 0 0 1 .53.53v1.768a1.245 1.245 0 0 1-1.238 1.238H2.051a1.245 1.245 0 0 1-1.238-1.238V8.768a.538.538 0 0 1 .53-.53 1.237 1.237 0 1 0 0-2.475.538.538 0 0 1-.53-.53V3.464a1.245 1.245 0 0 1 1.238-1.237h9.898Zm-9.9 1.06a.178.178 0 0 0-.176.177v1.3a2.299 2.299 0 0 1 0 4.47v1.3a.177.177 0 0 0 .177.177h9.898a.178.178 0 0 0 .177-.177v-1.3a2.298 2.298 0 0 1 0-4.47v-1.3a.178.178 0 0 0-.177-.177H2.051Z"/>
</svg>
