<svg width="14" height="14" fill="currentColor">
  <path d="M12.637 8.592a.531.531 0 0 1 .53.53v2.12a1.867 1.867 0 0 1-1.767 1.944H2.604a1.864 1.864 0 0 1-1.788-1.944v-2.12a.53.53 0 0 1 1.06 0v2.12a.822.822 0 0 0 .707.884H11.4a.82.82 0 0 0 .707-.884v-2.12a.53.53 0 0 1 .53-.53ZM7.002.814a.53.53 0 0 1 .375.156l.004.005 2.823 2.823a.531.531 0 0 1-.749.75L7.533 2.624v6.497a.539.539 0 0 1-.53.53.538.538 0 0 1-.531-.53V2.624L4.549 4.548a.53.53 0 0 1-.75-.75L6.627.97a.532.532 0 0 1 .375-.156Z"/>
</svg>
