<svg width="14" height="14" fill="currentColor">
  <path d="M6.892 8.53c1.64 0 5.479-.001 5.48 3.357a.538.538 0 0 1-.531.53.537.537 0 0 1-.53-.53c0-1.379-.75-2.297-4.42-2.297-3.668 0-4.418.918-4.418 2.297a.53.53 0 1 1-1.06 0c0-3.358 3.838-3.358 5.479-3.358Zm4.949-3.36a.53.53 0 0 1 .53.531v.707h.707a.53.53 0 1 1 0 1.06h-.707v.708a.539.539 0 0 1-.53.53.538.538 0 0 1-.53-.53v-.707h-.707a.531.531 0 0 1 0-1.06h.707V5.7a.531.531 0 0 1 .53-.53ZM6.375 2.218a2.65 2.65 0 1 1 1.032 5.2 2.65 2.65 0 0 1-1.032-5.2Zm.517 1.01A1.591 1.591 0 1 0 6.89 6.41a1.591 1.591 0 0 0 .002-3.182Z"/>
</svg>
