<svg width="14" height="14" fill="currentColor">
  <path d="M8.414 8.237c1.64 0 5.48 0 5.48 3.359a.538.538 0 0 1-.53.529.538.538 0 0 1-.531-.53c0-1.378-.75-2.297-4.419-2.297-3.67 0-4.419.92-4.419 2.298a.53.53 0 0 1-1.06 0c0-3.359 3.839-3.359 5.48-3.359Zm-5.303-.353a.53.53 0 1 1 0 1.06c-1.66 0-1.944.53-1.944 2.121a.538.538 0 0 1-.53.53.539.539 0 0 1-.53-.53c0-1.908.509-3.181 3.004-3.181Zm1.471-4.377a.531.531 0 1 1-.106 1.054 1.032 1.032 0 0 0-.77.24 1.04 1.04 0 0 0-.383.707 1.054 1.054 0 0 0 .955 1.159c.23.02.46-.035.658-.155a.531.531 0 0 1 .558.905c-.328.21-.707.324-1.096.332h-.226a2.131 2.131 0 1 1 .41-4.242Zm3.314-1.582A2.653 2.653 0 0 1 10.29 6.4a2.652 2.652 0 1 1-2.393-4.475Zm.518 1.01a1.591 1.591 0 1 0-.001 3.182 1.591 1.591 0 0 0 .001-3.182Z"/>
</svg>
