<svg width="14" height="14" fill="currentColor">
  <path d="M7.678 1.521a.53.53 0 0 1 .59.53v9.899a.537.537 0 0 1-.304.48.505.505 0 0 1-.227.05.573.573 0 0 1-.332-.113L4.02 9.652H.668a.538.538 0 0 1-.53-.53V4.879a.538.538 0 0 1 .53-.53h3.35l3.387-2.715a.53.53 0 0 1 .273-.113Zm3.95 1.182a.53.53 0 0 1 .366.175 6.152 6.152 0 0 1 0 8.23.51.51 0 0 1-.396.183.537.537 0 0 1-.475-.29.527.527 0 0 1 .08-.585 5.12 5.12 0 0 0 0-6.83A.535.535 0 0 1 11.12 3a.53.53 0 0 1 .508-.298ZM4.535 5.275a.552.552 0 0 1-.332.135H1.198v3.18h3.005c.12 0 .237.04.332.114l2.672 2.12v-7.67l-2.672 2.12Zm5.477-.658a.53.53 0 0 1 .348.206 3.586 3.586 0 0 1 0 4.355.544.544 0 0 1-.423.212.531.531 0 0 1-.424-.848 2.547 2.547 0 0 0 0-3.083.532.532 0 0 1 .105-.742.531.531 0 0 1 .394-.1Z"/>
</svg>
