<svg width="14" height="14" fill="currentColor">
  <path d="M9.06 1.521a.531.531 0 0 1 .591.53v9.899a.538.538 0 0 1-.304.48.503.503 0 0 1-.226.05.573.573 0 0 1-.332-.113L5.402 9.652H2.051a.538.538 0 0 1-.53-.53V4.879a.538.538 0 0 1 .53-.53h3.351L8.79 1.634a.53.53 0 0 1 .272-.113ZM5.919 5.275a.551.551 0 0 1-.332.113H2.58v3.203h3.005c.12 0 .236.04.332.114l2.673 2.12V3.154l-2.673 2.12Zm5.477-.66a.531.531 0 0 1 .35.208 3.585 3.585 0 0 1 0 4.355.546.546 0 0 1-.426.212.529.529 0 0 1-.424-.849 2.545 2.545 0 0 0 0-3.082.533.533 0 0 1 .107-.743.53.53 0 0 1 .393-.1Z"/>
</svg>
