<svg width="14" height="14" fill="currentColor">
  <path d="M7.707 2.228a1.945 1.945 0 0 1 1.944 1.944v1.184L12.38 3.72a.524.524 0 0 1 .538 0 .53.53 0 0 1 .269.459v5.656a.53.53 0 0 1-.269.46.504.504 0 0 1-.262.063.562.562 0 0 1-.276-.078L9.65 8.643v1.185a1.945 1.945 0 0 1-1.944 1.945h-4.95A1.945 1.945 0 0 1 .814 9.828V4.172a1.945 1.945 0 0 1 1.945-1.944h4.949Zm-4.95 1.06a.884.884 0 0 0-.883.884v5.656a.884.884 0 0 0 .884.884h4.949a.884.884 0 0 0 .884-.884V4.172a.884.884 0 0 0-.884-.884h-4.95ZM9.652 6.59v.82l2.475 1.485v-3.79L9.651 6.59Z"/>
</svg>
