<svg width="14" height="14" fill="currentColor">
  <path d="M5.304.673c.452-.12.876.092 1.215.268.17.085.375.19.48.19.107 0 .319-.105.481-.19.34-.17.765-.388 1.217-.268.467.12.72.53.933.855.092.149.22.346.305.396.085.05.31.056.502.07.381.021.855.043 1.194.375.34.347.36.82.382 1.202.007.184.02.417.07.502.042.078.248.205.39.297.325.212.728.474.855.933.12.452-.092.877-.268 1.217-.085.17-.192.374-.192.48 0 .106.107.318.191.48.177.34.39.765.27 1.217-.121.467-.531.72-.856.933-.149.092-.347.219-.397.304-.05.084-.056.312-.07.503-.021.381-.043.855-.375 1.194-.347.34-.82.36-1.202.382-.184.007-.418.02-.502.07-.078.043-.205.248-.297.39-.212.325-.474.728-.933.855a.927.927 0 0 1-.276.035c-.346 0-.672-.163-.94-.304-.17-.085-.375-.19-.481-.19-.106 0-.318.105-.48.19-.34.176-.764.389-1.216.27-.467-.121-.722-.531-.934-.856-.092-.149-.219-.347-.304-.397-.084-.05-.31-.056-.502-.07-.381-.021-.856-.043-1.195-.375-.34-.347-.36-.82-.382-1.202-.007-.184-.02-.417-.07-.502-.043-.078-.247-.205-.389-.297-.325-.212-.728-.474-.855-.933-.12-.452.092-.877.268-1.217.085-.17.19-.374.19-.48 0-.106-.105-.318-.19-.48-.176-.34-.388-.765-.268-1.217.12-.467.53-.72.855-.933.149-.092.346-.219.396-.304.05-.084.056-.31.07-.502.021-.381.043-.856.375-1.195.347-.34.82-.36 1.202-.382.184-.007.417-.02.502-.07.078-.042.205-.247.297-.389.212-.325.474-.728.934-.855ZM8.42 1.69c-.071-.02-.318.113-.46.184-.282.141-.6.312-.961.312-.36 0-.678-.164-.961-.312-.141-.07-.368-.184-.453-.184v.007h-.007c-.07.029-.234.27-.311.404-.17.261-.36.558-.665.735-.31.177-.664.198-.982.212-.155.007-.446.02-.51.07-.042.057-.056.34-.063.495-.014.318-.035.672-.212.976-.177.304-.474.495-.735.665-.135.085-.376.24-.404.318-.006.078.114.318.185.46.141.282.31.6.31.961 0 .36-.162.678-.31.961-.07.141-.199.382-.185.46.028.07.27.234.404.312.261.17.558.36.735.664.177.31.198.664.212.982.007.156.022.446.071.51.058.042.34.056.494.063.318.014.672.036.976.212.304.177.495.474.665.736.085.134.24.375.318.403.071.02.318-.114.46-.185.282-.141.6-.31.961-.31.36 0 .678.162.961.31.141.071.368.206.46.185.07-.028.234-.27.312-.403.17-.262.36-.559.664-.736.31-.176.664-.197.982-.212.155-.007.446-.021.51-.071.042-.057.056-.339.063-.494.014-.318.036-.672.212-.976.177-.304.474-.495.736-.665.134-.085.375-.24.403-.318.007-.078-.114-.318-.185-.46-.141-.282-.31-.6-.31-.961 0-.36.162-.68.31-.962.07-.141.192-.381.185-.459-.028-.078-.276-.233-.403-.318-.262-.17-.56-.36-.736-.664-.177-.311-.198-.666-.212-.984-.007-.155-.022-.445-.071-.509-.057-.042-.339-.056-.494-.063-.318-.014-.672-.035-.976-.212-.304-.177-.495-.474-.665-.735-.085-.135-.24-.375-.318-.404Zm1.04 2.984a.533.533 0 0 1 .749 0 .534.534 0 0 1 0 .75L6.308 9.326a.53.53 0 0 1-.75 0L3.783 7.552a.534.534 0 0 1 0-.75.534.534 0 0 1 .75 0l1.4 1.4L9.46 4.674Z"/>
</svg>
