<svg width="14" height="14" fill="currentColor">
  <path d="M6.335 1.98A4.007 4.007 0 0 1 10.209.948a.53.53 0 0 1 .241.884L8.718 3.564l.367 1.35 1.35.368 1.733-1.732a.53.53 0 0 1 .884.241 3.99 3.99 0 0 1-1.032 3.874C11.015 8.669 9.538 9.05 8.166 8.697L4.27 12.593a2.01 2.01 0 0 1-1.427.593 2.041 2.041 0 0 1-1.436-.594 2.023 2.023 0 0 1 0-2.863l3.896-3.895c-.354-1.372.028-2.85 1.032-3.854Zm2.543-.09c-.673.06-1.31.356-1.8.847a2.924 2.924 0 0 0-.68 3.075.517.517 0 0 1-.127.552L2.15 10.486a.969.969 0 0 0 0 1.364.957.957 0 0 0 .686.283.94.94 0 0 0 .679-.283l4.122-4.122a.535.535 0 0 1 .551-.127c1.09.382 2.27.127 3.076-.678a2.95 2.95 0 0 0 .848-1.818L10.96 6.258a.535.535 0 0 1-.517.134l-1.936-.53a.53.53 0 0 1-.375-.375L7.6 3.55a.534.534 0 0 1 .134-.516L8.878 1.89Z"/>
</svg>
