<svg width="14" height="14" fill="currentColor">
  <path d="M4.172 8.59a1.245 1.245 0 0 1 1.237 1.238v2.121a1.245 1.245 0 0 1-1.237 1.238H2.05a1.245 1.245 0 0 1-1.238-1.238V9.83a1.245 1.245 0 0 1 1.239-1.24h2.12Zm7.07-7.777a1.946 1.946 0 0 1 1.944 1.945v8.484a1.945 1.945 0 0 1-1.944 1.944H7a.53.53 0 1 1 0-1.06h4.242a.885.885 0 0 0 .884-.884V2.758a.885.885 0 0 0-.884-.884H2.758a.885.885 0 0 0-.884.884V7a.53.53 0 1 1-1.06 0V2.758A1.944 1.944 0 0 1 2.757.813h8.484ZM2.051 9.651a.177.177 0 0 0-.177.177v2.121a.177.177 0 0 0 .177.177h2.12a.177.177 0 0 0 .178-.177V9.83a.177.177 0 0 0-.177-.178H2.05Zm7.773-5.996a.53.53 0 0 1 .38.892L7.925 6.823h1.549a.53.53 0 0 1 0 1.06H6.646a.53.53 0 0 1-.205-.041.503.503 0 0 1-.282-.283.53.53 0 0 1-.043-.205V4.525a.53.53 0 0 1 1.06 0v1.55l2.277-2.277a.531.531 0 0 1 .371-.143Z"/>
</svg>
