<svg width="14" height="14" fill="currentColor">
  <path d="M7.001 1.344a5.553 5.553 0 0 1 3.959 1.64 5.657 5.657 0 0 1 1.69 3.995 5.656 5.656 0 0 1-5.656 5.607 5.609 5.609 0 0 1-2.68-.707l-2.97.777.793-2.906A5.613 5.613 0 0 1 7 1.344Zm.263.971a4.667 4.667 0 0 0-4.215 7.118l.113.176-.467 1.718 1.76-.467.17.107c.719.426 1.54.65 2.376.65a4.709 4.709 0 0 0 4.708-4.666 4.702 4.702 0 0 0-1.414-3.295 4.666 4.666 0 0 0-3.031-1.34ZM5.29 4.335c.092.007.205-.035.318.24.113.276.43.967.431 1.04a.27.27 0 0 1 0 .247c-.268.53-.558.516-.41.763A3.77 3.77 0 0 0 7.53 8.287c.141.106.226.099.304 0 .158-.173.307-.355.445-.545.092-.141.191-.113.319-.07.127.042.812.381.954.452.14.07.233.106.297.177a1.15 1.15 0 0 1-.085.665 1.417 1.417 0 0 1-.94.664 2.722 2.722 0 0 1-1.682-.354 6.288 6.288 0 0 1-2.398-2.12 2.702 2.702 0 0 1-.572-1.45 1.548 1.548 0 0 1 .467-1.194.501.501 0 0 1 .374-.177h.276Z"/>
</svg>
