<svg width="14" height="14" fill="currentColor">
  <path d="M4.172 8.592a1.245 1.245 0 0 1 1.237 1.236v2.121a1.245 1.245 0 0 1-1.237 1.238H2.05a1.245 1.245 0 0 1-1.238-1.238V9.83A1.245 1.245 0 0 1 2.05 8.593h2.12Zm7.07-7.778a1.945 1.945 0 0 1 1.944 1.944v8.484a1.945 1.945 0 0 1-1.944 1.944H7a.53.53 0 1 1 0-1.06h4.242a.885.885 0 0 0 .884-.884V2.758a.884.884 0 0 0-.884-.883H2.758a.884.884 0 0 0-.884.883V7a.53.53 0 1 1-1.06 0V2.758A1.945 1.945 0 0 1 2.757.814h8.484ZM2.051 9.651a.178.178 0 0 0-.177.177v2.121a.178.178 0 0 0 .177.177h2.12a.177.177 0 0 0 .178-.177V9.83a.178.178 0 0 0-.177-.178H2.05Zm7.777-6.008a.538.538 0 0 1 .519.43.53.53 0 0 1 .011.227V7a.537.537 0 0 1-.53.53.539.539 0 0 1-.53-.53V5.47L7 7.708a.524.524 0 0 1-.354.177A.531.531 0 0 1 6.292 7l2.299-2.298H7a.53.53 0 0 1 0-1.06h2.828Z"/>
</svg>
