<svg width="14" height="14" fill="currentColor">
  <path d="M10.53.815a1.245 1.245 0 0 1 1.238 1.237v1.59h.177a1.245 1.245 0 0 1 1.237 1.238v7.07a1.245 1.245 0 0 1-1.237 1.237H2.047A1.244 1.244 0 0 1 .86 11.949V4.88a1.324 1.324 0 0 1 0-.24.321.321 0 0 0 0-.078c.013-.053.029-.105.049-.156l.043-.078c.02-.043.044-.086.07-.127a.279.279 0 0 1 .056-.071l.085-.105.079-.072.098-.084.085-.12.113-.064h.1l.12-.042h.19L10.362.815a.473.473 0 0 1 .169 0ZM2.048 4.703a.177.177 0 0 0-.177.177v7.07a.177.177 0 0 0 .177.176h9.898a.176.176 0 0 0 .176-.177V4.88a.177.177 0 0 0-.176-.177H2.047Zm8.131 2.828a.884.884 0 1 1 0 1.769.884.884 0 0 1 0-1.769ZM5.314 3.643h5.393V2.052a.184.184 0 0 0-.12-.17l-5.273 1.76Z"/>
</svg>
