<svg width="14" height="14" fill="currentColor">
  <path d="M9.442.813c.679 0 1.27.533 1.27 1.238v9.898c0 .705-.591 1.238-1.27 1.238H2.79c-.678 0-1.27-.533-1.27-1.238V2.051c0-.705.592-1.237 1.27-1.238h6.652ZM2.79 1.874c-.138 0-.209.101-.209.177v9.898c0 .076.071.177.209.177h6.652c.138 0 .21-.101.21-.177V2.051c0-.076-.072-.177-.21-.177H2.79Zm9.16 7.424a.53.53 0 0 1 .53.53v1.414a.53.53 0 0 1-1.061 0V9.828a.53.53 0 0 1 .53-.53ZM6.13 7.354c.308 0 .618 0 .9.024.284.024.583.076.852.204.284.135.52.349.677.661.149.299.209.654.209 1.055a.53.53 0 0 1-1.061 0c0-.306-.047-.481-.097-.58a.365.365 0 0 0-.184-.179c-.102-.048-.254-.085-.487-.104-.231-.02-.498-.02-.823-.02-.324 0-.592 0-.823.02-.232.02-.384.056-.486.104a.364.364 0 0 0-.185.179c-.05.099-.097.274-.097.58a.53.53 0 0 1-1.06 0c0-.4.06-.756.209-1.055a1.42 1.42 0 0 1 .677-.661 2.46 2.46 0 0 1 .852-.204c.281-.024.592-.024.899-.024h.029Zm5.82-1.591a.53.53 0 0 1 .53.53v1.414a.53.53 0 0 1-1.061 0V6.293a.53.53 0 0 1 .53-.53ZM6.115 4.172a1.414 1.414 0 1 1 0 2.828 1.414 1.414 0 0 1 0-2.828Zm0 1.06a.354.354 0 1 0 0 .708.354.354 0 0 0 0-.708Zm5.833-3.004a.53.53 0 0 1 .53.53v1.414a.53.53 0 0 1-1.06 0V2.758a.53.53 0 0 1 .53-.53Z"/>
</svg>
