<svg width="14" height="14" fill="currentColor">
  <path d="M7.884.875a1.337 1.337 0 0 1 1.414 1.238v.884h2.651a1.245 1.245 0 0 1 1.238 1.237v7.07a1.245 1.245 0 0 1-1.238 1.237H2.051a1.245 1.245 0 0 1-1.238-1.237v-7.07a1.245 1.245 0 0 1 1.238-1.237h2.651v-.884A1.338 1.338 0 0 1 6.116.875h1.768Zm-6.01 6.717v3.712a.177.177 0 0 0 .177.177h9.898a.177.177 0 0 0 .177-.177V7.592h-1.768v1.591a.538.538 0 0 1-.53.53H4.172a.538.538 0 0 1-.53-.53v-1.59H1.874Zm2.828 0v1.06h4.596v-1.06H4.702ZM2.051 4.057a.177.177 0 0 0-.177.177v2.298h10.252V4.234a.177.177 0 0 0-.177-.177H2.051Zm4.065-2.121c-.219 0-.353.12-.353.177v.884h2.474v-.884c0-.057-.135-.177-.353-.177H6.116Z"/>
</svg>
