<svg width="14" height="14" fill="currentColor">
  <path d="M10.266 7.208a3.182 3.182 0 1 1 0 6.364 3.182 3.182 0 0 1 0-6.364ZM9.028.138a.53.53 0 0 1 .53.53v.884h.884c1.074 0 1.945.87 1.945 1.944v2.475a.53.53 0 0 1-.53.53h-9.37v4.772c0 .488.396.883.884.883H6.2a.53.53 0 0 1 0 1.06H3.372a1.945 1.945 0 0 1-1.944-1.943V3.496c0-1.074.87-1.944 1.944-1.944h.884V.668a.53.53 0 0 1 1.06 0v.884h3.182V.668a.53.53 0 0 1 .53-.53Zm1.238 8.13a2.121 2.121 0 1 0 0 4.243 2.121 2.121 0 0 0 0-4.242Zm-.177.708a.53.53 0 0 1 .53.53v.884h.177a.53.53 0 1 1 0 1.06h-.707a.53.53 0 0 1-.53-.531V9.506a.53.53 0 0 1 .53-.53ZM3.372 2.612a.884.884 0 0 0-.884.884V5.44h8.838V3.496a.884.884 0 0 0-.884-.884H9.56v.884a.53.53 0 0 1-1.061 0v-.884H5.316v.884a.53.53 0 0 1-1.06 0v-.884h-.884Z"/>
</svg>
