<svg width="14" height="14" fill="currentColor">
  <path d="M6.997 6.528a.53.53 0 0 1 .53.53v3.217l1.096-1.096a.531.531 0 0 1 .75.75l-2 2.028a.524.524 0 0 1-.376.127.522.522 0 0 1-.375-.155l-2-2a.53.53 0 0 1 .75-.75l1.095 1.096V7.058a.53.53 0 0 1 .53-.53ZM4.265 1.936A4.773 4.773 0 0 1 9.648 4.81a3.16 3.16 0 0 1 .566-.05 3.585 3.585 0 0 1 3.358 3.359c-.035.905-.036 3.308-2.686 3.308a.531.531 0 0 1 0-1.06c1.173 0 1.59-.587 1.59-2.248A2.526 2.526 0 0 0 10.18 5.82c-.241.006-.48.048-.707.127a.525.525 0 0 1-.707-.347 3.712 3.712 0 0 0-7.247 1.103c0 2.277.106 3.663 1.59 3.663a.53.53 0 1 1 0 1.06c-2.65 0-2.651-2.729-2.651-4.723a4.773 4.773 0 0 1 3.808-4.768Z"/>
</svg>
