<svg width="14" height="14" fill="currentColor">
  <path d="M11.243 11.236a.53.53 0 0 1 0 1.06H2.758a.53.53 0 0 1 0-1.06h8.485Zm-4.752-9.2a.601.601 0 0 1 1.02 0l1.404 2.25L12.2 1.899a.601.601 0 0 1 .944.599L11.872 9.17a1.237 1.237 0 0 1-1.214 1.006H3.343A1.237 1.237 0 0 1 2.128 9.17L.857 2.497a.6.6 0 0 1 .943-.599l3.284 2.389 1.407-2.25Zm-.769 3.23a.6.6 0 0 1-.862.168L2.116 3.44l1.053 5.532a.177.177 0 0 0 .174.144h7.315c.084 0 .157-.06.172-.144l1.054-5.532-2.743 1.995a.601.601 0 0 1-.863-.168L7 3.222 5.722 5.266Z"/>
</svg>
