<svg width="14" height="14" fill="currentColor">
  <path d="M10.042.86a1.238 1.238 0 0 1 1.159.841l1.3 3.535a1.245 1.245 0 0 1 .694 1.104v3.18a1.227 1.227 0 0 1-.538 1.02v1.455a.708.708 0 0 1-.707.707h-.707a.708.708 0 0 1-.707-.707v-1.237h-7.07v1.237a.708.708 0 0 1-.706.707h-.708a.707.707 0 0 1-.707-.707V10.54a1.225 1.225 0 0 1-.551-1.047v-3.18A1.246 1.246 0 0 1 1.5 5.208l1.3-3.535A1.239 1.239 0 0 1 3.962.86h6.08Zm-7.99 5.303a.177.177 0 0 0-.176.177v3.18a.177.177 0 0 0 .176.177h9.898a.177.177 0 0 0 .177-.176V6.34a.177.177 0 0 0-.177-.177H2.052Zm2.122.707a1.06 1.06 0 1 1-.001 2.122 1.06 1.06 0 0 1 0-2.122Zm5.655 0a1.06 1.06 0 1 1 0 2.121 1.06 1.06 0 0 1 0-2.12ZM3.96 1.92a.178.178 0 0 0-.099.032.178.178 0 0 0-.063.082l-.99 2.715h8.385l-.99-2.715a.178.178 0 0 0-.064-.082.178.178 0 0 0-.098-.031H3.96Z"/>
</svg>
