<svg width="14" height="14" fill="currentColor">
  <path d="M9.121.46a.531.531 0 0 1 .53.53v.884h.884a1.946 1.946 0 0 1 1.944 1.944v7.778a1.945 1.945 0 0 1-1.944 1.944h-7.07a1.945 1.945 0 0 1-1.944-1.944V3.818a1.944 1.944 0 0 1 1.944-1.944h.884V.99a.531.531 0 0 1 1.06 0v.884h3.182V.99a.531.531 0 0 1 .53-.53Zm-6.54 6.363v4.773a.884.884 0 0 0 .884.883h7.07a.884.884 0 0 0 .884-.883V6.823H2.58ZM7 7.883a.53.53 0 0 1 .53.531v.884h.884a.53.53 0 0 1 0 1.06H7.53v.884a.53.53 0 0 1-1.06 0v-.884h-.884a.53.53 0 0 1 0-1.06h.884v-.884a.53.53 0 0 1 .53-.53ZM3.465 2.936a.885.885 0 0 0-.884.883v1.945h8.838V3.818a.884.884 0 0 0-.884-.883h-.884v.883a.531.531 0 0 1-1.06 0v-.883H5.409v.883a.53.53 0 0 1-1.06 0v-.883h-.884Z"/>
</svg>
