<svg width="14" height="14" fill="currentColor">
  <path d="M7 .473c.337 0 .661.13.905.361l5.26 5.26a1.28 1.28 0 0 1 0 1.81l-5.26 5.26a1.281 1.281 0 0 1-1.81 0l-5.26-5.26a1.283 1.283 0 0 1 0-1.81l5.26-5.26C6.339.602 6.663.473 7 .473ZM7 1.52a.19.19 0 0 0-.148.063L1.584 6.851a.206.206 0 0 0 0 .296l5.268 5.268a.177.177 0 0 0 .296 0l5.268-5.268a.205.205 0 0 0 0-.296L7.148 1.583A.192.192 0 0 0 7 1.52Zm-.898 3.005a.531.531 0 0 1 .375.905l-.695.685h3.693a.538.538 0 0 1 .53.53v1.973a.537.537 0 0 1-.53.502.538.538 0 0 1-.53-.53V7.176H5.84l.637.629a.531.531 0 0 1-.75.75L4.293 7.119a.53.53 0 0 1-.142-.849l.014-.011.008-.009 1.556-1.57a.53.53 0 0 1 .374-.155Z"/>
</svg>
