<svg width="14" height="14" fill="currentColor">
  <path d="M7.657 1.527a1.23 1.23 0 0 1 1.74 0l3.075 3.077c.233.233.361.544.361.869h-.008c0 .325-.127.636-.36.87l-5.423 5.423h4.207c.29 0 .53.24.53.53 0 .29-.24.53-.53.53H5.564a.407.407 0 0 1-.091.007 1.22 1.22 0 0 1-.87-.36L1.528 9.396a1.226 1.226 0 0 1 0-1.739l6.13-6.13Zm-5.38 6.88a.143.143 0 0 0-.05.12.17.17 0 0 0 .05.12v-.006l3.076 3.082c.07.063.176.063.24 0l2.686-2.687-3.315-3.315-2.687 2.686Zm6.37-6.123a.175.175 0 0 0-.24 0L5.721 4.971l3.315 3.316 2.687-2.686v.006a.144.144 0 0 0 .05-.12.17.17 0 0 0-.05-.12L8.647 2.284Z"/>
</svg>
