<svg width="14" height="14" fill="currentColor">
  <path d="M6.997.813a.53.53 0 0 1 0 1.061H2.755a.884.884 0 0 0-.884.884v8.484a.884.884 0 0 0 .884.884h8.484a.885.885 0 0 0 .884-.884V7a.53.53 0 0 1 1.06 0v4.242a1.946 1.946 0 0 1-1.944 1.944H2.755A1.945 1.945 0 0 1 .81 11.242V2.758A1.945 1.945 0 0 1 2.755.813h4.242Zm5.656 0c.04.001.077.006.115.015a.529.529 0 0 1 .416.703v2.64a.539.539 0 0 1-.53.531.538.538 0 0 1-.531-.53V2.647L8.411 6.293a.524.524 0 0 1-.353.177.53.53 0 0 1-.354-.884l3.712-3.712h-1.59a.53.53 0 0 1 0-1.06h2.827Z"/>
</svg>
