<svg width="14" height="14" fill="currentColor">
  <path d="M7 .637a6.364 6.364 0 1 1 0 12.727A6.364 6.364 0 0 1 7 .637Zm0 1.06a5.303 5.303 0 1 0 0 10.606A5.303 5.303 0 0 0 7 1.697Zm2.337 6.517a.53.53 0 0 1 .983.397l-.492-.197.492.198v.001l-.002.003-.003.008-.01.023a2.372 2.372 0 0 1-.166.316 3.717 3.717 0 0 1-.555.71c-.522.522-1.358 1.039-2.584 1.039s-2.062-.517-2.584-1.04a3.711 3.711 0 0 1-.687-.95 2.107 2.107 0 0 1-.034-.075l-.01-.023-.003-.008-.001-.003H3.68V8.61a.53.53 0 0 1 .983-.397l.003.007.018.037a2.657 2.657 0 0 0 .482.665c.362.361.94.728 1.834.728.895 0 1.472-.367 1.834-.728a2.656 2.656 0 0 0 .482-.665l.018-.037.003-.007ZM5.056 4.172a.884.884 0 1 1 0 1.768.884.884 0 0 1 0-1.768Zm3.888 0a.884.884 0 1 1 0 1.768.884.884 0 0 1 0-1.768Z"/>
</svg>
