<svg width="14" height="14" fill="currentColor">
  <path d="M4.307 1.025a.559.559 0 0 1 .155.036.54.54 0 0 1 .135.085h.035l7.692 7.6a.53.53 0 0 1-.75.75l-2.587-2.56L8.944 7v5.479a.538.538 0 0 1-.53.53H5.586a.538.538 0 0 1-.53-.53V7L1.273 1.867a.517.517 0 0 1-.05-.552.54.54 0 0 1 .474-.29h2.61Zm-1.55 1.026 3.254 4.46c.069.09.106.2.105.312v5.125h1.768V6.823c0-.112.037-.222.106-.311l.234-.325-4.18-4.136H2.759ZM12.304.99a.539.539 0 0 1 .473.29.517.517 0 0 1-.05.551l-1.944 2.65a.526.526 0 1 1-.849-.622l1.31-1.81h-3.89a.53.53 0 1 1 0-1.06h4.95Z"/>
</svg>
