<svg width="14" height="14" fill="currentColor">
  <path d="M9.828.813c1.075 0 1.945.87 1.945 1.945 0 .474-.178.898-.46 1.237h.99c.487 0 .883.396.883.884v1.767a.871.871 0 0 1-.707.85v4.807a.885.885 0 0 1-.883.883H2.404a.885.885 0 0 1-.883-.883V7.495a.871.871 0 0 1-.708-.849V4.88c0-.488.397-.884.884-.884h.99a1.92 1.92 0 0 1-.46-1.237c0-1.075.87-1.944 1.945-1.945 1.188 0 2.234.63 2.828 1.563A3.358 3.358 0 0 1 9.828.813ZM2.581 7.53v4.596H6.47V7.53H2.58Zm4.95 0v4.596h3.888V7.53H7.53ZM1.873 5.056V6.47H6.47V5.056H1.874Zm5.656 0V6.47h4.596V5.056H7.53ZM4.172 1.874a.884.884 0 0 0 0 1.768h2.234a2.304 2.304 0 0 0-2.234-1.768Zm5.656 0a2.304 2.304 0 0 0-2.234 1.768h2.234a.884.884 0 0 0 0-1.768Z"/>
</svg>
