<svg width="14" height="14" fill="currentColor">
  <path d="M7 .637a6.363 6.363 0 1 1-.002 12.726A6.363 6.363 0 0 1 7 .637Zm3.323 6.872a9.194 9.194 0 0 1-2.079 4.617v.022a5.32 5.32 0 0 0 4.03-4.64h-1.95Zm-8.597 0v.021a5.317 5.317 0 0 0 4.03 4.596 9.193 9.193 0 0 1-2.08-4.617h-1.95Zm3.02.021A9.317 9.317 0 0 0 7 12.02a9.317 9.317 0 0 0 2.255-4.49h-4.51Zm1.01-5.676a5.316 5.316 0 0 0-4.03 4.616h1.95a9.19 9.19 0 0 1 2.08-4.616ZM7 1.98a9.318 9.318 0 0 0-2.255 4.49h4.51A9.318 9.318 0 0 0 7 1.98Zm1.244-.126a9.191 9.191 0 0 1 2.08 4.616h1.95a5.317 5.317 0 0 0-4.03-4.616Z"/>
</svg>
