<svg width="14" height="14" fill="currentColor">
  <path d="M7 1.718c1.346 0 2.389.387 3.183.992.787.6 1.3 1.39 1.633 2.153.334.764.499 1.52.58 2.08.037.25.057.465.069.626l.744.372c.42.21.684.638.685 1.107v1.504c0 .552-.367 1.038-.898 1.19l-1.06.303a1.237 1.237 0 0 1-1.578-1.19V8.611c0-.61.444-1.12 1.027-1.22a8.1 8.1 0 0 0-.038-.294 7.158 7.158 0 0 0-.502-1.809c-.285-.65-.7-1.274-1.305-1.734-.598-.456-1.411-.776-2.54-.776s-1.942.32-2.54.776c-.605.46-1.02 1.084-1.305 1.734a7.157 7.157 0 0 0-.539 2.104c.583.1 1.026.608 1.026 1.22v2.243c0 .822-.787 1.416-1.578 1.19l-1.06-.303a1.239 1.239 0 0 1-.898-1.19V9.048c0-.469.266-.897.685-1.107l.744-.372c.012-.161.032-.376.069-.626.081-.56.246-1.316.58-2.08.334-.763.846-1.553 1.633-2.153.794-.605 1.837-.992 3.183-.992ZM1.265 8.89a.177.177 0 0 0-.098.158v1.504c0 .079.053.148.129.17l1.06.303a.177.177 0 0 0 .225-.17V8.611a.177.177 0 0 0-.177-.176h-.228l-.911.455Zm10.33-.455a.177.177 0 0 0-.176.176v2.244c0 .118.113.203.226.17l1.06-.303a.177.177 0 0 0 .128-.17V9.048a.177.177 0 0 0-.098-.158l-.91-.455h-.23Z"/>
</svg>
