<svg width="14" height="14" fill="currentColor">
  <path d="M9.68 1.527a3.478 3.478 0 0 1 2.481 1.025 3.536 3.536 0 0 1 0 4.949l-4.786 4.8A.532.532 0 0 1 7 12.48a.531.531 0 0 1-.375-.156l-4.786-4.8a3.536 3.536 0 0 1 0-4.95 3.5 3.5 0 0 1 4.95 0L7 2.757l.198-.197A3.478 3.478 0 0 1 9.68 1.527ZM4.32 2.58a2.432 2.432 0 0 0-2.448 2.443c0 .65.257 1.275.716 1.736L7 11.199l4.404-4.427a2.453 2.453 0 0 0 0-3.47 2.403 2.403 0 0 0-1.724-.707 2.433 2.433 0 0 0-1.733.707l-.572.572a.545.545 0 0 1-.75 0l-.572-.572A2.433 2.433 0 0 0 4.32 2.58Z"/>
</svg>
