<svg width="14" height="14" fill="currentColor">
  <path d="M3.09 9.1a.53.53 0 0 1 .75.75l-1.414 1.414a.53.53 0 0 1-.75 0l-.707-.707a.53.53 0 0 1 .75-.75l.332.332 1.039-1.04Zm9.566.551a.53.53 0 0 1 0 1.061H5.674a.53.53 0 0 1 0-1.06h6.982ZM3.09 5.565a.53.53 0 0 1 .75.75L2.426 7.729a.53.53 0 0 1-.75 0l-.707-.707a.53.53 0 0 1 .75-.75l.332.332 1.039-1.04Zm9.566.905a.53.53 0 0 1 0 1.06h-7.07a.53.53 0 0 1 0-1.06h7.07ZM3.09 2.736a.53.53 0 0 1 .75.75L2.426 4.9a.53.53 0 0 1-.75 0l-.707-.707a.53.53 0 0 1 .75-.75l.332.332L3.09 2.736Zm9.566.906a.53.53 0 0 1 0 1.06h-7.07a.53.53 0 0 1 0-1.06h7.07Z"/>
</svg>
