<svg width="14" height="14" fill="currentColor">
  <path d="M9.121 12.656a.53.53 0 0 1 0 1.06H4.88a.53.53 0 0 1 0-1.06h4.24ZM7 .283A4.773 4.773 0 0 1 9.771 8.94c-.089.064-.12.143-.12.198v1.22c0 .684-.554 1.238-1.237 1.238H5.586a1.238 1.238 0 0 1-1.237-1.238v-1.22c0-.055-.031-.134-.12-.198A4.773 4.773 0 0 1 7 .283Zm0 1.06a3.712 3.712 0 0 0-2.155 6.735c.32.23.564.61.564 1.06v1.22c0 .098.08.177.177.177h2.828a.177.177 0 0 0 .177-.177v-1.22c0-.45.243-.83.564-1.06A3.712 3.712 0 0 0 7 1.344Z"/>
</svg>
