<svg width="14" height="14" fill="currentColor">
  <path d="M11.05 4.382a2.22 2.22 0 0 1 .577 2.295c-.396 2.12-1.774 2.828-3.534 2.828-.354 0-.594-.057-.707.487-.36 2.43-.362 2.143-.362 2.277a.445.445 0 0 1-.43.375H5.01a.269.269 0 0 1-.262-.325c.002-.009.152-.728.707-4.243a.248.248 0 0 1 .276-.233c1.344 0 4.094.233 5.083-2.595.095-.274.168-.555.22-.84.004-.016.01-.022.017-.026ZM4.177 1.346c3.782 0 4.1-.092 5.07.29 1.49.58 1.632 1.98 1.095 3.5-.538 1.52-1.803 2.227-3.486 2.248-1.074 0-1.725-.17-1.874.607L4.996 8c-.085.474-.431 2.708-.53 3.337 0 .05 0 .063-.078.063H2.535a.305.305 0 0 1-.304-.346l1.456-9.276a.518.518 0 0 1 .489-.431Zm6.88 3.032c-.002 0-.003.003-.005.004l-.018-.018.024.014Z"/>
</svg>
