<svg width="14" height="14" fill="currentColor">
  <path d="M7 .638A6.373 6.373 0 0 1 13.363 7 6.373 6.373 0 0 1 7 13.363 6.373 6.373 0 0 1 .637 7 6.373 6.373 0 0 1 7 .638Zm0 1.06A5.304 5.304 0 0 0 1.697 7 5.305 5.305 0 0 0 7 12.303 5.305 5.305 0 0 0 12.303 7 5.304 5.304 0 0 0 7 1.698Zm0 7.6a.71.71 0 0 1 .707.707.71.71 0 0 1-.707.707.71.71 0 0 1-.707-.707A.71.71 0 0 1 7 9.298ZM5.38 3.96c.87-.87 2.383-.87 3.253 0h-.007a2.303 2.303 0 0 1 0 3.253 2.254 2.254 0 0 1-1.096.607v.24c0 .29-.24.53-.53.53-.29 0-.53-.24-.53-.53v-.706c0-.29.24-.53.53-.53a1.23 1.23 0 0 0 1.237-1.238 1.23 1.23 0 0 0-.36-.876c-.467-.467-1.28-.467-1.747 0a1.23 1.23 0 0 0-.36.876c0 .29-.24.53-.53.53a.534.534 0 0 1-.531-.53c0-.615.24-1.188.672-1.626Z"/>
</svg>
