<svg width="14" height="14" fill="currentColor">
  <path d="M4.438 1.52a.532.532 0 0 1 .431.233l1.712 1.712a.531.531 0 0 1 0 .749.524.524 0 0 1-.375.135.531.531 0 0 1-.382-.177l-.862-.863v8.64a.53.53 0 0 1-.524.53.537.537 0 0 1-.537-.53V3.268l-.904.904a.546.546 0 0 1-.707 0 .531.531 0 0 1 0-.707l1.698-1.7a.537.537 0 0 1 .45-.244Zm5.752 6.014a.84.84 0 0 1 .442.081.913.913 0 0 1 .523.834v3.147a.538.538 0 0 1-.537.53.531.531 0 0 1-.523-.53V8.725l-.276.156a.533.533 0 0 1-.516-.934l.467-.255a.843.843 0 0 1 .42-.158Zm-.226-5.63a1.59 1.59 0 0 1 1.885 1.764v.956A1.967 1.967 0 0 1 9.904 6.47h-.346a.53.53 0 1 1 0-1.06h.346a.905.905 0 0 0 .728-.396 1.581 1.581 0 0 1-1.25-.23 1.593 1.593 0 0 1-.233-2.446 1.59 1.59 0 0 1 .815-.434Zm.3 1.03a.53.53 0 1 0 .376.906.528.528 0 0 0 .148-.309v-.066c0-.012.002-.024.003-.035a.528.528 0 0 0-.526-.495Z"/>
</svg>
