<svg width="14" height="14" fill="currentColor">
  <path d="M8.768.813c.14 0 .275.057.375.157l3.18 3.202c.1.1.156.234.156.375v6.695a1.945 1.945 0 0 1-1.944 1.944h-7.07a1.945 1.945 0 0 1-1.944-1.944V2.758A1.944 1.944 0 0 1 3.465.813h5.303ZM3.465 1.874a.885.885 0 0 0-.884.884v8.484a.884.884 0 0 0 .884.884h.177V8.061a.884.884 0 0 1 .883-.884h4.95a.884.884 0 0 1 .883.884v4.065h.177a.885.885 0 0 0 .884-.884V4.745L8.548 1.874h-.31v1.91a.913.913 0 0 1-.906.918H4.547a.913.913 0 0 1-.905-.919V1.874h-.177Zm1.237 10.252h4.596V8.237H4.702v3.889Zm0-8.484h2.475V1.874H4.702v1.768Z"/>
</svg>
