<svg width="14" height="14" fill="currentColor">
  <path d="M4.44 1.521a.53.53 0 0 1 .524.53v8.646l.912-.91a.545.545 0 0 1 .757 0 .53.53 0 0 1 0 .748l-1.768 1.768a.526.526 0 0 1-.425.176.53.53 0 0 1-.381-.155L2.29 10.535a.53.53 0 0 1 0-.749.546.546 0 0 1 .757 0l.855.855V2.05a.538.538 0 0 1 .537-.53Zm5.751 6.013a.843.843 0 0 1 .443.081.913.913 0 0 1 .523.834v3.147a.537.537 0 0 1-.537.53.533.533 0 0 1-.523-.53v-2.87l-.276.155a.535.535 0 0 1-.725-.21.533.533 0 0 1 .209-.724l.466-.254a.842.842 0 0 1 .42-.159Zm-.225-5.63a1.591 1.591 0 0 1 1.885 1.764v.957A1.967 1.967 0 0 1 9.906 6.47H9.56a.53.53 0 1 1 0-1.06h.346a.904.904 0 0 0 .727-.395 1.581 1.581 0 0 1-1.248-.23 1.59 1.59 0 0 1 .58-2.88Zm.3 1.03a.531.531 0 0 0 0 1.061.528.528 0 0 0 .523-.464v-.066l.004-.035a.528.528 0 0 0-.526-.495Z"/>
</svg>
