<svg width="14" height="14" fill="currentColor">
  <path d="M4.348 1.52c.29 0 .53.241.53.53v8.619l.863-.862a.534.534 0 0 1 .75 0 .534.534 0 0 1 0 .75l-1.768 1.766a.55.55 0 0 1-.375.156.55.55 0 0 1-.375-.156l-1.766-1.766a.534.534 0 0 1 0-.75.533.533 0 0 1 .749 0l.862.862V2.05c0-.29.24-.53.53-.53Zm6.625 6.01c.325 0 .608.191.742.502l.007.007a.88.88 0 0 1-.17.955L9.56 11.065h1.69c.29 0 .53.24.53.53 0 .29-.24.531-.53.531H9.036a.802.802 0 0 1-.742-.502.881.881 0 0 1 .17-.947l2-2.086h-1.69c-.29 0-.53-.24-.53-.53 0-.29.24-.53.53-.53h2.2Zm-.969-5.65c.311 0 .587.199.707.503l1.21 3.387a.53.53 0 0 1-.319.678.531.531 0 0 1-.679-.325l-.198-.552H9.291l-.199.552a.53.53 0 0 1-.678.318v.007a.53.53 0 0 1-.319-.678l1.202-3.373c.12-.318.396-.516.707-.516Zm-.34 2.632h.68l-.34-.949-.34.949Z"/>
</svg>
