<svg width="14" height="14" fill="currentColor">
  <path d="M7 .813a3.183 3.183 0 0 1 3.182 3.182v.354h2.12a.884.884 0 0 1 .885.883v6.01a1.945 1.945 0 0 1-1.945 1.944H2.758a1.945 1.945 0 0 1-1.945-1.944v-6.01a.884.884 0 0 1 .884-.883h2.121v-.354A3.182 3.182 0 0 1 7 .813ZM1.874 5.41v5.833a.884.884 0 0 0 .884.884h8.484a.885.885 0 0 0 .884-.884V5.41h-1.944V7a.531.531 0 0 1-1.06 0V5.41H4.878V7a.53.53 0 0 1-1.06 0V5.41H1.873ZM7 1.874a2.122 2.122 0 0 0-2.121 2.121v.354H9.12v-.354A2.121 2.121 0 0 0 7 1.874Z"/>
</svg>
