<svg width="14" height="14" fill="currentColor">
  <path d="M4.364 1.521c.063 0 .123.013.18.034l.022.008.03.014a.52.52 0 0 1 .143.1l1.768 1.767a.534.534 0 0 1 0 .75.525.525 0 0 1-.375.155.525.525 0 0 1-.375-.156l-.863-.862v8.618c0 .29-.24.53-.53.53-.29 0-.53-.24-.53-.53V3.331l-.863.862a.534.534 0 0 1-.75 0 .534.534 0 0 1 0-.749L3.99 1.677a.522.522 0 0 1 .2-.123.518.518 0 0 1 .175-.033Zm5.833 6.01a1.592 1.592 0 0 1 1.584 1.716v.228c0 .318 0 .58-.015.806-.05 1.018-.926 1.845-1.944 1.845H9.49c-.29 0-.53-.24-.53-.53 0-.29.24-.53.53-.53h.339c.297 0 .57-.16.732-.398a1.593 1.593 0 0 1-1.955-1.547c0-.876.714-1.59 1.591-1.59Zm0 1.06c-.29 0-.53.24-.53.53 0 .29.24.53.53.53.267 0 .49-.204.524-.463v-.067l.002-.034a.533.533 0 0 0-.526-.496Zm.354-2.121h-.007l.003-.001h.003Zm-.863-4.433a.86.86 0 0 1 .862-.085.921.921 0 0 1 .524.842v3.145a.534.534 0 0 1-.527.53.533.533 0 0 1-.527-.53V3.07l-.275.149a.531.531 0 0 1-.517-.926l.46-.255Z"/>
</svg>
