<svg width="14" height="14" fill="currentColor">
  <path d="M8.797 1.401a.53.53 0 0 1 .375.156l4.241 4.242h-.007a1.648 1.648 0 0 1 0 2.32l-3.994 3.993a1.644 1.644 0 0 1-2.326 0 .47.47 0 0 1-.107-.155l-.155.155c-.304.311-.72.48-1.159.48-.438 0-.849-.169-1.16-.48L.264 7.877a.53.53 0 0 1-.157-.374V1.932c0-.29.24-.53.53-.53h8.16Zm-7.629 1.06v4.822l4.094 4.08a.584.584 0 0 0 .82 0l3.994-3.995a.58.58 0 0 0 0-.82L5.99 2.462H1.168Zm6.313 0L10.818 5.8a1.648 1.648 0 0 1 0 2.32L7.68 11.256a.497.497 0 0 1 .162.106.59.59 0 0 0 .828 0l3.994-3.995h-.007a.58.58 0 0 0 0-.82L8.57 2.462H7.481ZM3.466 3.644a.884.884 0 1 1 0 1.768.884.884 0 0 1 0-1.768Z"/>
</svg>
