<svg width="14" height="14" fill="currentColor">
  <path d="M8.238 1.52c.679 0 1.236.56 1.237 1.238v.53h1.407a2.653 2.653 0 0 1 2.651 2.651v3.182c0 .679-.558 1.237-1.237 1.237h-.198A2.295 2.295 0 0 1 9.82 12.48a2.295 2.295 0 0 1-2.276-2.12H6.449a2.295 2.295 0 0 1-2.276 2.12 2.295 2.295 0 0 1-2.277-2.12h-.198A1.243 1.243 0 0 1 .461 9.12V2.758c0-.679.559-1.237 1.237-1.237h6.54ZM4.18 8.952c-.135 0-.269.03-.389.071-.021 0-.042.014-.057.014-.113.043-.22.106-.311.177-.021.014-.036.029-.057.043-.092.078-.17.17-.233.268-.007.021-.02.036-.028.057a1.196 1.196 0 0 0-.17.6c0 .68.56 1.238 1.238 1.238h.014c.678 0 1.237-.559 1.237-1.237 0-.085-.014-.17-.028-.247a1.278 1.278 0 0 0-.142-.354.143.143 0 0 0-.028-.057 1.203 1.203 0 0 0-.233-.268c-.021-.014-.035-.029-.056-.043a1.226 1.226 0 0 0-.312-.177c-.021-.007-.035-.014-.057-.014a1.22 1.22 0 0 0-.388-.07Zm5.648-.007c-.099 0-.197.014-.289.035-.035.008-.064.022-.092.029a1.08 1.08 0 0 0-.205.085c-.02.007-.042.021-.056.028a1.385 1.385 0 0 0-.164.12c-.014.014-.027.021-.042.035-.049.05-.092.1-.134.157-.007.014-.022.02-.029.035-.049.063-.084.134-.12.205v.014a1.447 1.447 0 0 0-.078.248.95.95 0 0 0-.027.247c0 .678.558 1.237 1.236 1.237l.008-.007c.678 0 1.237-.559 1.237-1.237 0-.085-.014-.17-.028-.248a1.279 1.279 0 0 0-.142-.354.142.142 0 0 0-.028-.056 1.206 1.206 0 0 0-.233-.269c-.021-.014-.036-.028-.057-.042a1.223 1.223 0 0 0-.31-.177c-.022-.007-.036-.014-.057-.014a1.224 1.224 0 0 0-.39-.07Zm-8.13-6.363a.175.175 0 0 0-.177.177V9.12l.022-.007c0 .1.078.177.177.177h.353v-.007c.057-.12.12-.233.19-.347.022-.035.043-.063.064-.091a1.53 1.53 0 0 1 .192-.234.844.844 0 0 1 .077-.085 2.26 2.26 0 0 1 .283-.233c.014-.014.021-.021.035-.028a2.192 2.192 0 0 1 .729-.319c.042-.007.084-.021.127-.028a2.088 2.088 0 0 1 .834 0c.042.007.085.021.127.028.092.021.177.05.269.085a.944.944 0 0 1 .127.05c.113.057.226.113.332.184.014.007.022.02.036.028.099.07.19.149.282.233.029.029.05.057.078.085.071.078.134.149.19.234a2.063 2.063 0 0 1 .255.438v.007h1.415a2.05 2.05 0 0 1 .268-.467c.022-.035.05-.063.079-.098.091-.106.19-.205.296-.297a.407.407 0 0 0 .057-.057V2.758a.176.176 0 0 0-.177-.177h-6.54ZM9.475 4.35v2.12h3.005v-.53c0-.876-.715-1.59-1.591-1.59H9.475Z"/>
</svg>
