<svg width="14" height="14" fill="currentColor">
  <path d="M12.098 5.842c.366 0 .72.138.989.387a1.417 1.417 0 0 1 .41 1.019 1.317 1.317 0 0 1-.375.94L9.22 12.091a.523.523 0 0 1-.325.155l-1.372.128-.05.02a.53.53 0 0 1-.374-.155.51.51 0 0 1-.156-.417l.114-1.357a.53.53 0 0 1 .148-.332l3.902-3.904c.27-.25.624-.387.99-.387ZM5.982 7.969c.51 0 .962 0 1.372.05a.53.53 0 0 1 .488.565.54.54 0 0 1-.573.488c-.382 0-.806-.043-1.287-.043-3.662 0-4.418.92-4.419 2.298a.524.524 0 0 1-.53.53.53.53 0 0 1-.53-.53c0-3.358 3.84-3.358 5.48-3.358Zm6.116-1.048a.403.403 0 0 0-.24.08L8.095 10.74l-.042.538.55-.05 3.769-3.768a.275.275 0 0 0 .064-.19.417.417 0 0 0-.1-.27.404.404 0 0 0-.24-.08ZM5.465 1.657a2.651 2.651 0 0 1 3.168 2.6 2.658 2.658 0 0 1-2.65 2.651 2.653 2.653 0 0 1-2.45-1.637 2.651 2.651 0 0 1 1.932-3.614Zm.517 1.01a1.592 1.592 0 0 0-1.56 1.9 1.591 1.591 0 1 0 1.56-1.9Z"/>
</svg>
