<svg width="14" height="14" fill="currentColor">
  <path d="M11.524 1.345a1.131 1.131 0 0 1 1.132 1.13v9.05a1.132 1.132 0 0 1-1.132 1.131H2.476a1.132 1.132 0 0 1-1.132-1.13v-9.05a1.132 1.132 0 0 1 1.132-1.131h9.048Zm-1.851 2.12c-1.131-.033-1.893.61-2.284 1.93.509-.219 1.25-.275 1.159.566a3.273 3.273 0 0 1-.55 1.23C7.05 8.697 6.815 8.195 6.292 4.88c-.17-.933-.602-1.357-1.167-1.308-.566.05-1.463.97-2.403 1.796l.381.495c.195-.159.412-.287.644-.382.495 0 .77 1.38 1.414 3.733.332.884.728 1.322 1.21 1.322.77 0 1.717-.75 2.827-2.163 1.07-1.386 1.624-2.477 1.661-3.273.048-1.06-.348-1.606-1.187-1.634Z"/>
</svg>
