<svg viewBox="0 0 40 40" fill="none" xmlns="http://www.w3.org/2000/svg">
  <path d="M3.99493 26.195C3.99493 26.195 9.39493 23.57 14.8116 23.57L18.8966 10.9617C19.0499 10.3517 19.4966 9.93833 19.9999 9.93833C20.5033 9.93833 20.9499 10.3517 21.1033 10.9617L25.1866 23.57C31.6033 23.57 36.0049 26.195 36.0049 26.195L26.8133 1.21167C26.5499 0.475 26.1049 0 25.5049 0H14.4949C13.8949 0 13.4699 0.475 13.1883 1.21167L3.99493 26.195Z" fill="#EDEDED"/>
  <path d="M13.9269 33.6005C13.9279 33.6015 13.9289 33.6024 13.9299 33.6033L13.9266 33.6016C13.9267 33.6013 13.9268 33.6009 13.9269 33.6005C11.9527 31.8161 11.377 28.0752 12.1999 25.3633C13.6266 27.0733 15.6049 27.6166 17.6533 27.9216C20.8149 28.3933 23.9199 28.2166 26.8566 26.7916C27.1933 26.6283 27.5033 26.4099 27.8699 26.1916C28.1466 26.9799 28.2183 27.7749 28.1216 28.5866C27.8883 30.5616 26.8916 32.0866 25.3083 33.2433C24.6749 33.7049 24.0049 34.1183 23.3499 34.5549C21.3416 35.8949 20.7983 37.4666 21.5533 39.7533L21.6266 39.9999C20.6656 39.5876 19.8492 38.8983 19.2816 38.0199C18.6911 37.1215 18.3759 36.0701 18.3749 34.9949C18.3683 34.4616 18.3683 33.9249 18.2949 33.3983C18.1183 32.1166 17.5083 31.5433 16.3599 31.5099C15.1816 31.4766 14.2483 32.1949 14.0016 33.3266C13.9817 33.4146 13.9551 33.4993 13.9269 33.6005Z" fill="url(#paint0_linear_8749_182320)"/>
  <defs>
    <linearGradient id="paint0_linear_8749_182320" x1="19.9996" y1="25.3633" x2="19.9996" y2="39.9999" gradientUnits="userSpaceOnUse">
      <stop stop-color="#F547BA"/>
      <stop offset="1" stop-color="#E83D35"/>
    </linearGradient>
  </defs>
</svg>
