<svg width="41" height="41" viewBox="0 0 41 41" fill="none" xmlns="http://www.w3.org/2000/svg">
<g clip-path="url(#clip0_8747_161462)">
<path d="M4.28125 27.1305C4.28125 27.1305 9.68125 24.5055 15.0979 24.5055L19.1829 11.8972C19.3363 11.2872 19.7829 10.8739 20.2862 10.8739C20.7896 10.8739 21.2362 11.2872 21.3896 11.8972L25.4729 24.5055C31.8896 24.5055 36.2913 27.1305 36.2913 27.1305L27.0996 2.14721C26.8362 1.41055 26.3913 0.935547 25.7913 0.935547H14.7812C14.1812 0.935547 13.7562 1.41055 13.4746 2.14721L4.28125 27.1305Z" fill="#1C1C1C"/>
<path d="M14.2132 34.5361C14.2142 34.537 14.2152 34.5379 14.2163 34.5388L14.2129 34.5372C14.213 34.5368 14.2131 34.5364 14.2132 34.5361C12.239 32.7517 11.6633 29.0108 12.4863 26.2988C13.9129 28.0088 15.8913 28.5522 17.9396 28.8572C21.1013 29.3288 24.2063 29.1522 27.1429 27.7272C27.4796 27.5638 27.7896 27.3455 28.1563 27.1272C28.4329 27.9155 28.5046 28.7105 28.4079 29.5222C28.1746 31.4972 27.1779 33.0222 25.5946 34.1788C24.9613 34.6405 24.2913 35.0538 23.6363 35.4905C21.6279 36.8305 21.0846 38.4022 21.8396 40.6888L21.9129 40.9355C20.9519 40.5231 20.1355 39.8338 19.5679 38.9555C18.9774 38.0571 18.6623 37.0056 18.6613 35.9305C18.6546 35.3972 18.6546 34.8605 18.5813 34.3338C18.4046 33.0522 17.7946 32.4788 16.6463 32.4455C15.4679 32.4122 14.5346 33.1305 14.2879 34.2622C14.268 34.3502 14.2414 34.4349 14.2132 34.5361Z" fill="url(#paint0_linear_8747_161462)"/>
</g>
<defs>
<linearGradient id="paint0_linear_8747_161462" x1="20.2859" y1="26.2988" x2="20.2859" y2="40.9355" gradientUnits="userSpaceOnUse">
<stop stop-color="#F547BA"/>
<stop offset="1" stop-color="#E83D35"/>
</linearGradient>
<clipPath id="clip0_8747_161462">
<rect width="40" height="40" fill="white" transform="translate(0.286316 0.935547)"/>
</clipPath>
</defs>
</svg>
