<svg width="14" height="14" fill="currentColor">
  <path d="M11.791.998c.668 0 1.21.542 1.21 1.21v9.583a1.21 1.21 0 0 1-1.21 1.21H2.208a1.21 1.21 0 0 1-1.21-1.21V2.208c0-.668.542-1.21 1.21-1.21h9.583Zm-9.583 1.17a.04.04 0 0 0-.04.04v9.583c0 .022.018.04.04.04h9.583a.04.04 0 0 0 .04-.04V2.208a.04.04 0 0 0-.04-.04H2.208ZM9.5 4.284c.323 0 .585.262.585.585v4.214a.585.585 0 0 1-1.17 0V4.869c0-.323.262-.585.585-.585Zm-4.597.424a.827.827 0 0 1 1.42-.005l.059.122 1.166 2.952.41 1.036a.586.586 0 0 1-1.088.431l-.264-.667H4.65l-.255.663a.585.585 0 0 1-1.092-.423l.401-1.036 1.142-2.95.058-.123Zm.199 2.7h1.042l-.527-1.334-.515 1.333Z"/>
</svg>
