<svg width="14" height="14" fill="currentColor">
  <path d="M5.92 2.068c.522 0 1.027.08 1.502.231a.584.584 0 0 1-.352 1.113A3.8 3.8 0 0 0 2.299 8.19a.585.585 0 0 1-.004.364L1.468 11l2.483-.556.095-.014a.585.585 0 0 1 .279.053 3.786 3.786 0 0 0 2.163.309.583.583 0 1 1 .171 1.153 4.954 4.954 0 0 1-2.638-.322l-3.31.744a.584.584 0 0 1-.68-.756l1.102-3.26a4.967 4.967 0 0 1-.18-1.316 4.967 4.967 0 0 1 4.966-4.966Zm3.759 1.125c.227 0 .434.132.53.338.191.413.312.985.425 1.394.129.468.265.82.465 1.05.174.198.536.368 1.077.542.126.04.255.079.386.118.129.039.263.079.39.12.25.079.518.172.743.294a.585.585 0 0 1 0 1.027c-.224.12-.49.215-.74.296-.291.094-.489.15-.774.244-.539.178-.903.352-1.078.557-.203.237-.339.598-.468 1.072-.113.415-.235.99-.427 1.404a.584.584 0 0 1-1.058 0c-.192-.415-.313-.99-.426-1.404-.13-.473-.265-.835-.468-1.072-.175-.205-.54-.379-1.079-.557-.285-.095-.483-.15-.774-.244a4.501 4.501 0 0 1-.74-.296.584.584 0 0 1 0-1.027c.226-.122.493-.215.743-.295.127-.04.261-.08.39-.119.131-.04.26-.077.386-.118.541-.174.904-.344 1.078-.543.2-.23.335-.582.464-1.049.113-.41.234-.98.426-1.394a.584.584 0 0 1 .529-.338Zm0 2.58c-.123.336-.29.68-.539.968-.37.423-.943.662-1.43.827.49.17 1.064.416 1.433.848.247.29.414.636.536.974.122-.338.289-.684.536-.974.369-.431.943-.678 1.432-.848-.486-.165-1.06-.404-1.428-.827-.25-.287-.417-.632-.54-.967Zm3.175-4.152c.224 0 .428.128.525.33.04.082.076.145.11.191.034.047.047.05.032.042a.584.584 0 0 1 0 1.033c.015-.008.002-.005-.032.042-.034.046-.07.11-.11.192a.583.583 0 0 1-1.051 0 1.25 1.25 0 0 0-.109-.192c-.034-.046-.047-.05-.033-.042a.583.583 0 0 1 0-1.033c-.015.008-.001.005.033-.042.034-.046.069-.11.109-.191l.042-.073a.584.584 0 0 1 .484-.257Z"/>
</svg>
