<svg width="14" height="14" fill="currentColor">
  <path d="M10.414 10.975c1.518 0 2.386.4 2.837.978.22.282.31.57.342.793a1.532 1.532 0 0 1 .005.397l-.002.012-.001.005v.003l-.578-.098.577.1a.585.585 0 0 1-1.153-.199v.007l-.002.005c0-.01 0-.034-.005-.065a.51.51 0 0 0-.106-.24c-.135-.175-.57-.528-1.914-.528-1.344 0-1.778.353-1.914.527a.509.509 0 0 0-.11.307l-.001-.001-.001-.005v-.004l-.001-.002a.585.585 0 0 1-1.154.197l.578-.1-.578.1v-.01l-.003-.012a1.077 1.077 0 0 1-.01-.121c-.003-.071 0-.166.015-.277a1.68 1.68 0 0 1 .342-.792c.45-.579 1.319-.978 2.837-.978ZM5.186.992a1.627 1.627 0 0 1 2.588 0l.305.4c.108.142.29.208.464.169l.491-.111a1.627 1.627 0 0 1 1.983 1.664l-.024.503a.457.457 0 0 0 .247.427l.534.276a1.552 1.552 0 0 1 .43 2.432.585.585 0 0 1-.86-.794.382.382 0 0 0-.106-.598l-.534-.277a1.627 1.627 0 0 1-.88-1.522l.025-.503a.457.457 0 0 0-.557-.467l-.491.11a1.627 1.627 0 0 1-1.653-.6L6.844 1.7a.457.457 0 0 0-.727 0l-.306.4a1.627 1.627 0 0 1-1.652.602l-.491-.11a.457.457 0 0 0-.557.466l.025.503c.03.636-.314 1.23-.88 1.522l-.447.232a.457.457 0 0 0-.126.716l.341.369c.432.467.551 1.144.306 1.731l-.194.465a.456.456 0 0 0 .363.629l.499.064a1.63 1.63 0 0 1 1.347 1.13l.15.48a.457.457 0 0 0 .683.25l.986-.634a.586.586 0 1 1 .632.984l-.986.634c-.905.58-2.114.14-2.433-.886l-.15-.48a.457.457 0 0 0-.377-.317l-.5-.064a1.627 1.627 0 0 1-1.294-2.242l.194-.464a.457.457 0 0 0-.085-.486l-.342-.37a1.627 1.627 0 0 1 .45-2.55l.447-.23a.458.458 0 0 0 .247-.427l-.024-.503A1.627 1.627 0 0 1 3.926 1.45l.49.11a.457.457 0 0 0 .465-.168l.304-.4Zm5.233 6.696a1.625 1.625 0 1 1-.002 3.25 1.625 1.625 0 0 1 .002-3.25Zm0 1.17a.456.456 0 1 0 0 .91.456.456 0 0 0 0-.91ZM6.48 4.672a1.836 1.836 0 1 1 0 3.671 1.836 1.836 0 0 1 0-3.67Zm0 1.17a.665.665 0 1 0 0 1.33.665.665 0 0 0 0-1.33Z"/>
</svg>
