<svg width="14" height="14" fill="currentColor">
  <path d="M6.998.003a7 7 0 0 1 6.52 4.452c.612 1.568.612 3.522 0 5.09a6.999 6.999 0 0 1-13.04 0 7.045 7.045 0 0 1 0-5.09A7 7 0 0 1 6.999.003ZM1.94 9.913a5.844 5.844 0 0 0 3.838 2.794 18.802 18.802 0 0 1-1.365-2.27 1.163 1.163 0 0 1-.736-.524H1.94Zm8.38 0a1.163 1.163 0 0 1-.737.525 18.84 18.84 0 0 1-1.365 2.27 5.843 5.843 0 0 0 3.839-2.795H10.32Zm-4.665 0a1.166 1.166 0 0 1-.125.165c.366.709.852 1.48 1.468 2.348.616-.868 1.101-1.64 1.467-2.348a1.163 1.163 0 0 1-.122-.165H5.655ZM1.431 5.246a5.9 5.9 0 0 0 0 3.507h2.21c.024-.044.05-.086.08-.127A6.445 6.445 0 0 1 3.5 7c0-.55.08-1.096.226-1.65a1.164 1.164 0 0 1-.069-.104H1.431Zm4.243 0c-.18.312-.5.532-.873.576-.093.402-.14.792-.14 1.178 0 .376.045.755.133 1.147.389.043.72.277.897.606h2.616c.177-.329.506-.563.894-.606.089-.392.134-.77.134-1.147 0-.386-.047-.775-.14-1.178a1.162 1.162 0 0 1-.87-.576H5.673Zm4.665 0c-.02.037-.044.071-.068.105a6.47 6.47 0 0 1 .224 1.65c0 .542-.077 1.08-.218 1.624.029.041.056.084.08.128h2.207a6.226 6.226 0 0 0 0-3.507h-2.225ZM5.778 1.291A5.845 5.845 0 0 0 1.94 4.086h1.72c.163-.282.44-.49.77-.558.355-.708.804-1.447 1.348-2.237Zm2.44 0c.544.79.994 1.529 1.348 2.237.33.067.61.275.773.558h1.718a5.845 5.845 0 0 0-3.839-2.795Zm-1.22.282c-.61.86-1.092 1.626-1.457 2.329.05.057.094.118.132.184h2.652c.038-.065.08-.128.13-.184-.364-.703-.846-1.47-1.457-2.33Z"/>
</svg>
