<svg width="14" height="14" fill="currentColor">
  <path d="M4.502 3.165a.569.569 0 0 1 .455 0l4.162 1.82a.57.57 0 0 1 .34.521v4.682c0 .225-.133.43-.34.52l-4.162 1.82a.568.568 0 0 1-.455 0L.34 10.709a.569.569 0 0 1-.34-.52V5.506c0-.225.133-.43.34-.52l4.162-1.82ZM1.135 9.817l3.027 1.324V7.698L1.135 6.373v3.444Zm4.162-2.12v3.444l3.027-1.324V6.373L5.297 7.698Zm7.901.012a.568.568 0 0 1 .47 1.034l-2.082.946a.568.568 0 0 1-.469-1.033l2.081-.947ZM1.982 5.505 4.73 6.707l2.747-1.202L4.73 4.303 1.983 5.505ZM13.198 2.98a.568.568 0 0 1 .47 1.033l-2.082.946a.568.568 0 0 1-.469-1.033l2.081-.946ZM8.847 1.277a.568.568 0 0 1 .47 1.033l-2.083.946a.568.568 0 0 1-.468-1.033l2.08-.946Z"/>
</svg>
