<svg width="14" height="14" fill="currentColor">
  <path d="M4.632 1.488a.195.195 0 0 1 .338 0l.169.293h6.09c.748 0 1.354.606 1.354 1.354v.645l-4.844.312s-.575.156-.575.73c0 .575.575.73.575.73l4.844.323v.644h-4.06c-.501 0-.937.272-1.171.676h1.17l.093.007c.03.005.061.01.09.019a.169.169 0 1 1 .29.167.498.498 0 0 1 .012.012.167.167 0 0 1 .101-.036.17.17 0 0 1 .17.17.17.17 0 0 1-.104.156l.004.015.021-.002c.074 0 .135.048.158.114h2.212a.068.068 0 0 1 0 .135H9.346a.167.167 0 0 1-.147.09l-.021-.003-.004.016a.17.17 0 0 1-.066.325.168.168 0 0 1-.101-.035l-.012.01a.169.169 0 0 1 .034.102c0 .009-.003.016-.005.025h2.545a.067.067 0 1 1 0 .135H8.911a.166.166 0 0 1-.05.01.167.167 0 0 1-.054-.01h-.624a.067.067 0 0 1-.062-.042l-.006-.026H7.17v1.353h.394a.335.335 0 0 1 .555-.015.066.066 0 0 1 .065-.052h.008a.338.338 0 0 1 .663 0h.123a.334.334 0 0 1 .221-.088c.087 0 .165.034.225.088h2.146a.067.067 0 1 1 0 .135H9.515a.336.336 0 0 1-.047.318l.022.023a.337.337 0 0 1 .536.2h1.543c.038 0 .068.03.068.068 0 .038-.03.068-.068.068h-1.544a.338.338 0 0 1-.2.245l.008.03c.014-.002.028-.005.043-.005.164 0 .3.117.332.272h1.361a.067.067 0 1 1 0 .135h-1.361a.338.338 0 0 1-.332.27.299.299 0 0 1-.043-.004 1.353 1.353 0 0 1-1.31 1.02H1.754a1.354 1.354 0 0 1-1.171-2.03c.234.403.67.676 1.17.676l-.292-.169a.196.196 0 0 1 0-.339l.293-.169-.293-.169a.196.196 0 0 1 0-.339l.293-.169-.293-.168a.196.196 0 0 1 0-.34l.293-.168-.293-.17a.196.196 0 0 1 0-.338l.293-.17-.293-.168a.196.196 0 0 1 0-.339l.293-.169-.293-.169a.196.196 0 0 1 0-.339l.293-.169-.293-.169a.196.196 0 0 1 0-.338l.293-.17-.293-.168a.196.196 0 0 1 0-.34l.293-.168-.293-.169a.196.196 0 0 1 0-.339l.293-.169-.293-.169a.196.196 0 0 1 0-.339l.293-.169-.293-.169a.196.196 0 0 1 0-.338l.293-.17-.293-.168a.196.196 0 0 1 0-.34l.293-.168V3.13l-.28-.28a.196.196 0 0 1 .087-.327l.346-.093-.094-.352a.195.195 0 0 1 .239-.24l.351.096.093-.346a.196.196 0 0 1 .327-.088l.28.28h.004l.17-.293a.195.195 0 0 1 .338 0l.17.293.17-.293a.195.195 0 0 1 .337 0l.169.293.17-.293Zm7.951 8.26a.339.339 0 0 1 .269.54l.022.023a.337.337 0 0 1 .543.268.34.34 0 0 1-.208.313l.008.03c.014-.002.028-.005.043-.005a.34.34 0 0 1 0 .677.299.299 0 0 1-.043-.004 1.353 1.353 0 0 1-1.649.976 1.35 1.35 0 0 0 .364-.153l.013-.009a1.412 1.412 0 0 0 .183-.135l.023-.022.024-.022.011-.012a1.35 1.35 0 0 0 .397-.957V9.747Zm-1.031 2.822a1.277 1.277 0 0 1 .016-.004l-.016.004Zm.017-3.412a.067.067 0 1 1 0 .135H8.183a.068.068 0 0 1 0-.135h3.386Zm1.352-2.04a.169.169 0 0 1 .135.27.562.562 0 0 1 .011.012.167.167 0 0 1 .102-.036.17.17 0 0 1 .17.17.17.17 0 0 1-.105.156l.004.015.022-.002a.169.169 0 1 1 0 .338l-.022-.002-.004.016a.17.17 0 0 1 .105.155.17.17 0 0 1-.17.17.168.168 0 0 1-.102-.035l-.011.01a.169.169 0 1 1-.29.169.68.68 0 0 1-.183.025V7.195a.68.68 0 0 1 .183.026.169.169 0 0 1 .155-.103Zm-.338-2.723v.134c-.125.007-.198.16-.275.324-.088.184-.186.392-.393.392h-.012c-.207-.008-.306-.204-.393-.377-.094-.185-.157-.295-.279-.293-.096.004-.161.08-.22.177l-.13.226c-.075.12-.172.223-.331.217-.205-.007-.304-.175-.392-.324-.093-.157-.159-.253-.28-.249-.132.005-.201.111-.281.236-.09.138-.19.296-.4.289-.201-.008-.3-.149-.388-.273-.093-.13-.154-.211-.285-.206-.135.005-.203.092-.283.193-.09.114-.193.243-.397.237a.068.068 0 0 1 .005-.136c.137.005.202-.079.286-.185.087-.111.188-.237.386-.244.207-.006.308.136.398.263.08.113.149.21.282.215.124.005.19-.083.282-.227.088-.136.188-.29.39-.298.209-.005.312.165.401.316.08.136.15.254.28.259.123.004.187-.1.28-.27.088-.161.187-.343.393-.35.213-.008.314.191.403.367.077.152.15.297.278.301.116.004.187-.121.277-.314.088-.185.187-.394.396-.401h.002Zm-8.798-1.43a.847.847 0 0 0-.846.847.169.169 0 0 0 .34 0 .508.508 0 0 1 1.014 0 .17.17 0 0 0 .339 0 .847.847 0 0 0-.847-.846Zm6.027-.24a.178.178 0 0 0-.056.036.18.18 0 0 0-.036.056.176.176 0 0 0-.01.03.185.185 0 0 0 .01.1c.004.01.01.018.015.028.006.01.014.018.02.026a.177.177 0 0 0 .087.046.186.186 0 0 0 .1-.01.182.182 0 0 0 .054-.036.172.172 0 0 0 .046-.153c-.002-.01-.006-.02-.01-.031a.17.17 0 0 0-.22-.092Zm1.353-.085a.184.184 0 0 0-.056.037.174.174 0 0 0-.036.184.185.185 0 0 0 .036.055c.032.031.076.05.12.05a.197.197 0 0 0 .034-.004.174.174 0 0 0 .032-.009l.03-.015.025-.022a.25.25 0 0 0 .02-.025l.016-.03a.172.172 0 0 0 .012-.064.173.173 0 0 0-.048-.12.174.174 0 0 0-.055-.037.174.174 0 0 0-.032-.009.157.157 0 0 0-.067 0 .17.17 0 0 0-.031.009Z"/>
</svg>
