<svg width="14" height="14" fill="currentColor">
  <path d="M4.64.012c.756 0 1.37.613 1.37 1.369v1.38A1.37 1.37 0 0 1 4.64 4.13h-.209v.855l1.336 1.336h3.409a1.37 1.37 0 0 1 1.369 1.37v1.983h.208a1.37 1.37 0 0 1 1.369 1.369v1.577a1.37 1.37 0 0 1-1.37 1.368H9.177a1.369 1.369 0 0 1-1.37-1.368v-1.577c0-.756.614-1.37 1.37-1.37h.209V7.69a.21.21 0 0 0-.21-.209h-3.21L4.43 9.014v.66h.21a1.37 1.37 0 0 1 1.369 1.369v1.577a1.37 1.37 0 0 1-1.37 1.368H3.063a1.369 1.369 0 0 1-1.369-1.368v-1.577c0-.756.613-1.37 1.37-1.37h.207v-.659L1.667 7.41a.58.58 0 0 1 0-.82L3.27 4.985V4.13h-.208a1.37 1.37 0 0 1-1.369-1.37V1.38A1.37 1.37 0 0 1 3.063.012H4.64ZM3.063 10.834a.21.21 0 0 0-.209.209v1.577a.21.21 0 0 0 .21.209H4.64a.21.21 0 0 0 .21-.21v-1.576a.21.21 0 0 0-.21-.21H3.063Zm6.113 0a.21.21 0 0 0-.21.209v1.577a.21.21 0 0 0 .21.209h1.577a.21.21 0 0 0 .209-.21v-1.576a.21.21 0 0 0-.21-.21H9.177ZM2.896 7l.955.954L4.805 7l-.954-.955L2.896 7Zm.167-5.828a.21.21 0 0 0-.209.209v1.38a.21.21 0 0 0 .21.209H4.64a.21.21 0 0 0 .21-.21V1.38a.21.21 0 0 0-.21-.208H3.063Z"/>
</svg>
