<svg width="14" height="14" fill="currentColor">
  <path d="M8.686.965a.58.58 0 0 1 0 1.16H1.353a.193.193 0 0 0-.193.192v7.72c0 .106.087.191.193.191H12.16a.192.192 0 0 0 .192-.19V8.685a.58.58 0 0 1 1.16 0v1.351c0 .746-.606 1.351-1.352 1.352H7.336v.963h2.122a.58.58 0 0 1 0 1.16H4.054a.58.58 0 0 1 0-1.16h2.122v-.963H1.353A1.353 1.353 0 0 1 0 10.037v-7.72C0 1.571.606.965 1.353.965h7.333ZM11.099 0c.32 0 .58.26.58.58v5.168l1.333-1.333a.58.58 0 0 1 .82.82L11.509 7.56a.581.581 0 0 1-.82 0L8.363 5.235a.58.58 0 0 1 .82-.82l1.335 1.334V.58c0-.32.26-.58.58-.58Z"/>
</svg>
