<svg width="14" height="14" fill="currentColor">
  <path d="M9.368 10.716a.585.585 0 0 0-.828-.827l.414.413.414.414Zm-1.642.814-.414-.413.414.413Zm.45 1.278a.585.585 0 1 0 .828-.828l-.414.414-.414.414Zm-2.66.104a.585.585 0 1 0 .828.828l-.414-.414-.413-.414Zm1.512.828a.585.585 0 1 0 .828-.828l-.414.414-.414.414ZM1.212 2.156l-.298-.503a.585.585 0 0 0-.287.503h.585Zm0 9.634H.627c0 .206.109.398.287.503l.298-.503Zm11.486-9.634h.585a.585.585 0 0 0-.287-.503l-.298.503ZM3.912 13.462a.585.585 0 0 0 .29-1.133l-.146.566-.144.567Zm1.717-3.758a.585.585 0 0 0 .133-1.162l-.066.581-.067.581ZM12.113 4.9a.585.585 0 1 0 1.17 0h-1.17Zm.675 3.838h-.585c0 .9-.73 1.628-1.629 1.628v1.17a2.799 2.799 0 0 0 2.799-2.798h-.585Zm-2.214 2.213v-.585c-.9 0-1.629-.729-1.629-1.628h-1.17a2.799 2.799 0 0 0 2.8 2.798v-.585ZM8.36 8.737h.585c0-.9.73-1.63 1.63-1.63V5.939a2.799 2.799 0 0 0-2.8 2.799h.585Zm2.214-2.214v.585c.9 0 1.629.729 1.629 1.629h1.17a2.799 2.799 0 0 0-2.799-2.8v.586Zm-1.62 3.78-.414-.414-1.228 1.228.414.413.414.414 1.228-1.228-.414-.414ZM7.726 11.53l-.414.414.864.864.414-.414.414-.414-.864-.863-.414.413Zm0 0-.414-.413-1.04 1.04.414.413.414.414 1.04-1.04-.414-.414Zm-1.04 1.04-.414-.414-.755.756.413.414.414.414.756-.756-.414-.414Zm0 0-.414.414.756.756.414-.414.414-.414-.756-.756-.414.414ZM1.212 2.156H.627v1.482h1.17V2.156h-.585Zm0 1.482H.627v4.076h1.17V3.638h-.585Zm0 4.076H.627v4.076h1.17V7.714h-.585Zm11.486-5.558.298-.503-.001-.001-.002-.002-.008-.004a5.764 5.764 0 0 0-.122-.068 9.087 9.087 0 0 0-.35-.18c-.301-.146-.735-.34-1.272-.534C10.167.48 8.663.09 6.955.09v1.17c1.535 0 2.902.351 3.89.706.492.178.886.354 1.156.485a7.976 7.976 0 0 1 .396.208c.002 0 .003.001.003.002l.298-.504ZM6.955.674V.089c-1.707 0-3.212.39-4.285.775a12.9 12.9 0 0 0-1.273.535 9.125 9.125 0 0 0-.48.251l-.002.002.297.504.298.503.003-.001a2.08 2.08 0 0 1 .092-.051c.068-.037.17-.091.305-.157.269-.13.663-.307 1.156-.485.988-.355 2.355-.706 3.89-.706V.674ZM1.212 3.638l-.298.504h.001a.163.163 0 0 0 .01.006 3.279 3.279 0 0 0 .122.068c.082.044.2.106.35.18.301.146.735.34 1.273.534 1.073.386 2.578.775 4.285.775v-1.17c-1.534 0-2.901-.351-3.89-.706a11.69 11.69 0 0 1-1.155-.485 7.952 7.952 0 0 1-.4-.21l-.298.504ZM6.955 5.12v.585c1.708 0 3.212-.39 4.285-.775.538-.194.972-.388 1.273-.534a9.104 9.104 0 0 0 .48-.252l.002-.002h.001l-.298-.504a134.83 134.83 0 0 1-.298-.503l-.003.001a1.45 1.45 0 0 1-.091.052c-.068.036-.171.09-.305.156a11.7 11.7 0 0 1-1.156.485c-.988.355-2.355.706-3.89.706v.585Zm-5.743 6.67a120.988 120.988 0 0 0-.297.504h.001l.004.003a1.289 1.289 0 0 0 .058.033 10.867 10.867 0 0 0 .773.382c.52.232 1.263.521 2.16.75l.145-.566.145-.567a12.44 12.44 0 0 1-1.973-.685 9.744 9.744 0 0 1-.717-.357l-.001-.001-.298.504Zm11.486-8.152h.585V2.156h-1.17v1.482h.585ZM1.212 7.714l-.298.503h.001l.002.002.006.004a2.715 2.715 0 0 0 .093.052 12.214 12.214 0 0 0 1.244.576c.83.328 2.001.697 3.37.853l.066-.58.066-.582A12.188 12.188 0 0 1 1.809 7.37a7.117 7.117 0 0 1-.3-.16h.001l-.298.504Zm11.486-2.815h.585V3.64h-1.17V4.9h.585Z"/>
</svg>
