<svg width="15" height="14" fill="currentColor">
  <path d="M7.2 1a.6.6 0 1 1 0 1.2H1.4a.2.2 0 0 0-.2.2v8c0 .11.09.2.2.2h11.2a.2.2 0 0 0 .2-.2V9A.6.6 0 0 1 14 9v1.4a1.4 1.4 0 0 1-1.4 1.4h-5v1h2.2a.6.6 0 0 1 0 1.2H4.2a.6.6 0 0 1 0-1.2h2.2v-1h-5A1.4 1.4 0 0 1 0 10.4v-8A1.4 1.4 0 0 1 1.4 1h5.8Zm4.2-1a2.2 2.2 0 0 1 2.2 2.2v.668c.466.165.8.61.8 1.132v2a1.2 1.2 0 0 1-1.2 1.2H9.6A1.2 1.2 0 0 1 8.4 6V4a1.2 1.2 0 0 1 .8-1.132V2.2A2.2 2.2 0 0 1 11.4 0ZM9.6 6h3.6V4H9.6v2Zm1.8-4.8a1 1 0 0 0-1 1v.6h2v-.6a1 1 0 0 0-1-1Z"/>
</svg>
