<svg width="14" height="14" fill="currentColor">
  <path d="M7 .003c1.745 0 3.284.397 4.382.79.55.196.993.393 1.3.542a8.876 8.876 0 0 1 .456.237l.027.014.008.005.002.001v.001h.002a.58.58 0 0 1 .285.5v9.814a.58.58 0 0 1-.285.5l-.295-.5.294.5h-.001l-.002.002c-.002 0-.005.003-.008.005l-.027.015-.097.053a9.433 9.433 0 0 1-.358.183c-.308.149-.751.347-1.301.543-1.098.393-2.636.788-4.382.788-1.745 0-3.283-.395-4.38-.788a13.05 13.05 0 0 1-1.303-.543 9.421 9.421 0 0 1-.455-.236l-.026-.015-.008-.005-.003-.001v-.001c0-.003.02-.037.293-.5l-.295.5a.58.58 0 0 1-.285-.5V2.093a.58.58 0 0 1 .285-.5l.295.5-.294-.5h.001l.003-.002c.002 0 .005-.003.008-.005l.123-.068a9.42 9.42 0 0 1 .358-.183c.308-.149.752-.346 1.302-.543C3.717.4 5.255.003 7 .003Zm5.302 2.954A15.415 15.415 0 0 1 7 3.931a15.415 15.415 0 0 1-5.302-.974v8.6l.125.063a12 12 0 0 0 1.186.496c1.013.362 2.416.72 3.991.72 1.575 0 2.978-.358 3.991-.72.505-.181.91-.362 1.186-.495l.125-.064v-8.6ZM7.403 6.432a1.835 1.835 0 0 1 .468.116c.053.02.146.068.207.104.06.036.163.114.226.173.063.058.145.15.183.203.038.053.101.164.14.246a2.083 2.083 0 0 1 .177.689 2.752 2.752 0 0 1-.025.693c-.013.074-.04.19-.061.258a2.107 2.107 0 0 1-.211.454c-.027.04-.102.126-.166.192l-.115.12.03.034.436.488c.223.248.405.455.405.46-.01.004-.342.007-.746.006h-.747l-.268-.33-.268-.33-.119-.012a1.92 1.92 0 0 1-.52-.113 1.77 1.77 0 0 1-.263-.138 1.71 1.71 0 0 1-.237-.19 1.662 1.662 0 0 1-.167-.202 1.877 1.877 0 0 1-.183-.361c-.008-.023-.02.006-.04.105a1.39 1.39 0 0 1-.083.253c-.03.063-.088.157-.128.208a1.13 1.13 0 0 1-.385.3 1.392 1.392 0 0 1-.504.133 2.34 2.34 0 0 1-.346.008 2.423 2.423 0 0 1-.604-.104 3.314 3.314 0 0 1-.234-.096l-.143-.065V8.598l.033.014c.02.007.144.06.275.116.131.056.322.13.424.165.153.052.211.065.34.071.094.005.174 0 .2-.01.023-.009.041-.026.042-.038 0-.012-.02-.04-.046-.061a3.898 3.898 0 0 0-.357-.196 4.152 4.152 0 0 1-.43-.246 1.476 1.476 0 0 1-.186-.165 1.402 1.402 0 0 1-.126-.176 1.39 1.39 0 0 1-.095-.201c-.03-.088-.035-.132-.036-.341 0-.222.004-.25.043-.368a1.11 1.11 0 0 1 .124-.248c.047-.068.125-.156.185-.206.057-.048.157-.113.222-.144.064-.032.172-.071.239-.088a2.13 2.13 0 0 1 .25-.044 2.13 2.13 0 0 1 .812.086c.096.029.267.093.38.14l.21.092c.004.003-.082.221-.191.484l-.198.478L5.1 7.66a5.47 5.47 0 0 0-.3-.114 1.953 1.953 0 0 0-.291-.076.742.742 0 0 0-.173-.007c-.029.006-.056.02-.062.034-.005.014.006.035.028.053.02.017.166.096.323.175.158.08.34.18.406.223.066.043.158.114.205.157.048.043.116.124.152.179l.065.1.01-.26c.007-.166.023-.318.044-.418a2.5 2.5 0 0 1 .072-.272c.022-.062.063-.158.09-.213a1.89 1.89 0 0 1 .121-.194 1.83 1.83 0 0 1 .16-.183c.05-.049.138-.12.194-.158.057-.038.15-.09.205-.114a1.84 1.84 0 0 1 .213-.077 2.49 2.49 0 0 1 .57-.078c.072 0 .194.007.27.016Zm2.668 2.505h1.206v1.021h-2.35V6.462h1.144v2.475Zm-3.07-1.47a.422.422 0 0 0-.176.087.44.44 0 0 0-.087.114 1.12 1.12 0 0 0-.061.164 1.64 1.64 0 0 0-.034.301 1.94 1.94 0 0 0 .008.322c.01.063.032.153.05.202.016.048.05.115.072.15a.348.348 0 0 0 .135.106c.082.041.108.047.232.047.122 0 .152-.005.23-.044a.365.365 0 0 0 .135-.107.666.666 0 0 0 .076-.16c.017-.054.038-.16.048-.234a1.866 1.866 0 0 0-.025-.566 1.426 1.426 0 0 0-.055-.164.447.447 0 0 0-.081-.121.435.435 0 0 0-.112-.074.697.697 0 0 0-.185-.03.802.802 0 0 0-.17.006ZM7 1.162c-1.575 0-2.977.359-3.99.721-.15.054-.29.107-.421.16A14.259 14.259 0 0 0 7 2.771a14.26 14.26 0 0 0 4.41-.729c-.13-.052-.27-.106-.419-.159-1.013-.362-2.416-.72-3.991-.72Z"/>
</svg>
