<svg width="14" height="14" fill="currentColor">
  <path d="M7.595 7.098a.54.54 0 0 1 .54.54v4.112l.798-.797a.542.542 0 0 1 .765.766l-1.72 1.72a.542.542 0 0 1-.766 0l-1.72-1.72a.542.542 0 0 1 .765-.766l.797.797V7.639c0-.3.242-.541.54-.541Zm3.505-.091a.54.54 0 0 1 .68.07l1.72 1.72a.54.54 0 0 1-.765.764l-.796-.796v4.11a.542.542 0 0 1-1.082 0v-4.11l-.798.797a.54.54 0 1 1-.765-.764l1.72-1.721.086-.07ZM6.356.64c1.804 0 3.423.795 4.525 2.052l.214.258.002.003c.426.553.747 1.172.955 1.808a.541.541 0 0 1-1.03.336 4.96 4.96 0 0 0-.78-1.48A4.935 4.935 0 0 0 7.5 1.853c.432.634.793 1.228 1.08 1.798a1.04 1.04 0 0 1-.234 2.051c-.376 0-.704-.2-.886-.498H5.251c-.157.257-.422.44-.732.485a4.309 4.309 0 0 0-.006 1.902 1.039 1.039 0 1 1-1.017 1.594H2.123a4.954 4.954 0 0 0 2.103 1.92.541.541 0 0 1-.468.975A6.034 6.034 0 0 1 .75 8.84a6.055 6.055 0 0 1 0-4.373A6.017 6.017 0 0 1 6.356.64ZM1.64 5.205a4.988 4.988 0 0 0 0 2.9h1.823l.04-.068a5.432 5.432 0 0 1 .007-2.784l-.03-.048H1.64Zm3.569-3.35a4.94 4.94 0 0 0-3.087 2.268H3.48a1.04 1.04 0 0 1 .649-.47 16.04 16.04 0 0 1 1.08-1.799Zm1.146.248a16.96 16.96 0 0 0-1.189 1.9c.03.038.059.078.084.12h2.21a1.06 1.06 0 0 1 .082-.12 16.943 16.943 0 0 0-1.187-1.9Z"/>
</svg>
