<svg width="14" height="14" fill="currentColor">
  <path d="M.6 7.8a.6.6 0 0 1 .6.6V10a1 1 0 0 0 1 1h1.494l-.667-.529a.6.6 0 0 1 .746-.94l2 1.586a.601.601 0 0 1 .03.914l-2 1.814a.601.601 0 0 1-.806-.889l.835-.756H2.199A2.2 2.2 0 0 1 0 10V8.4a.6.6 0 0 1 .6-.6Zm11.2-1A2.2 2.2 0 0 1 14 9v2.8a2.2 2.2 0 0 1-2.2 2.2H9a2.2 2.2 0 0 1-2.2-2.2V9A2.2 2.2 0 0 1 9 6.8h2.8ZM9 8a1 1 0 0 0-1 1v2.8a1 1 0 0 0 1 1h2.8a1 1 0 0 0 1-1V9a1 1 0 0 0-1-1H9ZM2.042 5.987c.05.008.104.012.157.012h.28a.6.6 0 1 1 0 1.2H2.2a2.3 2.3 0 0 1-.343-.027.6.6 0 0 1 .186-1.185Zm3.115 0a.6.6 0 0 1 .186 1.185A2.217 2.217 0 0 1 5 7.2h-.28a.6.6 0 1 1 0-1.2H5a1 1 0 0 0 .157-.012Zm5.04-5.832a.6.6 0 0 1 .806.888l-.835.757h1.633A2.2 2.2 0 0 1 14 4.001v1.6a.6.6 0 0 1-1.2 0V4a1 1 0 0 0-1-1h-1.494l.667.529a.6.6 0 0 1-.746.94l-2-1.587a.601.601 0 0 1-.03-.914l2-1.813ZM.6 4.119a.6.6 0 0 1 .6.601V5c0 .054.004.107.012.158a.6.6 0 0 1-1.186.185A2.216 2.216 0 0 1 0 5v-.28a.6.6 0 0 1 .6-.6Zm6 0a.6.6 0 0 1 .6.601V5c0 .116-.01.231-.027.343a.6.6 0 0 1-1.186-.185A1.02 1.02 0 0 0 6 5v-.28a.6.6 0 0 1 .6-.6ZM.712 1.357a.6.6 0 0 1 .5.685 1.02 1.02 0 0 0-.013.158v.28A.6.6 0 1 1 0 2.48V2.2c0-.117.009-.231.026-.343a.6.6 0 0 1 .686-.5Zm5.775 0a.6.6 0 0 1 .686.5c.017.112.026.226.026.343v.28A.6.6 0 1 1 6 2.48V2.2a1.02 1.02 0 0 0-.013-.158.6.6 0 0 1 .5-.685ZM2.48 0a.6.6 0 1 1 0 1.2H2.2c-.053 0-.106.004-.157.012A.6.6 0 0 1 1.856.027C1.968.009 2.083 0 2.2 0h.28ZM5 0c.116 0 .23.01.343.027a.6.6 0 0 1-.186 1.185A1.023 1.023 0 0 0 5 1.2h-.28a.6.6 0 1 1 0-1.2H5Z"/>
</svg>
