<svg width="14" height="14" fill="currentColor">
  <path d="M13.72 4.05c.109 0 .194.064.238.164.03.068.042.153.042.259v.017l-.001.013v.007l-.001.012v.021l-.005.035v.01l-.003.016-.004.033-.002.013-1.159 6.038-.003.015-.02.11-.006.03-.009.045-.006.029-.007.03-.005.029-.006.028-.006.03-.01.041-.012.055-.006.027-.006.027-.006.027-.007.026-.006.026-.007.025-.006.025-.006.026-.006.024-.014.05-.006.022-.02.07-.006.023-.007.023-.007.021-.007.023-.007.021-.006.02-.007.022-.007.02-.003.01-.007.021-.004.01-.003.01-.008.024-.01.023-.003.01-.014.037-.01.024-.008.02-.008.022c-.015.036-.031.07-.047.103l-.007.015-.018.037c-.1.2-.213.346-.343.437-.162.115-.368.174-.617.181h-.08c-.391 0-.678-.107-.842-.334l-.005-.007-.004-.006-.003-.002a.463.463 0 0 1-.08-.256v-.023l-.001-.008v-.006l-.001-.016v-.016l-.001-.02v-.02l-.001-.01v-.045l.001-.022v-.02l.001-.02v-.02l.004-.074.003-.026v-.017a.95.95 0 0 1 .039-.195c.045-.14.136-.235.272-.237h.025l.006.002h.007l.018.005.023.005.021.005.027.008.03.008.039.012.091.027.027.008.023.007.023.006.021.006.02.006.014.003.014.004.017.004.015.004.011.003.02.004.01.002.007.002h.01l.004.002h.006l.005-.001a.077.077 0 0 0 .02-.014.426.426 0 0 0 .08-.13 1.13 1.13 0 0 0 .08-.309v-.01l.002-.019.006-.059a2.7 2.7 0 0 0 .009-.21v-.027l-.001-.007-.001-.01-.002-.012-.001-.015-.002-.007-.002-.017-.003-.019-.004-.026-.005-.028-.006-.03-.005-.035-.008-.043-.01-.048-.01-.06-.016-.074-.014-.069-.018-.086-.02-.09-1.277-5.31-.003-.031-.002-.015-.002-.014-.004-.033v-.006l-.001-.012-.001-.012-.001-.006v-.01l-.001-.012v-.034c0-.094.011-.17.037-.231.04-.096.12-.161.225-.163h.793a.37.37 0 0 1 .271.113c.066.069.106.172.132.315l.002.008.002.015.693 3.67.541-3.645.001-.006a.713.713 0 0 1 .109-.33l.002-.003.004-.005a.34.34 0 0 1 .267-.133h.553ZM8.249 1c.123 0 .221.069.275.183a.766.766 0 0 1 .057.32v2.549h.74c.116 0 .212.06.268.162l.006.01c.04.08.057.18.058.307v.36a.674.674 0 0 1-.06.313.3.3 0 0 1-.266.17H8.58v3.372l.001.025v.039l.003.09.002.03v.011l.002.023v.022l.003.023v.021l.005.043v.01l.005.041v.01l.003.02c.005.04.012.079.018.115l.002.012.002.008.006.031.002.008.003.015.004.014v.007l.005.014c.004.018.01.035.014.05l.004.013c.02.063.045.11.07.141.045.057.086.09.118.105l.008.003a.433.433 0 0 0 .154.025h.47a.32.32 0 0 1 .268.13.458.458 0 0 1 .075.271l.001.008v.39a.507.507 0 0 1-.078.299.33.33 0 0 1-.273.138H9.47l-.662.001c-.184 0-.344-.013-.484-.039a1.374 1.374 0 0 1-.457-.184 1.183 1.183 0 0 1-.398-.406 2.18 2.18 0 0 1-.239-.672 4.777 4.777 0 0 1-.088-.96V5.373h-.306a.298.298 0 0 1-.267-.16l-.006-.009a.665.665 0 0 1-.06-.304v-.36c0-.13.019-.235.06-.316a.3.3 0 0 1 .268-.172h.31v-.01l.119-2.536v-.012a.84.84 0 0 1 .068-.313c.054-.11.146-.179.264-.181h.657Zm-6.146.265c.117 0 .21.066.26.173a.703.703 0 0 1 .052.292v8.616c0 .164-.016.292-.054.388-.05.13-.147.215-.279.217h-1c-.135 0-.233-.086-.282-.219a1.116 1.116 0 0 1-.052-.377V3.153l-.192.048-.152.038-.036.01-.015.003-.012.002H.334l-.006.002H.321a.27.27 0 0 1-.268-.158A.66.66 0 0 1 0 2.81v-.634c0-.112.018-.206.059-.282a.335.335 0 0 1 .214-.172L.28 1.72l.007-.002 1.72-.444a.387.387 0 0 1 .082-.01h.015Zm3.274-.011a.28.28 0 0 1 .26.174.703.703 0 0 1 .052.292v8.625c0 .16-.018.285-.054.379-.051.13-.148.214-.28.216h-.004l-.995-.002c-.134 0-.231-.086-.28-.218a1.113 1.113 0 0 1-.053-.376V3.14l-.267.068-.107.026-.03.008-.017.004-.007.001-.003.001h-.003v-.001l.002-.002h-.004a.271.271 0 0 1-.258-.161.653.653 0 0 1-.054-.287v-.634c0-.112.018-.206.059-.282a.336.336 0 0 1 .215-.172l.006-.002.007-.001 1.72-.442a.383.383 0 0 1 .08-.011h.015Z"/>
</svg>
