<svg width="14" height="14" fill="currentColor">
  <path d="M13 .82c.541 0 .98.44.98.98v10.4a.98.98 0 0 1-.98.98H1a.98.98 0 0 1-.98-.98V1.8c0-.54.44-.98.98-.98h12ZM1.18 12.02h11.64V9.58H1.18v2.44Zm1.397-1.62a.601.601 0 1 1-.001 1.201.601.601 0 0 1 0-1.202Zm1.999 0a.601.601 0 1 1-.001 1.201.601.601 0 0 1 0-1.202ZM1.18 8.42h11.64V5.58H1.18v2.84ZM2.577 6.4a.6.6 0 1 1 0 1.201.6.6 0 0 1 0-1.2Zm1.999 0a.6.6 0 1 1 0 1.201.6.6 0 0 1 0-1.2ZM1.18 4.42h11.64V1.98H1.18v2.44ZM2.577 2.4a.601.601 0 1 1-.001 1.202.601.601 0 0 1 0-1.202Zm1.999 0a.601.601 0 1 1-.001 1.202.601.601 0 0 1 0-1.202Z"/>
</svg>
