<svg width="14" height="14" fill="currentColor">
  <path d="M7 1.33c.527 0 .953.425.953.952l-.034.255 2.5 1.435a.957.957 0 0 1 1.433-.095c.18.179.28.421.28.674 0 .487-.364.89-.834.952V8.4a.957.957 0 0 1-.238 1.883.941.941 0 0 1-.72-.329L7.9 11.4l.052.318a.954.954 0 0 1-1.905 0l.05-.318L3.66 9.954a.953.953 0 0 1-1.673-.624c0-.448.301-.822.715-.93V5.503a.961.961 0 0 1-.834-.952.953.953 0 0 1 1.713-.58l2.5-1.434-.033-.255c0-.527.425-.953.952-.953Zm-.635 9.673A.932.932 0 0 1 7 10.76c.244 0 .47.09.635.243l2.428-1.435H3.936l2.428 1.435ZM7 3.24l-.249-.034-3.153 5.439a.831.831 0 0 1 .266.442h6.272c.04-.17.13-.323.266-.442L7.25 3.206 7 3.24ZM3.768 4.414l.011.137c0 .402-.25.748-.601.89l.017 2.977L6.32 2.951 3.768 4.414Zm7.037 4.004.017-2.978a.961.961 0 0 1-.601-.89l.011-.136-2.551-1.463 3.124 5.467Z"/>
</svg>
