<svg width="14" height="14" fill="currentColor">
  <path d="M7.962 1.712a1.128 1.128 0 0 1 1.121 1.121v1.923a1.128 1.128 0 0 1-1.121 1.122H7.48v.961h3.365a1.128 1.128 0 0 1 1.122 1.122v.802h.16a1.128 1.128 0 0 1 1.122 1.122v1.282a1.128 1.128 0 0 1-1.122 1.122h-1.282a1.129 1.129 0 0 1-1.122-1.122V9.885a1.128 1.128 0 0 1 1.122-1.122h.16V7.96a.16.16 0 0 0-.16-.16H7.481v.962h.16a1.128 1.128 0 0 1 1.122 1.122v1.282a1.128 1.128 0 0 1-1.122 1.122H6.36a1.128 1.128 0 0 1-1.122-1.122V9.885A1.128 1.128 0 0 1 6.36 8.763h.16V7.8H3.154a.16.16 0 0 0-.16.16v.802h.16a1.128 1.128 0 0 1 1.122 1.122v1.282a1.128 1.128 0 0 1-1.122 1.122H1.872A1.128 1.128 0 0 1 .75 11.167V9.885a1.128 1.128 0 0 1 1.122-1.122h.16V7.96a1.128 1.128 0 0 1 1.122-1.12h3.365v-.96h-.48a1.128 1.128 0 0 1-1.122-1.123V2.833a1.128 1.128 0 0 1 1.121-1.121h1.924Zm-6.09 8.012a.16.16 0 0 0-.16.16v1.283a.16.16 0 0 0 .16.16h1.282a.16.16 0 0 0 .16-.16V9.885a.16.16 0 0 0-.16-.16H1.872Zm4.487 0a.16.16 0 0 0-.16.16v1.283a.16.16 0 0 0 .16.16H7.64a.16.16 0 0 0 .16-.16V9.885a.16.16 0 0 0-.16-.16H6.36Zm4.487 0a.16.16 0 0 0-.16.16v1.283a.16.16 0 0 0 .16.16h1.282a.16.16 0 0 0 .16-.16V9.885a.16.16 0 0 0-.16-.16h-1.282ZM6.038 2.673a.16.16 0 0 0-.16.16v1.923a.16.16 0 0 0 .16.16h1.924a.16.16 0 0 0 .16-.16V2.833a.16.16 0 0 0-.16-.16H6.038Z"/>
</svg>
