<svg width="14" height="14" fill="currentColor">
  <path d="M6.764 1.397a.585.585 0 0 1 .546.04l6.25 3.9a.585.585 0 0 1 .275.496v3.043a.585.585 0 1 1-1.17 0V6.903l-1.747 1.123v3.029a.584.584 0 0 1-.342.532c-1.3.592-2.084.893-3.508 1.061a.579.579 0 0 1-.136 0c-1.424-.168-2.209-.47-3.508-1.061a.585.585 0 0 1-.342-.532V8.026l-2.648-1.7a.585.585 0 0 1 .006-.99l6.25-3.9.074-.039Zm.552 8.945a.586.586 0 0 1-.632 0L4.252 8.778v1.898c1.013.45 1.655.666 2.748.8 1.093-.134 1.735-.35 2.748-.8V8.778l-2.432 1.564ZM1.843 5.84l2.14 1.375L7 9.153l3.017-1.938 2.14-1.375L7 2.62 1.843 5.84Z"/>
</svg>
