<svg width="14" height="14" fill="currentColor">
  <path d="M5.074 12.976c-.77 0-1.395-.633-1.395-1.412 0-.132.017-.26.05-.38l-.002.01-.007-.005.044-.112L7.196 2.06a1.68 1.68 0 0 0-.002-.639v.011a.221.221 0 0 1 .008-.122v.002l.006-.018v-.003l.004-.01c.053-.144.22-.217.495-.217.44.021.872.121 1.278.294l-.025-.01c.38.144.709.324 1.01.543l-.014-.01c.295.224.413.425.347.596l-.015.022-.008.008a.384.384 0 0 1-.073.081c-.16.132-.298.287-.408.462l-.004.008L6.33 12.2l-.008-.003a1.41 1.41 0 0 1-1.247.775h-.003l.002.003ZM4.002 11.13l-.01.025a1.177 1.177 0 0 0 .661 1.495l.008.003c.13.051.267.077.406.076h.006c.486 0 .901-.306 1.068-.738l.003-.008.013-.03 3.412-8.979c.126-.213.287-.403.476-.562l.003-.003.008-.008c.006-.008.01-.008.01-.015 0-.03-.03-.134-.273-.32a3.875 3.875 0 0 0-.905-.487l-.027-.01a3.574 3.574 0 0 0-1.152-.267h-.01c-.192 0-.257.04-.268.063v.019a1.948 1.948 0 0 1-.02.765l.003-.013-3.413 8.993.001.001ZM8.39 5.42a3.462 3.462 0 0 1-.887.74l-.017.008c-.464.126-.842.254-1.21.402l.073-.027c-.23.136-.427.32-.579.54l-.003.007-1.577 4.148a.964.964 0 0 0 .545 1.199l.007.003a.92.92 0 0 0 1.18-.517l.002-.008L8.39 5.42Zm-2.42 4.955a.09.09 0 0 1 .04-.008c.04 0 .074.023.09.057v.001a.1.1 0 0 1-.07.138.098.098 0 0 1-.111-.058v-.001a.105.105 0 0 1-.008-.038.1.1 0 0 1 .058-.091h.001Zm-.497-.894a.147.147 0 0 1-.188-.066.15.15 0 0 1 .13-.22c.06 0 .11.036.133.087l.001.001c.008.018.014.04.014.062a.14.14 0 0 1-.09.131v.005Zm.14-.545a.29.29 0 0 1 .139-.375l.002-.001a.28.28 0 0 1 .367.14.29.29 0 0 1-.196.386.28.28 0 0 1-.319-.15v-.001h.007Zm1.19-1.122a.147.147 0 0 1 .207.136.15.15 0 0 1-.09.137.147.147 0 0 1-.192-.077.15.15 0 0 1 .074-.196l.001-.001v.001Zm-.632-.682a.088.088 0 0 1 .04-.009.099.099 0 0 1 .094.1.1.1 0 0 1-.094.099.099.099 0 0 1-.09-.057.097.097 0 0 1-.009-.042c0-.04.023-.075.057-.09v-.001h.002ZM7.823 1.63c.05-.13.487-.08.978.112.492.193.848.451.8.581-.05.13-.49.081-.98-.11-.491-.19-.85-.451-.8-.584l.002.001Z"/>
</svg>
