<svg width="14" height="14" fill="currentColor">
  <path d="M11.196 8.631c.32 0 .58.26.58.58v.533a.58.58 0 0 1-.29.502l-4.598 2.656a.58.58 0 0 1-.58 0L1.71 10.247a.581.581 0 0 1-.29-.503v-.532a.58.58 0 0 1 1.16 0v.198l4.017 2.32 4.02-2.322V9.21c0-.32.26-.58.58-.58Zm.004-2.68c.32 0 .58.26.58.58v.533c0 .207-.11.4-.29.503l-4.597 2.655a.582.582 0 0 1-.581 0l-4.6-2.655a.581.581 0 0 1-.29-.503v-.532a.58.58 0 0 1 1.161 0v.197L6.602 9.05l4.018-2.32v-.197c0-.32.26-.58.58-.58ZM6.312 1.149a.582.582 0 0 1 .58 0l4.598 2.656a.58.58 0 0 1 0 1.004L6.893 7.464a.582.582 0 0 1-.581 0l-4.6-2.656a.58.58 0 0 1 0-1.004l4.6-2.656Zm-3.15 3.158 3.44 1.986 3.439-1.986-3.44-1.987-3.44 1.987Z"/>
</svg>
