<svg width="14" height="14" fill="currentColor">
  <path d="M11.167.75a1.128 1.128 0 0 1 1.121 1.122v1.281a1.13 1.13 0 0 1-1.121 1.122H9.885a1.128 1.128 0 0 1-1.122-1.122v-.159H7.96a.16.16 0 0 0-.113.046.161.161 0 0 0-.047.113V6.52h.962v-.16a1.13 1.13 0 0 1 1.122-1.123h1.282a1.128 1.128 0 0 1 1.121 1.122v1.282a1.13 1.13 0 0 1-1.121 1.122H9.885A1.128 1.128 0 0 1 8.763 7.64v-.16H7.8v3.366a.16.16 0 0 0 .16.16h.802v-.16a1.13 1.13 0 0 1 1.122-1.122h1.282a1.128 1.128 0 0 1 1.121 1.122v1.28a1.13 1.13 0 0 1-1.121 1.123H9.885a1.128 1.128 0 0 1-1.122-1.122v-.16H7.96a1.129 1.129 0 0 1-1.122-1.121V7.48h-.961v.482a1.128 1.128 0 0 1-1.121 1.121H2.833a1.128 1.128 0 0 1-1.121-1.121V6.038a1.128 1.128 0 0 1 1.121-1.121h1.924a1.128 1.128 0 0 1 1.12 1.121v.482h.962V3.153a1.13 1.13 0 0 1 1.122-1.12h.802v-.16A1.13 1.13 0 0 1 9.885.75h1.282Zm-1.282 9.935a.162.162 0 0 0-.16.162v1.28a.16.16 0 0 0 .16.161h1.282a.16.16 0 0 0 .16-.16v-1.281a.161.161 0 0 0-.16-.162H9.885ZM2.833 5.878a.161.161 0 0 0-.16.16v1.924a.161.161 0 0 0 .16.16h1.924a.161.161 0 0 0 .16-.16V6.038a.161.161 0 0 0-.16-.16H2.833Zm7.052.321a.16.16 0 0 0-.16.16v1.282c0 .042.016.084.046.114a.16.16 0 0 0 .114.046h1.282a.16.16 0 0 0 .113-.046.163.163 0 0 0 .047-.114V6.359a.161.161 0 0 0-.16-.16H9.885Zm0-4.487a.16.16 0 0 0-.16.16v1.281c0 .043.016.085.046.115s.071.046.114.046h1.282a.161.161 0 0 0 .113-.046.163.163 0 0 0 .047-.115v-1.28a.161.161 0 0 0-.16-.161H9.885Z"/>
</svg>
