<svg width="14" height="14" fill="currentColor">
  <path d="M4.084 9.479c.574 0 1.068.341 1.291.833h7.459a.586.586 0 0 1 0 1.17H5.375a1.418 1.418 0 0 1-2.582 0H1.167a.585.585 0 0 1 0-1.17h1.626a1.417 1.417 0 0 1 1.291-.833Zm1.687-4.284a.586.586 0 0 1 .828.036L7.724 6.46a.585.585 0 0 1 .004.786l-1.126 1.25a.586.586 0 0 1-.87-.782l.247-.275H1.167a.585.585 0 0 1 0-1.17h4.795l-.227-.247a.585.585 0 0 1 .036-.826Zm4.146.24c.574 0 1.068.343 1.291.834h1.416a.586.586 0 0 1 0 1.17h-1.416a1.418 1.418 0 1 1-1.291-2.003Zm-5.833-3.75c.574 0 1.068.343 1.291.834h7.459a.586.586 0 0 1 0 1.17H5.375a1.418 1.418 0 0 1-2.583 0H1.167a.585.585 0 0 1 0-1.17h1.626a1.418 1.418 0 0 1 1.291-.833Z"/>
</svg>
