<svg width="14" height="14" fill="currentColor">
  <path d="M5.202 11.22a1.181 1.181 0 1 1-.001 2.362 1.181 1.181 0 0 1 0-2.362Zm5.19 0a1.181 1.181 0 1 1 0 2.362 1.181 1.181 0 0 1 0-2.362Zm-5.19 1.16a.02.02 0 0 0-.02.02c0 .01.009.02.02.02.01 0 .02-.01.02-.02a.02.02 0 0 0-.02-.02Zm5.19 0a.02.02 0 0 0-.02.02c0 .01.01.02.02.02a.02.02 0 0 0 .02-.02.02.02 0 0 0-.02-.02ZM2.303.429a.581.581 0 0 1 .468.468l.35 1.923H13.4a.58.58 0 0 1 .562.721l-1.6 6.4a.58.58 0 0 1-.562.439h-8a.58.58 0 0 1-.571-.477L2.066 3.504l-.35-1.924H.6A.58.58 0 0 1 .6.42h1.6l.103.009Zm1.98 8.79h7.064l1.31-5.238H3.333l.952 5.239Z"/>
</svg>
