<svg width="14" height="14" fill="currentColor">
  <path d="M4.58 3.371a3.63 3.63 0 1 1 .001 7.26 3.63 3.63 0 0 1 0-7.26Zm5.444.605c.908 0 1.513 1.354 1.513 3.024s-.605 3.024-1.513 3.024c-.907 0-1.511-1.354-1.511-3.024s.604-3.024 1.511-3.024Zm2.42.302c.23 0 .431.5.533 1.359l.028.267.012.143.017.299.006.156.008.327v.341l-.008.328-.006.157-.017.298-.013.143-.027.267c-.103.859-.302 1.358-.533 1.359-.23 0-.43-.5-.532-1.359l-.03-.267-.01-.143-.018-.299a11.638 11.638 0 0 1-.006-.156l-.007-.327v-.342l.007-.327.005-.157.02-.298.01-.143.028-.267c.102-.86.303-1.359.533-1.359Z"/>
</svg>
