<svg width="14" height="15" fill="currentColor">
  <path d="M7.008 0a7.013 7.013 0 0 1 6.532 4.46c.14.36.247.739.323 1.129a.581.581 0 0 1 .054.314c.183 1.23.059 2.54-.377 3.656a7.013 7.013 0 0 1-13.063 0 7.057 7.057 0 0 1 0-5.098A7.012 7.012 0 0 1 7.008 0Zm-.55 10.14a1.56 1.56 0 0 1-.618.455v2.138a5.867 5.867 0 0 0 2.11.042l.986-2.034a1.564 1.564 0 0 1-.36-.431l-2.118-.17Zm-4.26.184a5.862 5.862 0 0 0 2.474 2.04v-1.77a1.55 1.55 0 0 1-.625-.461l-1.849.191Zm9.196-1.31a1.554 1.554 0 0 1-1.33 2.078l-.587 1.212a5.86 5.86 0 0 0 2.974-3.17c.215-.55.338-1.165.37-1.79l-1.427 1.67ZM1.247 7.967c.065.398.17.79.318 1.168l.032.077 2.108-.216a1.55 1.55 0 0 1 .478-.97l-.43-1.412a1.547 1.547 0 0 1-.605-.182l-1.9 1.535Zm5.505.76c.025.087.045.177.054.27l1.623.13c.127-.459.456-.834.888-1.019l-.145-1.921a1.54 1.54 0 0 1-.142-.042L6.752 8.726Zm4.084-3.19a1.57 1.57 0 0 1-.506.477l.156 2.075c.04.015.08.033.119.052l1.744-2.042-1.513-.563ZM5.381 5.52c-.092.3-.272.56-.51.752l.402 1.32c.27.004.523.076.744.2L8.15 5.376a1.548 1.548 0 0 1-.041-.086l-2.729.231Zm-3.946-.26a5.847 5.847 0 0 0-.245 1.25l1.214-.982a1.546 1.546 0 0 1-.03-.118l-.94-.15Zm9.08-1.8c.281.226.481.547.553.914l1.384.515v-.004a5.855 5.855 0 0 0-1.702-2.36l-.234.935Zm-5.701.347c.195.143.355.331.466.55l2.804-.238c.018-.047.039-.093.06-.138L5.38 1.936l-.566 1.872Zm-.645-1.905a5.87 5.87 0 0 0-2.257 2.25l.649.104a1.556 1.556 0 0 1 1.118-.736l.49-1.618Zm2.839-.735c-.22 0-.439.012-.653.036l2.692 1.991a1.55 1.55 0 0 1 .35-.072l.323-1.288a5.816 5.816 0 0 0-2.712-.667Z"/>
</svg>
