<svg width="14" height="14" fill="currentColor">
  <path d="M5.517 2.99c.142 0 .277.01.4.08s.21.2.281.322l1.524 2.565.761-1.322a.723.723 0 0 1 .28-.28.82.82 0 0 1 .402-.122.962.962 0 0 1 .44.121.723.723 0 0 1 .282.28l3.007 5.173c.07.122.12.26.12.401a.81.81 0 0 1-.12.4c-.071.122-.198.21-.32.28a.82.82 0 0 1-.402.122h-4.45l.721-1.283h2.927l-2.205-3.77L8.443 7.2 7.08 9.565c-.564.944-1.373 1.445-2.485 1.445H1.788a.824.824 0 0 1-.401-.121c-.123-.07-.25-.16-.32-.28-.071-.123-.08-.26-.08-.401 0-.14.008-.28.08-.401l3.728-6.415a.95.95 0 0 1 .321-.322c.123-.07.259-.08.4-.08ZM2.59 9.727h1.964c.661 0 1.089-.2 1.464-.814L7 7.2 5.517 4.675 2.59 9.727Z"/>
</svg>
