<svg width="14" height="13" fill="currentColor">
  <path d="M5.537.07a3.801 3.801 0 0 1 1.828.092c.59.178 1.12.499 1.535.927a3.777 3.777 0 0 1 2.174.21c.682.283 1.25.76 1.623 1.36a3.025 3.025 0 0 1 .3 2.66c.499.515.81 1.163.888 1.85a3.089 3.089 0 0 1-.451 1.982c-.246.4-.581.749-.983 1.02-.402.27-.862.458-1.349.551a3.303 3.303 0 0 1-1.283 1.649 3.72 3.72 0 0 1-2.084.63 3.721 3.721 0 0 1-1.442-.282 3.492 3.492 0 0 1-1.188-.808 3.78 3.78 0 0 1-2.176-.21 3.452 3.452 0 0 1-1.624-1.36A3.086 3.086 0 0 1 .846 9.04a3.022 3.022 0 0 1 .16-1.36 3.17 3.17 0 0 1-.891-1.856 3.083 3.083 0 0 1 .459-1.987c.246-.401.58-.75.983-1.02.402-.27.862-.46 1.349-.552A3.274 3.274 0 0 1 3.905.841a3.645 3.645 0 0 1 1.632-.77Zm3.62 9.61a.41.41 0 0 1-.063.212.45.45 0 0 1-.167.157L6.14 11.543l-.083.043c.47.365 1.065.564 1.678.563a2.733 2.733 0 0 0 1.852-.714 2.356 2.356 0 0 0 .77-1.72V6.691a.042.042 0 0 0-.022-.028L9.156 6.03v3.65Zm-4.041.143a.478.478 0 0 1-.455 0L1.87 8.329l-.083-.046A2.275 2.275 0 0 0 2.1 9.915c.348.559.92.966 1.592 1.134a2.8 2.8 0 0 0 1.99-.243l2.823-1.511a.046.046 0 0 0 .014-.015.04.04 0 0 0 .005-.019V7.998L5.116 9.823ZM8.82 3.9l-1.176.63 3.402 1.836a.45.45 0 0 1 .171.151.406.406 0 0 1 .067.21v3.075a2.617 2.617 0 0 0 1.173-.81 2.289 2.289 0 0 0 .233-2.6 2.524 2.524 0 0 0-1.01-.98L8.86 3.9a.048.048 0 0 0-.02-.005.047.047 0 0 0-.02.005Zm-6.074-.691a2.58 2.58 0 0 0-1.38 1.068v-.013a2.288 2.288 0 0 0-.26 1.848c.18.623.618 1.155 1.22 1.478L5.144 9.1a.048.048 0 0 0 .02.005.048.048 0 0 0 .021-.005l1.179-.633L2.972 6.65a.435.435 0 0 1-.168-.154.393.393 0 0 1-.058-.212V3.209Zm2.74 2.477.003 1.625 1.52.813 1.515-.813V5.686l-1.52-.812-1.518.812ZM6.604.876a2.805 2.805 0 0 0-1.447.21 2.575 2.575 0 0 0-1.1.899c-.269.39-.411.843-.412 1.306v3.015a.043.043 0 0 0 .008.018c.004.005.008.01.014.014l1.178.63.003-3.641c0-.075.022-.148.063-.213a.447.447 0 0 1 .167-.156l2.787-1.495.083-.043A2.73 2.73 0 0 0 6.604.877Zm3.142.995a2.788 2.788 0 0 0-1.423.323L5.505 3.703a.038.038 0 0 0-.013.014.034.034 0 0 0-.003.019V5l3.405-1.825a.481.481 0 0 1 .458 0l2.785 1.507.082.046v-.01a2.276 2.276 0 0 0-.165-1.352 2.483 2.483 0 0 0-.92-1.06 2.76 2.76 0 0 0-1.388-.435Z"/>
</svg>
