<svg width="14" height="14" fill="currentColor">
  <path d="M12.464 3.86v6.28L7 13.28l-5.464-3.14V3.86L7 .72l5.464 3.14Zm-1.527.074c-.587-.748-2.207-.431-3.957.612-1.75-1.043-3.369-1.36-3.956-.612-.505.644-.055 1.839 1.001 3.077-1.056 1.238-1.506 2.432-1 3.077.586.748 2.206.432 3.955-.611 1.75 1.043 3.37 1.359 3.957.61.506-.644.056-1.838-1-3.076 1.056-1.238 1.506-2.433 1-3.077ZM4.29 7.309a12.76 12.76 0 0 0 2.313 1.933 7.89 7.89 0 0 1-1.564.696c-.85.26-1.463.216-1.704-.091-.241-.307-.136-.91.323-1.668.171-.283.384-.575.632-.87Zm5.382 0c.248.295.46.587.632.87.459.758.564 1.36.323 1.668-.24.307-.854.351-1.704.091a7.888 7.888 0 0 1-1.565-.697A12.752 12.752 0 0 0 9.672 7.31ZM6.98 5.007A12.13 12.13 0 0 1 9.41 7.01a12.132 12.132 0 0 1-2.43 2.005A12.122 12.122 0 0 1 4.552 7.01c.405-.441.884-.881 1.414-1.293.335-.26.675-.5 1.014-.711Zm0 1.17a.836.836 0 0 0-.836.834c0 .46.374.833.836.833a.835.835 0 0 0 .837-.833.835.835 0 0 0-.837-.833Zm-3.646-2c.24-.307.855-.352 1.705-.092a7.892 7.892 0 0 1 1.565.697A12.761 12.761 0 0 0 4.29 6.714a6.975 6.975 0 0 1-.632-.87c-.459-.758-.564-1.361-.324-1.668Zm5.589-.092c.85-.26 1.463-.215 1.704.092.24.307.136.91-.323 1.668a6.97 6.97 0 0 1-.632.87A12.746 12.746 0 0 0 7.359 4.78a7.89 7.89 0 0 1 1.564-.697Z"/>
</svg>
