<svg width="14" height="15" fill="currentColor">
  <path d="M10.53 11.72c1.519 0 2.386.4 2.837.977.22.283.31.571.342.793a1.53 1.53 0 0 1 .005.397l-.002.012-.001.005v.002l-.001.001-.576-.097.576.098a.585.585 0 0 1-1.161-.08l.006-.1v-.004c0-.012 0-.035-.004-.066a.51.51 0 0 0-.107-.241c-.135-.174-.57-.527-1.914-.527-1.344 0-1.778.353-1.914.527a.51.51 0 0 0-.111.306l-.001-.006v-.003l-.001-.002a.585.585 0 0 1-1.153.196l.577-.098-.577.097-.001-.003V13.9l-.002-.012a1.046 1.046 0 0 1-.011-.121 1.68 1.68 0 0 1 .357-1.068c.451-.579 1.319-.978 2.837-.978ZM8.36 0c.552 0 1 .449 1 1.002v1.287h2.555c.553 0 1.002.449 1.002 1.002v3.925a.585.585 0 0 1-1.17 0v-.213H4.361v.914h2.331a.585.585 0 0 1 0 1.17h-2.5a1.002 1.002 0 0 1-1-1.002V7.003H1.443v3.602h5.152a.585.585 0 0 1 0 1.17h-5.32a1.002 1.002 0 0 1-1.002-1V3.29c0-.553.45-1.002 1.002-1.002h2.791V1.002A1.005 1.005 0 0 1 5.07 0h3.29Zm2.175 8.433a1.625 1.625 0 1 1-.002 3.25 1.625 1.625 0 0 1 .002-3.25Zm0 1.17a.455.455 0 1 0 0 .908.455.455 0 0 0 0-.908Zm-9.09-3.77h10.303V3.459H1.444v2.374Zm3.792-3.544h2.954V1.17H5.237v1.12Z"/>
</svg>
