<svg width="14" height="14" fill="currentColor">
  <path d="M10.597 7.926a1.571 1.571 0 0 1 .232 3.125c1.301.04 2.068.408 2.48.936a1.623 1.623 0 0 1 .345 1.034 1.19 1.19 0 0 1-.006.087l-.004.03-.001.012-.001.005-.001.003v.001l-.576-.098.576.1a.586.586 0 0 1-1.162-.082l.008-.114v.004a.09.09 0 0 0-.002.006v.007-.003c0-.01 0-.03-.003-.057a.457.457 0 0 0-.096-.216c-.12-.155-.523-.488-1.794-.488s-1.673.333-1.794.488a.454.454 0 0 0-.099.273v.003-.007l-.002-.006v-.006a.586.586 0 0 1-1.154.197l.577-.1-.577.1v-.005l-.001-.005-.002-.011-.004-.03a1.49 1.49 0 0 1 .009-.354c.031-.216.117-.495.33-.768.412-.529 1.182-.898 2.488-.936a1.57 1.57 0 0 1 .234-3.125ZM6.309.59a1.21 1.21 0 0 1 1.44 0l.827.612a.04.04 0 0 0 .029.008l1.023-.116a1.21 1.21 0 0 1 1.246.72l.411.944a.04.04 0 0 0 .02.02l.945.411c.488.213.78.718.72 1.247l-.116 1.023a.04.04 0 0 0 .007.028l.613.828a.586.586 0 0 1-.94.697l-.614-.828a1.21 1.21 0 0 1-.23-.857l.118-1.023a.042.042 0 0 0-.025-.042l-.944-.41a1.21 1.21 0 0 1-.627-.627l-.411-.946a.04.04 0 0 0-.041-.023l-1.024.116a1.21 1.21 0 0 1-.856-.23l-.828-.612a.04.04 0 0 0-.047 0l-.828.613a1.212 1.212 0 0 1-.857.23l-1.023-.117a.042.042 0 0 0-.042.023l-.41.946c-.122.28-.347.504-.627.627l-.946.41a.041.041 0 0 0-.023.042l.116 1.023c.035.304-.047.61-.23.857l-.612.828a.04.04 0 0 0 0 .047l.613.828c.182.246.264.552.23.856l-.117 1.024a.04.04 0 0 0 .023.04l.946.412c.28.122.505.346.627.627l.41.944a.041.041 0 0 0 .042.024l1.023-.117a.585.585 0 0 1 .132 1.163l-1.023.117a1.21 1.21 0 0 1-1.246-.72l-.411-.944a.04.04 0 0 0-.021-.021l-.944-.411a1.21 1.21 0 0 1-.72-1.246l.116-1.024a.041.041 0 0 0-.008-.028l-.612-.828a1.21 1.21 0 0 1 0-1.44l.612-.828a.041.041 0 0 0 .008-.028l-.116-1.023a1.21 1.21 0 0 1 .72-1.247l.944-.41a.041.041 0 0 0 .02-.021l.412-.945a1.21 1.21 0 0 1 1.246-.72l1.023.117c.01.001.02-.002.029-.008L6.309.59Zm4.288 8.506a.402.402 0 1 0 0 .804.402.402 0 0 0 0-.804ZM8.989 4.719a.586.586 0 0 1 .81.844l-3.774 3.62a.585.585 0 0 1-.82-.012l-1.51-1.534a.585.585 0 0 1 .833-.82l1.104 1.12L8.989 4.72Z"/>
</svg>
