<svg width="14" height="14" fill="currentColor">
  <path d="M9.4 0a.6.6 0 0 1 0 1.2H2.2a1 1 0 0 0-1 1v6.78l1.898-2.909a.6.6 0 0 1 .945-.077l1.786 1.947L8.905 5H7.801a.6.6 0 1 1 0-1.2h2.6a.6.6 0 0 1 .6.6V7a.6.6 0 0 1-1.2 0V5.804l-3.586 3.43a.601.601 0 0 1-.857-.028l-1.677-1.83L1.2 11.18v.62a1 1 0 0 0 1 1h9.6a1 1 0 0 0 1-1V4.592a.6.6 0 0 1 1.2 0V11.8a2.2 2.2 0 0 1-2.2 2.2H2.2A2.2 2.2 0 0 1 0 11.8V2.199A2.2 2.2 0 0 1 2.2 0h7.2Zm3 0a.6.6 0 0 1 .6.6V1h.4a.6.6 0 0 1 0 1.2H13v.4a.6.6 0 1 1-1.2 0v-.4h-.4a.6.6 0 1 1 0-1.2h.4V.6a.6.6 0 0 1 .6-.6Z"/>
</svg>
