<svg width="14" height="14" fill="currentColor">
  <path d="M14 7.403c0 .133-.17.29-.55.49-.746.388-4.617 2.235-5.441 2.666-.824.43-1.284.425-1.933.116-.647-.31-4.768-2.097-5.513-2.454C.193 8.045 0 7.893 0 7.754v-.606s4.852 2.206 6.034 2.69c.793.273 1.187.272 1.903-.055L14 6.893v.51Zm0-2.24c0 .138-.17.296-.55.49-.746.387-4.617 2.234-5.441 2.664-.824.43-1.284.425-1.933.116C5.43 8.124 1.308 6.336.563 5.979.193 5.803 0 5.652 0 5.513v-.606s4.852 2.206 6.034 2.69c.793.272 1.187.273 1.903-.054C8.76 7.149 14 4.653 14 4.653v.51Zm0-2.236c0 .139-.17.29-.55.49-.746.388-4.617 2.234-5.441 2.665-.824.43-1.284.424-1.933.115C5.43 5.89 1.31 4.102.563 3.744.193 3.57 0 3.417 0 3.277v-.605c.022.01 4.855 2.206 6.034 2.69.793.272 1.187.272 1.903-.055C8.76 4.913 14 2.417 14 2.417v.51ZM7.16 4.205l-2.265-.94 3.248-.496-.983 1.436Zm4.914-2.236-1.92.757-.207.086-1.92-.758 2.126-.842 1.921.757Zm-8.052-.575c.46 0 .9.07 1.225.197.325.126.507.296.508.474 0 .179-.183.35-.508.476s-.765.197-1.225.197c-.459 0-.9-.07-1.225-.197-.325-.126-.507-.297-.507-.476 0-.178.183-.348.508-.474s.765-.197 1.224-.197ZM7.106.388l.92-.303-.248.594.94.357-1.212.121-.273.655-.436-.728L5.392.957 6.44.582 6.125 0l.981.388Z"/>
</svg>
