<svg width="14" height="14" fill="currentColor">
  <path d="M7 2.47C8.25 1.278 9.546.652 10.497 1.2c.957.546 1.061 1.986.657 3.666C12.808 5.355 14 6.162 14 7.262c0 1.1-1.192 1.908-2.846 2.396.404 1.68.3 3.12-.657 3.666-.95.547-2.247-.078-3.497-1.27-1.25 1.192-2.546 1.817-3.503 1.27-.95-.546-1.055-1.986-.651-3.666C1.192 9.17 0 8.362 0 7.262c0-1.1 1.192-1.907 2.846-2.396-.404-1.68-.3-3.12.651-3.667C4.454.653 5.75 1.28 7 2.47ZM3.783 9.893c-.332 1.393-.208 2.351.202 2.579.41.247 1.31-.131 2.344-1.107-.338-.385-.67-.802-.983-1.238a14.983 14.983 0 0 1-1.563-.234Zm6.434 0c-.501.104-1.029.182-1.563.234-.312.436-.645.853-.983 1.237 1.035.977 1.934 1.355 2.338 1.108.416-.228.54-1.186.208-2.58Zm-3.6.3c.13.175.26.325.383.468.124-.143.254-.293.384-.468h-.768ZM7 5.309c-.39 0-.762 0-1.113.02-.19.305-.398.611-.593.956l-.527.977.527.977c.195.345.404.651.593.958.351.019.722.02 1.113.02.39-.001.762-.001 1.113-.02.19-.307.398-.613.593-.958l.527-.977-.527-.977c-.195-.345-.404-.65-.593-.957-.351-.02-.722-.02-1.113-.02ZM4.259 8.402a5.14 5.14 0 0 0-.19.56c.176.04.372.071.574.104l-.196-.332-.188-.332Zm5.294.332-.196.332c.202-.033.398-.065.574-.104a5.14 5.14 0 0 0-.19-.56l-.188.332ZM3.113 5.79C1.744 6.2.976 6.787.976 7.262s.768 1.061 2.135 1.472c.163-.495.359-.984.58-1.472a14.671 14.671 0 0 1-.58-1.472Zm7.775 0a14.77 14.77 0 0 1-.58 1.472c.221.488.417.977.58 1.472 1.367-.41 2.135-.997 2.135-1.472S12.255 6.2 10.888 5.79ZM7 6.031c.67 0 1.218.547 1.218 1.231 0 .651-.547 1.205-1.218 1.205-.67 0-1.218-.554-1.218-1.205 0-.684.547-1.23 1.218-1.23Zm-2.357-.573a10.21 10.21 0 0 0-.574.105c.046.182.118.37.19.56l.188-.333.196-.332Zm4.91.332.188.332c.072-.188.144-.377.19-.56a10.21 10.21 0 0 0-.574-.104l.196.332ZM6.329 3.16c-1.035-.976-1.933-1.354-2.344-1.107-.41.228-.534 1.185-.202 2.578a14.98 14.98 0 0 1 1.563-.234c.312-.436.645-.853.983-1.237Zm3.68-1.107c-.404-.247-1.303.13-2.338 1.107.338.384.67.8.983 1.237.534.052 1.062.13 1.563.234.332-1.393.208-2.35-.208-2.578ZM7 3.863c-.124.144-.254.294-.384.47h.768c-.13-.176-.26-.326-.384-.47Z"/>
</svg>
