<svg width="14" height="14" fill="currentColor">
  <path d="M9 5.6a3.6 3.6 0 0 1 3.014 5.566l1.81 1.81a.6.6 0 1 1-.848.848L11.2 12.047A3.6 3.6 0 1 1 9 5.6Zm2-5.58a2.18 2.18 0 0 1 2.18 2.18v3.2l-.012.117A.58.58 0 0 1 12.02 5.4V3.98H3.98v7.84H5.4a.58.58 0 0 1 0 1.16H2.2A2.18 2.18 0 0 1 .02 10.8V2.2A2.18 2.18 0 0 1 2.2.02H11ZM1.18 10.8c0 .563.457 1.02 1.02 1.02h.62V3.98H1.18v6.82ZM9 6.8a2.401 2.401 0 0 0 0 4.8 2.4 2.4 0 0 0 0-4.8Zm0 .82c.32 0 .58.26.58.58v.42h.482a.58.58 0 0 1 0 1.16h-.481v.42a.58.58 0 0 1-1.16 0v-.42H8a.58.58 0 0 1 0-1.16h.42V8.2c0-.32.26-.58.58-.58ZM2.2 1.18A1.02 1.02 0 0 0 1.18 2.2v.62h1.64V1.18H2.2Zm1.78 1.64h8.04V2.2A1.02 1.02 0 0 0 11 1.18H3.98v1.64Z"/>
</svg>
