<svg width="14" height="14" fill="currentColor">
  <path d="M6.874.08a.581.581 0 0 1 .382.045c1.743.857 3.29 1.34 4.399 1.609.553.134.996.215 1.297.261.151.024.267.038.343.047l.084.009.02.002h.004a.58.58 0 0 1 .53.578c0 4.527-1.652 7.355-3.346 9.049-.84.84-1.683 1.393-2.318 1.737a8.145 8.145 0 0 1-1.002.46l-.065.022-.02.006-.005.001-.002.001L7 13.355l.173.552a.58.58 0 0 1-.346 0L7 13.355l-.174.552h-.002l-.007-.002-.019-.006-.065-.023a8.143 8.143 0 0 1-1.002-.459 10.114 10.114 0 0 1-2.319-1.737C1.72 9.986.066 7.158.066 2.63a.58.58 0 0 1 .522-.577h.004l.02-.002.085-.01a17.284 17.284 0 0 0 1.646-.325C3.453 1.44 5.004.956 6.75.121L6.874.08Zm.122 1.205a24.444 24.444 0 0 1-4.374 1.557c-.585.145-1.058.235-1.388.29.115 3.912 1.575 6.304 2.999 7.728a8.955 8.955 0 0 0 2.05 1.538c.278.15.508.253.665.317.018.008.036.013.052.02.016-.007.035-.012.053-.02a6.93 6.93 0 0 0 .664-.317 8.954 8.954 0 0 0 2.05-1.538c1.423-1.423 2.881-3.813 2.998-7.721a17.31 17.31 0 0 1-1.384-.278 22.707 22.707 0 0 1-4.385-1.576ZM7 3.045a2.17 2.17 0 0 1 2.17 2.168v.675c.461.158.793.597.793 1.112v1.986c0 .649-.526 1.175-1.176 1.175H5.213c-.65 0-1.176-.526-1.176-1.175V7c0-.515.333-.954.794-1.112v-.675a2.17 2.17 0 0 1 2.17-2.169Zm-1.793 3.94a.018.018 0 0 0-.005.003.021.021 0 0 0-.003.006.016.016 0 0 0-.001.006v1.991a.02.02 0 0 0 .004.005.019.019 0 0 0 .005.004l.006.001h3.58a.021.021 0 0 0 .005-.005.019.019 0 0 0 .004-.005l.001-.005V7l-.001-.006a.022.022 0 0 0-.004-.006.016.016 0 0 0-.01-.003H5.206ZM7 4.206a1.01 1.01 0 0 0-1.009 1.008v.611H8.01v-.61A1.01 1.01 0 0 0 7 4.203Z"/>
</svg>
