<svg width="14" height="14" fill="currentColor">
  <path d="M10.576 11.106c1.518 0 2.386.4 2.837.978.22.282.31.57.342.793a1.529 1.529 0 0 1 .004.396l-.002.018v.002c0 .001-.002.001-.578-.098l.576.1a.585.585 0 0 1-1.152-.198v.006l-.003.012v-.006c0-.011 0-.035-.004-.066a.511.511 0 0 0-.106-.24c-.136-.175-.57-.527-1.914-.527-1.343 0-1.778.352-1.914.526a.51.51 0 0 0-.11.307v.006l-.003-.012v-.005a.585.585 0 0 1-1.154.196l.577-.1-.577.1v-.003l-.003-.018a.944.944 0 0 1-.01-.121 1.58 1.58 0 0 1 .015-.275 1.68 1.68 0 0 1 .342-.793c.45-.579 1.318-.978 2.837-.978ZM6.446.253A.587.587 0 0 1 6.9.279c1.404.69 2.347 1.055 3.161 1.277.815.223 1.519.308 2.476.42a.586.586 0 0 1 .516.6c-.04 1.254-.139 2.355-.318 3.334a.585.585 0 0 1-1.15-.211c.14-.768.226-1.634.274-2.626-.721-.09-1.374-.188-2.106-.388-.857-.234-1.805-.601-3.112-1.231-1.306.63-2.254.997-3.11 1.231-.732.2-1.385.298-2.107.387.11 2.252.426 3.844 1.07 5.1.686 1.337 1.773 2.356 3.53 3.376a.586.586 0 0 1-.589 1.012c-1.873-1.088-3.16-2.251-3.981-3.853C.64 7.12.316 5.17.23 2.577a.586.586 0 0 1 .517-.6c.957-.113 1.661-.198 2.475-.42.814-.224 1.758-.59 3.162-1.279l.062-.026Zm4.135 7.566a1.625 1.625 0 1 1-.001 3.249 1.625 1.625 0 0 1 0-3.25Zm0 1.17a.455.455 0 1 0 0 .91.455.455 0 0 0 0-.91Z"/>
</svg>
