<svg width="14" height="14" fill="currentColor">
  <path d="M11.514 2.282a2.037 2.037 0 0 1 1.933 1.928v.208a2.037 2.037 0 0 1-1.928 1.933h-.208c-.037-.002-.073-.007-.11-.01l.002.002-1.908.754 1.908.756-.003.005c.105-.01.211-.015.32-.01a2.07 2.07 0 1 1-1.676.714L7.72 7.72l-5.837 2.311a.58.58 0 0 1-.426-1.078l4.687-1.857-4.687-1.855a.58.58 0 0 1 .427-1.078l5.836 2.31 2.136-.845A2.026 2.026 0 0 1 9.4 4.63l-.022-.208a2.037 2.037 0 0 1 1.928-2.14h.208Zm-.056 6.724a.912.912 0 1 0-.094 1.821.912.912 0 0 0 .094-1.82Zm-.091-5.565a.877.877 0 1 0 .092 1.752.877.877 0 0 0-.092-1.752Z"/>
</svg>
