<svg width="14" height="14" fill="currentColor">
  <path d="M7 .268c1.658 0 3.118.379 4.158.752.522.188.943.375 1.236.518a8.807 8.807 0 0 1 .434.227l.027.015.007.005.002.001.001.001h.001l.073.05a.678.678 0 0 1 .26.533v9.26a.681.681 0 0 1-.26.533l-.073.05-.004.003c-.002 0-.005.003-.008.005l-.026.014-.094.052a8.89 8.89 0 0 1-.34.175 12.49 12.49 0 0 1-1.236.518c-1.04.374-2.5.752-4.158.752-1.658 0-3.118-.378-4.158-.752a12.461 12.461 0 0 1-1.576-.693c-.04-.021-.071-.04-.093-.052l-.027-.014-.007-.005-.003-.001-.001-.001h-.001a.679.679 0 0 1-.332-.583V2.37c0-.24.126-.462.332-.584l.345.583-.344-.583.004-.003.007-.004.027-.015.093-.052c.08-.043.195-.104.341-.175.293-.143.714-.33 1.235-.518C3.882.647 5.342.268 7 .268Zm4.844 8.525a13 13 0 0 1-.686.27c-1.04.373-2.5.751-4.158.751-1.658 0-3.118-.378-4.158-.752a12.955 12.955 0 0 1-.685-.27v2.43l.043.022c.256.125.632.293 1.1.461.942.338 2.242.673 3.7.673 1.458 0 2.759-.335 3.7-.673.469-.168.844-.336 1.1-.46l.044-.023v-2.43Zm0-3.918a13 13 0 0 1-.686.27c-1.04.373-2.5.751-4.158.751-1.658 0-3.118-.378-4.158-.752a12.955 12.955 0 0 1-.685-.269v2.429l.043.022c.256.125.632.293 1.1.461.942.338 2.242.673 3.7.673 1.458 0 2.759-.335 3.7-.673.469-.169.844-.336 1.1-.46l.044-.023V4.875ZM7 1.623c-1.458 0-2.758.334-3.7.672-.468.168-.844.337-1.1.462l-.043.021v.608l.043.022c.256.125.632.293 1.1.461.942.338 2.242.673 3.7.673 1.458 0 2.759-.335 3.7-.673.469-.168.844-.336 1.1-.46l.044-.023v-.608l-.044-.021a10.887 10.887 0 0 0-1.1-.462c-.941-.339-2.242-.672-3.7-.672Z"/>
</svg>
