<svg width="14" height="14" fill="currentColor">
  <path d="M11 6.2c.775 0 1.532.227 2.1.745.579.527.9 1.296.9 2.242 0 .536-.195 1.097-.435 1.598a10.389 10.389 0 0 1-.875 1.46 17.189 17.189 0 0 1-1.137 1.438l-.081.09-.023.024-.006.007-.003.003a.6.6 0 0 1-.788.082l-.093-.082-.003-.003-.006-.007-.023-.024a13.081 13.081 0 0 1-.363-.42 17.21 17.21 0 0 1-.854-1.109c-.311-.44-.632-.947-.876-1.459-.24-.5-.434-1.062-.434-1.598 0-.946.32-1.715.898-2.242.57-.518 1.327-.745 2.102-.745ZM11 0a2.2 2.2 0 0 1 2.2 2.2v3a.6.6 0 1 1-1.2 0V4H4v7.8h3.6l.12.011a.6.6 0 0 1 0 1.176L7.6 13H2.2A2.2 2.2 0 0 1 0 10.8V2.2A2.2 2.2 0 0 1 2.2 0H11Zm0 7.4c-.55 0-.994.16-1.293.433-.29.264-.508.69-.508 1.354 0 .271.106.64.317 1.08.205.43.485.876.774 1.286.25.355.504.675.709.924.205-.25.459-.568.71-.924a9 9 0 0 0 .774-1.285c.21-.44.317-.81.317-1.08 0-.665-.217-1.09-.507-1.355-.3-.272-.743-.434-1.293-.434Zm-9.8 3.4a1 1 0 0 0 1 1h.6V4H1.2v6.8ZM11 8.4a.8.8 0 1 1 0 1.6.8.8 0 0 1 0-1.6ZM2.2 1.2a1 1 0 0 0-1 1v.6h1.6V1.2h-.6ZM4 2.8h8v-.6a1 1 0 0 0-1-1H4v1.6Z"/>
</svg>
