<svg width="14" height="14" fill="currentColor">
  <path d="M10.59 7.476a1.767 1.767 0 0 1 .825 3.332c1.052.121 1.726.483 2.12.99a1.823 1.823 0 0 1 .388 1.161 1.357 1.357 0 0 1-.008.1l-.004.036-.003.015v.009l-.72-.122.718.124a.729.729 0 0 1-1.436-.247l-.001.001v.003l-.001.004-.001.008v.01l-.002.006c0-.005 0-.019-.003-.04a.366.366 0 0 0-.077-.173c-.097-.124-.479-.471-1.8-.471-1.322 0-1.704.347-1.8.47a.364.364 0 0 0-.08.214l-.002-.005v-.011l-.002-.008v-.007h-.002a.729.729 0 0 1-1.437.246l.719-.124-.719.122v-.003l-.002-.006-.002-.015-.004-.036a1.7 1.7 0 0 1 .01-.401c.035-.242.132-.555.37-.86.395-.508 1.071-.87 2.127-.991a1.768 1.768 0 0 1 .828-3.331ZM6.151 1.533C7.245.58 8.806.103 9.945.33a.626.626 0 0 1 .377.989L9.018 3.056l.346 1.611 1.265.265 1.735-1.51a.625.625 0 0 1 1.035.479c-.01.924-.088 1.72-.272 2.386a.625.625 0 0 1-1.205-.332c.05-.18.09-.38.123-.598l-.828.721a.625.625 0 0 1-.538.141l-1.968-.41a.626.626 0 0 1-.483-.48L7.737 3.04a.627.627 0 0 1 .11-.507l.662-.883a4.04 4.04 0 0 0-1.535.824c-.417.364-.732.811-.881 1.322-.147.505-.145 1.115.135 1.839a.626.626 0 0 1-.131.655l-4.675 4.92-.01.01c-.075.074-.103.16-.076.297.032.16.141.36.321.54.18.181.382.29.541.322.138.028.223 0 .297-.075l.024-.022 3.799-3.42a.626.626 0 0 1 .836.93l-3.8 3.418c-.414.397-.932.488-1.4.395-.456-.091-.869-.352-1.18-.663-.312-.312-.572-.725-.663-1.18-.095-.473-.001-.998.407-1.414H.517L4.93 5.703c-.242-.812-.237-1.572-.038-2.255.228-.783.697-1.424 1.259-1.915Zm4.437 7.402a.31.31 0 1 0 0 .622.31.31 0 0 0 0-.622Z"/>
</svg>
