<svg width="14" height="15" fill="currentColor">
  <path d="M9.513 6.99c.655-.571 1.602-.873 2.333-.728a.626.626 0 0 1 .38.988l-.645.858.126.588.383.08.854-.743a.626.626 0 0 1 1.035.479c-.012 1.025-.165 1.912-.8 2.474-.568.503-1.38.611-2.307.593L8.34 13.86v-.003a1.127 1.127 0 0 1-1.015.287 1.592 1.592 0 0 1-.795-.443 1.592 1.592 0 0 1-.443-.795 1.129 1.129 0 0 1 .295-1.028l2.331-2.453a2.418 2.418 0 0 1 .02-1.244 2.53 2.53 0 0 1 .78-1.19ZM6.688 0a6.67 6.67 0 0 1 6.41 4.828.625.625 0 0 1-1.202.344 5.417 5.417 0 1 0-7.076 6.581.625.625 0 0 1-.43 1.173A6.669 6.669 0 0 1 6.687 0Zm3.599 7.98a1.245 1.245 0 0 0-.353.55c-.063.214-.068.489.067.836a.625.625 0 0 1-.13.655l-2.543 2.674a.43.43 0 0 0 .086.12c.045.046.09.072.12.086l2.686-2.417.098-.072a.626.626 0 0 1 .347-.088c.989.042 1.43-.076 1.654-.25a.622.622 0 0 1-.179-.01l-1.086-.227a.625.625 0 0 1-.483-.48l-.273-1.264a.629.629 0 0 1-.011-.114Zm-4.044.294c.345 0 .624.28.625.625v.035a.625.625 0 0 1-1.25 0v-.035c0-.344.28-.624.625-.625Zm0-5.566a2.264 2.264 0 0 1 .625 4.438v.193a.625.625 0 0 1-1.25 0V6.61c0-.344.28-.624.625-.625a1.014 1.014 0 1 0-1.014-1.013.625.625 0 1 1-1.25 0 2.264 2.264 0 0 1 2.264-2.264Z"/>
</svg>
