<svg width="14" height="14" fill="currentColor">
  <path d="M9.765.402a1.02 1.02 0 0 1 1.04.883l1.409 10.148a1.024 1.024 0 0 1-.862 1.157l-7.014 1a1.017 1.017 0 0 1-1.144-.873L1.786 2.57a1.024 1.024 0 0 1 .862-1.16L9.662.414a.9.9 0 0 1 .103-.011Zm-.032.517-7.015.998a.511.511 0 0 0-.43.58l1.407 10.148a.506.506 0 0 0 .572.436l7.014-.998a.513.513 0 0 0 .431-.58L10.304 1.354A.509.509 0 0 0 9.92.928L9.835.915a.553.553 0 0 0-.102.004Zm-.35 3.38a.153.153 0 0 1 .126.064.153.153 0 0 1 .018.14l-2.018 5.29a.149.149 0 0 1-.195.085.149.149 0 0 1-.062-.047L3.793 5.305c-.077-.102-.003-.248.123-.242L5.6 5.13l.134 1.635a.352.352 0 0 0 .474.299l.25-.097-.031.537a.35.35 0 0 0 .52.327l-.06.994a.352.352 0 0 0 .26.361.352.352 0 0 0 .406-.193l.03-.065 1.17-3.546a.352.352 0 0 0-.085-.36.35.35 0 0 0-.36-.081l-.25.085.042-.308 1.239-.412a.166.166 0 0 1 .044-.008ZM7.885 3.86c.01.004.019.011.026.02a.076.076 0 0 1 .02.06l-.19 1.37c-.007.055.046.1.098.083l.56-.193a.074.074 0 0 1 .094.094L7.325 8.828l-.022.05c-.035.076-.147.047-.142-.036l.081-1.329a.074.074 0 0 0-.105-.074l-.33.154A.075.075 0 0 1 6.7 7.52l.05-.847a.075.075 0 0 0-.03-.064.076.076 0 0 0-.034-.015.076.076 0 0 0-.037.005l-.54.208a.075.075 0 0 1-.101-.064l-.175-2.128a.074.074 0 0 1 .01-.047.075.075 0 0 1 .039-.03l1.95-.68c-.003.002.012-.002.02-.002.012 0 .023 0 .033.005Z"/>
</svg>
