<svg width="14" height="14" fill="currentColor">
  <path d="M9.765.402a1.02 1.02 0 0 1 1.04.883l1.409 10.148a1.024 1.024 0 0 1-.862 1.157l-7.014 1a1.017 1.017 0 0 1-1.144-.873L1.786 2.57a1.024 1.024 0 0 1 .862-1.16L9.662.414a.9.9 0 0 1 .103-.011Zm-.032.517-7.015.998a.511.511 0 0 0-.43.58l1.407 10.148a.506.506 0 0 0 .572.436l7.014-.998a.513.513 0 0 0 .431-.58L10.304 1.354A.509.509 0 0 0 9.92.928L9.835.915a.553.553 0 0 0-.102.004ZM7.754 9.906l-4.033-4.07 2.157-.578.889.964.385-1.306 2.06-.551-1.458 5.54Zm.212-4.778-.728 2.856-2.057-2.11-.667.18 3.025 3.051L8.633 4.95l-.667.178Z"/>
</svg>
