<svg width="14" height="14" fill="currentColor">
  <path d="M8.324 10.192a.6.6 0 0 1 1.041.408v2.8c0 .33-.269.6-.6.6h-2.8a.6.6 0 0 1-.6-.6v-.5c0-.207.106-.4.281-.51l.963-.6a5.003 5.003 0 0 0 1.025-.85l.69-.748ZM13.365 10a.6.6 0 0 1 .6.6v2.8a.6.6 0 0 1-.6.6h-2.8a.6.6 0 0 1-.6-.6v-2.8a.6.6 0 0 1 .6-.6h2.8Zm-5.2 2.102a6.2 6.2 0 0 1-.91.698h.91v-.698Zm3 .698h1.6v-1.6h-1.6v1.6ZM2.674 1.716a.601.601 0 0 1 .909.435c.055.434.17 1.235.412 1.926l.003-.025c.103-.673.475-1.252 1.18-1.684a.6.6 0 0 1 .912.469c.005.074-.004.162-.005.179l-.012.146c-.007.11-.013.247-.004.4.02.31.096.657.301.958.109.159.244.305.41.462.14.134.377.343.55.514.397.396.793.904.927 1.705.258 1.546-.415 3.414-2.513 4.346-1.668.74-3.227.198-4.254-.899C.483 9.573-.047 7.94.231 6.365l.025-.096a.6.6 0 0 1 1.125-.016c.094.241.2.437.312.588-.209-.612-.385-1.286-.438-1.95-.093-1.16.185-2.418 1.419-3.175Zm-.071 1.829c-.147.354-.19.775-.152 1.252.075.935.456 1.957.818 2.768a.601.601 0 0 1-.448.836c-.501.086-.948.014-1.33-.183.164.613.47 1.176.876 1.61.736.786 1.762 1.123 2.89.622 1.562-.693 1.99-2.005 1.816-3.05-.077-.461-.289-.754-.59-1.053-.178-.177-.314-.29-.53-.496a4.095 4.095 0 0 1-.574-.655 2.539 2.539 0 0 1-.161-.271c.036.189.091.396.165.624a.6.6 0 0 1-.557.785c-.56.012-.99-.268-1.294-.616-.294-.338-.5-.773-.65-1.189a8.181 8.181 0 0 1-.28-.984ZM13.365 5a.6.6 0 0 1 .6.6v2.8a.6.6 0 0 1-.6.6h-4a.6.6 0 0 1-.6-.6V5.6a.6.6 0 0 1 .6-.6h4Zm-3.4 2.8h2.8V6.2h-2.8v1.6ZM8.365 0a.6.6 0 0 1 .6.6v2.8a.6.6 0 0 1-.6.6h-1a.6.6 0 0 1-.571-.416l-.024-.11c-.1-.8-.594-1.497-1.315-1.858l-.158-.079A.601.601 0 0 1 4.966 1V.6a.6.6 0 0 1 .6-.6h2.8Zm5 0a.6.6 0 0 1 .6.6v2.8a.6.6 0 0 1-.6.6h-2.8a.6.6 0 0 1-.6-.6V.6a.6.6 0 0 1 .6-.6h2.8Zm-2.2 2.8h1.6V1.2h-1.6v1.6ZM6.91 1.2c.379.373.671.826.856 1.327V1.2H6.91Z"/>
</svg>
