<svg width="14" height="14" fill="currentColor">
  <path d="m7.293.183 5.465 3.155.292.169v6.986l-.292.17-5.465 3.154-.293.17-.292-.17-5.466-3.155-.292-.169v-6.99l.297-.168 1.878-1.06L4.861 1.27 6.703.186l.294-.174.296.17Zm3.623 5.255-.005.002L9.17 6.445l-.005.003-1.58.893v4.956l4.295-2.48V4.87l-.964.569ZM2.12 9.816l4.295 2.48v-4.96L2.12 4.858v4.96Zm.594-5.966 4.289 2.475.694-.392L3.41 3.457l-.695.393Zm1.868-1.067 4.295 2.48.571-.33-4.295-2.48-.571.33Zm1.732-1.01 4.301 2.483.689-.406-4.301-2.484-.689.406Z"/>
</svg>
