<svg width="425" height="424" viewBox="0 0 425 424" fill="none" xmlns="http://www.w3.org/2000/svg">
<g opacity="0.6">
<rect x="250.521" y="133.072" width="48.1754" height="48.1754" rx="7.76381" fill="#282828"/>
<path fill-rule="evenodd" clip-rule="evenodd" d="M281.635 153.396H267.584C267.384 153.396 267.193 153.317 267.052 153.175C266.91 153.034 266.831 152.843 266.831 152.643C266.831 152.443 266.91 152.252 267.052 152.111C267.193 151.97 267.384 151.89 267.584 151.89H281.635C281.835 151.89 282.026 151.97 282.167 152.111C282.308 152.252 282.388 152.443 282.388 152.643C282.388 152.843 282.308 153.034 282.167 153.175C282.026 153.317 281.835 153.396 281.635 153.396ZM281.635 157.912H267.584C267.384 157.912 267.193 157.833 267.052 157.692C266.91 157.551 266.831 157.359 266.831 157.16C266.831 156.96 266.91 156.768 267.052 156.627C267.193 156.486 267.384 156.407 267.584 156.407H281.635C281.835 156.407 282.026 156.486 282.167 156.627C282.308 156.768 282.388 156.96 282.388 157.16C282.388 157.359 282.308 157.551 282.167 157.692C282.026 157.833 281.835 157.912 281.635 157.912ZM267.584 162.429H281.635C281.835 162.429 282.026 162.349 282.167 162.208C282.308 162.067 282.388 161.876 282.388 161.676C282.388 161.476 282.308 161.285 282.167 161.144C282.026 161.003 281.835 160.923 281.635 160.923H267.584C267.384 160.923 267.193 161.003 267.052 161.144C266.91 161.285 266.831 161.476 266.831 161.676C266.831 161.876 266.91 162.067 267.052 162.208C267.193 162.349 267.384 162.429 267.584 162.429Z" fill="#EDEDED"/>
</g>
<g opacity="0.6">
<rect x="298.696" y="60.8086" width="48.1754" height="48.1754" rx="7.76381" fill="#282828"/>
<path fill-rule="evenodd" clip-rule="evenodd" d="M316.761 84.1426H319.772C320.371 84.1426 320.945 83.9047 321.369 83.4812C321.792 83.0577 322.03 82.4833 322.03 81.8844V78.8735C322.03 78.2745 321.792 77.7002 321.369 77.2767C320.945 76.8532 320.371 76.6152 319.772 76.6152H316.761C316.162 76.6152 315.588 76.8532 315.164 77.2767C314.741 77.7002 314.503 78.2745 314.503 78.8735V81.8844C314.503 82.4833 314.741 83.0577 315.164 83.4812C315.588 83.9047 316.162 84.1426 316.761 84.1426ZM316.232 78.3441C316.372 78.2035 316.562 78.1233 316.761 78.1207H319.772C319.971 78.1233 320.161 78.2035 320.302 78.3441C320.442 78.4847 320.522 78.6746 320.525 78.8735V81.8844C320.522 82.0833 320.442 82.2732 320.302 82.4138C320.161 82.5544 319.971 82.6346 319.772 82.6372H316.761C316.562 82.6346 316.372 82.5544 316.232 82.4138C316.091 82.2732 316.011 82.0833 316.008 81.8844V78.8735C316.011 78.6746 316.091 78.4847 316.232 78.3441ZM316.761 93.1755H319.772C320.371 93.1755 320.945 92.9376 321.369 92.5141C321.792 92.0906 322.03 91.5162 322.03 90.9173V87.9064C322.03 87.3074 321.792 86.7331 321.369 86.3096C320.945 85.8861 320.371 85.6481 319.772 85.6481H316.761C316.162 85.6481 315.588 85.8861 315.164 86.3096C314.741 86.7331 314.503 87.3074 314.503 87.9064V90.9173C314.503 91.5162 314.741 92.0906 315.164 92.5141C315.588 92.9376 316.162 93.1755 316.761 93.1755ZM316.232 87.377C316.372 87.2364 316.562 87.1562 316.761 87.1536H319.772C319.971 87.1562 320.161 87.2364 320.302 87.377C320.442 87.5176 320.522 87.7075 320.525 87.9064V90.9173C320.522 91.1162 320.442 91.3061 320.302 91.4467C320.161 91.5873 319.971 91.6675 319.772 91.6701H316.761C316.562 91.6675 316.372 91.5873 316.232 91.4467C316.091 91.3061 316.011 91.1162 316.008 90.9173V87.9064C316.011 87.7075 316.091 87.5176 316.232 87.377ZM328.805 84.1426H325.794C325.195 84.1426 324.621 83.9047 324.197 83.4812C323.774 83.0577 323.536 82.4833 323.536 81.8844V78.8735C323.536 78.2745 323.774 77.7002 324.197 77.2767C324.621 76.8532 325.195 76.6152 325.794 76.6152H328.805C329.404 76.6152 329.978 76.8532 330.402 77.2767C330.825 77.7002 331.063 78.2745 331.063 78.8735V81.8844C331.063 82.4833 330.825 83.0577 330.402 83.4812C329.978 83.9047 329.404 84.1426 328.805 84.1426ZM325.794 78.1207C325.595 78.1233 325.405 78.2035 325.265 78.3441C325.124 78.4847 325.044 78.6746 325.041 78.8735V81.8844C325.044 82.0833 325.124 82.2732 325.265 82.4138C325.405 82.5544 325.595 82.6346 325.794 82.6372H328.805C329.004 82.6346 329.194 82.5544 329.334 82.4138C329.475 82.2732 329.555 82.0833 329.558 81.8844V78.8735C329.555 78.6746 329.475 78.4847 329.334 78.3441C329.194 78.2035 329.004 78.1233 328.805 78.1207H325.794ZM325.794 93.1755H328.805C329.404 93.1755 329.978 92.9376 330.402 92.5141C330.825 92.0906 331.063 91.5162 331.063 90.9173V87.9064C331.063 87.3074 330.825 86.7331 330.402 86.3096C329.978 85.8861 329.404 85.6481 328.805 85.6481H325.794C325.195 85.6481 324.621 85.8861 324.197 86.3096C323.774 86.7331 323.536 87.3074 323.536 87.9064V90.9173C323.536 91.5162 323.774 92.0906 324.197 92.5141C324.621 92.9376 325.195 93.1755 325.794 93.1755ZM325.265 87.377C325.405 87.2364 325.595 87.1562 325.794 87.1536H328.805C329.004 87.1562 329.194 87.2364 329.334 87.377C329.475 87.5176 329.555 87.7075 329.558 87.9064V90.9173C329.555 91.1162 329.475 91.3061 329.334 91.4467C329.194 91.5873 329.004 91.6675 328.805 91.6701H325.794C325.595 91.6675 325.405 91.5873 325.265 91.4467C325.124 91.3061 325.044 91.1162 325.041 90.9173V87.9064C325.044 87.7075 325.124 87.5176 325.265 87.377Z" fill="#EDEDED"/>
</g>
<g opacity="0.6">
<rect x="314.024" y="229.422" width="48.1754" height="48.1754" rx="7.76381" fill="#282828"/>
<path d="M337.201 263.045C337.121 263.06 337.04 263.06 336.96 263.045C336.786 262.993 336.634 262.885 336.527 262.738C336.42 262.591 336.364 262.414 336.368 262.232V262.122L337.271 255.749H332.915C332.768 255.749 332.624 255.709 332.499 255.632C332.373 255.556 332.271 255.447 332.203 255.317C332.126 255.186 332.085 255.037 332.085 254.885C332.085 254.734 332.126 254.585 332.203 254.454L334.21 250.951L338.325 244.407C338.416 244.253 338.558 244.134 338.725 244.07C338.893 244.006 339.077 244.001 339.248 244.056C339.422 244.108 339.574 244.216 339.681 244.363C339.788 244.51 339.844 244.687 339.84 244.869V244.979L338.937 251.353H343.303C343.45 251.352 343.594 251.393 343.72 251.469C343.845 251.545 343.948 251.654 344.016 251.784C344.092 251.915 344.133 252.064 344.133 252.216C344.133 252.367 344.092 252.516 344.016 252.647L342.008 256.15L337.893 262.694C337.818 262.807 337.714 262.899 337.593 262.96C337.472 263.022 337.337 263.051 337.201 263.045ZM334.029 254.203H338.044C338.155 254.204 338.264 254.227 338.366 254.271C338.468 254.315 338.56 254.378 338.637 254.457C338.715 254.536 338.776 254.63 338.817 254.733C338.858 254.835 338.878 254.945 338.877 255.056V255.166L338.285 259.322L340.794 255.307L342.239 252.818H338.225C338.114 252.817 338.005 252.793 337.903 252.75C337.801 252.706 337.709 252.643 337.631 252.564C337.554 252.485 337.493 252.391 337.452 252.288C337.411 252.185 337.39 252.076 337.392 251.965V251.854L337.984 247.699L335.475 251.714L334.029 254.203Z" fill="#EDEDED"/>
</g>
<g opacity="0.6">
<rect x="250.521" y="273.218" width="48.1754" height="48.1754" rx="7.76381" fill="#282828"/>
<path fill-rule="evenodd" clip-rule="evenodd" d="M271.598 291.536C271.797 291.536 271.989 291.615 272.13 291.756C272.271 291.897 272.35 292.089 272.35 292.288C272.35 292.488 272.271 292.679 272.13 292.82L267.644 297.306L272.13 301.793C272.271 301.934 272.35 302.125 272.35 302.325C272.35 302.524 272.271 302.715 272.13 302.857C271.989 302.998 271.797 303.077 271.598 303.077C271.399 303.077 271.207 302.998 271.066 302.857L266.048 297.838C265.907 297.697 265.828 297.506 265.828 297.306C265.828 297.107 265.907 296.916 266.048 296.774L271.066 291.756C271.207 291.615 271.399 291.536 271.598 291.536ZM278.152 291.756L283.17 296.774C283.311 296.916 283.39 297.107 283.39 297.306C283.39 297.506 283.311 297.697 283.17 297.838L278.152 302.857C278.011 302.998 277.819 303.077 277.62 303.077C277.42 303.077 277.229 302.998 277.088 302.857C276.947 302.715 276.868 302.524 276.868 302.325C276.868 302.125 276.947 301.934 277.088 301.793L281.574 297.306L277.088 292.82C276.955 292.677 276.883 292.489 276.886 292.294C276.889 292.099 276.969 291.913 277.106 291.775C277.244 291.637 277.43 291.558 277.625 291.554C277.82 291.551 278.009 291.623 278.152 291.756Z" fill="#EDEDED"/>
</g>
<g opacity="0.6">
<rect x="110.375" y="76.1367" width="48.1754" height="48.1754" rx="7.76381" fill="#282828"/>
<path d="M135.717 92.9876V92.6966C135.715 92.4978 135.635 92.3078 135.494 92.1672C135.353 92.0266 135.163 91.9464 134.965 91.9438C133.425 91.9528 131.915 92.3637 130.584 93.1361C129.253 93.9084 128.146 95.0153 127.374 96.347C126.602 97.6786 126.192 99.1889 126.184 100.728C126.175 102.267 126.569 103.782 127.327 105.122C127.394 105.235 127.489 105.329 127.603 105.395C127.718 105.46 127.847 105.494 127.979 105.493C128.11 105.493 128.238 105.458 128.351 105.393L128.642 105.242C129.397 106.3 130.406 107.152 131.575 107.719C132.745 108.287 134.038 108.551 135.337 108.489C136.635 108.426 137.898 108.039 139.008 107.363C140.118 106.686 141.04 105.742 141.691 104.616C142.341 103.491 142.699 102.22 142.731 100.92C142.762 99.6205 142.468 98.3337 141.873 97.1775C141.279 96.0214 140.404 95.0329 139.328 94.3026C138.253 93.5723 137.011 93.1237 135.717 92.9977V92.9876ZM134.212 93.4895V100.294L128.3 103.687C127.84 102.635 127.633 101.49 127.698 100.344C127.762 99.1976 128.096 98.0828 128.672 97.0897C129.247 96.0965 130.049 95.253 131.012 94.6275C131.974 94.002 133.071 93.6122 134.212 93.4895ZM134.965 106.999C133.99 106.996 133.03 106.767 132.159 106.33C131.288 105.893 130.531 105.259 129.946 104.479L135.336 101.378C135.453 101.314 135.55 101.22 135.617 101.105C135.684 100.99 135.719 100.859 135.717 100.726V94.5032C137.296 94.7039 138.74 95.4974 139.756 96.7229C140.772 97.9484 141.284 99.5143 141.188 101.103C141.092 102.692 140.396 104.185 139.24 105.28C138.085 106.375 136.556 106.989 134.965 106.999Z" fill="#EDEDED"/>
</g>
<g opacity="0.6">
<rect x="62.1992" y="181.247" width="48.1754" height="48.1754" rx="7.76381" fill="#282828"/>
<path fill-rule="evenodd" clip-rule="evenodd" d="M84.1962 204.951C84.8151 205.365 85.5428 205.586 86.2872 205.586C87.2854 205.586 88.2427 205.189 88.9485 204.483C89.6543 203.778 90.0509 202.82 90.0509 201.822C90.0509 201.078 89.8301 200.35 89.4166 199.731C89.003 199.112 88.4152 198.63 87.7275 198.345C87.0397 198.06 86.283 197.985 85.5529 198.131C84.8228 198.276 84.1522 198.634 83.6258 199.161C83.0995 199.687 82.741 200.358 82.5958 201.088C82.4506 201.818 82.5251 202.575 82.81 203.262C83.0948 203.95 83.5772 204.538 84.1962 204.951ZM85.0326 199.944C85.4039 199.696 85.8405 199.564 86.2872 199.564C86.8861 199.564 87.4605 199.802 87.884 200.225C88.3075 200.649 88.5454 201.223 88.5454 201.822C88.5454 202.269 88.4129 202.705 88.1648 203.077C87.9167 203.448 87.564 203.737 87.1513 203.908C86.7387 204.079 86.2847 204.124 85.8466 204.037C85.4086 203.95 85.0062 203.735 84.6904 203.419C84.3745 203.103 84.1595 202.701 84.0723 202.263C83.9852 201.825 84.0299 201.371 84.2008 200.958C84.3718 200.545 84.6612 200.193 85.0326 199.944ZM92.7833 212.388C92.9239 212.529 93.1139 212.609 93.3127 212.611C93.5115 212.609 93.7015 212.529 93.8421 212.388C93.9827 212.247 94.0628 212.057 94.0654 211.859C94.0654 207.091 88.6156 207.091 86.2871 207.091C83.9586 207.091 78.5088 207.091 78.5088 211.859C78.5088 212.058 78.5881 212.25 78.7293 212.391C78.8704 212.532 79.0619 212.611 79.2615 212.611C79.4612 212.611 79.6526 212.532 79.7938 212.391C79.935 212.25 80.0143 212.058 80.0143 211.859C80.0143 209.901 81.0781 208.597 86.2871 208.597C91.4961 208.597 92.56 209.901 92.56 211.859C92.5626 212.057 92.6427 212.247 92.7833 212.388Z" fill="#EDEDED"/>
</g>
<g opacity="0.6">
<rect x="134.463" y="249.131" width="48.1754" height="48.1754" rx="7.76381" fill="#282828"/>
<path d="M158.551 282.001C158.455 281.999 158.36 281.982 158.27 281.95C155.544 280.741 153.264 278.711 151.747 276.144C150.23 273.576 149.553 270.599 149.809 267.628C149.818 267.461 149.883 267.301 149.994 267.175C150.105 267.049 150.256 266.965 150.421 266.936C153.135 266.525 155.771 265.706 158.24 264.507C158.337 264.463 158.443 264.44 158.551 264.44C158.658 264.44 158.764 264.463 158.862 264.507C161.331 265.706 163.967 266.525 166.68 266.936C166.846 266.965 166.996 267.049 167.107 267.175C167.218 267.301 167.284 267.461 167.293 267.628C167.549 270.599 166.871 273.576 165.355 276.144C163.838 278.711 161.557 280.741 158.832 281.95C158.741 281.982 158.646 281.999 158.551 282.001ZM151.284 268.311C151.135 270.827 151.748 273.329 153.045 275.491C154.342 277.652 156.26 279.372 158.551 280.425C160.841 279.372 162.76 277.652 164.056 275.491C165.353 273.329 165.967 270.827 165.817 268.311C163.301 267.884 160.855 267.11 158.551 266.012C156.246 267.11 153.801 267.884 151.284 268.311Z" fill="#EDEDED"/>
</g>
<g opacity="0.6">
<rect x="62.1992" y="297.306" width="48.1754" height="48.1754" rx="7.76381" fill="#282828"/>
<path d="M83.2763 327.667C83.1752 327.663 83.0759 327.639 82.9844 327.596C82.8929 327.553 82.8112 327.492 82.7443 327.416L77.726 322.397C77.6304 322.335 77.55 322.252 77.4911 322.155C77.4322 322.057 77.3962 321.947 77.3859 321.834C77.3756 321.72 77.3912 321.606 77.4316 321.499C77.472 321.393 77.5361 321.297 77.619 321.218C77.702 321.14 77.8016 321.082 77.9104 321.048C78.0192 321.013 78.1344 321.004 78.2471 321.021C78.3599 321.038 78.4674 321.081 78.5614 321.145C78.6554 321.21 78.7336 321.295 78.7899 321.394L83.2763 325.85L93.7845 315.372C93.926 315.28 94.0942 315.239 94.2621 315.254C94.43 315.269 94.5879 315.34 94.7106 315.456C94.8332 315.572 94.9135 315.725 94.9385 315.892C94.9634 316.059 94.9317 316.229 94.8484 316.375L83.8082 327.416C83.7413 327.492 83.6596 327.553 83.5681 327.596C83.4767 327.639 83.3773 327.663 83.2763 327.667Z" fill="#EDEDED"/>
</g>
<rect x="165.652" y="152.608" width="106.394" height="106.394" rx="15.7173" fill="#FF6515"/>
<path d="M215.36 225.255C215.36 227.647 213.43 229.577 211.038 229.577C208.646 229.577 206.716 227.647 206.716 225.255C206.716 222.863 208.646 220.933 211.038 220.933C213.43 220.933 215.36 222.863 215.36 225.255ZM229.768 220.933C227.376 220.933 225.445 222.863 225.445 225.255C225.445 227.647 227.376 229.577 229.768 229.577C232.159 229.577 234.09 227.647 234.09 225.255C234.09 222.863 232.159 220.933 229.768 220.933ZM242.677 193.357L236.914 216.409C236.683 217.36 235.819 218.051 234.81 218.051H205.995C204.958 218.051 204.065 217.302 203.863 216.265L198.417 186.354H194.469C193.288 186.354 192.308 185.375 192.308 184.193C192.308 183.012 193.288 182.032 194.469 182.032H200.232C201.27 182.032 202.163 182.781 202.365 183.819L203.604 190.677H240.573C241.236 190.677 241.87 190.994 242.273 191.512C242.677 192.031 242.821 192.723 242.677 193.357ZM237.807 194.999H204.382L207.782 213.729H233.11L237.807 194.999Z" fill="#EDEDED"/>
</svg>
