<svg width="1292" height="550" viewBox="0 0 1292 550" fill="none" xmlns="http://www.w3.org/2000/svg">
<g opacity="0.4">
<rect width="2" height="2" transform="translate(24 9)" fill="#737373"/>
<rect width="2" height="2" transform="translate(62 9)" fill="#737373"/>
<rect width="2" height="2" transform="translate(100 9)" fill="#737373"/>
<rect width="2" height="2" transform="translate(138 9)" fill="#737373"/>
<rect width="2" height="2" transform="translate(176 9)" fill="#737373"/>
<rect width="2" height="2" transform="translate(214 9)" fill="#737373"/>
<rect width="2" height="2" transform="translate(252 9)" fill="#737373"/>
<rect width="2" height="2" transform="translate(290 9)" fill="#737373"/>
<rect width="2" height="2" transform="translate(328 9)" fill="#737373"/>
<rect width="2" height="2" transform="translate(366 9)" fill="#737373"/>
<rect width="2" height="2" transform="translate(404 9)" fill="#737373"/>
<rect width="2" height="2" transform="translate(442 9)" fill="#737373"/>
<rect width="2" height="2" transform="translate(480 9)" fill="#737373"/>
<rect width="2" height="2" transform="translate(518 9)" fill="#737373"/>
<rect width="2" height="2" transform="translate(556 9)" fill="#737373"/>
<rect width="2" height="2" transform="translate(594 9)" fill="#737373"/>
<rect width="2" height="2" transform="translate(632 9)" fill="#737373"/>
<rect width="2" height="2" transform="translate(670 9)" fill="#737373"/>
<rect width="2" height="2" transform="translate(708 9)" fill="#737373"/>
<rect width="2" height="2" transform="translate(746 9)" fill="#737373"/>
<rect width="2" height="2" transform="translate(784 9)" fill="#737373"/>
<rect width="2" height="2" transform="translate(822 9)" fill="#737373"/>
<rect width="2" height="2" transform="translate(860 9)" fill="#737373"/>
<rect width="2" height="2" transform="translate(898 9)" fill="#737373"/>
<rect width="2" height="2" transform="translate(936 9)" fill="#737373"/>
<rect width="2" height="2" transform="translate(974 9)" fill="#737373"/>
<rect width="2" height="2" transform="translate(1012 9)" fill="#737373"/>
<rect width="2" height="2" transform="translate(1050 9)" fill="#737373"/>
<rect width="2" height="2" transform="translate(1088 9)" fill="#737373"/>
<rect width="2" height="2" transform="translate(1126 9)" fill="#737373"/>
<rect width="2" height="2" transform="translate(1164 9)" fill="#737373"/>
<rect width="2" height="2" transform="translate(1202 9)" fill="#737373"/>
<rect width="2" height="2" transform="translate(1240 9)" fill="#737373"/>
<rect width="2" height="2" transform="translate(1278 9)" fill="#737373"/>
<rect width="2" height="2" transform="translate(24 47)" fill="#737373"/>
<rect width="2" height="2" transform="translate(62 47)" fill="#737373"/>
<rect width="2" height="2" transform="translate(100 47)" fill="#737373"/>
<rect width="2" height="2" transform="translate(138 47)" fill="#737373"/>
<rect width="2" height="2" transform="translate(176 47)" fill="#737373"/>
<rect width="2" height="2" transform="translate(214 47)" fill="#737373"/>
<rect width="2" height="2" transform="translate(252 47)" fill="#737373"/>
<rect width="2" height="2" transform="translate(290 47)" fill="#737373"/>
<rect width="2" height="2" transform="translate(328 47)" fill="#737373"/>
<rect width="2" height="2" transform="translate(366 47)" fill="#737373"/>
<rect width="2" height="2" transform="translate(404 47)" fill="#737373"/>
<rect width="2" height="2" transform="translate(442 47)" fill="#737373"/>
<rect width="2" height="2" transform="translate(480 47)" fill="#737373"/>
<rect width="2" height="2" transform="translate(518 47)" fill="#737373"/>
<rect width="2" height="2" transform="translate(556 47)" fill="#737373"/>
<rect width="2" height="2" transform="translate(594 47)" fill="#737373"/>
<rect width="2" height="2" transform="translate(632 47)" fill="#737373"/>
<rect width="2" height="2" transform="translate(670 47)" fill="#737373"/>
<rect width="2" height="2" transform="translate(708 47)" fill="#737373"/>
<rect width="2" height="2" transform="translate(746 47)" fill="#737373"/>
<rect width="2" height="2" transform="translate(784 47)" fill="#737373"/>
<rect width="2" height="2" transform="translate(822 47)" fill="#737373"/>
<rect width="2" height="2" transform="translate(860 47)" fill="#737373"/>
<rect width="2" height="2" transform="translate(898 47)" fill="#737373"/>
<rect width="2" height="2" transform="translate(936 47)" fill="#737373"/>
<rect width="2" height="2" transform="translate(974 47)" fill="#737373"/>
<rect width="2" height="2" transform="translate(1012 47)" fill="#737373"/>
<rect width="2" height="2" transform="translate(1050 47)" fill="#737373"/>
<rect width="2" height="2" transform="translate(1088 47)" fill="#737373"/>
<rect width="2" height="2" transform="translate(1126 47)" fill="#737373"/>
<rect width="2" height="2" transform="translate(1164 47)" fill="#737373"/>
<rect width="2" height="2" transform="translate(1202 47)" fill="#737373"/>
<rect width="2" height="2" transform="translate(1240 47)" fill="#737373"/>
<rect width="2" height="2" transform="translate(1278 47)" fill="#737373"/>
<rect width="2" height="2" transform="translate(24 85)" fill="#737373"/>
<rect width="2" height="2" transform="translate(62 85)" fill="#737373"/>
<rect width="2" height="2" transform="translate(100 85)" fill="#737373"/>
<rect width="2" height="2" transform="translate(138 85)" fill="#737373"/>
<rect width="2" height="2" transform="translate(176 85)" fill="#737373"/>
<rect width="2" height="2" transform="translate(214 85)" fill="#737373"/>
<rect width="2" height="2" transform="translate(252 85)" fill="#737373"/>
<rect width="2" height="2" transform="translate(290 85)" fill="#737373"/>
<rect width="2" height="2" transform="translate(328 85)" fill="#737373"/>
<rect width="2" height="2" transform="translate(366 85)" fill="#737373"/>
<rect width="2" height="2" transform="translate(404 85)" fill="#737373"/>
<rect width="2" height="2" transform="translate(442 85)" fill="#737373"/>
<rect width="2" height="2" transform="translate(480 85)" fill="#737373"/>
<rect width="2" height="2" transform="translate(518 85)" fill="#737373"/>
<rect width="2" height="2" transform="translate(556 85)" fill="#737373"/>
<rect width="2" height="2" transform="translate(594 85)" fill="#737373"/>
<rect width="2" height="2" transform="translate(632 85)" fill="#737373"/>
<rect width="2" height="2" transform="translate(670 85)" fill="#737373"/>
<rect width="2" height="2" transform="translate(708 85)" fill="#737373"/>
<rect width="2" height="2" transform="translate(746 85)" fill="#737373"/>
<rect width="2" height="2" transform="translate(784 85)" fill="#737373"/>
<rect width="2" height="2" transform="translate(822 85)" fill="#737373"/>
<rect width="2" height="2" transform="translate(860 85)" fill="#737373"/>
<rect width="2" height="2" transform="translate(898 85)" fill="#737373"/>
<rect width="2" height="2" transform="translate(936 85)" fill="#737373"/>
<rect width="2" height="2" transform="translate(974 85)" fill="#737373"/>
<rect width="2" height="2" transform="translate(1012 85)" fill="#737373"/>
<rect width="2" height="2" transform="translate(1050 85)" fill="#737373"/>
<rect width="2" height="2" transform="translate(1088 85)" fill="#737373"/>
<rect width="2" height="2" transform="translate(1126 85)" fill="#737373"/>
<rect width="2" height="2" transform="translate(1164 85)" fill="#737373"/>
<rect width="2" height="2" transform="translate(1202 85)" fill="#737373"/>
<rect width="2" height="2" transform="translate(1240 85)" fill="#737373"/>
<rect width="2" height="2" transform="translate(1278 85)" fill="#737373"/>
<rect width="2" height="2" transform="translate(24 123)" fill="#737373"/>
<rect width="2" height="2" transform="translate(62 123)" fill="#737373"/>
<rect width="2" height="2" transform="translate(100 123)" fill="#737373"/>
<rect width="2" height="2" transform="translate(138 123)" fill="#737373"/>
<rect width="2" height="2" transform="translate(176 123)" fill="#737373"/>
<rect width="2" height="2" transform="translate(214 123)" fill="#737373"/>
<rect width="2" height="2" transform="translate(252 123)" fill="#737373"/>
<rect width="2" height="2" transform="translate(290 123)" fill="#737373"/>
<rect width="2" height="2" transform="translate(328 123)" fill="#737373"/>
<rect width="2" height="2" transform="translate(366 123)" fill="#737373"/>
<rect width="2" height="2" transform="translate(404 123)" fill="#737373"/>
<rect width="2" height="2" transform="translate(442 123)" fill="#737373"/>
<rect width="2" height="2" transform="translate(480 123)" fill="#737373"/>
<rect width="2" height="2" transform="translate(518 123)" fill="#737373"/>
<rect width="2" height="2" transform="translate(556 123)" fill="#737373"/>
<rect width="2" height="2" transform="translate(594 123)" fill="#737373"/>
<rect width="2" height="2" transform="translate(632 123)" fill="#737373"/>
<rect width="2" height="2" transform="translate(670 123)" fill="#737373"/>
<rect width="2" height="2" transform="translate(708 123)" fill="#737373"/>
<rect width="2" height="2" transform="translate(746 123)" fill="#737373"/>
<rect width="2" height="2" transform="translate(784 123)" fill="#737373"/>
<rect width="2" height="2" transform="translate(822 123)" fill="#737373"/>
<rect width="2" height="2" transform="translate(860 123)" fill="#737373"/>
<rect width="2" height="2" transform="translate(898 123)" fill="#737373"/>
<rect width="2" height="2" transform="translate(936 123)" fill="#737373"/>
<rect width="2" height="2" transform="translate(974 123)" fill="#737373"/>
<rect width="2" height="2" transform="translate(1012 123)" fill="#737373"/>
<rect width="2" height="2" transform="translate(1050 123)" fill="#737373"/>
<rect width="2" height="2" transform="translate(1088 123)" fill="#737373"/>
<rect width="2" height="2" transform="translate(1126 123)" fill="#737373"/>
<rect width="2" height="2" transform="translate(1164 123)" fill="#737373"/>
<rect width="2" height="2" transform="translate(1202 123)" fill="#737373"/>
<rect width="2" height="2" transform="translate(1240 123)" fill="#737373"/>
<rect width="2" height="2" transform="translate(1278 123)" fill="#737373"/>
<rect width="2" height="2" transform="translate(24 161)" fill="#737373"/>
<rect width="2" height="2" transform="translate(62 161)" fill="#737373"/>
<rect width="2" height="2" transform="translate(100 161)" fill="#737373"/>
<rect width="2" height="2" transform="translate(138 161)" fill="#737373"/>
<rect width="2" height="2" transform="translate(176 161)" fill="#737373"/>
<rect width="2" height="2" transform="translate(214 161)" fill="#737373"/>
<rect width="2" height="2" transform="translate(252 161)" fill="#737373"/>
<rect width="2" height="2" transform="translate(290 161)" fill="#737373"/>
<rect width="2" height="2" transform="translate(328 161)" fill="#737373"/>
<rect width="2" height="2" transform="translate(366 161)" fill="#737373"/>
<rect width="2" height="2" transform="translate(404 161)" fill="#737373"/>
<rect width="2" height="2" transform="translate(442 161)" fill="#737373"/>
<rect width="2" height="2" transform="translate(480 161)" fill="#737373"/>
<rect width="2" height="2" transform="translate(518 161)" fill="#737373"/>
<rect width="2" height="2" transform="translate(556 161)" fill="#737373"/>
<rect width="2" height="2" transform="translate(594 161)" fill="#737373"/>
<rect width="2" height="2" transform="translate(632 161)" fill="#737373"/>
<rect width="2" height="2" transform="translate(670 161)" fill="#737373"/>
<rect width="2" height="2" transform="translate(708 161)" fill="#737373"/>
<rect width="2" height="2" transform="translate(746 161)" fill="#737373"/>
<rect width="2" height="2" transform="translate(784 161)" fill="#737373"/>
<rect width="2" height="2" transform="translate(822 161)" fill="#737373"/>
<rect width="2" height="2" transform="translate(860 161)" fill="#737373"/>
<rect width="2" height="2" transform="translate(898 161)" fill="#737373"/>
<rect width="2" height="2" transform="translate(936 161)" fill="#737373"/>
<rect width="2" height="2" transform="translate(974 161)" fill="#737373"/>
<rect width="2" height="2" transform="translate(1012 161)" fill="#737373"/>
<rect width="2" height="2" transform="translate(1050 161)" fill="#737373"/>
<rect width="2" height="2" transform="translate(1088 161)" fill="#737373"/>
<rect width="2" height="2" transform="translate(1126 161)" fill="#737373"/>
<rect width="2" height="2" transform="translate(1164 161)" fill="#737373"/>
<rect width="2" height="2" transform="translate(1202 161)" fill="#737373"/>
<rect width="2" height="2" transform="translate(1240 161)" fill="#737373"/>
<rect width="2" height="2" transform="translate(1278 161)" fill="#737373"/>
<rect width="2" height="2" transform="translate(24 199)" fill="#737373"/>
<rect width="2" height="2" transform="translate(62 199)" fill="#737373"/>
<rect width="2" height="2" transform="translate(100 199)" fill="#737373"/>
<rect width="2" height="2" transform="translate(138 199)" fill="#737373"/>
<rect width="2" height="2" transform="translate(176 199)" fill="#737373"/>
<rect width="2" height="2" transform="translate(214 199)" fill="#737373"/>
<rect width="2" height="2" transform="translate(252 199)" fill="#737373"/>
<rect width="2" height="2" transform="translate(290 199)" fill="#737373"/>
<rect width="2" height="2" transform="translate(328 199)" fill="#737373"/>
<rect width="2" height="2" transform="translate(366 199)" fill="#737373"/>
<rect width="2" height="2" transform="translate(404 199)" fill="#737373"/>
<rect width="2" height="2" transform="translate(442 199)" fill="#737373"/>
<rect width="2" height="2" transform="translate(480 199)" fill="#737373"/>
<rect width="2" height="2" transform="translate(518 199)" fill="#737373"/>
<rect width="2" height="2" transform="translate(556 199)" fill="#737373"/>
<rect width="2" height="2" transform="translate(594 199)" fill="#737373"/>
<rect width="2" height="2" transform="translate(632 199)" fill="#737373"/>
<rect width="2" height="2" transform="translate(670 199)" fill="#737373"/>
<rect width="2" height="2" transform="translate(708 199)" fill="#737373"/>
<rect width="2" height="2" transform="translate(746 199)" fill="#737373"/>
<rect width="2" height="2" transform="translate(784 199)" fill="#737373"/>
<rect width="2" height="2" transform="translate(822 199)" fill="#737373"/>
<rect width="2" height="2" transform="translate(860 199)" fill="#737373"/>
<rect width="2" height="2" transform="translate(898 199)" fill="#737373"/>
<rect width="2" height="2" transform="translate(936 199)" fill="#737373"/>
<rect width="2" height="2" transform="translate(974 199)" fill="#737373"/>
<rect width="2" height="2" transform="translate(1012 199)" fill="#737373"/>
<rect width="2" height="2" transform="translate(1050 199)" fill="#737373"/>
<rect width="2" height="2" transform="translate(1088 199)" fill="#737373"/>
<rect width="2" height="2" transform="translate(1126 199)" fill="#737373"/>
<rect width="2" height="2" transform="translate(1164 199)" fill="#737373"/>
<rect width="2" height="2" transform="translate(1202 199)" fill="#737373"/>
<rect width="2" height="2" transform="translate(1240 199)" fill="#737373"/>
<rect width="2" height="2" transform="translate(1278 199)" fill="#737373"/>
<rect width="2" height="2" transform="translate(24 237)" fill="#737373"/>
<rect width="2" height="2" transform="translate(62 237)" fill="#737373"/>
<rect width="2" height="2" transform="translate(100 237)" fill="#737373"/>
<rect width="2" height="2" transform="translate(138 237)" fill="#737373"/>
<rect width="2" height="2" transform="translate(176 237)" fill="#737373"/>
<rect width="2" height="2" transform="translate(214 237)" fill="#737373"/>
<rect width="2" height="2" transform="translate(252 237)" fill="#737373"/>
<rect width="2" height="2" transform="translate(290 237)" fill="#737373"/>
<rect width="2" height="2" transform="translate(328 237)" fill="#737373"/>
<rect width="2" height="2" transform="translate(366 237)" fill="#737373"/>
<rect width="2" height="2" transform="translate(404 237)" fill="#737373"/>
<rect width="2" height="2" transform="translate(442 237)" fill="#737373"/>
<rect width="2" height="2" transform="translate(480 237)" fill="#737373"/>
<rect width="2" height="2" transform="translate(518 237)" fill="#737373"/>
<rect width="2" height="2" transform="translate(556 237)" fill="#737373"/>
<rect width="2" height="2" transform="translate(594 237)" fill="#737373"/>
<rect width="2" height="2" transform="translate(632 237)" fill="#737373"/>
<rect width="2" height="2" transform="translate(670 237)" fill="#737373"/>
<rect width="2" height="2" transform="translate(708 237)" fill="#737373"/>
<rect width="2" height="2" transform="translate(746 237)" fill="#737373"/>
<rect width="2" height="2" transform="translate(784 237)" fill="#737373"/>
<rect width="2" height="2" transform="translate(822 237)" fill="#737373"/>
<rect width="2" height="2" transform="translate(860 237)" fill="#737373"/>
<rect width="2" height="2" transform="translate(898 237)" fill="#737373"/>
<rect width="2" height="2" transform="translate(936 237)" fill="#737373"/>
<rect width="2" height="2" transform="translate(974 237)" fill="#737373"/>
<rect width="2" height="2" transform="translate(1012 237)" fill="#737373"/>
<rect width="2" height="2" transform="translate(1050 237)" fill="#737373"/>
<rect width="2" height="2" transform="translate(1088 237)" fill="#737373"/>
<rect width="2" height="2" transform="translate(1126 237)" fill="#737373"/>
<rect width="2" height="2" transform="translate(1164 237)" fill="#737373"/>
<rect width="2" height="2" transform="translate(1202 237)" fill="#737373"/>
<rect width="2" height="2" transform="translate(1240 237)" fill="#737373"/>
<rect width="2" height="2" transform="translate(1278 237)" fill="#737373"/>
<rect width="2" height="2" transform="translate(24 275)" fill="#737373"/>
<rect width="2" height="2" transform="translate(62 275)" fill="#737373"/>
<rect width="2" height="2" transform="translate(100 275)" fill="#737373"/>
<rect width="2" height="2" transform="translate(138 275)" fill="#737373"/>
<rect width="2" height="2" transform="translate(176 275)" fill="#737373"/>
<rect width="2" height="2" transform="translate(214 275)" fill="#737373"/>
<rect width="2" height="2" transform="translate(252 275)" fill="#737373"/>
<rect width="2" height="2" transform="translate(290 275)" fill="#737373"/>
<rect width="2" height="2" transform="translate(328 275)" fill="#737373"/>
<rect width="2" height="2" transform="translate(366 275)" fill="#737373"/>
<rect width="2" height="2" transform="translate(404 275)" fill="#737373"/>
<rect width="2" height="2" transform="translate(442 275)" fill="#737373"/>
<rect width="2" height="2" transform="translate(480 275)" fill="#737373"/>
<rect width="2" height="2" transform="translate(518 275)" fill="#737373"/>
<rect width="2" height="2" transform="translate(556 275)" fill="#737373"/>
<rect width="2" height="2" transform="translate(594 275)" fill="#737373"/>
<rect width="2" height="2" transform="translate(632 275)" fill="#737373"/>
<rect width="2" height="2" transform="translate(670 275)" fill="#737373"/>
<rect width="2" height="2" transform="translate(708 275)" fill="#737373"/>
<rect width="2" height="2" transform="translate(746 275)" fill="#737373"/>
<rect width="2" height="2" transform="translate(784 275)" fill="#737373"/>
<rect width="2" height="2" transform="translate(822 275)" fill="#737373"/>
<rect width="2" height="2" transform="translate(860 275)" fill="#737373"/>
<rect width="2" height="2" transform="translate(898 275)" fill="#737373"/>
<rect width="2" height="2" transform="translate(936 275)" fill="#737373"/>
<rect width="2" height="2" transform="translate(974 275)" fill="#737373"/>
<rect width="2" height="2" transform="translate(1012 275)" fill="#737373"/>
<rect width="2" height="2" transform="translate(1050 275)" fill="#737373"/>
<rect width="2" height="2" transform="translate(1088 275)" fill="#737373"/>
<rect width="2" height="2" transform="translate(1126 275)" fill="#737373"/>
<rect width="2" height="2" transform="translate(1164 275)" fill="#737373"/>
<rect width="2" height="2" transform="translate(1202 275)" fill="#737373"/>
<rect width="2" height="2" transform="translate(1240 275)" fill="#737373"/>
<rect width="2" height="2" transform="translate(1278 275)" fill="#737373"/>
<rect width="2" height="2" transform="translate(24 313)" fill="#737373"/>
<rect width="2" height="2" transform="translate(62 313)" fill="#737373"/>
<rect width="2" height="2" transform="translate(100 313)" fill="#737373"/>
<rect width="2" height="2" transform="translate(138 313)" fill="#737373"/>
<rect width="2" height="2" transform="translate(176 313)" fill="#737373"/>
<rect width="2" height="2" transform="translate(214 313)" fill="#737373"/>
<rect width="2" height="2" transform="translate(252 313)" fill="#737373"/>
<rect width="2" height="2" transform="translate(290 313)" fill="#737373"/>
<rect width="2" height="2" transform="translate(328 313)" fill="#737373"/>
<rect width="2" height="2" transform="translate(366 313)" fill="#737373"/>
<rect width="2" height="2" transform="translate(404 313)" fill="#737373"/>
<rect width="2" height="2" transform="translate(442 313)" fill="#737373"/>
<rect width="2" height="2" transform="translate(480 313)" fill="#737373"/>
<rect width="2" height="2" transform="translate(518 313)" fill="#737373"/>
<rect width="2" height="2" transform="translate(556 313)" fill="#737373"/>
<rect width="2" height="2" transform="translate(594 313)" fill="#737373"/>
<rect width="2" height="2" transform="translate(632 313)" fill="#737373"/>
<rect width="2" height="2" transform="translate(670 313)" fill="#737373"/>
<rect width="2" height="2" transform="translate(708 313)" fill="#737373"/>
<rect width="2" height="2" transform="translate(746 313)" fill="#737373"/>
<rect width="2" height="2" transform="translate(784 313)" fill="#737373"/>
<rect width="2" height="2" transform="translate(822 313)" fill="#737373"/>
<rect width="2" height="2" transform="translate(860 313)" fill="#737373"/>
<rect width="2" height="2" transform="translate(898 313)" fill="#737373"/>
<rect width="2" height="2" transform="translate(936 313)" fill="#737373"/>
<rect width="2" height="2" transform="translate(974 313)" fill="#737373"/>
<rect width="2" height="2" transform="translate(1012 313)" fill="#737373"/>
<rect width="2" height="2" transform="translate(1050 313)" fill="#737373"/>
<rect width="2" height="2" transform="translate(1088 313)" fill="#737373"/>
<rect width="2" height="2" transform="translate(1126 313)" fill="#737373"/>
<rect width="2" height="2" transform="translate(1164 313)" fill="#737373"/>
<rect width="2" height="2" transform="translate(1202 313)" fill="#737373"/>
<rect width="2" height="2" transform="translate(1240 313)" fill="#737373"/>
<rect width="2" height="2" transform="translate(1278 313)" fill="#737373"/>
<rect width="2" height="2" transform="translate(24 351)" fill="#737373"/>
<rect width="2" height="2" transform="translate(62 351)" fill="#737373"/>
<rect width="2" height="2" transform="translate(100 351)" fill="#737373"/>
<rect width="2" height="2" transform="translate(138 351)" fill="#737373"/>
<rect width="2" height="2" transform="translate(176 351)" fill="#737373"/>
<rect width="2" height="2" transform="translate(214 351)" fill="#737373"/>
<rect width="2" height="2" transform="translate(252 351)" fill="#737373"/>
<rect width="2" height="2" transform="translate(290 351)" fill="#737373"/>
<rect width="2" height="2" transform="translate(328 351)" fill="#737373"/>
<rect width="2" height="2" transform="translate(366 351)" fill="#737373"/>
<rect width="2" height="2" transform="translate(404 351)" fill="#737373"/>
<rect width="2" height="2" transform="translate(442 351)" fill="#737373"/>
<rect width="2" height="2" transform="translate(480 351)" fill="#737373"/>
<rect width="2" height="2" transform="translate(518 351)" fill="#737373"/>
<rect width="2" height="2" transform="translate(556 351)" fill="#737373"/>
<rect width="2" height="2" transform="translate(594 351)" fill="#737373"/>
<rect width="2" height="2" transform="translate(632 351)" fill="#737373"/>
<rect width="2" height="2" transform="translate(670 351)" fill="#737373"/>
<rect width="2" height="2" transform="translate(708 351)" fill="#737373"/>
<rect width="2" height="2" transform="translate(746 351)" fill="#737373"/>
<rect width="2" height="2" transform="translate(784 351)" fill="#737373"/>
<rect width="2" height="2" transform="translate(822 351)" fill="#737373"/>
<rect width="2" height="2" transform="translate(860 351)" fill="#737373"/>
<rect width="2" height="2" transform="translate(898 351)" fill="#737373"/>
<rect width="2" height="2" transform="translate(936 351)" fill="#737373"/>
<rect width="2" height="2" transform="translate(974 351)" fill="#737373"/>
<rect width="2" height="2" transform="translate(1012 351)" fill="#737373"/>
<rect width="2" height="2" transform="translate(1050 351)" fill="#737373"/>
<rect width="2" height="2" transform="translate(1088 351)" fill="#737373"/>
<rect width="2" height="2" transform="translate(1126 351)" fill="#737373"/>
<rect width="2" height="2" transform="translate(1164 351)" fill="#737373"/>
<rect width="2" height="2" transform="translate(1202 351)" fill="#737373"/>
<rect width="2" height="2" transform="translate(1240 351)" fill="#737373"/>
<rect width="2" height="2" transform="translate(1278 351)" fill="#737373"/>
<rect width="2" height="2" transform="translate(24 389)" fill="#737373"/>
<rect width="2" height="2" transform="translate(62 389)" fill="#737373"/>
<rect width="2" height="2" transform="translate(100 389)" fill="#737373"/>
<rect width="2" height="2" transform="translate(138 389)" fill="#737373"/>
<rect width="2" height="2" transform="translate(176 389)" fill="#737373"/>
<rect width="2" height="2" transform="translate(214 389)" fill="#737373"/>
<rect width="2" height="2" transform="translate(252 389)" fill="#737373"/>
<rect width="2" height="2" transform="translate(290 389)" fill="#737373"/>
<rect width="2" height="2" transform="translate(328 389)" fill="#737373"/>
<rect width="2" height="2" transform="translate(366 389)" fill="#737373"/>
<rect width="2" height="2" transform="translate(404 389)" fill="#737373"/>
<rect width="2" height="2" transform="translate(442 389)" fill="#737373"/>
<rect width="2" height="2" transform="translate(480 389)" fill="#737373"/>
<rect width="2" height="2" transform="translate(518 389)" fill="#737373"/>
<rect width="2" height="2" transform="translate(556 389)" fill="#737373"/>
<rect width="2" height="2" transform="translate(594 389)" fill="#737373"/>
<rect width="2" height="2" transform="translate(632 389)" fill="#737373"/>
<rect width="2" height="2" transform="translate(670 389)" fill="#737373"/>
<rect width="2" height="2" transform="translate(708 389)" fill="#737373"/>
<rect width="2" height="2" transform="translate(746 389)" fill="#737373"/>
<rect width="2" height="2" transform="translate(784 389)" fill="#737373"/>
<rect width="2" height="2" transform="translate(822 389)" fill="#737373"/>
<rect width="2" height="2" transform="translate(860 389)" fill="#737373"/>
<rect width="2" height="2" transform="translate(898 389)" fill="#737373"/>
<rect width="2" height="2" transform="translate(936 389)" fill="#737373"/>
<rect width="2" height="2" transform="translate(974 389)" fill="#737373"/>
<rect width="2" height="2" transform="translate(1012 389)" fill="#737373"/>
<rect width="2" height="2" transform="translate(1050 389)" fill="#737373"/>
<rect width="2" height="2" transform="translate(1088 389)" fill="#737373"/>
<rect width="2" height="2" transform="translate(1126 389)" fill="#737373"/>
<rect width="2" height="2" transform="translate(1164 389)" fill="#737373"/>
<rect width="2" height="2" transform="translate(1202 389)" fill="#737373"/>
<rect width="2" height="2" transform="translate(1240 389)" fill="#737373"/>
<rect width="2" height="2" transform="translate(1278 389)" fill="#737373"/>
<rect width="2" height="2" transform="translate(24 427)" fill="#737373"/>
<rect width="2" height="2" transform="translate(62 427)" fill="#737373"/>
<rect width="2" height="2" transform="translate(100 427)" fill="#737373"/>
<rect width="2" height="2" transform="translate(138 427)" fill="#737373"/>
<rect width="2" height="2" transform="translate(176 427)" fill="#737373"/>
<rect width="2" height="2" transform="translate(214 427)" fill="#737373"/>
<rect width="2" height="2" transform="translate(252 427)" fill="#737373"/>
<rect width="2" height="2" transform="translate(290 427)" fill="#737373"/>
<rect width="2" height="2" transform="translate(328 427)" fill="#737373"/>
<rect width="2" height="2" transform="translate(366 427)" fill="#737373"/>
<rect width="2" height="2" transform="translate(404 427)" fill="#737373"/>
<rect width="2" height="2" transform="translate(442 427)" fill="#737373"/>
<rect width="2" height="2" transform="translate(480 427)" fill="#737373"/>
<rect width="2" height="2" transform="translate(518 427)" fill="#737373"/>
<rect width="2" height="2" transform="translate(556 427)" fill="#737373"/>
<rect width="2" height="2" transform="translate(594 427)" fill="#737373"/>
<rect width="2" height="2" transform="translate(632 427)" fill="#737373"/>
<rect width="2" height="2" transform="translate(670 427)" fill="#737373"/>
<rect width="2" height="2" transform="translate(708 427)" fill="#737373"/>
<rect width="2" height="2" transform="translate(746 427)" fill="#737373"/>
<rect width="2" height="2" transform="translate(784 427)" fill="#737373"/>
<rect width="2" height="2" transform="translate(822 427)" fill="#737373"/>
<rect width="2" height="2" transform="translate(860 427)" fill="#737373"/>
<rect width="2" height="2" transform="translate(898 427)" fill="#737373"/>
<rect width="2" height="2" transform="translate(936 427)" fill="#737373"/>
<rect width="2" height="2" transform="translate(974 427)" fill="#737373"/>
<rect width="2" height="2" transform="translate(1012 427)" fill="#737373"/>
<rect width="2" height="2" transform="translate(1050 427)" fill="#737373"/>
<rect width="2" height="2" transform="translate(1088 427)" fill="#737373"/>
<rect width="2" height="2" transform="translate(1126 427)" fill="#737373"/>
<rect width="2" height="2" transform="translate(1164 427)" fill="#737373"/>
<rect width="2" height="2" transform="translate(1202 427)" fill="#737373"/>
<rect width="2" height="2" transform="translate(1240 427)" fill="#737373"/>
<rect width="2" height="2" transform="translate(1278 427)" fill="#737373"/>
<rect width="2" height="2" transform="translate(24 465)" fill="#737373"/>
<rect width="2" height="2" transform="translate(62 465)" fill="#737373"/>
<rect width="2" height="2" transform="translate(100 465)" fill="#737373"/>
<rect width="2" height="2" transform="translate(138 465)" fill="#737373"/>
<rect width="2" height="2" transform="translate(176 465)" fill="#737373"/>
<rect width="2" height="2" transform="translate(214 465)" fill="#737373"/>
<rect width="2" height="2" transform="translate(252 465)" fill="#737373"/>
<rect width="2" height="2" transform="translate(290 465)" fill="#737373"/>
<rect width="2" height="2" transform="translate(328 465)" fill="#737373"/>
<rect width="2" height="2" transform="translate(366 465)" fill="#737373"/>
<rect width="2" height="2" transform="translate(404 465)" fill="#737373"/>
<rect width="2" height="2" transform="translate(442 465)" fill="#737373"/>
<rect width="2" height="2" transform="translate(480 465)" fill="#737373"/>
<rect width="2" height="2" transform="translate(518 465)" fill="#737373"/>
<rect width="2" height="2" transform="translate(556 465)" fill="#737373"/>
<rect width="2" height="2" transform="translate(594 465)" fill="#737373"/>
<rect width="2" height="2" transform="translate(632 465)" fill="#737373"/>
<rect width="2" height="2" transform="translate(670 465)" fill="#737373"/>
<rect width="2" height="2" transform="translate(708 465)" fill="#737373"/>
<rect width="2" height="2" transform="translate(746 465)" fill="#737373"/>
<rect width="2" height="2" transform="translate(784 465)" fill="#737373"/>
<rect width="2" height="2" transform="translate(822 465)" fill="#737373"/>
<rect width="2" height="2" transform="translate(860 465)" fill="#737373"/>
<rect width="2" height="2" transform="translate(898 465)" fill="#737373"/>
<rect width="2" height="2" transform="translate(936 465)" fill="#737373"/>
<rect width="2" height="2" transform="translate(974 465)" fill="#737373"/>
<rect width="2" height="2" transform="translate(1012 465)" fill="#737373"/>
<rect width="2" height="2" transform="translate(1050 465)" fill="#737373"/>
<rect width="2" height="2" transform="translate(1088 465)" fill="#737373"/>
<rect width="2" height="2" transform="translate(1126 465)" fill="#737373"/>
<rect width="2" height="2" transform="translate(1164 465)" fill="#737373"/>
<rect width="2" height="2" transform="translate(1202 465)" fill="#737373"/>
<rect width="2" height="2" transform="translate(1240 465)" fill="#737373"/>
<rect width="2" height="2" transform="translate(1278 465)" fill="#737373"/>
<rect width="2" height="2" transform="translate(24 503)" fill="#737373"/>
<rect width="2" height="2" transform="translate(62 503)" fill="#737373"/>
<rect width="2" height="2" transform="translate(100 503)" fill="#737373"/>
<rect width="2" height="2" transform="translate(138 503)" fill="#737373"/>
<rect width="2" height="2" transform="translate(176 503)" fill="#737373"/>
<rect width="2" height="2" transform="translate(214 503)" fill="#737373"/>
<rect width="2" height="2" transform="translate(252 503)" fill="#737373"/>
<rect width="2" height="2" transform="translate(290 503)" fill="#737373"/>
<rect width="2" height="2" transform="translate(328 503)" fill="#737373"/>
<rect width="2" height="2" transform="translate(366 503)" fill="#737373"/>
<rect width="2" height="2" transform="translate(404 503)" fill="#737373"/>
<rect width="2" height="2" transform="translate(442 503)" fill="#737373"/>
<rect width="2" height="2" transform="translate(480 503)" fill="#737373"/>
<rect width="2" height="2" transform="translate(518 503)" fill="#737373"/>
<rect width="2" height="2" transform="translate(556 503)" fill="#737373"/>
<rect width="2" height="2" transform="translate(594 503)" fill="#737373"/>
<rect width="2" height="2" transform="translate(632 503)" fill="#737373"/>
<rect width="2" height="2" transform="translate(670 503)" fill="#737373"/>
<rect width="2" height="2" transform="translate(708 503)" fill="#737373"/>
<rect width="2" height="2" transform="translate(746 503)" fill="#737373"/>
<rect width="2" height="2" transform="translate(784 503)" fill="#737373"/>
<rect width="2" height="2" transform="translate(822 503)" fill="#737373"/>
<rect width="2" height="2" transform="translate(860 503)" fill="#737373"/>
<rect width="2" height="2" transform="translate(898 503)" fill="#737373"/>
<rect width="2" height="2" transform="translate(936 503)" fill="#737373"/>
<rect width="2" height="2" transform="translate(974 503)" fill="#737373"/>
<rect width="2" height="2" transform="translate(1012 503)" fill="#737373"/>
<rect width="2" height="2" transform="translate(1050 503)" fill="#737373"/>
<rect width="2" height="2" transform="translate(1088 503)" fill="#737373"/>
<rect width="2" height="2" transform="translate(1126 503)" fill="#737373"/>
<rect width="2" height="2" transform="translate(1164 503)" fill="#737373"/>
<rect width="2" height="2" transform="translate(1202 503)" fill="#737373"/>
<rect width="2" height="2" transform="translate(1240 503)" fill="#737373"/>
<rect width="2" height="2" transform="translate(1278 503)" fill="#737373"/>
<rect width="2" height="2" transform="translate(24 541)" fill="#737373"/>
<rect width="2" height="2" transform="translate(62 541)" fill="#737373"/>
<rect width="2" height="2" transform="translate(100 541)" fill="#737373"/>
<rect width="2" height="2" transform="translate(138 541)" fill="#737373"/>
<rect width="2" height="2" transform="translate(176 541)" fill="#737373"/>
<rect width="2" height="2" transform="translate(214 541)" fill="#737373"/>
<rect width="2" height="2" transform="translate(252 541)" fill="#737373"/>
<rect width="2" height="2" transform="translate(290 541)" fill="#737373"/>
<rect width="2" height="2" transform="translate(328 541)" fill="#737373"/>
<rect width="2" height="2" transform="translate(366 541)" fill="#737373"/>
<rect width="2" height="2" transform="translate(404 541)" fill="#737373"/>
<rect width="2" height="2" transform="translate(442 541)" fill="#737373"/>
<rect width="2" height="2" transform="translate(480 541)" fill="#737373"/>
<rect width="2" height="2" transform="translate(518 541)" fill="#737373"/>
<rect width="2" height="2" transform="translate(556 541)" fill="#737373"/>
<rect width="2" height="2" transform="translate(594 541)" fill="#737373"/>
<rect width="2" height="2" transform="translate(632 541)" fill="#737373"/>
<rect width="2" height="2" transform="translate(670 541)" fill="#737373"/>
<rect width="2" height="2" transform="translate(708 541)" fill="#737373"/>
<rect width="2" height="2" transform="translate(746 541)" fill="#737373"/>
<rect width="2" height="2" transform="translate(784 541)" fill="#737373"/>
<rect width="2" height="2" transform="translate(822 541)" fill="#737373"/>
<rect width="2" height="2" transform="translate(860 541)" fill="#737373"/>
<rect width="2" height="2" transform="translate(898 541)" fill="#737373"/>
<rect width="2" height="2" transform="translate(936 541)" fill="#737373"/>
<rect width="2" height="2" transform="translate(974 541)" fill="#737373"/>
<rect width="2" height="2" transform="translate(1012 541)" fill="#737373"/>
<rect width="2" height="2" transform="translate(1050 541)" fill="#737373"/>
<rect width="2" height="2" transform="translate(1088 541)" fill="#737373"/>
<rect width="2" height="2" transform="translate(1126 541)" fill="#737373"/>
<rect width="2" height="2" transform="translate(1164 541)" fill="#737373"/>
<rect width="2" height="2" transform="translate(1202 541)" fill="#737373"/>
<rect width="2" height="2" transform="translate(1240 541)" fill="#737373"/>
<rect width="2" height="2" transform="translate(1278 541)" fill="#737373"/>
</g>
</svg>
