<svg width="425" height="423" viewBox="0 0 425 423" fill="none" xmlns="http://www.w3.org/2000/svg">
<g opacity="0.6">
<rect x="250.521" y="132.817" width="48.1754" height="48.1754" rx="7.76381" fill="#E8E8E8"/>
<path fill-rule="evenodd" clip-rule="evenodd" d="M281.635 153.141H267.584C267.384 153.141 267.193 153.062 267.052 152.921C266.91 152.78 266.831 152.588 266.831 152.389C266.831 152.189 266.91 151.998 267.052 151.856C267.193 151.715 267.384 151.636 267.584 151.636H281.635C281.835 151.636 282.026 151.715 282.167 151.856C282.308 151.998 282.388 152.189 282.388 152.389C282.388 152.588 282.308 152.78 282.167 152.921C282.026 153.062 281.835 153.141 281.635 153.141ZM281.635 157.658H267.584C267.384 157.658 267.193 157.579 267.052 157.437C266.91 157.296 266.831 157.105 266.831 156.905C266.831 156.705 266.91 156.514 267.052 156.373C267.193 156.232 267.384 156.152 267.584 156.152H281.635C281.835 156.152 282.026 156.232 282.167 156.373C282.308 156.514 282.388 156.705 282.388 156.905C282.388 157.105 282.308 157.296 282.167 157.437C282.026 157.579 281.835 157.658 281.635 157.658ZM267.584 162.174H281.635C281.835 162.174 282.026 162.095 282.167 161.954C282.308 161.813 282.388 161.621 282.388 161.422C282.388 161.222 282.308 161.03 282.167 160.889C282.026 160.748 281.835 160.669 281.635 160.669H267.584C267.384 160.669 267.193 160.748 267.052 160.889C266.91 161.03 266.831 161.222 266.831 161.422C266.831 161.621 266.91 161.813 267.052 161.954C267.193 162.095 267.384 162.174 267.584 162.174Z" fill="#1C1C1C"/>
</g>
<g opacity="0.6">
<rect x="298.696" y="60.5542" width="48.1754" height="48.1754" rx="7.76381" fill="#E8E8E8"/>
<path fill-rule="evenodd" clip-rule="evenodd" d="M316.761 83.8883H319.772C320.371 83.8883 320.945 83.6504 321.369 83.2269C321.792 82.8034 322.03 82.229 322.03 81.6301V78.6191C322.03 78.0202 321.792 77.4458 321.369 77.0223C320.945 76.5988 320.371 76.3609 319.772 76.3609H316.761C316.162 76.3609 315.588 76.5988 315.164 77.0223C314.741 77.4458 314.503 78.0202 314.503 78.6191V81.6301C314.503 82.229 314.741 82.8034 315.164 83.2269C315.588 83.6504 316.162 83.8883 316.761 83.8883ZM316.232 78.0897C316.372 77.9491 316.562 77.869 316.761 77.8664H319.772C319.971 77.869 320.161 77.9491 320.302 78.0897C320.442 78.2303 320.522 78.4203 320.525 78.6191V81.6301C320.522 81.8289 320.442 82.0188 320.302 82.1595C320.161 82.3001 319.971 82.3802 319.772 82.3828H316.761C316.562 82.3802 316.372 82.3001 316.232 82.1595C316.091 82.0188 316.011 81.8289 316.008 81.6301V78.6191C316.011 78.4203 316.091 78.2303 316.232 78.0897ZM316.761 92.9212H319.772C320.371 92.9212 320.945 92.6833 321.369 92.2598C321.792 91.8363 322.03 91.2619 322.03 90.6629V87.652C322.03 87.0531 321.792 86.4787 321.369 86.0552C320.945 85.6317 320.371 85.3938 319.772 85.3938H316.761C316.162 85.3938 315.588 85.6317 315.164 86.0552C314.741 86.4787 314.503 87.0531 314.503 87.652V90.6629C314.503 91.2619 314.741 91.8363 315.164 92.2598C315.588 92.6833 316.162 92.9212 316.761 92.9212ZM316.232 87.1226C316.372 86.982 316.562 86.9018 316.761 86.8992H319.772C319.971 86.9018 320.161 86.982 320.302 87.1226C320.442 87.2632 320.522 87.4532 320.525 87.652V90.6629C320.522 90.8618 320.442 91.0517 320.302 91.1923C320.161 91.3329 319.971 91.4131 319.772 91.4157H316.761C316.562 91.4131 316.372 91.3329 316.232 91.1923C316.091 91.0517 316.011 90.8618 316.008 90.6629V87.652C316.011 87.4532 316.091 87.2632 316.232 87.1226ZM328.805 83.8883H325.794C325.195 83.8883 324.621 83.6504 324.197 83.2269C323.774 82.8034 323.536 82.229 323.536 81.6301V78.6191C323.536 78.0202 323.774 77.4458 324.197 77.0223C324.621 76.5988 325.195 76.3609 325.794 76.3609H328.805C329.404 76.3609 329.978 76.5988 330.402 77.0223C330.825 77.4458 331.063 78.0202 331.063 78.6191V81.6301C331.063 82.229 330.825 82.8034 330.402 83.2269C329.978 83.6504 329.404 83.8883 328.805 83.8883ZM325.794 77.8664C325.595 77.869 325.405 77.9491 325.265 78.0897C325.124 78.2303 325.044 78.4203 325.041 78.6191V81.6301C325.044 81.8289 325.124 82.0188 325.265 82.1595C325.405 82.3001 325.595 82.3802 325.794 82.3828H328.805C329.004 82.3802 329.194 82.3001 329.334 82.1595C329.475 82.0188 329.555 81.8289 329.558 81.6301V78.6191C329.555 78.4203 329.475 78.2303 329.334 78.0897C329.194 77.9491 329.004 77.869 328.805 77.8664H325.794ZM325.794 92.9212H328.805C329.404 92.9212 329.978 92.6833 330.402 92.2598C330.825 91.8363 331.063 91.2619 331.063 90.6629V87.652C331.063 87.0531 330.825 86.4787 330.402 86.0552C329.978 85.6317 329.404 85.3938 328.805 85.3938H325.794C325.195 85.3938 324.621 85.6317 324.197 86.0552C323.774 86.4787 323.536 87.0531 323.536 87.652V90.6629C323.536 91.2619 323.774 91.8363 324.197 92.2598C324.621 92.6833 325.195 92.9212 325.794 92.9212ZM325.265 87.1226C325.405 86.982 325.595 86.9018 325.794 86.8992H328.805C329.004 86.9018 329.194 86.982 329.334 87.1226C329.475 87.2632 329.555 87.4532 329.558 87.652V90.6629C329.555 90.8618 329.475 91.0517 329.334 91.1923C329.194 91.3329 329.004 91.4131 328.805 91.4157H325.794C325.595 91.4131 325.405 91.3329 325.265 91.1923C325.124 91.0517 325.044 90.8618 325.041 90.6629V87.652C325.044 87.4532 325.124 87.2632 325.265 87.1226Z" fill="#1C1C1C"/>
</g>
<g opacity="0.6">
<rect x="314.024" y="229.167" width="48.1754" height="48.1754" rx="7.76381" fill="#E8E8E8"/>
<path d="M337.201 262.791C337.121 262.805 337.04 262.805 336.96 262.791C336.786 262.738 336.634 262.63 336.527 262.484C336.42 262.337 336.364 262.159 336.368 261.978V261.867L337.271 255.494H332.915C332.768 255.494 332.624 255.454 332.499 255.378C332.373 255.302 332.271 255.193 332.203 255.063C332.126 254.932 332.085 254.783 332.085 254.631C332.085 254.479 332.126 254.33 332.203 254.199L334.21 250.697L338.325 244.153C338.416 243.998 338.558 243.88 338.725 243.816C338.893 243.752 339.077 243.747 339.248 243.802C339.422 243.854 339.574 243.962 339.681 244.109C339.788 244.255 339.844 244.433 339.84 244.615V244.725L338.937 251.098H343.303C343.45 251.098 343.594 251.138 343.72 251.214C343.845 251.29 343.948 251.399 344.016 251.53C344.092 251.661 344.133 251.81 344.133 251.961C344.133 252.113 344.092 252.262 344.016 252.393L342.008 255.896L337.893 262.439C337.818 262.552 337.714 262.644 337.593 262.706C337.472 262.767 337.337 262.796 337.201 262.791ZM334.029 253.949H338.044C338.155 253.95 338.264 253.973 338.366 254.017C338.468 254.06 338.56 254.123 338.637 254.203C338.715 254.282 338.776 254.375 338.817 254.478C338.858 254.581 338.878 254.691 338.877 254.802V254.912L338.285 259.067L340.794 255.053L342.239 252.563H338.225C338.114 252.562 338.005 252.539 337.903 252.495C337.801 252.452 337.709 252.389 337.631 252.309C337.554 252.23 337.493 252.137 337.452 252.034C337.411 251.931 337.39 251.821 337.392 251.71V251.6L337.984 247.445L335.475 251.459L334.029 253.949Z" fill="#1C1C1C"/>
</g>
<g opacity="0.6">
<rect x="250.521" y="272.963" width="48.1754" height="48.1754" rx="7.76381" fill="#E8E8E8"/>
<path fill-rule="evenodd" clip-rule="evenodd" d="M271.598 291.282C271.797 291.282 271.989 291.361 272.13 291.502C272.271 291.643 272.35 291.834 272.35 292.034C272.35 292.233 272.271 292.424 272.13 292.566L267.644 297.052L272.13 301.538C272.271 301.679 272.35 301.871 272.35 302.07C272.35 302.27 272.271 302.461 272.13 302.602C271.989 302.743 271.797 302.822 271.598 302.822C271.399 302.822 271.207 302.743 271.066 302.602L266.048 297.584C265.907 297.443 265.828 297.251 265.828 297.052C265.828 296.852 265.907 296.661 266.048 296.52L271.066 291.502C271.207 291.361 271.399 291.282 271.598 291.282ZM278.152 291.502L283.17 296.52C283.311 296.661 283.39 296.852 283.39 297.052C283.39 297.251 283.311 297.443 283.17 297.584L278.152 302.602C278.011 302.743 277.819 302.822 277.62 302.822C277.42 302.822 277.229 302.743 277.088 302.602C276.947 302.461 276.868 302.27 276.868 302.07C276.868 301.871 276.947 301.679 277.088 301.538L281.574 297.052L277.088 292.566C276.955 292.423 276.883 292.234 276.886 292.039C276.889 291.844 276.968 291.658 277.106 291.52C277.244 291.382 277.43 291.303 277.625 291.3C277.82 291.296 278.009 291.369 278.152 291.502Z" fill="#1C1C1C"/>
</g>
<g opacity="0.6">
<rect x="110.375" y="75.8823" width="48.1754" height="48.1754" rx="7.76381" fill="#E8E8E8"/>
<path d="M135.717 92.7333V92.4422C135.715 92.2434 135.635 92.0534 135.494 91.9128C135.353 91.7722 135.163 91.6921 134.965 91.6895C133.425 91.6984 131.915 92.1094 130.584 92.8817C129.253 93.654 128.146 94.7609 127.374 96.0926C126.602 97.4243 126.192 98.9346 126.184 100.474C126.175 102.013 126.569 103.528 127.327 104.867C127.394 104.981 127.489 105.075 127.603 105.14C127.718 105.205 127.847 105.239 127.979 105.239C128.11 105.239 128.238 105.204 128.351 105.138L128.642 104.988C129.397 106.046 130.406 106.898 131.575 107.465C132.745 108.032 134.038 108.297 135.337 108.234C136.635 108.172 137.898 107.785 139.008 107.108C140.118 106.432 141.04 105.487 141.691 104.362C142.341 103.236 142.699 101.965 142.731 100.666C142.762 99.3662 142.468 98.0793 141.873 96.9232C141.279 95.767 140.404 94.7785 139.328 94.0482C138.253 93.318 137.011 92.8693 135.717 92.7433V92.7333ZM134.212 93.2351V100.04L128.3 103.432C127.84 102.381 127.633 101.236 127.698 100.089C127.762 98.9433 128.096 97.8285 128.672 96.8353C129.247 95.8422 130.049 94.9987 131.012 94.3732C131.974 93.7477 133.071 93.3578 134.212 93.2351ZM134.965 106.744C133.99 106.742 133.03 106.513 132.159 106.075C131.288 105.638 130.531 105.005 129.946 104.225L135.336 101.124C135.453 101.06 135.55 100.966 135.617 100.851C135.684 100.736 135.719 100.605 135.717 100.471V94.2488C137.296 94.4495 138.74 95.243 139.756 96.4685C140.772 97.694 141.284 99.2599 141.188 100.849C141.092 102.438 140.396 103.931 139.24 105.025C138.085 106.12 136.556 106.735 134.965 106.744Z" fill="#1C1C1C"/>
</g>
<g opacity="0.6">
<rect x="62.1992" y="180.993" width="48.1754" height="48.1754" rx="7.76381" fill="#E8E8E8"/>
<path fill-rule="evenodd" clip-rule="evenodd" d="M84.1961 204.697C84.815 205.111 85.5427 205.331 86.2871 205.331C87.2853 205.331 88.2426 204.935 88.9484 204.229C89.6543 203.523 90.0508 202.566 90.0508 201.568C90.0508 200.823 89.8301 200.096 89.4165 199.477C89.0029 198.858 88.4151 198.375 87.7274 198.09C87.0397 197.806 86.2829 197.731 85.5528 197.876C84.8227 198.022 84.1521 198.38 83.6257 198.906C83.0994 199.433 82.7409 200.103 82.5957 200.833C82.4505 201.564 82.525 202.32 82.8099 203.008C83.0947 203.696 83.5771 204.284 84.1961 204.697ZM85.0325 199.69C85.4038 199.442 85.8404 199.309 86.2871 199.309C86.886 199.309 87.4604 199.547 87.8839 199.971C88.3074 200.394 88.5453 200.969 88.5453 201.568C88.5453 202.014 88.4129 202.451 88.1647 202.822C87.9166 203.194 87.5639 203.483 87.1513 203.654C86.7386 203.825 86.2846 203.87 85.8465 203.783C85.4085 203.695 85.0061 203.48 84.6903 203.164C84.3745 202.849 84.1594 202.446 84.0723 202.008C83.9851 201.57 84.0298 201.116 84.2008 200.704C84.3717 200.291 84.6611 199.938 85.0325 199.69ZM92.7833 212.134C92.9239 212.274 93.1139 212.354 93.3127 212.357C93.5115 212.354 93.7015 212.274 93.8421 212.134C93.9827 211.993 94.0628 211.803 94.0654 211.604C94.0654 206.837 88.6156 206.837 86.2871 206.837C83.9586 206.837 78.5088 206.837 78.5088 211.604C78.5088 211.804 78.5881 211.995 78.7293 212.137C78.8704 212.278 79.0619 212.357 79.2615 212.357C79.4612 212.357 79.6526 212.278 79.7938 212.137C79.935 211.995 80.0143 211.804 80.0143 211.604C80.0143 209.647 81.0781 208.342 86.2871 208.342C91.4961 208.342 92.56 209.647 92.56 211.604C92.5626 211.803 92.6427 211.993 92.7833 212.134Z" fill="#1C1C1C"/>
</g>
<g opacity="0.6">
<rect x="134.463" y="248.876" width="48.1754" height="48.1754" rx="7.76381" fill="#E8E8E8"/>
<path d="M158.551 281.746C158.455 281.745 158.36 281.728 158.27 281.696C155.544 280.487 153.264 278.457 151.747 275.889C150.23 273.322 149.553 270.345 149.809 267.374C149.818 267.206 149.883 267.047 149.994 266.921C150.105 266.795 150.256 266.711 150.421 266.681C153.135 266.271 155.771 265.452 158.24 264.253C158.337 264.208 158.443 264.185 158.551 264.185C158.658 264.185 158.764 264.208 158.862 264.253C161.331 265.452 163.967 266.271 166.68 266.681C166.846 266.711 166.996 266.795 167.107 266.921C167.218 267.047 167.284 267.206 167.293 267.374C167.549 270.345 166.871 273.322 165.355 275.889C163.838 278.457 161.557 280.487 158.832 281.696C158.741 281.728 158.646 281.745 158.551 281.746ZM151.284 268.056C151.135 270.572 151.748 273.075 153.045 275.237C154.342 277.398 156.26 279.118 158.551 280.17C160.841 279.118 162.76 277.398 164.056 275.237C165.353 273.075 165.967 270.572 165.817 268.056C163.301 267.629 160.855 266.856 158.551 265.758C156.246 266.856 153.801 267.629 151.284 268.056Z" fill="#1C1C1C"/>
</g>
<g opacity="0.6">
<rect x="62.1992" y="297.052" width="48.1754" height="48.1754" rx="7.76381" fill="#E8E8E8"/>
<path d="M83.2763 327.412C83.1752 327.409 83.0759 327.385 82.9844 327.342C82.8929 327.298 82.8112 327.237 82.7443 327.161L77.726 322.143C77.6304 322.081 77.55 321.998 77.4911 321.9C77.4322 321.803 77.3962 321.693 77.3859 321.579C77.3756 321.466 77.3912 321.351 77.4316 321.245C77.472 321.138 77.5361 321.042 77.619 320.964C77.702 320.886 77.8016 320.827 77.9104 320.793C78.0192 320.759 78.1344 320.75 78.2471 320.767C78.3599 320.784 78.4674 320.826 78.5614 320.891C78.6554 320.955 78.7336 321.04 78.7899 321.139L83.2763 325.596L93.7845 315.117C93.926 315.026 94.0942 314.984 94.2621 314.999C94.43 315.015 94.5879 315.086 94.7106 315.201C94.8332 315.317 94.9135 315.471 94.9385 315.637C94.9634 315.804 94.9317 315.974 94.8484 316.121L83.8082 327.161C83.7413 327.237 83.6596 327.298 83.5681 327.342C83.4767 327.385 83.3773 327.409 83.2763 327.412Z" fill="#1C1C1C"/>
</g>
<rect x="165.652" y="152.353" width="106.394" height="106.394" rx="15.7173" fill="#FF6515"/>
<path d="M215.36 225C215.36 227.392 213.429 229.323 211.037 229.323C208.646 229.323 206.715 227.392 206.715 225C206.715 222.609 208.646 220.678 211.037 220.678C213.429 220.678 215.36 222.609 215.36 225ZM229.767 220.678C227.376 220.678 225.445 222.609 225.445 225C225.445 227.392 227.376 229.323 229.767 229.323C232.159 229.323 234.089 227.392 234.089 225C234.089 222.609 232.159 220.678 229.767 220.678ZM242.676 193.102L236.913 216.154C236.683 217.105 235.818 217.797 234.81 217.797H205.995C204.957 217.797 204.064 217.047 203.862 216.01L198.416 186.1H194.469C193.287 186.1 192.308 185.12 192.308 183.939C192.308 182.758 193.287 181.778 194.469 181.778H200.232C201.269 181.778 202.162 182.527 202.364 183.564L203.603 190.422H240.573C241.236 190.422 241.87 190.739 242.273 191.258C242.676 191.777 242.82 192.468 242.676 193.102ZM237.807 194.745H204.381L207.781 213.474H233.11L237.807 194.745Z" fill="#1C1C1C"/>
</svg>
