<svg width="14" height="14" fill="currentColor">
  <path d="M6.795.856a.5.5 0 0 1 .404 0 .55.55 0 0 1 .17.113l1.767 1.768a.534.534 0 0 1 0 .749.525.525 0 0 1-.375.155.525.525 0 0 1-.375-.155l-.862-.862v3.845h3.846l-.863-.862a.533.533 0 0 1 0-.749.533.533 0 0 1 .75 0l1.767 1.768c.05.049.085.105.113.169a.501.501 0 0 1 0 .403l.007.007a.548.548 0 0 1-.112.17l-1.768 1.767a.525.525 0 0 1-.375.155.525.525 0 0 1-.375-.155.534.534 0 0 1 0-.749l.864-.863H7.53v3.847l.862-.864a.534.534 0 0 1 .75 0 .534.534 0 0 1 0 .75l-1.767 1.768a.552.552 0 0 1-.375.155.55.55 0 0 1-.375-.155l-1.767-1.768a.534.534 0 0 1 0-.75.534.534 0 0 1 .749 0l.862.864V7.53H2.625l.862.863a.533.533 0 0 1 0 .75.525.525 0 0 1-.375.154.524.524 0 0 1-.374-.155L.97 7.375a.55.55 0 0 1-.113-.17.5.5 0 0 1 0-.403.55.55 0 0 1 .113-.17l1.768-1.767a.533.533 0 0 1 .749 0 .533.533 0 0 1 0 .749l-.862.863H6.47V2.624l-.862.862a.533.533 0 0 1-.749 0 .533.533 0 0 1 0-.75L6.626.97a.55.55 0 0 1 .17-.113Z"/>
</svg>
