<svg width="14" height="14" fill="currentColor">
  <path d="M10.535.813a.538.538 0 0 1 .53.53v10.783h.354a.53.53 0 1 1 0 1.06H2.58a.53.53 0 0 1 0-1.06h.354V1.344a.538.538 0 0 1 .53-.53h7.07Zm-6.54 1.061v10.252h.884v-1.59a.354.354 0 0 1 .353-.354h.707a.354.354 0 0 1 .354.353v1.591h3.712V1.874h-6.01ZM5.94 7.707c.196 0 .354.158.354.354v.707a.354.354 0 0 1-.354.353h-.707a.354.354 0 0 1-.353-.353V8.06c0-.196.158-.354.353-.354h.707Zm2.829 0c.195 0 .353.158.353.354v.707a.354.354 0 0 1-.353.353H8.06a.354.354 0 0 1-.354-.353V8.06c0-.196.158-.354.354-.354h.707Zm-2.83-2.475c.196 0 .354.159.354.354v.707a.354.354 0 0 1-.354.353h-.707a.354.354 0 0 1-.353-.353v-.707c0-.195.158-.354.353-.354h.707Zm2.829 0c.195 0 .353.159.353.354v.707a.354.354 0 0 1-.353.353H8.06a.354.354 0 0 1-.354-.353v-.707c0-.195.158-.354.354-.354h.707ZM5.939 2.758c.196 0 .354.158.354.353v.707a.354.354 0 0 1-.354.354h-.707a.354.354 0 0 1-.353-.354v-.707c0-.195.158-.353.353-.353h.707Zm2.829 0c.195 0 .353.158.353.353v.707a.354.354 0 0 1-.353.354H8.06a.354.354 0 0 1-.354-.354v-.707c0-.195.158-.353.354-.353h.707Z"/>
</svg>
