<svg width="14" height="14" fill="currentColor">
  <path d="M11.949 12.117a.53.53 0 0 1 0 1.06H2.05a.53.53 0 0 1 0-1.06h9.898ZM2.759 6.46a.53.53 0 0 1 .53.53v3.535a.53.53 0 0 1-1.06 0V6.991a.53.53 0 0 1 .53-.53Zm2.827 0a.53.53 0 0 1 .53.53v3.535a.53.53 0 0 1-1.06 0V6.991a.53.53 0 0 1 .53-.53Zm2.828 0a.53.53 0 0 1 .53.53v3.535a.53.53 0 0 1-1.06 0V6.991a.53.53 0 0 1 .53-.53Zm2.828 0a.53.53 0 0 1 .53.53v3.535a.53.53 0 0 1-1.06 0V6.991a.53.53 0 0 1 .53-.53ZM8.414 4.339a.53.53 0 0 1 0 1.061H5.586a.53.53 0 0 1 0-1.06h2.828ZM6.399 1.062a1.238 1.238 0 0 1 1.202 0l6.02 3.345a.53.53 0 1 1-.516.927l-6.02-3.345a.178.178 0 0 0-.171 0L.894 5.334a.53.53 0 0 1-.515-.927L6.4 1.062Z"/>
</svg>
