<svg width="14" height="14" fill="currentColor">
  <path d="M8.364 1.894a1.952 1.952 0 0 1 1.62.862l.833 1.237h.425a1.946 1.946 0 0 1 1.944 1.945v4.242a1.945 1.945 0 0 1-1.944 1.944H2.758A1.945 1.945 0 0 1 .813 10.18V5.938a1.944 1.944 0 0 1 1.945-1.945h.425l.834-1.237a1.953 1.953 0 0 1 1.619-.862h2.728ZM5.636 2.933a.88.88 0 0 0-.707.396L3.903 4.82a.533.533 0 0 1-.438.234h-.707a.885.885 0 0 0-.884.883v4.243a.884.884 0 0 0 .884.883h8.484a.885.885 0 0 0 .884-.883V5.938a.885.885 0 0 0-.884-.884h-.707a.53.53 0 0 1-.438-.234L9.12 3.33a.877.877 0 0 0-.707-.397H5.636Zm.916 2.518a2.298 2.298 0 0 1 2.746 2.254A2.306 2.306 0 0 1 7 10.003a2.298 2.298 0 0 1-.448-4.552ZM7 6.468a1.238 1.238 0 1 0 1.237 1.237A1.245 1.245 0 0 0 7 6.468Z"/>
</svg>
