<svg width="14" height="14" fill="currentColor">
  <path d="M10.535.106c.877 0 1.59.715 1.591 1.591v10.606c0 .876-.714 1.59-1.59 1.59H3.464c-.877 0-1.59-.714-1.591-1.59V1.697c0-.876.714-1.59 1.59-1.59h7.071Zm-7.07 1.061c-.29 0-.53.24-.53.53v10.606c0 .29.24.53.53.53h7.07c.29 0 .53-.24.53-.53V1.697c0-.29-.24-.53-.53-.53h-7.07Zm3.889 8.838a.35.35 0 0 1 .353.353v.707a.35.35 0 0 1-.353.354H4.525a.35.35 0 0 1-.353-.354v-.707a.35.35 0 0 1 .353-.353h2.829Zm2.12 0a.35.35 0 0 1 .354.353v.707a.35.35 0 0 1-.353.354h-.707a.35.35 0 0 1-.354-.354v-.707a.35.35 0 0 1 .354-.353h.707ZM5.233 7.707a.35.35 0 0 1 .354.354v.707a.35.35 0 0 1-.354.353h-.707a.35.35 0 0 1-.353-.353V8.06a.35.35 0 0 1 .353-.354h.707Zm2.122 0a.35.35 0 0 1 .353.354v.707a.35.35 0 0 1-.353.353h-.708a.35.35 0 0 1-.353-.353V8.06a.35.35 0 0 1 .353-.354h.708Zm2.12 0a.35.35 0 0 1 .354.354v.707a.35.35 0 0 1-.353.353h-.707a.35.35 0 0 1-.354-.353V8.06a.35.35 0 0 1 .354-.354h.707ZM5.233 5.409a.35.35 0 0 1 .354.354v.707a.35.35 0 0 1-.354.353h-.707a.35.35 0 0 1-.353-.353v-.707a.35.35 0 0 1 .353-.354h.707Zm2.122 0a.35.35 0 0 1 .353.354v.707a.35.35 0 0 1-.353.353h-.708a.35.35 0 0 1-.353-.353v-.707a.35.35 0 0 1 .353-.354h.708Zm2.12 0a.35.35 0 0 1 .354.354v.707a.35.35 0 0 1-.353.353h-.707a.35.35 0 0 1-.354-.353v-.707a.35.35 0 0 1 .354-.354h.707Zm0-2.828a.35.35 0 0 1 .354.354v1.06a.35.35 0 0 1-.353.354h-4.95a.35.35 0 0 1-.353-.354v-1.06a.35.35 0 0 1 .353-.354h4.95Z"/>
</svg>
