<svg width="14" height="14" fill="currentColor">
  <path d="M7.549.813c.78 0 1.442.513 1.667 1.22h.612c1.074 0 1.945.87 1.945 1.944v7.265a1.944 1.944 0 0 1-1.945 1.944H4.172a1.945 1.945 0 0 1-1.944-1.944V3.977c0-1.074.87-1.945 1.944-1.945h.612A1.75 1.75 0 0 1 6.451.813H7.55Zm-3.377 2.28a.884.884 0 0 0-.884.884v7.265c0 .488.396.884.884.884h5.656a.884.884 0 0 0 .884-.884V3.977a.884.884 0 0 0-.884-.884h-.53v.965a.602.602 0 0 1-.6.601H5.303a.602.602 0 0 1-.602-.601v-.965h-.53Zm2.28-1.219a.689.689 0 0 0-.69.688V3.6h2.475V2.562a.689.689 0 0 0-.688-.688H6.45Z"/>
</svg>
