<svg width="14" height="14" fill="currentColor">
  <path d="M6.999.813a1.571 1.571 0 0 1 1.556 1.584.367.367 0 0 0 .198.311.353.353 0 0 0 .367-.077c.294-.291.69-.457 1.104-.46a1.506 1.506 0 0 1 1.117.445 1.57 1.57 0 0 1 0 2.22.413.413 0 0 0-.078.39.425.425 0 0 0 .339.218A1.606 1.606 0 0 1 13.185 7a1.569 1.569 0 0 1-1.583 1.556.368.368 0 0 0-.311.197.354.354 0 0 0 .077.368c.291.294.457.69.46 1.103a1.557 1.557 0 0 1-.445 1.117 1.572 1.572 0 0 1-1.711.34 1.569 1.569 0 0 1-.509-.34.355.355 0 0 0-.368-.078.397.397 0 0 0-.197.34 1.605 1.605 0 0 1-1.556 1.584 1.572 1.572 0 0 1-1.563-1.585.34.34 0 0 0-.205-.296.362.362 0 0 0-.396.063 1.584 1.584 0 0 1-2.22.014 1.568 1.568 0 0 1 0-2.22.354.354 0 0 0 .1-.367.398.398 0 0 0-.34-.198A1.605 1.605 0 0 1 .82 7.042a1.57 1.57 0 0 1 1.576-1.563.34.34 0 0 0 .297-.205.36.36 0 0 0-.063-.395 1.584 1.584 0 0 1-.46-1.103 1.557 1.557 0 0 1 .446-1.117 1.57 1.57 0 0 1 2.22 0 .41.41 0 0 0 .389.099.424.424 0 0 0 .22-.339A1.606 1.606 0 0 1 6.998.813Zm.008 1.054a.531.531 0 0 0-.495.544 1.486 1.486 0 0 1-.863 1.309 1.45 1.45 0 0 1-1.555-.305.5.5 0 1 0-.707.707 1.415 1.415 0 0 1 .29 1.542 1.415 1.415 0 0 1-1.273.87.524.524 0 0 0-.53.501.537.537 0 0 0 .544.495 1.457 1.457 0 0 1 1.308.834 1.414 1.414 0 0 1-.304 1.541.502.502 0 0 0 .162.816.5.5 0 0 0 .545-.109c.269-.256.626-.4.997-.402.187-.002.373.036.544.112a1.416 1.416 0 0 1 .87 1.274.523.523 0 0 0 .502.53.539.539 0 0 0 .495-.545 1.458 1.458 0 0 1 .834-1.308 1.415 1.415 0 0 1 1.541.304.5.5 0 1 0 .707-.707 1.414 1.414 0 0 1-.297-1.54 1.414 1.414 0 0 1 1.287-.835.516.516 0 0 0 .523-.495.53.53 0 0 0-.544-.495 1.487 1.487 0 0 1-1.308-.862 1.45 1.45 0 0 1 .304-1.556.5.5 0 1 0-.707-.707 1.416 1.416 0 0 1-2.126-.233 1.414 1.414 0 0 1-.25-.756.517.517 0 0 0-.494-.524Zm-.411 3.1a2.072 2.072 0 1 1 .806 4.065 2.072 2.072 0 0 1-.806-4.064Zm.403 1.022a1.011 1.011 0 1 0-.001 2.022 1.011 1.011 0 0 0 .001-2.022Z"/>
</svg>
