<svg width="14" height="14" fill="currentColor">
  <path d="M5.3 1.09a4.583 4.583 0 0 1 4.116 1.235c.414.42.745.914.976 1.457.044.104.082.21.118.318.198.139.386.292.56.459.416.418.748.913.976 1.457.24.563.363 1.17.36 1.781a4.69 4.69 0 0 1-.283 1.591l.884 2.913a.532.532 0 0 1-.508.707h-.022a.59.59 0 0 1-.155 0l-2.913-.884a4.54 4.54 0 0 1-5.582-2.062l-2.153.669a.587.587 0 0 1-.402-.034.532.532 0 0 1-.262-.652l.884-2.913a4.694 4.694 0 0 1-.283-1.548 4.497 4.497 0 0 1 .36-1.774A4.584 4.584 0 0 1 5.3 1.09Zm5.426 4.894a4.568 4.568 0 0 1-.334 1.333 4.708 4.708 0 0 1-.976 1.456 4.582 4.582 0 0 1-4.386 1.19c.088.12.183.236.286.344a3.535 3.535 0 0 0 3.846.749.531.531 0 0 1 .36 0l2.121.65-.65-2.12a.533.533 0 0 1 0-.361c.183-.431.276-.896.275-1.364a3.486 3.486 0 0 0-.542-1.877ZM6.178 2.049a3.465 3.465 0 0 0-1.364.276A3.537 3.537 0 0 0 2.947 4.17a3.536 3.536 0 0 0 0 2.737.53.53 0 0 1 0 .36l-.65 2.121 2.12-.65a.532.532 0 0 1 .362 0A3.535 3.535 0 0 0 9.38 6.87a3.538 3.538 0 0 0-3.202-4.82Z"/>
</svg>
