<svg width="14" height="14" fill="currentColor">
  <path d="M9.022.813a.53.53 0 0 1 0 1.061H2.758a.884.884 0 0 0-.884.884v8.484a.885.885 0 0 0 .884.884h8.484a.885.885 0 0 0 .884-.884V5.791a.53.53 0 1 1 1.06 0v5.451a1.944 1.944 0 0 1-1.944 1.944H2.758a1.946 1.946 0 0 1-1.945-1.944V2.758A1.945 1.945 0 0 1 2.758.813h6.264Zm3.246 1.194a.53.53 0 0 1 .388.75L6.293 9.122a.524.524 0 0 1-.354.177.524.524 0 0 1-.353-.177L3.465 7a.531.531 0 0 1 .707-.707l1.746 1.746 6.031-5.988a.531.531 0 0 1 .319-.044Z"/>
</svg>
