<svg width="14" height="14" fill="currentColor">
  <path d="M7 .46c1.83.06 3.629.49 5.288 1.266a1.232 1.232 0 0 1 .707 1.124v8.3a1.23 1.23 0 0 1-.707 1.124A13.552 13.552 0 0 1 7 13.54c-1.83-.06-3.629-.49-5.288-1.266a1.232 1.232 0 0 1-.707-1.124v-8.3a1.23 1.23 0 0 1 .707-1.124A13.554 13.554 0 0 1 7 .46Zm4.95 8.081A13.18 13.18 0 0 1 7 9.651a13.18 13.18 0 0 1-4.95-1.11v2.61a.183.183 0 0 0 .1.162A12.491 12.491 0 0 0 7 12.479a12.416 12.416 0 0 0 4.843-1.166.177.177 0 0 0 .106-.163V8.541Zm0-3.888A13.18 13.18 0 0 1 7 5.763a13.18 13.18 0 0 1-4.95-1.11v2.729A12.56 12.56 0 0 0 7 8.598c1.715-.063 3.4-.477 4.95-1.216V4.653ZM7 1.521a12.415 12.415 0 0 0-4.843 1.167.178.178 0 0 0-.106.141v.636A12.547 12.547 0 0 0 7 4.682c1.715-.063 3.4-.478 4.95-1.217V2.85a.185.185 0 0 0-.1-.163A12.492 12.492 0 0 0 7 1.522Z"/>
</svg>
