<svg width="14" height="14" fill="currentColor">
  <path d="M7 .813a.531.531 0 0 1 .53.53v.885h2.298a.53.53 0 0 1 0 1.06H7.53V6.47h.53a2.83 2.83 0 0 1 3.005 2.651 2.828 2.828 0 0 1-3.004 2.652h-.53v.883a.538.538 0 0 1-.531.53.538.538 0 0 1-.53-.53v-.883H3.465a.531.531 0 0 1 0-1.061H6.47V7.53h-.53a2.83 2.83 0 0 1-2.053-.7 2.829 2.829 0 0 1-.952-1.951 2.828 2.828 0 0 1 3.004-2.651h.53v-.884A.531.531 0 0 1 7 .814ZM8.06 7.53h-.53v3.182h.53a1.796 1.796 0 0 0 1.945-1.59A1.796 1.796 0 0 0 8.06 7.53ZM5.94 3.288a1.796 1.796 0 0 0-1.945 1.59A1.798 1.798 0 0 0 5.94 6.47h.53V3.288h-.53Z"/>
</svg>
