<svg width="14" height="14" fill="currentColor">
  <path d="M2.762 2.24a.53.53 0 0 1 .37.143l8.484 8.484a.53.53 0 0 1-.749.75l-.764-.765a5.607 5.607 0 0 1-3.103.92c-4.121 0-6.059-4.375-6.145-4.56a.54.54 0 0 1 0-.417 9.306 9.306 0 0 1 2.178-3.012l-.65-.651a.53.53 0 0 1 .379-.892Zm1.02 2.292A8.485 8.485 0 0 0 1.931 7c.417.807 2.107 3.71 5.069 3.71a4.586 4.586 0 0 0 2.34-.621L8.2 8.95a2.292 2.292 0 0 1-3.153-3.153L3.782 4.532ZM7 2.228c4.12 0 6.058 4.371 6.145 4.56a.552.552 0 0 1 0 .445 9.492 9.492 0 0 1-1.132 1.831.53.53 0 1 1-.834-.65c.338-.444.636-.917.89-1.414C11.651 6.187 9.954 3.288 7 3.288c-.318 0-.636.034-.947.099a.531.531 0 0 1-.226-1.033A5.423 5.423 0 0 1 7 2.228ZM5.839 6.59a1.23 1.23 0 0 0 .284 1.321 1.28 1.28 0 0 0 1.28.283L5.84 6.625V6.59Z"/>
</svg>
