<svg width="14" height="14" fill="currentColor">
  <path d="M7.354.813a.53.53 0 0 1 .375.156l3.888 3.888a.53.53 0 0 1 .155.375v6.01c0 1.075-.87 1.944-1.944 1.944H4.172a1.944 1.944 0 0 1-1.944-1.944V2.758c0-1.075.87-1.944 1.944-1.945h3.182ZM4.172 1.874a.884.884 0 0 0-.884.884v8.484c0 .488.396.884.884.884h5.656a.885.885 0 0 0 .884-.884v-5.48H7.354c-.29 0-.53-.24-.53-.53V1.874H4.171Zm5.436 4.978a.526.526 0 0 1 .354.657h.021l-1.06 3.535a.531.531 0 0 1-.487.375h-.022a.54.54 0 0 1-.495-.333L7 8.78l-.919 2.305a.522.522 0 0 1-.517.333.538.538 0 0 1-.487-.375l-1.06-3.535a.528.528 0 0 1 1.01-.304l.622 2.078.85-2.128c.162-.403.826-.402.981 0l.85 2.128.621-2.078a.526.526 0 0 1 .657-.353Zm-1.724-2.15h2.078L7.884 2.623v2.08Z"/>
</svg>
