<svg width="14" height="14" fill="currentColor">
  <path d="M8.944.813a.53.53 0 0 1 .375.157l3.888 3.887a.531.531 0 0 1 .156.375v6.01c0 1.075-.87 1.944-1.944 1.944H6.116a1.943 1.943 0 0 1-1.944-1.944v-.707c0-.29.24-.53.53-.53.29 0 .53.24.53.53v.707c0 .488.396.884.884.884h5.303a.884.884 0 0 0 .884-.884v-5.48H8.944c-.29 0-.53-.24-.53-.53V1.874H6.116a.884.884 0 0 0-.884.884v3.535c0 .29-.24.53-.53.53-.29 0-.53-.24-.53-.53V2.758c0-1.075.87-1.945 1.944-1.945h2.828Zm-2.85 5.105a.534.534 0 0 1 .75 0l2.122 2.121c.05.05.084.106.112.17a.5.5 0 0 1 0 .403.548.548 0 0 1-.112.17l-2.121 2.12a.526.526 0 0 1-.75 0 .534.534 0 0 1 0-.749l1.21-1.209H1.167c-.29 0-.53-.24-.53-.53 0-.29.24-.53.53-.53h6.145L6.095 6.668a.534.534 0 0 1 0-.75Zm3.38-1.216h2.079L9.475 2.624v2.078Z"/>
</svg>
