<svg width="14" height="14" fill="currentColor">
  <path d="M4.879 1.874a.53.53 0 0 1 .402.186l1.963 2.289h3.645c1.07 0 1.944.873 1.944 1.944v3.889c0 1.07-.874 1.944-1.944 1.944H3.11a1.949 1.949 0 0 1-1.944-1.944V3.818c0-1.07.874-1.944 1.944-1.944h1.77ZM3.11 2.934a.888.888 0 0 0-.883.884v6.364c0 .484.399.883.883.883h7.778a.888.888 0 0 0 .884-.883V6.293c0-.485-.4-.884-.884-.884H7a.53.53 0 0 1-.402-.185l-1.963-2.29H3.11ZM7 6.117a.53.53 0 0 1 .53.53v.884h.884a.53.53 0 0 1 0 1.06H7.53v.885a.53.53 0 0 1-1.06 0V8.59h-.884a.53.53 0 0 1 0-1.06h.884v-.885a.53.53 0 0 1 .53-.53Z"/>
</svg>
