<svg width="14" height="14" fill="currentColor">
  <path d="M7.332.813c.14 0 .276.056.375.156l3.91 3.91c.094.094.15.22.155.353v6.01a1.945 1.945 0 0 1-1.944 1.944H4.172a1.946 1.946 0 0 1-1.944-1.944V2.758A1.945 1.945 0 0 1 4.172.813h3.16Zm-3.16 1.061a.884.884 0 0 0-.884.884v8.484a.885.885 0 0 0 .884.884h5.656a.885.885 0 0 0 .884-.884v-5.48H7.354a.538.538 0 0 1-.53-.53V1.874H4.171ZM5.63 6.809A.547.547 0 0 1 6.003 7L7 8.272l.997-1.25a.544.544 0 0 1 .75-.085.545.545 0 0 1 .112.77L7.707 9.121l1.124 1.414a.53.53 0 0 1-.417.905.546.546 0 0 1-.417-.198L7 9.97l-.997 1.23a.535.535 0 0 1-.947-.272.534.534 0 0 1 .113-.393l1.124-1.414-1.124-1.414a.547.547 0 0 1 .462-.898Zm2.253-2.107h2.078L7.884 2.623v2.08Z"/>
</svg>
