<svg width="14" height="14" fill="currentColor">
  <path d="M11.398.828a.532.532 0 0 1 .388.643l-.544 2.17h2.121a.531.531 0 0 1 0 1.061H10.98L9.829 9.298h2.121a.53.53 0 0 1 0 1.06H9.51l-.607 2.425a.532.532 0 0 1-1.032-.255l.544-2.17h-4.56l-.608 2.425a.532.532 0 0 1-1.032-.255l.544-2.17H.637a.531.531 0 0 1 0-1.06H3.02l1.152-4.596H2.05a.531.531 0 0 1 0-1.06h2.41l.64-2.425a.533.533 0 0 1 1.032.254l-.545 2.17h4.56l.608-2.424a.533.533 0 0 1 .644-.389ZM5.324 4.702 4.172 9.298h4.504l1.152-4.596H5.324Z"/>
</svg>
