<svg width="14" height="14" fill="currentColor">
  <path d="M11.419.813c.29 0 .53.241.53.53 0 .29-.24.53-.53.531h-.467c-.268.962-1.095 3.351-3.11 5.126 2.015 1.775 2.842 4.165 3.11 5.126h.467c.29 0 .53.24.53.53 0 .29-.24.53-.53.53H2.58c-.29 0-.53-.24-.53-.53 0-.29.24-.53.53-.53h.467c.27-.961 1.097-3.351 3.112-5.126-2.015-1.775-2.842-4.164-3.111-5.126H2.58c-.29 0-.53-.24-.53-.53 0-.29.24-.53.53-.53h8.838ZM7 7.686c-1.71 1.435-2.524 3.436-2.842 4.44h5.684C9.524 11.122 8.71 9.128 7 7.686ZM4.15 1.874c.319 1.004 1.132 2.998 2.843 4.44 1.711-1.435 2.524-3.436 2.842-4.44H4.15Z"/>
</svg>
