<svg width="14" height="14" fill="currentColor">
  <path d="M7.001 1.52c.115 0 .227.038.319.107l5.655 4.242a.53.53 0 0 1 .107.707.523.523 0 0 1-.424.247.524.524 0 0 1-.319-.106l-.565-.424v5.656a.538.538 0 0 1-.53.53H2.759a.538.538 0 0 1-.53-.53V6.293l-.565.424A.532.532 0 0 1 .92 6.61a.531.531 0 0 1 .106-.742l5.656-4.242A.531.531 0 0 1 7 1.52ZM3.29 5.499v5.92h1.767V7a.538.538 0 0 1 .53-.53h2.829a.538.538 0 0 1 .53.53v4.419h1.767V5.498L7.001 2.716 3.29 5.498Zm2.828 5.92h1.767V7.53H6.118v3.889Z"/>
</svg>
