<svg width="14" height="14" fill="currentColor">
  <path d="M4.666 1.385c.92-.042 3.748-.042 4.667 0a3.33 3.33 0 0 1 2.369.934 3.33 3.33 0 0 1 .912 2.368l.023.967c.016 1.226.008 2.99-.023 3.678a3.33 3.33 0 0 1-.912 2.369 3.33 3.33 0 0 1-2.369.912c-.933.056-3.733.056-4.667 0a3.344 3.344 0 0 1-2.368-.912 3.33 3.33 0 0 1-.912-2.369c-.042-.919-.042-3.746 0-4.666a3.332 3.332 0 0 1 .912-2.369 3.345 3.345 0 0 1 2.368-.912Zm5.671 1.202A12.732 12.732 0 0 0 7 2.361a12.663 12.663 0 0 0-3.329.226A1.875 1.875 0 0 0 2.595 3.67c-.297.743-.233 2.517-.233 3.337 0 .82-.064 2.588.233 3.337a1.91 1.91 0 0 0 1.075 1.075c1.095.222 2.215.298 3.33.226a12.71 12.71 0 0 0 3.337-.226 1.91 1.91 0 0 0 1.075-1.075v-.007c.296-.742.226-2.516.226-3.337 0-.82.07-2.587-.226-3.336a1.912 1.912 0 0 0-1.075-1.076ZM7 4.1a2.894 2.894 0 0 1 2.41 4.51A2.9 2.9 0 1 1 7 4.1Zm.723 1.155a1.889 1.889 0 1 0-1.445 3.49 1.889 1.889 0 0 0 1.445-3.49Zm2.269-1.982a.708.708 0 1 1 0 1.416.708.708 0 0 1 0-1.416Z"/>
</svg>
