<svg width="14" height="14" fill="currentColor">
  <path d="M6.59 2.756a2.827 2.827 0 0 1 2 .849 3.004 3.004 0 0 1-.106 4.241l-.89.892a.53.53 0 1 1-.75-.75l.863-.92a1.93 1.93 0 0 0 .099-2.714 1.958 1.958 0 0 0-2.687.107L2.482 7.132a1.938 1.938 0 0 0-.106 2.695 1.769 1.769 0 0 0 1.414.502.523.523 0 0 1 .572.473.53.53 0 0 1-.473.58l-.261.036a2.83 2.83 0 0 1-2.001-.82 2.992 2.992 0 0 1 .105-4.208l2.659-2.68a3.14 3.14 0 0 1 2.199-.954Zm3.52-.141a2.83 2.83 0 0 1 2.263.785 2.99 2.99 0 0 1-.105 4.206l-2.66 2.68a3.139 3.139 0 0 1-2.198.955 2.83 2.83 0 0 1-2-.849 3.006 3.006 0 0 1 .106-4.242l.89-.89a.53.53 0 1 1 .75.748l-.863.92a1.932 1.932 0 0 0-.099 2.714 1.959 1.959 0 0 0 2.687-.105l2.665-2.673a1.937 1.937 0 0 0 .078-2.694 1.768 1.768 0 0 0-1.414-.501.524.524 0 0 1-.573-.474.531.531 0 0 1 .473-.58Z"/>
</svg>
