<svg width="14" height="14" fill="currentColor">
  <path d="M4.427 9.707c.29.035.494.297.459.587v.105c0 .488.41.884.919.884a.915.915 0 0 0 .877-.629.53.53 0 1 1 1.01.318l-.006.008a1.97 1.97 0 0 1-1.888 1.372c-1.089 0-1.98-.877-1.98-1.945 0-.077 0-.162.015-.24a.533.533 0 0 1 .594-.46Zm6.935-8.053c.714 0 1.294.58 1.294 1.294v7.664c0 .714-.58 1.294-1.294 1.294h-.947c-.714 0-1.294-.58-1.294-1.294v-.318L2.404 8.852v.445c0 .29-.24.53-.53.53-.29 0-.53-.24-.53-.53v-4.95c0-.289.24-.53.53-.53.29 0 .53.24.53.53v.362l6.717-1.442v-.319c0-.714.58-1.294 1.294-1.294h.947Zm-.947 1.06a.236.236 0 0 0-.233.234v7.664c0 .127.106.234.233.234h.947a.236.236 0 0 0 .234-.234V2.948a.236.236 0 0 0-.234-.233h-.947ZM2.405 5.79v1.973L9.12 9.205V4.348L2.404 5.79Z"/>
</svg>
