<svg width="14" height="14" fill="currentColor">
  <path d="M9.828.813a.53.53 0 0 1 .53.53v.885h.177c.683 0 1.237.554 1.238 1.237v.177h.883a.53.53 0 0 1 0 1.06h-.883V6.47h.883a.53.53 0 0 1 0 1.06h-.883v1.768h.883a.53.53 0 0 1 0 1.06h-.883v.177a1.24 1.24 0 0 1-1.238 1.238h-.177v.883a.53.53 0 0 1-1.06 0v-.883H7.53v.883a.53.53 0 0 1-1.06 0v-.883H4.702v.883a.53.53 0 0 1-1.06 0v-.883h-.177a1.238 1.238 0 0 1-1.237-1.238v-.177h-.884a.53.53 0 0 1 0-1.06h.884V7.53h-.884a.53.53 0 0 1 0-1.06h.884V4.702h-.884a.53.53 0 0 1 0-1.06h.884v-.177c0-.683.554-1.237 1.237-1.237h.177v-.884a.53.53 0 0 1 1.06 0v.884H6.47v-.884a.53.53 0 0 1 1.06 0v.884h1.768v-.884a.53.53 0 0 1 .53-.53ZM3.465 3.288a.177.177 0 0 0-.177.177v7.07c0 .098.08.177.177.177h7.07c.098 0 .177-.08.177-.177v-7.07a.177.177 0 0 0-.177-.177h-7.07Z"/>
</svg>
