<svg width="14" height="14" fill="currentColor">
  <path d="M4.44 1.52a.53.53 0 0 1 .524.53v8.647l.912-.912a.545.545 0 0 1 .757 0 .53.53 0 0 1 0 .75l-1.768 1.768a.526.526 0 0 1-.425.176.53.53 0 0 1-.381-.155L2.29 10.535a.53.53 0 0 1 0-.75.545.545 0 0 1 .757 0l.855.856V2.05a.538.538 0 0 1 .537-.53Zm5.526 6.04a1.59 1.59 0 0 1 1.885 1.764v.956a1.974 1.974 0 0 1-1.945 1.846H9.56a.53.53 0 0 1 0-1.06h.346a.905.905 0 0 0 .728-.396 1.58 1.58 0 0 1-1.25-.23 1.592 1.592 0 0 1 .582-2.88Zm.3 1.03a.531.531 0 1 0 .376.906.528.528 0 0 0 .148-.31v-.065c0-.012.002-.023.003-.035a.529.529 0 0 0-.526-.495Zm-.074-6.697a.84.84 0 0 1 .442.08.912.912 0 0 1 .523.835v3.131a.537.537 0 0 1-.537.53.532.532 0 0 1-.523-.53V3.07l-.269.156a.533.533 0 0 1-.516-.934l.46-.24a.843.843 0 0 1 .42-.158Z"/>
</svg>
