<svg width="14" height="14" fill="currentColor">
  <path d="M5.586 8.59a.531.531 0 0 1 .53.531v2.121a.538.538 0 0 1-.53.53.538.538 0 0 1-.53-.53v-.53H2.05a.53.53 0 1 1 0-1.06h3.005v-.53a.531.531 0 0 1 .53-.531Zm6.363 1.061a.53.53 0 0 1 0 1.06H7a.53.53 0 1 1 0-1.06h4.95Zm-3.535-4.24a.53.53 0 0 1 .53.528v2.122a.538.538 0 0 1-.53.53.537.537 0 0 1-.53-.53v-.53H2.05a.53.53 0 0 1 0-1.061h5.833v-.53a.53.53 0 0 1 .53-.53ZM11.95 6.47a.531.531 0 0 1 0 1.06H9.83a.53.53 0 1 1 0-1.06h2.12ZM5.586 2.229a.53.53 0 0 1 .53.53v2.12a.537.537 0 0 1-.53.53.538.538 0 0 1-.53-.53v-.53H2.05a.532.532 0 0 1-.375-.905.53.53 0 0 1 .375-.155h3.005v-.53a.531.531 0 0 1 .53-.53Zm6.363 1.06a.53.53 0 0 1 0 1.06H7a.531.531 0 0 1 0-1.06h4.95Z"/>
</svg>
