<svg width="14" height="14" fill="currentColor">
  <path d="M3.11 1.52c.29 0 .531.241.531.53v8.619l.863-.862a.534.534 0 0 1 .75 0 .534.534 0 0 1 0 .75l-1.768 1.767a.521.521 0 0 1-.238.135l-.035.01a.545.545 0 0 1-.205 0l-.034-.01a.522.522 0 0 1-.237-.135L.969 10.557a.534.534 0 0 1 0-.75.534.534 0 0 1 .75 0l.862.862V2.05c0-.29.24-.53.53-.53Zm5.304 8.131c.29 0 .53.24.53.53 0 .29-.24.53-.53.53H7c-.29 0-.53-.24-.53-.53 0-.29.24-.53.53-.53h1.414Zm1.414-2.12c.29 0 .53.24.53.53 0 .29-.24.53-.53.53H7c-.29 0-.53-.24-.53-.53 0-.29.24-.53.53-.53h2.828Zm1.414-2.122c.29 0 .53.24.53.53 0 .29-.24.53-.53.53H7c-.29 0-.53-.24-.53-.53 0-.29.24-.53.53-.53h4.242Zm1.414-2.12c.29 0 .53.24.53.53 0 .29-.24.53-.53.53H7c-.29 0-.53-.24-.53-.53 0-.29.24-.53.53-.53h5.656Z"/>
</svg>
