<svg width="14" height="14" fill="currentColor">
  <path d="M10.505.846a2.284 2.284 0 1 1-1.469 3.608l-3.74 1.838c.073.229.111.467.113.707-.002.24-.04.479-.113.707l3.74 1.838a2.293 2.293 0 0 1 1.853-.954v.007a2.298 2.298 0 1 1-2.298 2.298c.001-.121.013-.242.035-.36L4.759 8.59a2.256 2.256 0 0 1-1.648.707 2.299 2.299 0 1 1 .898-4.413c.283.122.538.3.75.524l3.867-1.944a2.08 2.08 0 0 1-.035-.353A2.284 2.284 0 0 1 10.505.846Zm.143 8.828a1.239 1.239 0 0 0-.447 2.242c.204.136.443.21.688.21a1.245 1.245 0 0 0 1.237-1.238 1.239 1.239 0 0 0-1.478-1.214ZM2.87 5.785a1.239 1.239 0 0 0 .241 2.452A1.245 1.245 0 0 0 4.35 6.999a1.238 1.238 0 0 0-1.48-1.214Zm8.019-3.912A1.245 1.245 0 0 0 9.65 3.111a1.238 1.238 0 1 0 1.238-1.238Z"/>
</svg>
