<svg width="15" height="15" fill="currentColor">
  <path d="M7.07 12.019a.53.53 0 0 1 .53.53v1.06a.538.538 0 0 1-.53.53.537.537 0 0 1-.53-.53v-1.06a.53.53 0 0 1 .53-.53ZM3.146 10.56a.53.53 0 0 1 .39.752l-.708.77a.523.523 0 0 1-.395.156.526.526 0 0 1-.53-.53c0-.14.055-.276.155-.375l.77-.729a.53.53 0 0 1 .318-.043Zm7.848 0a.53.53 0 0 1 .319.044l.77.708a.531.531 0 0 1 0 .75.525.525 0 0 1-.375.176.524.524 0 0 1-.375-.156l-.728-.77a.53.53 0 0 1 .39-.752ZM6.277 3.083a4.065 4.065 0 0 1 4.859 3.986 4.074 4.074 0 0 1-4.066 4.066 4.066 4.066 0 0 1-.793-8.052Zm.793.982a3.004 3.004 0 1 0 0 6.009 3.004 3.004 0 0 0 0-6.009ZM1.59 6.54a.531.531 0 0 1 0 1.06H.53a.53.53 0 0 1 0-1.06h1.06Zm12.02 0a.531.531 0 0 1 0 1.06h-1.06a.53.53 0 1 1 0-1.06h1.06ZM2.442 1.897a.548.548 0 0 1 .386.16l.707.771a.53.53 0 0 1-.353.884.524.524 0 0 1-.354-.177l-.77-.707a.546.546 0 0 1 .384-.93Zm9.255 0a.546.546 0 0 1 .386.931l-.77.707a.524.524 0 0 1-.354.177.532.532 0 0 1-.354-.884l.707-.77a.545.545 0 0 1 .385-.16ZM7.07 0a.53.53 0 0 1 .53.53v1.06a.537.537 0 0 1-.53.531.538.538 0 0 1-.53-.53V.53A.531.531 0 0 1 7.07 0Z"/>
</svg>
