<svg width="14" height="14" fill="currentColor">
  <path d="M6.446 1.02c.349-.173.76-.173 1.108 0l4.948 2.475c.42.21.684.638.684 1.107v8.047a.53.53 0 0 1-1.06 0V4.602a.177.177 0 0 0-.098-.158L7.08 1.969a.177.177 0 0 0-.158 0L1.97 4.444a.177.177 0 0 0-.097.158v8.047a.53.53 0 0 1-1.06 0V4.602c0-.469.265-.897.684-1.107l4.948-2.474Zm3.382 4.735c.683 0 1.237.554 1.237 1.237v4.95c0 .683-.554 1.237-1.237 1.237H4.172a1.238 1.238 0 0 1-1.237-1.237v-4.95c0-.683.554-1.237 1.237-1.237h5.656Zm-5.833 6.187c0 .097.08.176.177.176h5.656a.176.176 0 0 0 .177-.176v-.884h-6.01v.884Zm0-1.945h6.01v-1.06h-6.01v1.06Zm.177-3.181a.177.177 0 0 0-.177.176v.884h6.01v-.884a.177.177 0 0 0-.177-.176H4.172Z"/>
</svg>
