<svg width="14" height="14" fill="currentColor">
  <path d="M7.006 10.708a.53.53 0 1 1 0 1.06.53.53 0 0 1 0-1.06Zm.004-2.83c.786 0 1.55.26 2.174.737a.53.53 0 0 1 .106.742.538.538 0 0 1-.743.107 2.537 2.537 0 0 0-3.075 0 .53.53 0 0 1-.742-.106.523.523 0 0 1 .106-.743A3.578 3.578 0 0 1 7.01 7.88Zm.018-2.828a6.15 6.15 0 0 1 4.114 1.579.537.537 0 0 1 .05.749.56.56 0 0 1-.403.177.51.51 0 0 1-.346-.134 5.12 5.12 0 0 0-6.83 0 .531.531 0 0 1-.75-.043.537.537 0 0 1 .05-.75A6.152 6.152 0 0 1 7.027 5.05Zm-.029-2.781a8.74 8.74 0 0 1 6.01 2.394.531.531 0 0 1-.347.919.537.537 0 0 1-.36-.142 7.686 7.686 0 0 0-10.605 0 .531.531 0 0 1-.798.016.531.531 0 0 1 .09-.793A8.74 8.74 0 0 1 7 2.27Z"/>
</svg>
