<svg xmlns="http://www.w3.org/2000/svg" width="161" height="40" fill="none" viewBox="0 0 161 40">
  <path fill="#1E1E1E" d="M144.115 19.293a2.29 2.29 0 1 1 0-4.58 2.29 2.29 0 0 1 0 4.58Zm0-4.343a2.054 2.054 0 0 0-1.912 1.248 2.053 2.053 0 0 0 .429 2.243 2.047 2.047 0 0 0 2.237.456A2.056 2.056 0 0 0 146.141 17a2.054 2.054 0 0 0-2.026-2.05Zm.609 3.255-.626-1.03h-.409v1.03h-.285v-2.474h.811a.743.743 0 0 1 .546.198.738.738 0 0 1 .24.53.71.71 0 0 1-.576.69l.638 1.056h-.339Zm-.551-2.203h-.499v.906h.499a.456.456 0 1 0 0-.903v-.003Zm-32.867-1.232c-.077 0-.102.025-.793.052-.691.028-2.055.055-4.777.055h-3.305c-2.722 0-4.067-.025-4.778-.055-.71-.03-.716-.052-.793-.052-.317 0-.317.212-.317.818v2.43c0 .132 0 .449.265.449.264 0 .341-.107.818-1.083.31-.676.933-1.654 4.523-1.686.371.012.529.097.529.683v12.274c0 1.03 0 1.746-1.323 1.821-.553.052-.92.08-.92.449 0 .37.342.394.554.394.499 0 2.639-.105 3.088-.105.873 0 2.245.105 3.116.105.212 0 .554 0 .554-.394s-.37-.424-.926-.449c-1.32-.08-1.32-.793-1.32-1.873V16.566c0-.686.085-.83.856-.863 3.288.09 3.884 1.025 4.184 1.681.476.976.528 1.083.818 1.083.289 0 .264-.317.264-.449v-2.432c0-.604 0-.816-.317-.816ZM82.771 27.123c-.25 0-.29.105-.766 1.028-1.16 2.245-2.797 2.245-3.96 2.245-2.217 0-2.77-.29-2.77-2.165v-4.538c0-.79.209-.79 1.476-.79 2.165 0 2.906.024 3.46 2.06.132.499.29.634.5.634.316 0 .316-.37.316-.53 0-.211-.08-1.134-.08-1.319 0-.581.185-3.3.185-3.667 0-.29-.133-.372-.29-.372-.157 0-.264.055-.396.397-.477 1.4-.711 1.978-3.642 1.978-1.53 0-1.53-.212-1.53-1.055v-3.832c0-1.32.105-1.496 1.425-1.496 3.742 0 4.38.997 4.7 1.688.476.976.528 1.083.818 1.083.29 0 .264-.317.264-.449v-2.437c0-.606 0-.819-.316-.819-.08 0-.105.026-.791.053s-2.06.055-4.777.055h-1.26c-2.245 0-3.38-.025-3.96-.055a5.968 5.968 0 0 1-.66-.053c-.185 0-.53 0-.53.372s.373.422.951.447c1.32.08 1.32.79 1.32 1.873v11.144c0 1.082 0 1.796-1.32 1.873-.553.052-.95.08-.95.449 0 .37.344.394.554.394.21 0 .396-.027.82-.052a36.233 36.233 0 0 1 2.166-.053h.314c.16 0 1.4.025 2.906.053 1.507.027 3.378.052 4.723.052.768 0 1.03-.29 1.055-.793.08-.976.371-2.667.371-3.009-.01-.154-.087-.394-.326-.394Zm43.084 0c-.25 0-.29.105-.766 1.028-1.16 2.245-2.796 2.245-3.959 2.245-2.218 0-2.771-.29-2.771-2.165v-4.538c0-.79.209-.79 1.476-.79 2.166 0 2.907.024 3.46 2.06.133.499.29.634.499.634.317 0 .317-.37.317-.53 0-.211-.08-1.134-.08-1.319 0-.581.185-3.3.185-3.667 0-.29-.132-.372-.289-.372-.158 0-.265.055-.397.397-.477 1.4-.711 1.978-3.642 1.978-1.529 0-1.529-.212-1.529-1.055v-3.832c0-1.32.104-1.496 1.424-1.496 3.742 0 4.381.997 4.7 1.688.476.976.529 1.083.818 1.083.289 0 .264-.317.264-.449v-2.437c0-.606 0-.819-.316-.819-.08 0-.105.026-.791.053s-2.061.055-4.777.055h-1.265c-2.245 0-3.38-.025-3.959-.055a5.967 5.967 0 0 1-.661-.053c-.185 0-.529 0-.529.372s.372.422.951.447c1.319.08 1.319.79 1.319 1.873v11.144c0 1.082 0 1.796-1.319 1.873-.554.052-.951.08-.951.449 0 .37.344.394.554.394.209 0 .397-.027.821-.052a36.212 36.212 0 0 1 2.165-.053h.314c.16 0 1.4.025 2.906.053 1.507.027 3.378.052 4.723.052.768 0 1.03-.29 1.055-.793.08-.976.372-2.667.372-3.009-.005-.154-.085-.394-.322-.394ZM91.093 21.15c-2.156-.888-3.717-1.562-3.717-3.475 0-1.048.848-2.572 2.936-2.552 2.245.02 2.719 1.497 3.043 2.552.27.835.38.998.646.998.38 0 .38-.217.38-.809 0-2.37 0-2.611-.325-2.801-.376-.19-1.963-.619-3.527-.619-3.42 0-5.306 2.153-5.306 4.63 0 2.857 2.128 3.904 4.308 4.875 1.938.888 3.767 1.91 3.767 4.011 0 2.18-2.123 2.919-3.243 2.919-1.911 0-3.757-1.617-4.273-3.962-.053-.25-.09-.519-.33-.519-.324 0-.341.377-.341.484-.002.827.045 1.654.142 2.475.072.671.18 1.212.476 1.43.484.349 1.814.862 3.914.862 3.582 0 5.79-2.494 5.79-5.488-.005-3.048-2.831-4.368-4.34-5.011Zm-63.458-6.706c-5.184 0-9.075 3.715-9.075 8.562 0 5.141 4.328 8.643 8.995 8.643 4.538 0 8.966-3.662 8.966-8.885 0-4.633-3.894-8.32-8.886-8.32Zm.132 16.465c-3.555 0-6.089-4.127-6.089-8.465 0-3.804 2.377-7.261 5.643-7.261 4.186 0 6.07 4.49 6.07 7.688 0 3.887-1.94 8.038-5.624 8.038ZM16.871 8.35c-.366.054-.735.08-1.105.078-.998.037-2.994.075-6.953.075h-.83c-3.78 0-5.162-.04-6.15-.075a9.705 9.705 0 0 1-1.07-.078c-.264 0-.763 0-.763.534s.574.574 1.372.649c1.908.115 1.908 1.145 1.908 2.709v15.796c0 1.267 0 2.145-1.626 2.245-.684.065-1.135.097-1.135.554 0 .456.419.486.68.486.62 0 3.311-.13 3.863-.13 1.075 0 2.818.13 3.889.13.25 0 .68 0 .68-.486 0-.487-.453-.534-1.137-.557-1.624-.097-1.624-.975-1.624-2.307v-5.857c0-1.083 0-1.512.621-1.682.407-.11 2.166-.11 3.286-.11.953 0 3.395 0 3.929 2.059.077.192.329 1.18.419 1.449.065.192.212.629.608.609.457-.023.46-.457.46-.724l-.153-1.794c-.075-.878-.075-1.524-.075-1.868 0-.571.113-3.166.113-3.697 0-.382-.115-.629-.457-.651-.342-.022-.534.307-.609.611-.486 1.98-1.042 2.824-4.12 2.824-.572 0-2.837 0-3.41-.077-.5-.078-.61-.115-.61-2.173v-5.338c0-1.792.652-1.869 1.946-1.869 5.935 0 6.431.813 7.569 3.355.142.317.292.764.711.764s.419-.61.419-.726V9.037c0-.496-.037-.686-.646-.686ZM51.93 30.528c-.748-.11-1.108-.765-1.634-1.688l-2.56-4.54c-.608-1.108-.925-1.265-1.27-1.477.899-.185 3.618-.819 3.618-3.907 0-.925-.397-4.146-5.067-4.146-.793 0-4.303.107-5.016.107-.317 0-1.61-.107-1.874-.107-.87 0-.977 0-.977.372 0 .371.371.394.95.421 1.292.08 1.292.794 1.292 1.874v11.19c0 1.108 0 1.797-1.292 1.901-.554.025-.95.053-.95.425 0 .371.344.369.553.369.477 0 2.615-.105 3.064-.105.104 0 2.666.105 3.168.105.21 0 .554.025.554-.342 0-.367-.372-.424-.95-.45-1.32-.079-1.32-.792-1.32-1.9v-4.74c0-.449.054-.606.498-.606 1.19 0 1.32.105 1.901 1.247l3.198 5.997c.29.554.395.794.871.794h3.477c.185 0 .447-.045.447-.317s-.127-.394-.681-.477Zm-8.392-7.945c-1.32 0-1.32-.052-1.32-.978v-4.433c0-1.03.025-1.664 1.248-1.664 3.273 0 3.642 2.824 3.642 3.775-.005 3.3-2.62 3.3-3.57 3.3Zm24.951 7.945c-.748-.11-1.108-.765-1.634-1.688l-2.56-4.54c-.608-1.108-.925-1.265-1.269-1.477.898-.185 3.617-.819 3.617-3.907 0-.925-.397-4.146-5.066-4.146-.794 0-4.304.107-5.017.107-.317 0-1.61-.107-1.873-.107-.871 0-.978 0-.978.372 0 .371.371.394.95.421 1.292.08 1.292.794 1.292 1.874v11.19c0 1.108 0 1.797-1.292 1.901-.554.025-.95.053-.95.425 0 .371.344.369.553.369.477 0 2.615-.105 3.064-.105.105 0 2.666.105 3.168.105.21 0 .554.025.554-.342 0-.367-.372-.424-.95-.45-1.32-.079-1.32-.792-1.32-1.9v-4.74c0-.449.055-.606.499-.606 1.19 0 1.32.105 1.9 1.247l3.196 5.997c.29.554.394.794.87.794h3.478c.185 0 .447-.045.447-.317s-.125-.394-.679-.477Zm-8.392-7.945c-1.32 0-1.32-.052-1.32-.978v-4.433c0-1.03.026-1.664 1.248-1.664 3.273 0 3.642 2.824 3.642 3.775-.007 3.3-2.62 3.3-3.57 3.3Zm82.344 7.945c-.748-.11-1.107-.765-1.634-1.688l-2.559-4.54c-.609-1.108-.926-1.265-1.27-1.477.898-.185 3.617-.819 3.617-3.907 0-.925-.396-4.146-5.066-4.146-.793 0-4.303.107-5.017.107-.317 0-1.609-.107-1.873-.107-.871 0-.978 0-.978.372 0 .371.372.394.95.421 1.293.08 1.293.794 1.293 1.874v11.19c0 1.108 0 1.797-1.293 1.901-.553.025-.95.053-.95.425 0 .371.344.369.554.369.476 0 2.614-.105 3.063-.105.105 0 2.667.105 3.168.105.21 0 .554.025.554-.342 0-.367-.372-.424-.95-.45-1.338-.081-1.338-.795-1.338-1.902v-4.74c0-.45.055-.606.499-.606 1.19 0 1.32.104 1.901 1.247l3.208 6c.29.553.394.793.871.793h3.477c.185 0 .447-.045.447-.317s-.125-.394-.674-.477Zm-8.396-7.945c-1.32 0-1.32-.052-1.32-.978v-4.433c0-1.03.025-1.664 1.247-1.664 3.273 0 3.642 2.824 3.642 3.775-.007 3.3-2.619 3.3-3.569 3.3Z"/>
</svg>
