<svg xmlns="http://www.w3.org/2000/svg" width="161" height="40" fill="none" viewBox="0 0 161 40">
  <path fill="#1E1E1E" fill-rule="evenodd" d="M1.789 8.348c0-.934-.7-1.165-1.632-1.165v-.467h8.856v2.332H8.55c-.233-1.4-.7-1.632-2.565-1.632h-2.33v4.194h2.096c.935 0 1.4 0 1.4-1.396h.699v3.494h-.7c0-1.399-.233-1.399-1.399-1.399H3.655v3.264c0 1.165.467 1.4 1.4 1.4h.466v.465H.159v-.466c.935 0 1.632-.233 1.632-.934v-7.69H1.79Zm21.908 3.262V7.414c.233 0 .93-.233 1.163-.233 1.632 0 2.564.7 2.564 2.098 0 1.63-.934 2.329-2.797 2.329h-.93Zm-1.865 4.428c0 .7-.467.935-1.632.935v.466h5.127v-.466c-.935 0-1.63-.233-1.63-.934v-3.73h1.63c1.165 1.865 2.331 4.196 3.263 5.128h2.798v-.466c-1.4-.466-2.098-.934-4.43-5.128 1.632-.466 2.332-1.163 2.332-2.562 0-1.632-1.399-2.565-3.264-2.565h-5.825v.467c1.165 0 1.632.233 1.632 1.165v7.69h-.001Zm22.84-4.195c0-2.329.934-4.66 3.73-4.66 2.095 0 3.96 2.098 3.96 5.127 0 2.33-.934 4.661-3.728 4.661-2.331 0-3.963-2.097-3.963-5.128Zm-2.332.233c0 3.264 2.565 5.594 6.061 5.594a5.934 5.934 0 0 0 6.06-5.594c0-3.261-2.332-5.593-5.826-5.593-3.264 0-6.295 2.098-6.295 5.593Zm24.239 2.797h.7c.232 1.399.934 2.331 2.562 2.331 1.865 0 2.098-1.165 2.098-1.864 0-.935-.467-1.4-1.865-2.332-2.563-1.165-3.029-2.097-3.029-3.727a2.89 2.89 0 0 1 3.029-2.798c.934 0 1.865.233 2.797.233v2.098h-.467c-.233-.934-.7-1.865-2.097-1.865a1.839 1.839 0 0 0-1.865 1.865c0 .934.233 1.399 2.331 2.563 2.331.934 2.797 1.864 2.797 3.263 0 1.865-1.631 3.03-3.73 3.03a8.68 8.68 0 0 1-2.795-.466l-.466-2.33ZM87.32 7.416c-1.397 0-1.63.233-1.863 1.632h-.7l.467-2.798h.466c0 .467.467.467.93.467h6.994a1.283 1.283 0 0 0 1.165-.467h.467l-.233 2.798h-.7c0-1.4-.232-1.632-1.165-1.632h-2.331v8.623c0 .7.7.934 1.865.934v.467H87.32v-.467c1.166 0 1.632-.233 1.632-.934V7.416H87.32Zm36.357-.469c.466 0 .934.233.934.466v.467l-2.096 2.098c-.701.699-1.165 1.396-1.865 2.095a.856.856 0 0 1-.232-.699c0-2.096 1.396-4.427 3.261-4.427h-.002Zm6.527 3.73c0-1.166-1.399-.234-1.399-1.632a1.35 1.35 0 0 1 .392-1.007 1.35 1.35 0 0 1 1.007-.392c.697 0 1.864.466 2.096.934-.232 1.865-.464 3.728-1.863 5.127a6.954 6.954 0 0 1-5.362 2.564 4.605 4.605 0 0 1-3.264-1.4 3.503 3.503 0 0 1-.697-1.631 2.117 2.117 0 0 1 .697-1.632l1.168-1.396.931-.935 4.429-4.196c.699-.7 2.098-2.097 2.098-2.797a1.067 1.067 0 0 0-.935-1.163c-.466 0-.699.466-.699.93v.935c0 .934-1.865 2.564-2.331 3.263a2.02 2.02 0 0 0-1.399-.7c-3.029 0-5.826 3.73-5.826 6.526 0 3.496 2.332 5.828 5.593 5.828 3.963 0 5.828-2.565 6.76-4.196a9.204 9.204 0 0 0 1.164-4.66c.466.466 1.165 1.165 1.864 1.165 1.399 0 3.03-1.4 3.03-2.797 0-.467-.232-1.166-.934-1.166a1.05 1.05 0 0 0-.699.7c0 .7.699.934.699 1.399a1.001 1.001 0 0 1-.934.934c-1.399 0-1.865-2.797-4.194-2.797-1.632 0-3.963 1.631-3.963 3.496a1.546 1.546 0 0 0 1.398 1.63c.467 0 1.166-.233 1.166-.93l.007-.005ZM0 36.082h.467c.466 1.398 1.165 2.33 2.797 2.33a1.89 1.89 0 0 0 2.097-1.864c0-.934-.699-1.399-2.097-2.331C.932 33.05.234 32.119.234 30.489c0-1.399 1.398-2.797 3.263-2.797.7 0 1.865.233 2.565.233l.232 2.098h-.466a2.133 2.133 0 0 0-2.331-1.865 2.006 2.006 0 0 0-1.865 1.864c0 .935.466 1.4 2.564 2.563 2.329.934 2.795 1.865 2.795 3.264 0 1.864-1.63 3.03-3.96 3.03a11.701 11.701 0 0 1-2.797-.466L0 36.082Zm19.578-6.758c0-.934-.934-.934-1.632-.934v-.467h4.895v.467c-.699 0-1.398 0-1.398.934v5.826c0 2.098 1.165 2.797 3.03 2.797 3.028 0 3.028-2.331 3.028-4.43v-2.561c0-2.332-.233-2.565-1.865-2.565v-.466h4.196v.466c-.934 0-1.399.233-1.399 1.632v4.427c0 2.565-1.165 4.43-4.427 4.43-2.797 0-4.429-.935-4.429-3.497v-6.06Zm22.84.233c0-.935-.466-1.166-1.632-1.166v-.466h5.127v.466c-.934 0-1.632.233-1.632 1.166v7.225c0 .934.467 1.165 2.098 1.165 1.865 0 2.331-.233 3.264-2.098h.466l-.467 2.798h-8.856v-.466c1.166 0 1.632-.233 1.632-.935v-7.69Zm20.042 0c0-.935-.7-1.166-1.63-1.166v-.466h5.127v.466c-.935 0-1.632.233-1.632 1.166v7.225c0 .934.233 1.165 2.098 1.165 1.864 0 2.33-.233 3.263-2.098h.467l-.7 2.798H60.83v-.466c.93 0 1.63-.233 1.63-.935v-7.69Zm19.577 0c0-.935-.467-1.166-1.632-1.166v-.466h5.128v.466c-.934 0-1.632.233-1.632 1.166v7.69c0 .7.7.934 1.632.934v.466h-5.128v-.466c1.165 0 1.632-.233 1.632-.934v-7.69Zm15.383 0c-.235-.935-.468-1.166-1.399-1.166v-.466h4.66v.466h-.466a.62.62 0 0 0-.7.7v.466l3.029 6.991 2.565-6.525c0-.233.231-.7.231-.934 0-.7-.698-.7-1.63-.7v-.466h3.96v.467c-.699 0-.934 0-1.631 1.398l-3.728 9.09h-.934l-3.961-9.323.004.002Zm26.8 4.427h-3.262l1.632-4.427 1.63 4.427Zm-.233 4.662h4.896v-.467c-1.166 0-1.399-.466-1.865-1.399l-3.264-9.322-1.63.7v.233a.856.856 0 0 1-.233.7l-3.03 8.158a1.68 1.68 0 0 1-1.632.935v.466h3.963v-.466h-.233c-.466 0-1.165-.233-1.165-.7.011-.502.174-.99.467-1.399l.466-1.399h3.728l.699 2.098c.233.467.233.467.233.7 0 .466-.699.699-1.165.699h-.233v.467l-.002-.004Zm16.547-9.089c0-.935-1.397-1.166-1.63-1.166v-.466h2.797l6.758 7.924v-5.826c0-1.399-.466-1.632-1.632-1.632v-.466h3.964v.466c-.935 0-1.399.233-1.399 1.166v9.322h-.467l-7.457-8.623v5.825c0 1.632.233 2.098 1.863 2.098v.466h-4.66v-.466c1.863 0 1.863-.935 1.863-2.565v-6.059.002Z" clip-rule="evenodd"/>
</svg>
