<svg xmlns="http://www.w3.org/2000/svg" width="161" height="40" fill="none" viewBox="0 0 161 40">
  <path fill="#1E1E1E" d="M80.564 20c0-6.82 5.143-11.594 12-11.594 6.856 0 11.962 4.737 11.962 11.594 0 6.857-5.112 11.594-11.962 11.594-6.851 0-12-4.78-12-11.594Zm18.077 0c0-3.665-2.387-6.489-6.084-6.489-3.696 0-6.115 2.824-6.115 6.489s2.388 6.489 6.115 6.489c3.728 0 6.09-2.867 6.09-6.489h-.006Zm23.725-10.902-4.569 11.806-4.538-11.806h-8.316v.623a16.203 16.203 0 0 1 0 20.496v.623h6.14V16.696l5.479 14.156h2.494l5.516-14.156v14.156h6.134V9.098h-8.34ZM25.691 30.852V9.098h5.61v21.76l-5.61-.006Zm48.316 0-1.079-3.116h-8.577l-1.078 3.116h-6.359l8.191-21.76h7.05l8.21 21.76h-6.358ZM68.62 14.646l-2.774 8.19h5.548l-2.774-8.19ZM22.793 18.33h-11.22v4.55h5.142a5.324 5.324 0 0 1-5.055 3.297 6.004 6.004 0 0 1-6.04-6.102c0-3.516 2.493-6.165 5.815-6.165a5.703 5.703 0 0 1 4.738 2.387l.112.144 4.22-3.26-.118-.15A11.638 11.638 0 0 0 11.26 8.78 11.027 11.027 0 0 0 .003 20.069c0 6.383 4.868 11.22 11.32 11.22a11.725 11.725 0 0 0 7.91-3.048c2.425-2.194 3.603-4.987 3.603-8.559 0-.193 0-.71-.03-1.134l-.013-.218Zm34.159 0h-11.22v4.55h5.142a5.33 5.33 0 0 1-5.055 3.297 6.003 6.003 0 0 1-6.034-6.102c0-3.516 2.493-6.165 5.816-6.165a5.703 5.703 0 0 1 4.737 2.387l.112.144 4.22-3.26-.118-.15A11.639 11.639 0 0 0 45.42 8.78a11.027 11.027 0 0 0-11.258 11.289c0 6.383 4.869 11.22 11.32 11.22a11.725 11.725 0 0 0 7.91-3.048c2.425-2.194 3.603-4.987 3.603-8.559 0-.193 0-.71-.03-1.134l-.013-.218Z"/>
</svg>
